<svg width="243" height="366" viewBox="0 0 243 366" fill="none" xmlns="http://www.w3.org/2000/svg">
<path d="M242.626 183L236.853 177.226L231.079 183L236.853 188.773L242.626 183ZM0 183L7.17201e-08 184L2.96066 184L2.96066 183L2.96066 182L-7.17201e-08 182L0 183ZM8.88197 183L8.88197 184L14.8033 184L14.8033 183L14.8033 182L8.88197 182L8.88197 183ZM20.7246 183L20.7246 184L26.6459 184L26.6459 183L26.6459 182L20.7246 182L20.7246 183ZM32.5672 183L32.5672 184L38.4885 184L38.4885 183L38.4885 182L32.5672 182L32.5672 183ZM44.4099 183L44.4099 184L50.3312 184L50.3312 183L50.3312 182L44.4099 182L44.4099 183ZM56.2525 183L56.2525 184L62.1738 184L62.1738 183L62.1738 182L56.2525 182L56.2525 183ZM68.0951 183L68.0951 184L74.0164 184L74.0164 183L74.0164 182L68.0951 182L68.0951 183ZM79.9377 183L79.9377 184L85.859 184L85.859 183L85.859 182L79.9377 182L79.9377 183ZM91.7803 183L91.7803 184L97.7017 184L97.7017 183L97.7017 182L91.7803 182L91.7803 183ZM103.623 183L103.623 184L109.544 184L109.544 183L109.544 182L103.623 182L103.623 183ZM115.466 183L115.466 184L121.387 184L121.387 183L121.387 182L115.466 182L115.466 183ZM127.308 183L127.308 184L133.23 184L133.23 183L133.23 182L127.308 182L127.308 183ZM139.151 183L139.151 184L145.072 184L145.072 183L145.072 182L139.151 182L139.151 183ZM150.993 183L150.993 184L156.915 184L156.915 183L156.915 182L150.993 182L150.993 183ZM162.836 183L162.836 184L168.757 184L168.757 183L168.757 182L162.836 182L162.836 183ZM174.679 183L174.679 184L180.6 184L180.6 183L180.6 182L174.679 182L174.679 183ZM186.521 183L186.521 184L192.443 184L192.443 183L192.443 182L186.521 182L186.521 183ZM198.364 183L198.364 184L204.285 184L204.285 183L204.285 182L198.364 182L198.364 183ZM210.207 183L210.207 184L216.128 184L216.128 183L216.128 182L210.207 182L210.207 183ZM222.049 183L222.049 184L227.971 184L227.971 183L227.971 182L222.049 182L222.049 183ZM233.892 183L233.892 184L236.853 184L236.853 183L236.853 182L233.892 182L233.892 183Z" fill="url(#paint0_linear_3630_10734)"/>
<path d="M242.626 149.829L236.853 144.056L231.079 149.829L236.853 155.603L242.626 149.829ZM62.2158 4.77349L62.9983 4.15084L62.2158 4.77349ZM174.637 146.056L173.854 146.678L174.637 146.056ZM0 1L7.17201e-08 2L2.71954 2L2.71954 1L2.71954 -2.89803e-07L-7.17201e-08 0L0 1ZM8.15862 0.999999L8.15862 2L13.5977 2L13.5977 0.999999L13.5977 -1.44902e-06L8.15862 -8.6941e-07L8.15862 0.999999ZM19.0368 0.999998L19.0368 2L24.4758 2L24.4758 0.999997L24.4758 -2.60823e-06L19.0368 -2.02862e-06L19.0368 0.999998ZM29.9149 0.999997L29.9149 2L35.354 2L35.354 0.999996L35.354 -3.76745e-06L29.9149 -3.18784e-06L29.9149 0.999997ZM40.7931 0.999996L40.7931 2L46.2322 2L46.2322 0.999995L46.2322 -4.92666e-06L40.7931 -4.34705e-06L40.7931 0.999996ZM51.6712 0.999994L51.6712 1.99999L54.3908 1.99999L54.3908 0.999994L54.3908 -5.79607e-06L51.6712 -5.50627e-06L51.6712 0.999994ZM54.3908 0.999994L54.3908 1.99999C55.0722 1.99999 55.7443 2.07718 56.3958 2.22609L56.6186 1.25123L56.8414 0.276364C56.0449 0.094323 55.2234 -5.8848e-06 54.3908 -5.79607e-06L54.3908 0.999994ZM60.632 3.18662L60.0079 3.96797C60.5301 4.38506 61.009 4.86289 61.4333 5.39614L62.2158 4.77349L62.9983 4.15084C62.4798 3.49929 61.8945 2.91518 61.2561 2.40528L60.632 3.18662ZM62.2158 4.77349L61.4333 5.39614L63.307 7.75085L64.0895 7.1282L64.872 6.50555L62.9983 4.15084L62.2158 4.77349ZM67.8368 11.8376L67.0543 12.4603L70.8017 17.1697L71.5842 16.547L72.3667 15.9244L68.6193 11.215L67.8368 11.8376ZM75.3316 21.2564L74.5491 21.8791L78.2964 26.5885L79.0789 25.9658L79.8614 25.3432L76.1141 20.6338L75.3316 21.2564ZM82.8263 30.6752L82.0438 31.2979L85.7912 36.0073L86.5737 35.3847L87.3562 34.762L83.6088 30.0526L82.8263 30.6752ZM90.321 40.0941L89.5385 40.7167L93.2859 45.4261L94.0684 44.8035L94.8509 44.1808L91.1035 39.4714L90.321 40.0941ZM97.8158 49.5129L97.0333 50.1355L100.781 54.8449L101.563 54.2223L102.346 53.5996L98.5983 48.8902L97.8158 49.5129ZM105.31 58.9317L104.528 59.5544L108.275 64.2638L109.058 63.6411L109.84 63.0185L106.093 58.3091L105.31 58.9317ZM112.805 68.3505L112.023 68.9732L115.77 73.6826L116.553 73.0599L117.335 72.4373L113.588 67.7279L112.805 68.3505ZM120.3 77.7693L119.517 78.392L123.265 83.1014L124.047 82.4787L124.83 81.8561L121.082 77.1467L120.3 77.7693ZM127.795 87.1881L127.012 87.8108L130.76 92.5202L131.542 91.8976L132.325 91.2749L128.577 86.5655L127.795 87.1881ZM135.289 96.607L134.507 97.2296L138.254 101.939L139.037 101.316L139.819 100.694L136.072 95.9843L135.289 96.607ZM142.784 106.026L142.002 106.648L145.749 111.358L146.532 110.735L147.314 110.113L143.567 105.403L142.784 106.026ZM150.279 115.445L149.496 116.067L153.244 120.777L154.026 120.154L154.809 119.531L151.061 114.822L150.279 115.445ZM157.774 124.863L156.991 125.486L160.738 130.196L161.521 129.573L162.303 128.95L158.556 124.241L157.774 124.863ZM165.268 134.282L164.486 134.905L168.233 139.614L169.016 138.992L169.798 138.369L166.051 133.66L165.268 134.282ZM172.763 143.701L171.981 144.324L173.854 146.678L174.637 146.056L175.419 145.433L173.546 143.078L172.763 143.701ZM174.637 146.056L173.854 146.678C174.373 147.33 174.958 147.914 175.596 148.424L176.221 147.643L176.845 146.861C176.322 146.444 175.844 145.966 175.419 145.433L174.637 146.056ZM180.234 149.578L180.011 150.553C180.808 150.735 181.629 150.829 182.462 150.829L182.462 149.829L182.462 148.829C181.78 148.829 181.108 148.752 180.457 148.603L180.234 149.578ZM182.462 149.829L182.462 150.829L185.181 150.829L185.181 149.829L185.181 148.829L182.462 148.829L182.462 149.829ZM190.62 149.829L190.62 150.829L196.059 150.829L196.059 149.829L196.059 148.829L190.62 148.829L190.62 149.829ZM201.499 149.829L201.499 150.829L206.938 150.829L206.938 149.829L206.938 148.829L201.499 148.829L201.499 149.829ZM212.377 149.829L212.377 150.829L217.816 150.829L217.816 149.829L217.816 148.829L212.377 148.829L212.377 149.829ZM223.255 149.829L223.255 150.829L228.694 150.829L228.694 149.829L228.694 148.829L223.255 148.829L223.255 149.829ZM234.133 149.829L234.133 150.829L236.853 150.829L236.853 149.829L236.853 148.829L234.133 148.829L234.133 149.829Z" fill="url(#paint1_linear_3630_10734)"/>
<path d="M242.626 216.171L236.853 221.944L231.079 216.171L236.853 210.397L242.626 216.171ZM62.2158 361.227L62.9983 361.849L62.2158 361.227ZM174.637 219.944L173.854 219.322L174.637 219.944ZM0 365L7.17201e-08 364L2.71954 364L2.71954 365L2.71954 366L-7.17201e-08 366L0 365ZM8.15862 365L8.15862 364L13.5977 364L13.5977 365L13.5977 366L8.15862 366L8.15862 365ZM19.0368 365L19.0368 364L24.4758 364L24.4758 365L24.4758 366L19.0368 366L19.0368 365ZM29.9149 365L29.9149 364L35.354 364L35.354 365L35.354 366L29.9149 366L29.9149 365ZM40.7931 365L40.7931 364L46.2322 364L46.2322 365L46.2322 366L40.7931 366L40.7931 365ZM51.6712 365L51.6712 364L54.3908 364L54.3908 365L54.3908 366L51.6712 366L51.6712 365ZM54.3908 365L54.3908 364C55.0722 364 55.7443 363.923 56.3958 363.774L56.6186 364.749L56.8414 365.724C56.0449 365.906 55.2234 366 54.3908 366L54.3908 365ZM60.632 362.813L60.0079 362.032C60.5301 361.615 61.009 361.137 61.4333 360.604L62.2158 361.227L62.9983 361.849C62.4798 362.501 61.8945 363.085 61.2561 363.595L60.632 362.813ZM62.2158 361.227L61.4333 360.604L63.307 358.249L64.0895 358.872L64.872 359.494L62.9983 361.849L62.2158 361.227ZM67.8368 354.162L67.0543 353.54L70.8017 348.83L71.5842 349.453L72.3667 350.076L68.6193 354.785L67.8368 354.162ZM75.3316 344.744L74.5491 344.121L78.2964 339.412L79.0789 340.034L79.8614 340.657L76.1141 345.366L75.3316 344.744ZM82.8263 335.325L82.0438 334.702L85.7912 329.993L86.5737 330.615L87.3562 331.238L83.6088 335.947L82.8263 335.325ZM90.321 325.906L89.5385 325.283L93.2859 320.574L94.0684 321.197L94.8509 321.819L91.1035 326.529L90.321 325.906ZM97.8158 316.487L97.0333 315.864L100.781 311.155L101.563 311.778L102.346 312.4L98.5983 317.11L97.8158 316.487ZM105.31 307.068L104.528 306.446L108.275 301.736L109.058 302.359L109.84 302.982L106.093 307.691L105.31 307.068ZM112.805 297.649L112.023 297.027L115.77 292.317L116.553 292.94L117.335 293.563L113.588 298.272L112.805 297.649ZM120.3 288.231L119.517 287.608L123.265 282.899L124.047 283.521L124.83 284.144L121.082 288.853L120.3 288.231ZM127.795 278.812L127.012 278.189L130.76 273.48L131.542 274.102L132.325 274.725L128.577 279.435L127.795 278.812ZM135.289 269.393L134.507 268.77L138.254 264.061L139.037 264.684L139.819 265.306L136.072 270.016L135.289 269.393ZM142.784 259.974L142.002 259.352L145.749 254.642L146.532 255.265L147.314 255.887L143.567 260.597L142.784 259.974ZM150.279 250.555L149.496 249.933L153.244 245.223L154.026 245.846L154.809 246.469L151.061 251.178L150.279 250.555ZM157.774 241.137L156.991 240.514L160.738 235.804L161.521 236.427L162.303 237.05L158.556 241.759L157.774 241.137ZM165.268 231.718L164.486 231.095L168.233 226.386L169.016 227.008L169.798 227.631L166.051 232.34L165.268 231.718ZM172.763 222.299L171.981 221.676L173.854 219.322L174.637 219.944L175.419 220.567L173.546 222.922L172.763 222.299ZM174.637 219.944L173.854 219.322C174.373 218.67 174.958 218.086 175.596 217.576L176.221 218.357L176.845 219.139C176.322 219.556 175.844 220.034 175.419 220.567L174.637 219.944ZM180.234 216.422L180.011 215.447C180.808 215.265 181.629 215.171 182.462 215.171L182.462 216.171L182.462 217.171C181.78 217.171 181.108 217.248 180.457 217.397L180.234 216.422ZM182.462 216.171L182.462 215.171L185.181 215.171L185.181 216.171L185.181 217.171L182.462 217.171L182.462 216.171ZM190.62 216.171L190.62 215.171L196.059 215.171L196.059 216.171L196.059 217.171L190.62 217.171L190.62 216.171ZM201.499 216.171L201.499 215.171L206.938 215.171L206.938 216.171L206.938 217.171L201.499 217.171L201.499 216.171ZM212.377 216.171L212.377 215.171L217.816 215.171L217.816 216.171L217.816 217.171L212.377 217.171L212.377 216.171ZM223.255 216.171L223.255 215.171L228.694 215.171L228.694 216.171L228.694 217.171L223.255 217.171L223.255 216.171ZM234.133 216.171L234.133 215.171L236.853 215.171L236.853 216.171L236.853 217.171L234.133 217.171L234.133 216.171Z" fill="url(#paint2_linear_3630_10734)"/>
<defs>
<linearGradient id="paint0_linear_3630_10734" x1="73.8233" y1="183.87" x2="75.8837" y2="204.419" gradientUnits="userSpaceOnUse">
<stop stop-color="#626271"/>
<stop offset="1" stop-color="#A4BD0D"/>
</linearGradient>
<linearGradient id="paint1_linear_3630_10734" x1="73.8233" y1="130.49" x2="279.898" y2="144.299" gradientUnits="userSpaceOnUse">
<stop stop-color="#626271"/>
<stop offset="1" stop-color="#A4BD0D"/>
</linearGradient>
<linearGradient id="paint2_linear_3630_10734" x1="73.8233" y1="235.51" x2="279.898" y2="221.701" gradientUnits="userSpaceOnUse">
<stop stop-color="#626271"/>
<stop offset="1" stop-color="#A4BD0D"/>
</linearGradient>
</defs>
</svg>
