<?xml version="1.0" encoding="UTF-8"?>
<svg xmlns="http://www.w3.org/2000/svg" xmlns:xlink="http://www.w3.org/1999/xlink" viewBox="0 0 90.08 90.08">
  <defs>
    <style>
      .uuid-f3883c78-4401-43ab-951c-70bf2577baf1 {
        fill: url(#uuid-47e1e33e-f05a-4d0f-a955-0360d6589a6b);
      }

      .uuid-f3883c78-4401-43ab-951c-70bf2577baf1, .uuid-22d9835c-5397-41fd-83a2-ae4c77270f06, .uuid-e478bd2a-b533-413d-86fd-7f40c0445d21, .uuid-a89b7ada-b23b-41f7-8100-e0d28a366512, .uuid-a79c2002-f44f-4013-89d4-144f67879b02, .uuid-d93cea44-ef64-4d50-9d82-8118554580c0, .uuid-2534e165-7ed7-4e05-b978-593cf7786212, .uuid-93e6b006-a7c4-4e06-8f6b-3670847ae7fa, .uuid-2d8d7650-b518-448c-b4f7-3a593ae434b1, .uuid-970939b3-a0cf-4252-a637-f4748ea97b47, .uuid-0928f588-2f70-4937-bb0a-2403cd96e623 {
        stroke-width: 0px;
      }

      .uuid-22d9835c-5397-41fd-83a2-ae4c77270f06 {
        fill: url(#uuid-13f83a4b-1089-41f1-ab1a-dae56539f0db);
      }

      .uuid-e478bd2a-b533-413d-86fd-7f40c0445d21 {
        fill: url(#uuid-abffbe87-359d-4a86-a02c-3bef4f845b98);
      }

      .uuid-a89b7ada-b23b-41f7-8100-e0d28a366512 {
        fill: url(#uuid-500b97c6-fd72-4ce5-a9d5-54675ad3eaab);
      }

      .uuid-a79c2002-f44f-4013-89d4-144f67879b02 {
        fill: url(#uuid-4e371759-0829-4725-9ab6-99ee9d61aec8);
      }

      .uuid-d93cea44-ef64-4d50-9d82-8118554580c0 {
        fill: url(#uuid-4a7aa271-f019-4e7a-b48e-440d5c5317de);
      }

      .uuid-2534e165-7ed7-4e05-b978-593cf7786212 {
        fill: url(#uuid-a6d30c21-e2e7-421b-94a8-c71cbde79ee6);
      }

      .uuid-2534e165-7ed7-4e05-b978-593cf7786212, .uuid-93e6b006-a7c4-4e06-8f6b-3670847ae7fa {
        mix-blend-mode: overlay;
      }

      .uuid-93e6b006-a7c4-4e06-8f6b-3670847ae7fa {
        fill: url(#uuid-027fae83-2e17-4e55-8241-156a84aede54);
        opacity: .4;
      }

      .uuid-2d8d7650-b518-448c-b4f7-3a593ae434b1 {
        fill: url(#uuid-bd57b4e1-01af-4d35-a332-fb82b2b945d3);
      }

      .uuid-970939b3-a0cf-4252-a637-f4748ea97b47 {
        fill: url(#uuid-5e08efa4-9598-4be8-ae0c-35c78bcc9376);
      }

      .uuid-0928f588-2f70-4937-bb0a-2403cd96e623 {
        fill: url(#uuid-61c3c8d4-9e8e-45c5-9c99-6bbf40419f35);
      }

      .uuid-76c844fc-b7bc-4cb2-af16-334c5b827230 {
        isolation: isolate;
      }
    </style>
    <radialGradient id="uuid-4e371759-0829-4725-9ab6-99ee9d61aec8" cx="396.09" cy="27.27" fx="396.09" fy="27.27" r="53.81" gradientTransform="translate(447.61) rotate(-180) scale(1 -1)" gradientUnits="userSpaceOnUse">
      <stop offset="0" stop-color="#fff8c7"/>
      <stop offset=".16" stop-color="#ffe436"/>
      <stop offset="1" stop-color="#fe761c"/>
    </radialGradient>
    <radialGradient id="uuid-a6d30c21-e2e7-421b-94a8-c71cbde79ee6" cx="1382.46" cy="-1559.17" fx="1382.46" fy="-1559.17" r="8.08" gradientTransform="translate(-1307.37 -3608.56) rotate(126.03) scale(1.43 2.08) skewX(-4.38)" gradientUnits="userSpaceOnUse">
      <stop offset="0" stop-color="#fff"/>
      <stop offset=".1" stop-color="rgba(255, 255, 255, .85)" stop-opacity=".85"/>
      <stop offset=".29" stop-color="rgba(255, 255, 255, .59)" stop-opacity=".59"/>
      <stop offset=".47" stop-color="rgba(255, 255, 255, .38)" stop-opacity=".38"/>
      <stop offset=".63" stop-color="rgba(255, 255, 255, .22)" stop-opacity=".22"/>
      <stop offset=".78" stop-color="rgba(255, 255, 255, .1)" stop-opacity=".1"/>
      <stop offset=".91" stop-color="rgba(255, 255, 255, .03)" stop-opacity=".03"/>
      <stop offset="1" stop-color="#fff" stop-opacity="0"/>
    </radialGradient>
    <radialGradient id="uuid-027fae83-2e17-4e55-8241-156a84aede54" data-name="Degradado sin nombre 34" cx="-2513.28" cy="2996.71" fx="-2513.28" fy="2996.71" r="7.79" gradientTransform="translate(-3580.96 -523.99) rotate(-136.79) scale(1.61 .68) skewX(11.83)" gradientUnits="userSpaceOnUse">
      <stop offset="0" stop-color="#fff"/>
      <stop offset=".1" stop-color="rgba(255, 255, 255, .85)" stop-opacity=".85"/>
      <stop offset=".29" stop-color="rgba(255, 255, 255, .59)" stop-opacity=".59"/>
      <stop offset=".47" stop-color="rgba(255, 255, 255, .38)" stop-opacity=".38"/>
      <stop offset=".63" stop-color="rgba(255, 255, 255, .22)" stop-opacity=".22"/>
      <stop offset=".78" stop-color="rgba(255, 255, 255, .1)" stop-opacity=".1"/>
      <stop offset=".91" stop-color="rgba(255, 255, 255, .03)" stop-opacity=".03"/>
      <stop offset="1" stop-color="#fff" stop-opacity="0"/>
    </radialGradient>
    <radialGradient id="uuid-4a7aa271-f019-4e7a-b48e-440d5c5317de" cx="45.67" cy="1.74" fx="45.67" fy="1.74" r="9.36" gradientTransform="matrix(1,0,0,1,0,0)" xlink:href="#uuid-4e371759-0829-4725-9ab6-99ee9d61aec8"/>
    <radialGradient id="uuid-500b97c6-fd72-4ce5-a9d5-54675ad3eaab" cx="644.22" cy="-373.29" fx="644.22" fy="-373.29" r="9.36" gradientTransform="translate(-176.71 733.46) rotate(-45)" xlink:href="#uuid-4e371759-0829-4725-9ab6-99ee9d61aec8"/>
    <radialGradient id="uuid-bd57b4e1-01af-4d35-a332-fb82b2b945d3" cx="1332.55" cy="-215.42" fx="1332.55" fy="-215.42" r="9.36" gradientTransform="translate(217.15 1376.96) rotate(-90)" xlink:href="#uuid-4e371759-0829-4725-9ab6-99ee9d61aec8"/>
    <radialGradient id="uuid-47e1e33e-f05a-4d0f-a955-0360d6589a6b" cx="1707.74" cy="383.13" fx="1707.74" fy="383.13" r="9.36" gradientTransform="translate(950.61 1553.67) rotate(-135)" xlink:href="#uuid-4e371759-0829-4725-9ab6-99ee9d61aec8"/>
    <radialGradient id="uuid-abffbe87-359d-4a86-a02c-3bef4f845b98" cx="1549.7" cy="1071.47" fx="1549.7" fy="1071.47" r="9.36" gradientTransform="translate(1594.12 1159.81) rotate(-180)" xlink:href="#uuid-4e371759-0829-4725-9ab6-99ee9d61aec8"/>
    <radialGradient id="uuid-5e08efa4-9598-4be8-ae0c-35c78bcc9376" cx="951.32" cy="1446.66" fx="951.32" fy="1446.66" r="9.36" gradientTransform="translate(1770.83 426.36) rotate(135)" xlink:href="#uuid-4e371759-0829-4725-9ab6-99ee9d61aec8"/>
    <radialGradient id="uuid-61c3c8d4-9e8e-45c5-9c99-6bbf40419f35" cx="262.82" cy="1288.62" fx="262.82" fy="1288.62" r="9.36" gradientTransform="translate(1376.97 -217.15) rotate(90)" xlink:href="#uuid-4e371759-0829-4725-9ab6-99ee9d61aec8"/>
    <radialGradient id="uuid-13f83a4b-1089-41f1-ab1a-dae56539f0db" cx="-112.21" cy="690.24" fx="-112.21" fy="690.24" r="9.36" gradientTransform="translate(643.51 -393.86) rotate(45)" xlink:href="#uuid-4e371759-0829-4725-9ab6-99ee9d61aec8"/>
  </defs>
  <g class="uuid-76c844fc-b7bc-4cb2-af16-334c5b827230">
    <g id="uuid-e2e69558-9e8b-48d6-bdf4-8092ce4c69cc" data-name="Livello 2">
      <g id="uuid-e937dfba-73df-4499-9e51-d1206abc5542" data-name="OBJECTS">
        <g>
          <path class="uuid-a79c2002-f44f-4013-89d4-144f67879b02" d="M16.7,45.04c0,15.65,12.69,28.35,28.34,28.35s28.35-12.69,28.35-28.35-12.69-28.34-28.35-28.34-28.34,12.69-28.34,28.34Z"/>
          <g>
            <path class="uuid-2534e165-7ed7-4e05-b978-593cf7786212" d="M49.36,42.12c-7.22-5.86-10.04-14.77-6.3-19.92,3.74-5.15,12.63-4.57,19.85,1.29,7.22,5.86,10.03,14.78,6.29,19.92-3.75,5.15-12.63,4.57-19.85-1.28Z"/>
            <path class="uuid-93e6b006-a7c4-4e06-8f6b-3670847ae7fa" d="M19.99,51.3c.96-3.13,5.82-1.84,10.86,2.9,5.04,4.74,8.36,11.12,7.4,14.26-.95,3.13-5.82,1.84-10.86-2.9-5.04-4.74-8.36-11.12-7.4-14.26Z"/>
          </g>
          <path class="uuid-d93cea44-ef64-4d50-9d82-8118554580c0" d="M48.48,8.32c0,1.9-1.54,3.44-3.44,3.44h0c-1.9,0-3.44-1.54-3.44-3.44V3.44c0-1.9,1.54-3.44,3.44-3.44h0c1.9,0,3.44,1.54,3.44,3.44v4.88Z"/>
          <path class="uuid-a89b7ada-b23b-41f7-8100-e0d28a366512" d="M21.5,16.64c1.34,1.34,1.34,3.52,0,4.86h0c-1.34,1.34-3.52,1.34-4.86,0l-3.45-3.45c-1.34-1.34-1.34-3.52,0-4.86h0c1.34-1.34,3.52-1.34,4.86,0l3.45,3.45Z"/>
          <path class="uuid-2d8d7650-b518-448c-b4f7-3a593ae434b1" d="M8.32,41.6c1.9,0,3.44,1.54,3.44,3.44h0c0,1.9-1.54,3.44-3.44,3.44H3.44c-1.9,0-3.44-1.54-3.44-3.44h0c0-1.9,1.54-3.44,3.44-3.44h4.88Z"/>
          <path class="uuid-f3883c78-4401-43ab-951c-70bf2577baf1" d="M16.64,68.58c1.34-1.34,3.52-1.34,4.86,0h0c1.34,1.34,1.34,3.52,0,4.86l-3.45,3.45c-1.34,1.34-3.52,1.34-4.86,0h0c-1.34-1.34-1.34-3.52,0-4.86l3.45-3.45Z"/>
          <path class="uuid-e478bd2a-b533-413d-86fd-7f40c0445d21" d="M41.6,81.77c0-1.9,1.54-3.44,3.44-3.44h0c1.9,0,3.44,1.54,3.44,3.44v4.88c0,1.9-1.54,3.44-3.44,3.44h0c-1.9,0-3.44-1.54-3.44-3.44v-4.88Z"/>
          <path class="uuid-970939b3-a0cf-4252-a637-f4748ea97b47" d="M68.58,73.44c-1.34-1.34-1.34-3.52,0-4.86h0c1.34-1.34,3.52-1.34,4.86,0l3.45,3.45c1.34,1.34,1.34,3.52,0,4.86h0c-1.34,1.34-3.52,1.34-4.86,0l-3.45-3.45Z"/>
          <path class="uuid-0928f588-2f70-4937-bb0a-2403cd96e623" d="M81.77,48.48c-1.9,0-3.44-1.54-3.44-3.44h0c0-1.9,1.54-3.44,3.44-3.44h4.88c1.9,0,3.44,1.54,3.44,3.44h0c0,1.9-1.54,3.44-3.44,3.44h-4.88Z"/>
          <path class="uuid-22d9835c-5397-41fd-83a2-ae4c77270f06" d="M73.44,21.5c-1.34,1.34-3.52,1.34-4.86,0h0c-1.34-1.34-1.34-3.52,0-4.86l3.45-3.45c1.34-1.34,3.52-1.34,4.86,0h0c1.34,1.34,1.34,3.52,0,4.86l-3.45,3.45Z"/>
        </g>
      </g>
    </g>
  </g>
</svg>