<?xml version="1.0" encoding="UTF-8"?>
<svg xmlns="http://www.w3.org/2000/svg" xmlns:xlink="http://www.w3.org/1999/xlink" version="1.1" viewBox="0 0 90.1 90.1">
  <defs>
    <style>
      .cls-1 {
        fill: url(#radial-gradient-2);
      }

      .cls-1, .cls-2 {
        mix-blend-mode: overlay;
      }

      .cls-3 {
        fill: #acadb2;
      }

      .cls-4 {
        fill: url(#radial-gradient);
      }

      .cls-5 {
        isolation: isolate;
      }

      .cls-2 {
        fill: url(#Degradado_sin_nombre_34);
        opacity: .4;
      }
    </style>
    <radialGradient id="radial-gradient" cx="-137.5" cy="22.7" fx="-137.5" fy="22.7" r="67.7" gradientTransform="translate(-84.3) rotate(-180) scale(1 -1)" gradientUnits="userSpaceOnUse">
      <stop offset="0" stop-color="#f8f8f8"/>
      <stop offset=".2" stop-color="#ede9f1"/>
      <stop offset="1" stop-color="#9b9da2"/>
    </radialGradient>
    <radialGradient id="radial-gradient-2" cx="1088.8" cy="-1881.3" fx="1088.8" fy="-1881.3" r="10.2" gradientTransform="translate(-2072.3 -3695.8) rotate(126) scale(1.4 2.1) skewX(-4.4)" gradientUnits="userSpaceOnUse">
      <stop offset="0" stop-color="#fff"/>
      <stop offset=".1" stop-color="#fff" stop-opacity=".8"/>
      <stop offset=".3" stop-color="#fff" stop-opacity=".6"/>
      <stop offset=".5" stop-color="#fff" stop-opacity=".4"/>
      <stop offset=".6" stop-color="#fff" stop-opacity=".2"/>
      <stop offset=".8" stop-color="#fff" stop-opacity="0"/>
      <stop offset=".9" stop-color="#fff" stop-opacity="0"/>
      <stop offset="1" stop-color="#fff" stop-opacity="0"/>
    </radialGradient>
    <radialGradient id="Degradado_sin_nombre_34" data-name="Degradado sin nombre 34" cx="-2988.2" cy="2902.9" fx="-2988.2" fy="2902.9" r="9.8" gradientTransform="translate(-4120.7 -1111.2) rotate(-136.8) scale(1.6 .7) skewX(11.8)" gradientUnits="userSpaceOnUse">
      <stop offset="0" stop-color="#fff"/>
      <stop offset=".1" stop-color="#fff" stop-opacity=".8"/>
      <stop offset=".3" stop-color="#fff" stop-opacity=".6"/>
      <stop offset=".5" stop-color="#fff" stop-opacity=".4"/>
      <stop offset=".6" stop-color="#fff" stop-opacity=".2"/>
      <stop offset=".8" stop-color="#fff" stop-opacity="0"/>
      <stop offset=".9" stop-color="#fff" stop-opacity="0"/>
      <stop offset="1" stop-color="#fff" stop-opacity="0"/>
    </radialGradient>
  </defs>
  <!-- Generator: Adobe Illustrator 28.6.0, SVG Export Plug-In . SVG Version: 1.2.0 Build 709)  -->
  <g class="cls-5">
    <g id="Livello_1">
      <g>
        <path class="cls-4" d="M9.4,45c0,19.7,16,35.7,35.7,35.7s35.7-16,35.7-35.7S64.7,9.4,45,9.4,9.4,25.3,9.4,45Z"/>
        <g>
          <path class="cls-3" d="M20.1,51.4c3.4-.3,5.7-4.1,5.4-8.5-.4-4.4-3.4-7.7-6.8-7.4-3.3.3-5.7,4.1-5.4,8.5.4,4.4,3.4,7.7,6.8,7.4Z"/>
          <path class="cls-3" d="M17.2,54.5c-2,1.1-2.5,4-1.1,6.7,1.4,2.6,4.1,3.9,6.1,2.9,2-1.1,2.5-4,1.1-6.7-1.4-2.6-4.1-3.9-6.1-2.9Z"/>
          <path class="cls-3" d="M25.2,51.4c-1.2.6-1.5,2.4-.7,3.9s2.4,2.3,3.6,1.7c1.2-.6,1.5-2.4.7-3.9-.8-1.6-2.4-2.3-3.6-1.7Z"/>
          <path class="cls-3" d="M78,46.3c-.6-4.4-3.8-7.5-7.1-7-3.3.5-5.5,4.4-4.9,8.8.6,4.4,3.8,7.5,7.1,7,3.3-.5,5.5-4.4,4.9-8.7Z"/>
          <path class="cls-3" d="M73.6,35.9c2-1.2,2.3-4.2.8-6.7-1.5-2.6-4.3-3.7-6.3-2.5-2,1.2-2.3,4.2-.8,6.7,1.5,2.6,4.3,3.7,6.3,2.5Z"/>
          <path class="cls-3" d="M66.3,35.5c-.9-1.5-2.5-2.2-3.7-1.5-1.2.7-1.4,2.5-.5,4,.9,1.5,2.6,2.2,3.7,1.5,1.2-.7,1.4-2.5.5-4Z"/>
        </g>
        <g>
          <path class="cls-1" d="M50.5,41.4c-9.1-7.4-12.6-18.6-7.9-25.1,4.7-6.5,15.9-5.8,25,1.6,9.1,7.4,12.6,18.6,7.9,25.1-4.7,6.5-15.9,5.8-25-1.6Z"/>
          <path class="cls-2" d="M13.5,52.9c1.2-3.9,7.3-2.3,13.7,3.7,6.3,6,10.5,14,9.3,17.9-1.2,3.9-7.3,2.3-13.7-3.7-6.3-6-10.5-14-9.3-17.9Z"/>
        </g>
      </g>
    </g>
  </g>
</svg>