<?xml version="1.0" encoding="UTF-8"?>
<svg xmlns="http://www.w3.org/2000/svg" xmlns:xlink="http://www.w3.org/1999/xlink" version="1.1" viewBox="0 0 89.4 76">
  <defs>
    <style>
      .cls-1 {
        fill: url(#radial-gradient-2);
      }

      .cls-1, .cls-2, .cls-3, .cls-4, .cls-5 {
        mix-blend-mode: overlay;
      }

      .cls-6 {
        fill: #acadb2;
      }

      .cls-7 {
        fill: url(#radial-gradient);
      }

      .cls-8 {
        fill: url(#Sfumatura_senza_nome_12);
      }

      .cls-9, .cls-2, .cls-3, .cls-5 {
        isolation: isolate;
      }

      .cls-2 {
        fill: url(#Sfumatura_senza_nome_15);
        opacity: .4;
      }

      .cls-3 {
        fill: url(#Sfumatura_senza_nome_16);
        opacity: .2;
      }

      .cls-4 {
        fill: url(#Degradado_sin_nombre_34);
        opacity: .4;
      }

      .cls-5 {
        fill: url(#Sfumatura_senza_nome_14);
      }
    </style>
    <radialGradient id="radial-gradient" cx="-147.3" cy="12.7" fx="-147.3" fy="12.7" r="64.5" gradientTransform="translate(-84.3) rotate(-180) scale(1 -1)" gradientUnits="userSpaceOnUse">
      <stop offset="0" stop-color="#f8f8f8"/>
      <stop offset=".2" stop-color="#ede9f1"/>
      <stop offset="1" stop-color="#9b9da2"/>
    </radialGradient>
    <radialGradient id="radial-gradient-2" cx="1082.8" cy="-1891.1" fx="1082.8" fy="-1891.1" r="9.7" gradientTransform="translate(-2083.7 -3712) rotate(126) scale(1.4 2.1) skewX(-4.4)" gradientUnits="userSpaceOnUse">
      <stop offset="0" stop-color="#fff"/>
      <stop offset=".1" stop-color="#fff" stop-opacity=".8"/>
      <stop offset=".3" stop-color="#fff" stop-opacity=".6"/>
      <stop offset=".5" stop-color="#fff" stop-opacity=".4"/>
      <stop offset=".6" stop-color="#fff" stop-opacity=".2"/>
      <stop offset=".8" stop-color="#fff" stop-opacity="0"/>
      <stop offset=".9" stop-color="#fff" stop-opacity="0"/>
      <stop offset="1" stop-color="#fff" stop-opacity="0"/>
    </radialGradient>
    <radialGradient id="Degradado_sin_nombre_34" data-name="Degradado sin nombre 34" cx="-2994.6" cy="2912.3" fx="-2994.6" fy="2912.3" r="9.3" gradientTransform="translate(-4119.2 -1123.3) rotate(-136.8) scale(1.6 .7) skewX(11.8)" gradientUnits="userSpaceOnUse">
      <stop offset="0" stop-color="#fff"/>
      <stop offset=".1" stop-color="#fff" stop-opacity=".8"/>
      <stop offset=".3" stop-color="#fff" stop-opacity=".6"/>
      <stop offset=".5" stop-color="#fff" stop-opacity=".4"/>
      <stop offset=".6" stop-color="#fff" stop-opacity=".2"/>
      <stop offset=".8" stop-color="#fff" stop-opacity="0"/>
      <stop offset=".9" stop-color="#fff" stop-opacity="0"/>
      <stop offset="1" stop-color="#fff" stop-opacity="0"/>
    </radialGradient>
    <radialGradient id="Sfumatura_senza_nome_12" data-name="Sfumatura senza nome 12" cx="99.2" cy="50.5" fx="99.2" fy="50.5" r="69.7" gradientTransform="translate(116.7 78) rotate(-180)" gradientUnits="userSpaceOnUse">
      <stop offset="0" stop-color="#fff"/>
      <stop offset=".2" stop-color="#d9f7ff"/>
      <stop offset="1" stop-color="#89c0f5"/>
    </radialGradient>
    <radialGradient id="Sfumatura_senza_nome_14" data-name="Sfumatura senza nome 14" cx="576.3" cy="3186.7" fx="576.3" fy="3186.7" r="8.2" gradientTransform="translate(4690.5 -4810.4) rotate(54) scale(1.4 2.1) skewX(4.4)" gradientUnits="userSpaceOnUse">
      <stop offset="0" stop-color="#fff"/>
      <stop offset="0" stop-color="#000" stop-opacity=".9"/>
      <stop offset=".3" stop-color="#000" stop-opacity=".6"/>
      <stop offset=".5" stop-color="#000" stop-opacity=".4"/>
      <stop offset=".6" stop-color="#000" stop-opacity=".2"/>
      <stop offset=".8" stop-color="#000" stop-opacity=".1"/>
      <stop offset=".9" stop-color="#000" stop-opacity="0"/>
      <stop offset="1" stop-color="#fff" stop-opacity="0"/>
    </radialGradient>
    <radialGradient id="Sfumatura_senza_nome_15" data-name="Sfumatura senza nome 15" cx="600.4" cy="3174.5" fx="600.4" fy="3174.5" r="4.5" gradientTransform="translate(4690.5 -4810.4) rotate(54) scale(1.4 2.1) skewX(4.4)" gradientUnits="userSpaceOnUse">
      <stop offset="0" stop-color="#fff"/>
      <stop offset="0" stop-color="#000" stop-opacity=".9"/>
      <stop offset=".3" stop-color="#000" stop-opacity=".6"/>
      <stop offset=".5" stop-color="#000" stop-opacity=".4"/>
      <stop offset=".6" stop-color="#000" stop-opacity=".2"/>
      <stop offset=".8" stop-color="#000" stop-opacity=".1"/>
      <stop offset=".9" stop-color="#000" stop-opacity="0"/>
      <stop offset="1" stop-color="#fff" stop-opacity="0"/>
    </radialGradient>
    <radialGradient id="Sfumatura_senza_nome_16" data-name="Sfumatura senza nome 16" cx="-416.3" cy="752.9" fx="-416.3" fy="752.9" r="4.7" gradientTransform="translate(-1273.6 1256.1) rotate(-147) scale(.8 2.3) skewX(-11.8)" gradientUnits="userSpaceOnUse">
      <stop offset="0" stop-color="#fff"/>
      <stop offset="0" stop-color="#000" stop-opacity=".9"/>
      <stop offset=".3" stop-color="#000" stop-opacity=".6"/>
      <stop offset=".5" stop-color="#000" stop-opacity=".4"/>
      <stop offset=".6" stop-color="#000" stop-opacity=".2"/>
      <stop offset=".8" stop-color="#000" stop-opacity=".1"/>
      <stop offset=".9" stop-color="#000" stop-opacity="0"/>
      <stop offset="1" stop-color="#fff" stop-opacity="0"/>
    </radialGradient>
  </defs>
  <!-- Generator: Adobe Illustrator 28.6.0, SVG Export Plug-In . SVG Version: 1.2.0 Build 709)  -->
  <g>
    <g id="Livello_1">
      <g class="cls-9">
        <g id="uuid-1228feb6-dfbb-455d-95e8-67a47883e5c3">
          <g id="uuid-379a7f95-895f-4627-a861-9fdb3ff842fd">
            <g>
              <g>
                <path class="cls-7" d="M21.2,34c0,18.8,15.2,34,34,34s34-15.2,34-34S74,0,55.2,0,21.2,15.2,21.2,34Z"/>
                <g>
                  <path class="cls-6" d="M31.5,40c3.2-.3,5.5-3.9,5.1-8.1-.4-4.2-3.3-7.3-6.5-7-3.2.3-5.5,3.9-5.1,8.1.4,4.2,3.3,7.3,6.5,7.1Z"/>
                  <path class="cls-6" d="M28.7,43c-1.9,1-2.4,3.9-1.1,6.4,1.3,2.5,3.9,3.7,5.8,2.7,1.9-1,2.4-3.8,1.1-6.4-1.3-2.5-3.9-3.7-5.8-2.7Z"/>
                  <path class="cls-6" d="M36.3,40c-1.1.6-1.4,2.3-.6,3.8s2.3,2.2,3.5,1.6c1.1-.6,1.4-2.3.6-3.8-.8-1.5-2.3-2.2-3.5-1.6Z"/>
                  <path class="cls-6" d="M86.6,35.2c-.6-4.2-3.6-7.2-6.8-6.7-3.2.4-5.3,4.2-4.7,8.3.6,4.2,3.6,7.2,6.8,6.7,3.2-.4,5.3-4.2,4.7-8.3Z"/>
                  <path class="cls-6" d="M82.4,25.3c1.9-1.1,2.2-4,.8-6.4-1.4-2.4-4.1-3.5-6-2.4-1.9,1.1-2.2,4-.8,6.4,1.4,2.4,4.1,3.5,6,2.4Z"/>
                  <path class="cls-6" d="M75.4,24.9c-.9-1.4-2.4-2.1-3.5-1.4-1.1.6-1.3,2.3-.4,3.8.9,1.4,2.4,2.1,3.5,1.4,1.1-.6,1.3-2.3.4-3.8Z"/>
                </g>
                <g>
                  <path class="cls-1" d="M60.4,30.5c-8.7-7-12-17.7-7.5-23.9,4.5-6.2,15.1-5.5,23.8,1.5,8.7,7,12,17.7,7.5,23.9-4.5,6.2-15.1,5.5-23.8-1.5Z"/>
                  <path class="cls-4" d="M25.2,41.5c1.1-3.8,7-2.2,13,3.5,6,5.7,10,13.3,8.9,17.1-1.1,3.8-7,2.2-13-3.5-6-5.7-10-13.3-8.9-17.1Z"/>
                </g>
              </g>
              <g>
                <path class="cls-8" d="M28.1,19.8c13.2,0,24.3,9.1,27.3,21.5,2.4-1.2,5.1-1.8,7.9-1.8,10.1,0,18.3,8.2,18.3,18.3s-8.2,18.3-18.3,18.3H28.1c-15.5,0-28.1-12.6-28.1-28.1s12.6-28.1,28.1-28.1Z"/>
                <path class="cls-5" d="M24.5,46.7c7.3-5.9,10.2-15,6.4-20.2s-12.8-4.6-20.1,1.3c-7.3,5.9-10.2,15-6.4,20.2s12.8,4.6,20.1-1.3h0Z"/>
                <path class="cls-2" d="M61.3,54.4c4-3.3,5.6-8.2,3.5-11.1-2.1-2.9-7-2.5-11,.7-4,3.3-5.6,8.2-3.5,11.1,2.1,2.9,7,2.5,11-.7Z"/>
                <path class="cls-3" d="M70.2,61.5c4.4-4.5,9-6.2,10.2-3.9,1.2,2.3-1.4,7.8-5.8,12.3s-9,6.2-10.2,3.9,1.4-7.8,5.8-12.3Z"/>
              </g>
            </g>
          </g>
        </g>
      </g>
    </g>
  </g>
</svg>