<?xml version="1.0" encoding="UTF-8"?>
<svg xmlns="http://www.w3.org/2000/svg" xmlns:xlink="http://www.w3.org/1999/xlink" viewBox="0 0 103 72.13">
  <defs>
    <style>
      .uuid-dd0efb42-5a86-44c4-80d3-53ded19eba2e {
        fill: url(#uuid-2b532616-c45c-4a09-95ea-37580bf41d5b);
      }

      .uuid-dd0efb42-5a86-44c4-80d3-53ded19eba2e, .uuid-1f39bae6-b4a9-4269-8e28-4d1e40843ae9, .uuid-75aa210d-f341-43f8-9a0e-e78157e384eb, .uuid-ee6d5452-6224-4379-b45f-31e99b3d76ac, .uuid-d37ce09d-7b56-4d74-97a1-39b739bafe58, .uuid-8fc56c1b-c6c4-4460-aeda-8df78f70a739, .uuid-ccecbdc1-5378-44a3-9128-3ff5cd2d1303, .uuid-9511a219-22c9-4dc2-839f-798deee0f5d8 {
        stroke-width: 0px;
      }

      .uuid-1f39bae6-b4a9-4269-8e28-4d1e40843ae9 {
        fill: url(#uuid-43921912-614c-4fa1-ae35-436c087a4d38);
      }

      .uuid-1f39bae6-b4a9-4269-8e28-4d1e40843ae9, .uuid-75aa210d-f341-43f8-9a0e-e78157e384eb, .uuid-ee6d5452-6224-4379-b45f-31e99b3d76ac, .uuid-8fc56c1b-c6c4-4460-aeda-8df78f70a739, .uuid-ccecbdc1-5378-44a3-9128-3ff5cd2d1303, .uuid-9511a219-22c9-4dc2-839f-798deee0f5d8 {
        mix-blend-mode: overlay;
      }

      .uuid-1f39bae6-b4a9-4269-8e28-4d1e40843ae9, .uuid-ee6d5452-6224-4379-b45f-31e99b3d76ac {
        opacity: .2;
      }

      .uuid-75aa210d-f341-43f8-9a0e-e78157e384eb {
        fill: url(#uuid-a50b9f97-c1b4-4de6-aadd-60a7ca32c2a2);
        opacity: .3;
      }

      .uuid-ee6d5452-6224-4379-b45f-31e99b3d76ac {
        fill: url(#uuid-84f51d4c-6e81-494c-9b32-8955ec9e7b0b);
      }

      .uuid-d37ce09d-7b56-4d74-97a1-39b739bafe58 {
        fill: url(#uuid-b776da2a-e6ff-4ed2-85c5-b2539842c04c);
      }

      .uuid-8fc56c1b-c6c4-4460-aeda-8df78f70a739 {
        fill: url(#uuid-3147770f-20ad-4cb1-be75-d6d058c277bd);
      }

      .uuid-ccecbdc1-5378-44a3-9128-3ff5cd2d1303 {
        fill: url(#uuid-e9f1aaa0-baa0-4192-83b1-593f4538503b);
        opacity: .4;
      }

      .uuid-9511a219-22c9-4dc2-839f-798deee0f5d8 {
        fill: url(#uuid-22a9ff8b-ca79-43c7-b86e-bd5b17a2331d);
        opacity: .5;
      }

      .uuid-e7aec8f9-39d2-40c7-a86b-aad9e7c9ec41 {
        isolation: isolate;
      }
    </style>
    <radialGradient id="uuid-b776da2a-e6ff-4ed2-85c5-b2539842c04c" cx="1347.28" cy="7.79" fx="1347.28" fy="7.79" r="70.49" gradientTransform="translate(1385.56) rotate(-180) scale(1 -1)" gradientUnits="userSpaceOnUse">
      <stop offset="0" stop-color="#bad0d6"/>
      <stop offset=".2" stop-color="#9bbac2"/>
      <stop offset="1" stop-color="#5d8bb8"/>
    </radialGradient>
    <radialGradient id="uuid-22a9ff8b-ca79-43c7-b86e-bd5b17a2331d" cx="430.33" cy="-2165.17" fx="430.33" fy="-2165.17" r="8.27" gradientTransform="translate(3181.75 -3320.85) rotate(53.97) scale(1.43 -2.08) skewX(-4.38)" gradientUnits="userSpaceOnUse">
      <stop offset="0" stop-color="#fff"/>
      <stop offset=".1" stop-color="rgba(255, 255, 255, .85)" stop-opacity=".85"/>
      <stop offset=".29" stop-color="rgba(255, 255, 255, .59)" stop-opacity=".59"/>
      <stop offset=".47" stop-color="rgba(255, 255, 255, .38)" stop-opacity=".38"/>
      <stop offset=".63" stop-color="rgba(255, 255, 255, .22)" stop-opacity=".22"/>
      <stop offset=".78" stop-color="rgba(255, 255, 255, .1)" stop-opacity=".1"/>
      <stop offset=".91" stop-color="rgba(255, 255, 255, .03)" stop-opacity=".03"/>
      <stop offset="1" stop-color="#fff" stop-opacity="0"/>
    </radialGradient>
    <radialGradient id="uuid-a50b9f97-c1b4-4de6-aadd-60a7ca32c2a2" cx="454.75" cy="-2152.92" fx="454.75" fy="-2152.92" r="4.55" xlink:href="#uuid-22a9ff8b-ca79-43c7-b86e-bd5b17a2331d"/>
    <radialGradient id="uuid-84f51d4c-6e81-494c-9b32-8955ec9e7b0b" data-name="Degradado sin nombre 34" cx="1494.59" cy="28.95" fx="1494.59" fy="28.95" r="4.75" gradientTransform="translate(1188.86 678.34) rotate(-146.99) scale(.84 -2.3) skewX(11.81)" gradientUnits="userSpaceOnUse">
      <stop offset="0" stop-color="#fff"/>
      <stop offset=".1" stop-color="rgba(255, 255, 255, .85)" stop-opacity=".85"/>
      <stop offset=".29" stop-color="rgba(255, 255, 255, .59)" stop-opacity=".59"/>
      <stop offset=".47" stop-color="rgba(255, 255, 255, .38)" stop-opacity=".38"/>
      <stop offset=".63" stop-color="rgba(255, 255, 255, .22)" stop-opacity=".22"/>
      <stop offset=".78" stop-color="rgba(255, 255, 255, .1)" stop-opacity=".1"/>
      <stop offset=".91" stop-color="rgba(255, 255, 255, .03)" stop-opacity=".03"/>
      <stop offset="1" stop-color="#fff" stop-opacity="0"/>
    </radialGradient>
    <radialGradient id="uuid-2b532616-c45c-4a09-95ea-37580bf41d5b" cx="1367.81" cy="23.14" fx="1367.81" fy="23.14" r="70.49" gradientTransform="translate(1385.56) rotate(-180) scale(1 -1)" gradientUnits="userSpaceOnUse">
      <stop offset="0" stop-color="#fff"/>
      <stop offset=".2" stop-color="#d9f7ff"/>
      <stop offset="1" stop-color="#89c0f5"/>
    </radialGradient>
    <radialGradient id="uuid-3147770f-20ad-4cb1-be75-d6d058c277bd" cx="429.63" cy="-2177.49" fx="429.63" fy="-2177.49" r="8.27" xlink:href="#uuid-22a9ff8b-ca79-43c7-b86e-bd5b17a2331d"/>
    <radialGradient id="uuid-e9f1aaa0-baa0-4192-83b1-593f4538503b" cx="454.05" cy="-2165.24" fx="454.05" fy="-2165.24" r="4.55" xlink:href="#uuid-22a9ff8b-ca79-43c7-b86e-bd5b17a2331d"/>
    <radialGradient id="uuid-43921912-614c-4fa1-ae35-436c087a4d38" data-name="Degradado sin nombre 34" cx="1515.32" cy="52.79" fx="1515.32" fy="52.79" r="4.75" gradientTransform="translate(1216.32 659.53) rotate(-146.99) scale(.84 -2.3) skewX(11.81)" xlink:href="#uuid-84f51d4c-6e81-494c-9b32-8955ec9e7b0b"/>
  </defs>
  <g class="uuid-e7aec8f9-39d2-40c7-a86b-aad9e7c9ec41">
    <g id="uuid-efcdbf1f-6c44-44d5-973b-1d9c8eb67003" data-name="Livello 2">
      <g id="uuid-4c8b00d1-943a-49c3-96c9-86ae0dd09715" data-name="OBJECTS">
        <g>
          <g>
            <path class="uuid-d37ce09d-7b56-4d74-97a1-39b739bafe58" d="M48.92,0c13.37,0,24.58,9.25,27.59,21.7,2.43-1.18,5.14-1.86,8.03-1.86,10.2,0,18.47,8.27,18.47,18.47s-8.27,18.47-18.47,18.47h-35.62c-15.68,0-28.39-12.71-28.39-28.39S33.24,0,48.92,0Z"/>
            <path class="uuid-9511a219-22c9-4dc2-839f-798deee0f5d8" d="M45.28,27.13c7.39-6,10.28-15.13,6.45-20.4-3.83-5.27-12.94-4.68-20.33,1.31-7.39,6-10.27,15.13-6.44,20.4,3.83,5.27,12.94,4.68,20.33-1.32Z"/>
            <path class="uuid-75aa210d-f341-43f8-9a0e-e78157e384eb" d="M82.48,34.92c4.06-3.3,5.65-8.32,3.54-11.21-2.11-2.9-7.11-2.57-11.17.72-4.06,3.3-5.65,8.32-3.54,11.21,2.11,2.9,7.11,2.57,11.17-.72Z"/>
            <path class="uuid-ee6d5452-6224-4379-b45f-31e99b3d76ac" d="M91.49,42.1c4.47-4.52,9.08-6.29,10.31-3.95,1.22,2.33-1.4,7.9-5.87,12.42-4.47,4.52-9.09,6.29-10.31,3.95-1.22-2.34,1.4-7.9,5.87-12.42Z"/>
          </g>
          <g>
            <path class="uuid-dd0efb42-5a86-44c4-80d3-53ded19eba2e" d="M28.39,15.35c13.37,0,24.58,9.25,27.59,21.7,2.43-1.18,5.15-1.86,8.03-1.86,10.2,0,18.47,8.27,18.47,18.47s-8.27,18.47-18.47,18.47H28.39c-15.68,0-28.39-12.71-28.39-28.39S12.71,15.35,28.39,15.35Z"/>
            <path class="uuid-8fc56c1b-c6c4-4460-aeda-8df78f70a739" d="M24.75,42.48c7.39-6,10.28-15.13,6.45-20.4-3.83-5.27-12.93-4.68-20.33,1.31-7.39,6-10.27,15.13-6.44,20.4,3.84,5.27,12.94,4.68,20.33-1.31Z"/>
            <path class="uuid-ccecbdc1-5378-44a3-9128-3ff5cd2d1303" d="M61.95,50.27c4.06-3.3,5.65-8.31,3.54-11.21-2.11-2.9-7.11-2.57-11.17.72-4.06,3.3-5.65,8.32-3.54,11.21,2.11,2.9,7.11,2.57,11.17-.72Z"/>
            <path class="uuid-1f39bae6-b4a9-4269-8e28-4d1e40843ae9" d="M70.97,57.45c4.47-4.52,9.08-6.29,10.31-3.95,1.22,2.34-1.4,7.9-5.87,12.42-4.47,4.52-9.09,6.29-10.31,3.95-1.22-2.34,1.4-7.9,5.87-12.42Z"/>
          </g>
        </g>
      </g>
    </g>
  </g>
</svg>