<?xml version="1.0" encoding="UTF-8"?>
<svg xmlns="http://www.w3.org/2000/svg" xmlns:xlink="http://www.w3.org/1999/xlink" viewBox="0 0 103 88.78">
  <defs>
    <style>
      .uuid-a6ba1ba6-ae70-4148-a1c2-6064b788cdc5 {
        fill: url(#uuid-6bdf2b93-a7b4-4d10-b1cd-d792a39f1ded);
      }

      .uuid-a6ba1ba6-ae70-4148-a1c2-6064b788cdc5, .uuid-800989bd-55fe-4d17-95db-1f5cf3548412, .uuid-50bae4e4-9936-4a72-8baf-f408edd099bb, .uuid-1f93b394-097c-4c77-ad37-e72d4d7ba7a0, .uuid-cdbe0a4a-b69c-4f59-b121-d53ada4dfad9, .uuid-cfc6d690-de20-44a6-9aca-a5fa66e117fc, .uuid-dca56f7a-2e1b-40cb-bd19-514b5e9649de, .uuid-24c7c10a-21dc-4f3f-b62b-9437f5e6f9e5, .uuid-24e9a651-268d-4374-95a1-0aebf2391de0, .uuid-2481c184-af42-475c-b910-3dd6b9fd5dc0, .uuid-37d1e5ce-b83d-41d2-a464-b97fe863c838, .uuid-279adebe-701d-4e7b-861c-25afe8886ed1, .uuid-a08381b0-5415-4cf9-9bb1-5d7b70164bfc, .uuid-2d9f816d-386b-4c51-b825-ce74aba47e52 {
        stroke-width: 0px;
      }

      .uuid-800989bd-55fe-4d17-95db-1f5cf3548412 {
        fill: url(#uuid-6ff655ea-fd24-4a81-8a0e-b4b39042c7d7);
        opacity: .4;
      }

      .uuid-800989bd-55fe-4d17-95db-1f5cf3548412, .uuid-1f93b394-097c-4c77-ad37-e72d4d7ba7a0, .uuid-cdbe0a4a-b69c-4f59-b121-d53ada4dfad9, .uuid-24c7c10a-21dc-4f3f-b62b-9437f5e6f9e5, .uuid-24e9a651-268d-4374-95a1-0aebf2391de0, .uuid-37d1e5ce-b83d-41d2-a464-b97fe863c838, .uuid-279adebe-701d-4e7b-861c-25afe8886ed1, .uuid-a08381b0-5415-4cf9-9bb1-5d7b70164bfc, .uuid-2d9f816d-386b-4c51-b825-ce74aba47e52 {
        mix-blend-mode: overlay;
      }

      .uuid-50bae4e4-9936-4a72-8baf-f408edd099bb {
        fill: url(#uuid-8f1af45b-fcbb-4416-b3a1-9271d3917f68);
      }

      .uuid-1f93b394-097c-4c77-ad37-e72d4d7ba7a0 {
        fill: url(#uuid-9871ec67-5378-4bcf-877d-e8f23f7be1b2);
      }

      .uuid-1f93b394-097c-4c77-ad37-e72d4d7ba7a0, .uuid-2d9f816d-386b-4c51-b825-ce74aba47e52 {
        opacity: .2;
      }

      .uuid-cdbe0a4a-b69c-4f59-b121-d53ada4dfad9 {
        fill: url(#uuid-47445c15-605b-4b55-90fe-84b4aee7a951);
      }

      .uuid-cfc6d690-de20-44a6-9aca-a5fa66e117fc {
        fill: url(#uuid-a4659110-11d8-478d-bdb8-89087e93be25);
      }

      .uuid-dca56f7a-2e1b-40cb-bd19-514b5e9649de {
        fill: url(#uuid-64717e21-9026-4944-9bd0-aeee5b3a47d3);
      }

      .uuid-24c7c10a-21dc-4f3f-b62b-9437f5e6f9e5 {
        fill: url(#uuid-bcb5326e-598b-444f-b657-3af6686a5123);
      }

      .uuid-24e9a651-268d-4374-95a1-0aebf2391de0 {
        fill: url(#uuid-cb975066-dbcc-4579-9239-ab40efeb346c);
      }

      .uuid-2481c184-af42-475c-b910-3dd6b9fd5dc0 {
        fill: url(#uuid-e4af11df-27c1-4edb-b1cb-260391afc7d1);
      }

      .uuid-37d1e5ce-b83d-41d2-a464-b97fe863c838 {
        fill: url(#uuid-7890d62a-3233-43a3-bac3-29639999fdcd);
      }

      .uuid-f2d7064c-3b71-41c7-af86-82c239ee82ee {
        isolation: isolate;
      }

      .uuid-279adebe-701d-4e7b-861c-25afe8886ed1 {
        fill: url(#uuid-99773f20-9973-4936-a723-499ba83116bf);
        opacity: .5;
      }

      .uuid-a08381b0-5415-4cf9-9bb1-5d7b70164bfc {
        fill: url(#uuid-e3593d89-0e84-4412-9d73-eec357b0c184);
        opacity: .3;
      }

      .uuid-2d9f816d-386b-4c51-b825-ce74aba47e52 {
        fill: url(#uuid-dca969a0-70ad-47f1-895d-2f01b7ed2291);
      }
    </style>
    <radialGradient id="uuid-8f1af45b-fcbb-4416-b3a1-9271d3917f68" cx="1347.28" cy="7.79" fx="1347.28" fy="7.79" r="70.49" gradientTransform="translate(1385.56) rotate(-180) scale(1 -1)" gradientUnits="userSpaceOnUse">
      <stop offset="0" stop-color="#bad0d6"/>
      <stop offset=".2" stop-color="#9bbac2"/>
      <stop offset="1" stop-color="#5d8bb8"/>
    </radialGradient>
    <radialGradient id="uuid-99773f20-9973-4936-a723-499ba83116bf" cx="488.63" cy="-2302.33" fx="488.63" fy="-2302.33" r="8.27" gradientTransform="translate(3354.82 -3568.13) rotate(53.97) scale(1.43 -2.08) skewX(-4.38)" gradientUnits="userSpaceOnUse">
      <stop offset="0" stop-color="#fff"/>
      <stop offset=".1" stop-color="rgba(255, 255, 255, .85)" stop-opacity=".85"/>
      <stop offset=".29" stop-color="rgba(255, 255, 255, .59)" stop-opacity=".59"/>
      <stop offset=".47" stop-color="rgba(255, 255, 255, .38)" stop-opacity=".38"/>
      <stop offset=".63" stop-color="rgba(255, 255, 255, .22)" stop-opacity=".22"/>
      <stop offset=".78" stop-color="rgba(255, 255, 255, .1)" stop-opacity=".1"/>
      <stop offset=".91" stop-color="rgba(255, 255, 255, .03)" stop-opacity=".03"/>
      <stop offset="1" stop-color="#fff" stop-opacity="0"/>
    </radialGradient>
    <radialGradient id="uuid-e3593d89-0e84-4412-9d73-eec357b0c184" cx="513.05" cy="-2290.07" fx="513.05" fy="-2290.07" r="4.55" xlink:href="#uuid-99773f20-9973-4936-a723-499ba83116bf"/>
    <radialGradient id="uuid-dca969a0-70ad-47f1-895d-2f01b7ed2291" data-name="Degradado sin nombre 34" cx="1474.15" cy="57.95" fx="1474.15" fy="57.95" r="4.75" gradientTransform="translate(1215.01 615.88) rotate(-146.99) scale(.84 -2.3) skewX(11.81)" gradientUnits="userSpaceOnUse">
      <stop offset="0" stop-color="#fff"/>
      <stop offset=".1" stop-color="rgba(255, 255, 255, .85)" stop-opacity=".85"/>
      <stop offset=".29" stop-color="rgba(255, 255, 255, .59)" stop-opacity=".59"/>
      <stop offset=".47" stop-color="rgba(255, 255, 255, .38)" stop-opacity=".38"/>
      <stop offset=".63" stop-color="rgba(255, 255, 255, .22)" stop-opacity=".22"/>
      <stop offset=".78" stop-color="rgba(255, 255, 255, .1)" stop-opacity=".1"/>
      <stop offset=".91" stop-color="rgba(255, 255, 255, .03)" stop-opacity=".03"/>
      <stop offset="1" stop-color="#fff" stop-opacity="0"/>
    </radialGradient>
    <radialGradient id="uuid-e4af11df-27c1-4edb-b1cb-260391afc7d1" cx="1367.81" cy="23.14" fx="1367.81" fy="23.14" r="70.49" gradientTransform="translate(1385.56) rotate(-180) scale(1 -1)" gradientUnits="userSpaceOnUse">
      <stop offset="0" stop-color="#fff"/>
      <stop offset=".2" stop-color="#d9f7ff"/>
      <stop offset="1" stop-color="#89c0f5"/>
    </radialGradient>
    <radialGradient id="uuid-47445c15-605b-4b55-90fe-84b4aee7a951" cx="487.93" cy="-2314.64" fx="487.93" fy="-2314.64" r="8.27" xlink:href="#uuid-99773f20-9973-4936-a723-499ba83116bf"/>
    <radialGradient id="uuid-6ff655ea-fd24-4a81-8a0e-b4b39042c7d7" cx="512.34" cy="-2302.39" fx="512.34" fy="-2302.39" r="4.55" xlink:href="#uuid-99773f20-9973-4936-a723-499ba83116bf"/>
    <radialGradient id="uuid-9871ec67-5378-4bcf-877d-e8f23f7be1b2" data-name="Degradado sin nombre 34" cx="1494.87" cy="81.79" fx="1494.87" fy="81.79" r="4.75" gradientTransform="translate(1242.47 597.07) rotate(-146.99) scale(.84 -2.3) skewX(11.81)" xlink:href="#uuid-dca969a0-70ad-47f1-895d-2f01b7ed2291"/>
    <radialGradient id="uuid-a4659110-11d8-478d-bdb8-89087e93be25" cx="-277.02" cy="11.34" fx="-277.02" fy="11.34" r="9.89" gradientTransform="translate(267.43 214.48) rotate(30)" gradientUnits="userSpaceOnUse">
      <stop offset="0" stop-color="#d4f6ff"/>
      <stop offset=".2" stop-color="#d9f7ff"/>
      <stop offset="1" stop-color="#89c0f5"/>
    </radialGradient>
    <radialGradient id="uuid-bcb5326e-598b-444f-b657-3af6686a5123" cx="1202.99" cy="-1669.16" fx="1202.99" fy="-1669.16" r="1.55" gradientTransform="translate(346.4 -3860.05) rotate(156.04) scale(1.43 2.08) skewX(-4.38)" xlink:href="#uuid-99773f20-9973-4936-a723-499ba83116bf"/>
    <radialGradient id="uuid-6bdf2b93-a7b4-4d10-b1cd-d792a39f1ded" cx="-262.13" cy="2.74" fx="-262.13" fy="2.74" r="9.89" xlink:href="#uuid-a4659110-11d8-478d-bdb8-89087e93be25"/>
    <radialGradient id="uuid-cb975066-dbcc-4579-9239-ab40efeb346c" cx="1191.72" cy="-1672.52" fx="1191.72" fy="-1672.52" r="1.55" gradientTransform="translate(346.4 -3860.05) rotate(156.04) scale(1.43 2.08) skewX(-4.38)" xlink:href="#uuid-99773f20-9973-4936-a723-499ba83116bf"/>
    <radialGradient id="uuid-64717e21-9026-4944-9bd0-aeee5b3a47d3" cx="-247.24" cy="-5.86" fx="-247.24" fy="-5.86" r="9.89" xlink:href="#uuid-a4659110-11d8-478d-bdb8-89087e93be25"/>
    <radialGradient id="uuid-7890d62a-3233-43a3-bac3-29639999fdcd" cx="1180.45" cy="-1675.87" fx="1180.45" fy="-1675.87" r="1.55" gradientTransform="translate(346.4 -3860.05) rotate(156.04) scale(1.43 2.08) skewX(-4.38)" xlink:href="#uuid-99773f20-9973-4936-a723-499ba83116bf"/>
  </defs>
  <g class="uuid-f2d7064c-3b71-41c7-af86-82c239ee82ee">
    <g id="uuid-b9785843-6f55-44fb-923e-3c85805b67cd" data-name="Livello 2">
      <g id="uuid-e8a4cdd0-08b1-4485-a461-07ed9d71a7ff" data-name="OBJECTS">
        <g>
          <g>
            <g>
              <path class="uuid-50bae4e4-9936-4a72-8baf-f408edd099bb" d="M48.92,0c13.37,0,24.58,9.25,27.59,21.7,2.43-1.18,5.14-1.86,8.03-1.86,10.2,0,18.47,8.27,18.47,18.47s-8.27,18.47-18.47,18.47h-35.62c-15.68,0-28.39-12.71-28.39-28.39S33.24,0,48.92,0Z"/>
              <path class="uuid-279adebe-701d-4e7b-861c-25afe8886ed1" d="M45.28,27.13c7.39-6,10.28-15.13,6.45-20.4-3.83-5.27-12.94-4.68-20.33,1.31-7.39,6-10.27,15.13-6.44,20.4,3.83,5.27,12.94,4.68,20.33-1.32Z"/>
              <path class="uuid-a08381b0-5415-4cf9-9bb1-5d7b70164bfc" d="M82.48,34.92c4.06-3.3,5.65-8.32,3.54-11.21-2.11-2.9-7.11-2.57-11.17.72-4.06,3.3-5.65,8.32-3.54,11.21,2.11,2.9,7.11,2.57,11.17-.72Z"/>
              <path class="uuid-2d9f816d-386b-4c51-b825-ce74aba47e52" d="M91.49,42.1c4.47-4.52,9.08-6.29,10.31-3.95,1.22,2.33-1.4,7.9-5.87,12.42-4.47,4.52-9.09,6.29-10.31,3.95-1.22-2.34,1.4-7.9,5.87-12.42Z"/>
            </g>
            <g>
              <path class="uuid-2481c184-af42-475c-b910-3dd6b9fd5dc0" d="M28.39,15.35c13.37,0,24.58,9.25,27.59,21.7,2.43-1.18,5.15-1.86,8.03-1.86,10.2,0,18.47,8.27,18.47,18.47s-8.27,18.47-18.47,18.47H28.39c-15.68,0-28.39-12.71-28.39-28.39S12.71,15.35,28.39,15.35Z"/>
              <path class="uuid-cdbe0a4a-b69c-4f59-b121-d53ada4dfad9" d="M24.75,42.48c7.39-6,10.28-15.13,6.45-20.4-3.83-5.27-12.93-4.68-20.33,1.31-7.39,6-10.27,15.13-6.44,20.4,3.84,5.27,12.94,4.68,20.33-1.31Z"/>
              <path class="uuid-800989bd-55fe-4d17-95db-1f5cf3548412" d="M61.95,50.27c4.06-3.3,5.65-8.31,3.54-11.21-2.11-2.9-7.11-2.57-11.17.72-4.06,3.3-5.65,8.32-3.54,11.21,2.11,2.9,7.11,2.57,11.17-.72Z"/>
              <path class="uuid-1f93b394-097c-4c77-ad37-e72d4d7ba7a0" d="M70.97,57.45c4.47-4.52,9.08-6.29,10.31-3.95,1.22,2.34-1.4,7.9-5.87,12.42-4.47,4.52-9.09,6.29-10.31,3.95-1.22-2.34,1.4-7.9,5.87-12.42Z"/>
            </g>
          </g>
          <g>
            <g>
              <path class="uuid-cfc6d690-de20-44a6-9aca-a5fa66e117fc" d="M27.36,86.73c-1.14,1.97-3.65,2.64-5.62,1.5-1.97-1.13-2.64-3.65-1.5-5.62,1.13-1.97,8.16-5.91,8.16-5.91,0,0,.1,8.05-1.04,10.02Z"/>
              <path class="uuid-24c7c10a-21dc-4f3f-b62b-9437f5e6f9e5" d="M20.36,86.05c-.64-1.66-.25-3.42.87-3.91,1.12-.5,2.54.45,3.18,2.12.64,1.67.25,3.42-.87,3.91-1.12.5-2.54-.45-3.18-2.12Z"/>
            </g>
            <g>
              <path class="uuid-a6ba1ba6-ae70-4148-a1c2-6064b788cdc5" d="M44.55,86.73c-1.13,1.97-3.65,2.64-5.62,1.5-1.97-1.13-2.64-3.65-1.51-5.62,1.14-1.97,8.16-5.91,8.16-5.91,0,0,.1,8.05-1.04,10.02Z"/>
              <path class="uuid-24e9a651-268d-4374-95a1-0aebf2391de0" d="M37.55,86.05c-.64-1.66-.25-3.42.87-3.91,1.12-.5,2.54.45,3.17,2.12.64,1.67.25,3.42-.87,3.91-1.12.5-2.54-.45-3.17-2.12Z"/>
            </g>
            <g>
              <path class="uuid-dca56f7a-2e1b-40cb-bd19-514b5e9649de" d="M61.75,86.73c-1.13,1.97-3.65,2.64-5.62,1.5-1.97-1.13-2.64-3.65-1.51-5.62,1.14-1.97,8.16-5.91,8.16-5.91,0,0,.1,8.05-1.04,10.02Z"/>
              <path class="uuid-37d1e5ce-b83d-41d2-a464-b97fe863c838" d="M54.75,86.05c-.64-1.66-.25-3.42.87-3.91,1.12-.5,2.54.45,3.17,2.12.64,1.67.25,3.42-.87,3.91-1.12.5-2.54-.45-3.17-2.12Z"/>
            </g>
          </g>
        </g>
      </g>
    </g>
  </g>
</svg>