<?xml version="1.0" encoding="UTF-8"?>
<svg xmlns="http://www.w3.org/2000/svg" xmlns:xlink="http://www.w3.org/1999/xlink" version="1.1" viewBox="0 0 84.2 92.6">
  <defs>
    <style>
      .cls-1 {
        fill: url(#radial-gradient-2);
      }

      .cls-1, .cls-2, .cls-3, .cls-4, .cls-5, .cls-6, .cls-7, .cls-8, .cls-9, .cls-10, .cls-11, .cls-12 {
        mix-blend-mode: overlay;
      }

      .cls-13 {
        fill: #acadb2;
      }

      .cls-14 {
        fill: url(#radial-gradient);
      }

      .cls-15 {
        fill: url(#Sfumatura_senza_nome_12);
      }

      .cls-16 {
        fill: url(#Sfumatura_senza_nome_17);
      }

      .cls-17 {
        fill: url(#Sfumatura_senza_nome_22);
      }

      .cls-18 {
        fill: url(#Sfumatura_senza_nome_28);
      }

      .cls-19 {
        fill: url(#Sfumatura_senza_nome_26);
      }

      .cls-20 {
        fill: url(#Sfumatura_senza_nome_24);
      }

      .cls-21, .cls-2, .cls-3, .cls-4, .cls-5, .cls-7, .cls-8, .cls-9, .cls-10, .cls-11, .cls-12 {
        isolation: isolate;
      }

      .cls-2 {
        fill: url(#Sfumatura_senza_nome_20);
      }

      .cls-2, .cls-3 {
        opacity: .4;
      }

      .cls-3 {
        fill: url(#Sfumatura_senza_nome_15);
      }

      .cls-4 {
        fill: url(#Sfumatura_senza_nome_21);
      }

      .cls-4, .cls-5 {
        opacity: .2;
      }

      .cls-5 {
        fill: url(#Sfumatura_senza_nome_16);
      }

      .cls-6 {
        fill: url(#Degradado_sin_nombre_34);
        opacity: .4;
      }

      .cls-7 {
        fill: url(#Sfumatura_senza_nome_29);
      }

      .cls-8 {
        fill: url(#Sfumatura_senza_nome_23);
      }

      .cls-9 {
        fill: url(#Sfumatura_senza_nome_25);
      }

      .cls-10 {
        fill: url(#Sfumatura_senza_nome_27);
      }

      .cls-11 {
        fill: url(#Sfumatura_senza_nome_14);
      }

      .cls-12 {
        fill: url(#Sfumatura_senza_nome_19);
      }
    </style>
    <radialGradient id="radial-gradient" cx="-134.4" cy="18.9" fx="-134.4" fy="18.9" r="56" gradientTransform="translate(-90.3) rotate(-180) scale(1 -1)" gradientUnits="userSpaceOnUse">
      <stop offset="0" stop-color="#f8f8f8"/>
      <stop offset=".2" stop-color="#ede9f1"/>
      <stop offset="1" stop-color="#9b9da2"/>
    </radialGradient>
    <radialGradient id="radial-gradient-2" cx="1085.7" cy="-1875.8" fx="1085.7" fy="-1875.8" r="8.4" gradientTransform="translate(-2076.2 -3690) rotate(126) scale(1.4 2.1) skewX(-4.4)" gradientUnits="userSpaceOnUse">
      <stop offset="0" stop-color="#fff"/>
      <stop offset=".1" stop-color="#fff" stop-opacity=".8"/>
      <stop offset=".3" stop-color="#fff" stop-opacity=".6"/>
      <stop offset=".5" stop-color="#fff" stop-opacity=".4"/>
      <stop offset=".6" stop-color="#fff" stop-opacity=".2"/>
      <stop offset=".8" stop-color="#fff" stop-opacity="0"/>
      <stop offset=".9" stop-color="#fff" stop-opacity="0"/>
      <stop offset="1" stop-color="#fff" stop-opacity="0"/>
    </radialGradient>
    <radialGradient id="Degradado_sin_nombre_34" data-name="Degradado sin nombre 34" cx="-2988" cy="2915.4" fx="-2988" fy="2915.4" r="8.1" gradientTransform="translate(-4127.5 -1112.8) rotate(-136.8) scale(1.6 .7) skewX(11.8)" gradientUnits="userSpaceOnUse">
      <stop offset="0" stop-color="#fff"/>
      <stop offset=".1" stop-color="#fff" stop-opacity=".8"/>
      <stop offset=".3" stop-color="#fff" stop-opacity=".6"/>
      <stop offset=".5" stop-color="#fff" stop-opacity=".4"/>
      <stop offset=".6" stop-color="#fff" stop-opacity=".2"/>
      <stop offset=".8" stop-color="#fff" stop-opacity="0"/>
      <stop offset=".9" stop-color="#fff" stop-opacity="0"/>
      <stop offset="1" stop-color="#fff" stop-opacity="0"/>
    </radialGradient>
    <radialGradient id="Sfumatura_senza_nome_12" data-name="Sfumatura senza nome 12" cx="629.3" cy="47.2" fx="629.3" fy="47.2" r="40.5" gradientTransform="translate(640 94) rotate(-180)" gradientUnits="userSpaceOnUse">
      <stop offset="0" stop-color="#fff"/>
      <stop offset=".2" stop-color="#d9f7ff"/>
      <stop offset="1" stop-color="#89c0f5"/>
    </radialGradient>
    <radialGradient id="Sfumatura_senza_nome_14" data-name="Sfumatura senza nome 14" cx="906.5" cy="3732.5" fx="906.5" fy="3732.5" r="4.7" gradientTransform="translate(5290 -5892.6) rotate(54) scale(1.4 2.1) skewX(4.4)" gradientUnits="userSpaceOnUse">
      <stop offset="0" stop-color="#fff"/>
      <stop offset="0" stop-color="#000" stop-opacity=".9"/>
      <stop offset=".3" stop-color="#000" stop-opacity=".6"/>
      <stop offset=".5" stop-color="#000" stop-opacity=".4"/>
      <stop offset=".6" stop-color="#000" stop-opacity=".2"/>
      <stop offset=".8" stop-color="#000" stop-opacity=".1"/>
      <stop offset=".9" stop-color="#000" stop-opacity="0"/>
      <stop offset="1" stop-color="#fff" stop-opacity="0"/>
    </radialGradient>
    <radialGradient id="Sfumatura_senza_nome_15" data-name="Sfumatura senza nome 15" cx="920.5" cy="3725.4" fx="920.5" fy="3725.4" r="2.6" gradientTransform="translate(5290 -5892.6) rotate(54) scale(1.4 2.1) skewX(4.4)" gradientUnits="userSpaceOnUse">
      <stop offset="0" stop-color="#fff"/>
      <stop offset="0" stop-color="#000" stop-opacity=".9"/>
      <stop offset=".3" stop-color="#000" stop-opacity=".6"/>
      <stop offset=".5" stop-color="#000" stop-opacity=".4"/>
      <stop offset=".6" stop-color="#000" stop-opacity=".2"/>
      <stop offset=".8" stop-color="#000" stop-opacity=".1"/>
      <stop offset=".9" stop-color="#000" stop-opacity="0"/>
      <stop offset="1" stop-color="#fff" stop-opacity="0"/>
    </radialGradient>
    <radialGradient id="Sfumatura_senza_nome_16" data-name="Sfumatura senza nome 16" cx="122.7" cy="607" fx="122.7" fy="607" r="2.7" gradientTransform="translate(-719 1239.4) rotate(-147) scale(.8 2.3) skewX(-11.8)" gradientUnits="userSpaceOnUse">
      <stop offset="0" stop-color="#fff"/>
      <stop offset="0" stop-color="#000" stop-opacity=".9"/>
      <stop offset=".3" stop-color="#000" stop-opacity=".6"/>
      <stop offset=".5" stop-color="#000" stop-opacity=".4"/>
      <stop offset=".6" stop-color="#000" stop-opacity=".2"/>
      <stop offset=".8" stop-color="#000" stop-opacity=".1"/>
      <stop offset=".9" stop-color="#000" stop-opacity="0"/>
      <stop offset="1" stop-color="#fff" stop-opacity="0"/>
    </radialGradient>
    <radialGradient id="Sfumatura_senza_nome_17" data-name="Sfumatura senza nome 17" cx="-815.3" cy="66.9" fx="-815.3" fy="66.9" r="32.1" gradientTransform="translate(891.4 94) scale(1 -1)" gradientUnits="userSpaceOnUse">
      <stop offset="0" stop-color="#fff"/>
      <stop offset=".2" stop-color="#d9f7ff"/>
      <stop offset="1" stop-color="#89c0f5"/>
    </radialGradient>
    <radialGradient id="Sfumatura_senza_nome_19" data-name="Sfumatura senza nome 19" cx="1534.8" cy="3165.5" fx="1534.8" fy="3165.5" r="3.8" gradientTransform="translate(-3758.7 -5892.6) rotate(126) scale(1.4 -2.1) skewX(4.4)" gradientUnits="userSpaceOnUse">
      <stop offset="0" stop-color="#fff"/>
      <stop offset="0" stop-color="#000" stop-opacity=".9"/>
      <stop offset=".3" stop-color="#000" stop-opacity=".6"/>
      <stop offset=".5" stop-color="#000" stop-opacity=".4"/>
      <stop offset=".6" stop-color="#000" stop-opacity=".2"/>
      <stop offset=".8" stop-color="#000" stop-opacity=".1"/>
      <stop offset=".9" stop-color="#000" stop-opacity="0"/>
      <stop offset="1" stop-color="#fff" stop-opacity="0"/>
    </radialGradient>
    <radialGradient id="Sfumatura_senza_nome_20" data-name="Sfumatura senza nome 20" cx="1545.9" cy="3159.9" fx="1545.9" fy="3159.9" r="2.1" gradientTransform="translate(-3758.7 -5892.6) rotate(126) scale(1.4 -2.1) skewX(4.4)" gradientUnits="userSpaceOnUse">
      <stop offset="0" stop-color="#fff"/>
      <stop offset="0" stop-color="#000" stop-opacity=".9"/>
      <stop offset=".3" stop-color="#000" stop-opacity=".6"/>
      <stop offset=".5" stop-color="#000" stop-opacity=".4"/>
      <stop offset=".6" stop-color="#000" stop-opacity=".2"/>
      <stop offset=".8" stop-color="#000" stop-opacity=".1"/>
      <stop offset=".9" stop-color="#000" stop-opacity="0"/>
      <stop offset="1" stop-color="#fff" stop-opacity="0"/>
    </radialGradient>
    <radialGradient id="Sfumatura_senza_nome_21" data-name="Sfumatura senza nome 21" cx="-1732.8" cy="915.4" fx="-1732.8" fy="915.4" r="2.2" gradientTransform="translate(2554.2 928.3) rotate(-33) scale(.8 -2.3) skewX(-11.8)" gradientUnits="userSpaceOnUse">
      <stop offset="0" stop-color="#fff"/>
      <stop offset="0" stop-color="#000" stop-opacity=".9"/>
      <stop offset=".3" stop-color="#000" stop-opacity=".6"/>
      <stop offset=".5" stop-color="#000" stop-opacity=".4"/>
      <stop offset=".6" stop-color="#000" stop-opacity=".2"/>
      <stop offset=".8" stop-color="#000" stop-opacity=".1"/>
      <stop offset=".9" stop-color="#000" stop-opacity="0"/>
      <stop offset="1" stop-color="#fff" stop-opacity="0"/>
    </radialGradient>
    <radialGradient id="Sfumatura_senza_nome_22" data-name="Sfumatura senza nome 22" cx="236.6" cy="413.9" fx="236.6" fy="413.9" r="9.9" gradientTransform="translate(-398.8 329.7) rotate(30) scale(1 -1)" gradientUnits="userSpaceOnUse">
      <stop offset="0" stop-color="#d4f6ff"/>
      <stop offset=".2" stop-color="#d9f7ff"/>
      <stop offset="1" stop-color="#89c0f5"/>
    </radialGradient>
    <radialGradient id="Sfumatura_senza_nome_23" data-name="Sfumatura senza nome 23" cx="878.5" cy="3474.7" fx="878.5" fy="3474.7" r="1.5" gradientTransform="translate(-1431.9 -7179.9) rotate(156) scale(1.4 -2.1) skewX(4.4)" gradientUnits="userSpaceOnUse">
      <stop offset="0" stop-color="#fff"/>
      <stop offset="0" stop-color="#000" stop-opacity=".9"/>
      <stop offset=".3" stop-color="#000" stop-opacity=".6"/>
      <stop offset=".5" stop-color="#000" stop-opacity=".4"/>
      <stop offset=".6" stop-color="#000" stop-opacity=".2"/>
      <stop offset=".8" stop-color="#000" stop-opacity=".1"/>
      <stop offset=".9" stop-color="#000" stop-opacity="0"/>
      <stop offset="1" stop-color="#fff" stop-opacity="0"/>
    </radialGradient>
    <radialGradient id="Sfumatura_senza_nome_24" data-name="Sfumatura senza nome 24" cx="-138.4" cy="51.7" fx="-138.4" fy="51.7" r="9.9" gradientTransform="translate(0 94) scale(1 -1)" gradientUnits="userSpaceOnUse">
      <stop offset="0" stop-color="#d4f6ff"/>
      <stop offset=".2" stop-color="#d9f7ff"/>
      <stop offset="1" stop-color="#89c0f5"/>
    </radialGradient>
    <radialGradient id="Sfumatura_senza_nome_25" data-name="Sfumatura senza nome 25" cx="867.2" cy="3478.1" fx="867.2" fy="3478.1" r="1.5" gradientTransform="translate(-1431.9 -7179.9) rotate(156) scale(1.4 -2.1) skewX(4.4)" gradientUnits="userSpaceOnUse">
      <stop offset="0" stop-color="#fff"/>
      <stop offset="0" stop-color="#000" stop-opacity=".9"/>
      <stop offset=".3" stop-color="#000" stop-opacity=".6"/>
      <stop offset=".5" stop-color="#000" stop-opacity=".4"/>
      <stop offset=".6" stop-color="#000" stop-opacity=".2"/>
      <stop offset=".8" stop-color="#000" stop-opacity=".1"/>
      <stop offset=".9" stop-color="#000" stop-opacity="0"/>
      <stop offset="1" stop-color="#fff" stop-opacity="0"/>
    </radialGradient>
    <radialGradient id="Sfumatura_senza_nome_26" data-name="Sfumatura senza nome 26" cx="-123.4" cy="60.4" fx="-123.4" fy="60.4" r="9.9" gradientTransform="translate(0 94) scale(1 -1)" gradientUnits="userSpaceOnUse">
      <stop offset="0" stop-color="#d4f6ff"/>
      <stop offset=".2" stop-color="#d9f7ff"/>
      <stop offset="1" stop-color="#89c0f5"/>
    </radialGradient>
    <radialGradient id="Sfumatura_senza_nome_27" data-name="Sfumatura senza nome 27" cx="855.9" cy="3481.4" fx="855.9" fy="3481.4" r="1.5" gradientTransform="translate(-1431.9 -7179.9) rotate(156) scale(1.4 -2.1) skewX(4.4)" gradientUnits="userSpaceOnUse">
      <stop offset="0" stop-color="#fff"/>
      <stop offset="0" stop-color="#000" stop-opacity=".9"/>
      <stop offset=".3" stop-color="#000" stop-opacity=".6"/>
      <stop offset=".5" stop-color="#000" stop-opacity=".4"/>
      <stop offset=".6" stop-color="#000" stop-opacity=".2"/>
      <stop offset=".8" stop-color="#000" stop-opacity=".1"/>
      <stop offset=".9" stop-color="#000" stop-opacity="0"/>
      <stop offset="1" stop-color="#fff" stop-opacity="0"/>
    </radialGradient>
    <radialGradient id="Sfumatura_senza_nome_28" data-name="Sfumatura senza nome 28" cx="-108.4" cy="69" fx="-108.4" fy="69" r="9.9" gradientTransform="translate(0 94) scale(1 -1)" gradientUnits="userSpaceOnUse">
      <stop offset="0" stop-color="#d4f6ff"/>
      <stop offset=".2" stop-color="#d9f7ff"/>
      <stop offset="1" stop-color="#89c0f5"/>
    </radialGradient>
    <radialGradient id="Sfumatura_senza_nome_29" data-name="Sfumatura senza nome 29" cx="844.5" cy="3484.8" fx="844.5" fy="3484.8" r="1.5" gradientTransform="translate(-1431.9 -7179.9) rotate(156) scale(1.4 -2.1) skewX(4.4)" gradientUnits="userSpaceOnUse">
      <stop offset="0" stop-color="#fff"/>
      <stop offset="0" stop-color="#000" stop-opacity=".9"/>
      <stop offset=".3" stop-color="#000" stop-opacity=".6"/>
      <stop offset=".5" stop-color="#000" stop-opacity=".4"/>
      <stop offset=".6" stop-color="#000" stop-opacity=".2"/>
      <stop offset=".8" stop-color="#000" stop-opacity=".1"/>
      <stop offset=".9" stop-color="#000" stop-opacity="0"/>
      <stop offset="1" stop-color="#fff" stop-opacity="0"/>
    </radialGradient>
  </defs>
  <!-- Generator: Adobe Illustrator 28.6.0, SVG Export Plug-In . SVG Version: 1.2.0 Build 709)  -->
  <g>
    <g id="Livello_1">
      <g class="cls-21">
        <g id="uuid-35ee91e3-b2a6-4fbb-a331-5e2bba8568f8">
          <g id="uuid-f60c4742-fa49-4c0b-a77b-beb86ac8d773">
            <g>
              <g>
                <g>
                  <path class="cls-14" d="M7.9,37.4c0,16.3,13.2,29.5,29.5,29.5s29.5-13.2,29.5-29.5S53.7,7.9,37.4,7.9,7.9,21.1,7.9,37.4Z"/>
                  <g>
                    <path class="cls-13" d="M16.8,42.6c2.8-.2,4.7-3.4,4.4-7-.3-3.6-2.8-6.4-5.6-6.1-2.8.2-4.7,3.4-4.4,7,.3,3.6,2.8,6.4,5.6,6.1Z"/>
                    <path class="cls-13" d="M14.4,45.2c-1.7.9-2.1,3.3-.9,5.5,1.1,2.2,3.4,3.2,5.1,2.4,1.7-.9,2.1-3.3.9-5.5-1.1-2.2-3.4-3.2-5.1-2.4Z"/>
                    <path class="cls-13" d="M21,42.6c-1,.5-1.2,2-.6,3.3s2,1.9,3,1.4c1-.5,1.2-2,.6-3.3-.7-1.3-2-1.9-3-1.4Z"/>
                    <path class="cls-13" d="M64.6,38.4c-.5-3.6-3.2-6.2-5.9-5.8-2.8.4-4.6,3.6-4.1,7.2.5,3.6,3.2,6.2,5.9,5.8,2.8-.4,4.6-3.6,4.1-7.2Z"/>
                    <path class="cls-13" d="M61,29.9c1.6-1,1.9-3.4.7-5.6-1.2-2.1-3.6-3-5.2-2.1-1.6,1-1.9,3.4-.7,5.5,1.2,2.1,3.6,3.1,5.2,2.1Z"/>
                    <path class="cls-13" d="M54.9,29.5c-.7-1.2-2.1-1.8-3.1-1.2-1,.6-1.1,2-.4,3.3.7,1.2,2.1,1.8,3.1,1.2,1-.6,1.1-2,.4-3.3Z"/>
                  </g>
                  <g>
                    <path class="cls-1" d="M41.9,34.3c-7.5-6.1-10.4-15.4-6.5-20.7,3.9-5.4,13.1-4.8,20.6,1.3,7.5,6.1,10.4,15.4,6.5,20.7-3.9,5.4-13.1,4.8-20.6-1.3Z"/>
                    <path class="cls-6" d="M11.3,43.9c1-3.3,6-1.9,11.3,3,5.2,4.9,8.7,11.6,7.7,14.8-1,3.3-6,1.9-11.3-3-5.2-4.9-8.7-11.6-7.7-14.8Z"/>
                  </g>
                </g>
                <g>
                  <path class="cls-15" d="M16.8,42.3c7.7,0,14.1,5.3,15.9,12.5,1.4-.7,3-1.1,4.6-1.1,5.9,0,10.6,4.8,10.6,10.6s-4.8,10.6-10.6,10.6h-20.5c-9,0-16.3-7.3-16.3-16.3s7.3-16.3,16.3-16.3h0Z"/>
                  <path class="cls-11" d="M14.8,57.9c4.2-3.5,5.9-8.7,3.7-11.7-2.2-3-7.4-2.7-11.7.8-4.2,3.5-5.9,8.7-3.7,11.7,2.2,3,7.4,2.7,11.7-.8Z"/>
                  <path class="cls-3" d="M36.1,62.4c2.3-1.9,3.2-4.8,2-6.4-1.2-1.7-4.1-1.5-6.4.4s-3.2,4.8-2,6.4c1.2,1.7,4.1,1.5,6.4-.4Z"/>
                  <path class="cls-5" d="M41.3,66.5c2.6-2.6,5.2-3.6,5.9-2.3.7,1.3-.8,4.5-3.4,7.1-2.6,2.6-5.2,3.6-5.9,2.3-.7-1.3.8-4.5,3.4-7.1Z"/>
                </g>
                <g>
                  <path class="cls-16" d="M71.2,23.5c-6.1,0-11.2,4.2-12.6,9.9-1.1-.5-2.3-.8-3.7-.8-4.7,0-8.4,3.8-8.4,8.4s3.8,8.4,8.4,8.4h16.2c7.2,0,12.9-5.8,12.9-12.9s-5.8-12.9-12.9-12.9h0Z"/>
                  <path class="cls-12" d="M72.9,35.9c-3.4-2.7-4.7-6.9-2.9-9.3,1.8-2.4,5.9-2.1,9.3.6,3.4,2.7,4.7,6.9,2.9,9.3-1.8,2.4-5.9,2.1-9.3-.6Z"/>
                  <path class="cls-2" d="M56,39.4c-1.8-1.5-2.6-3.8-1.6-5.1,1-1.3,3.2-1.2,5.1.3s2.6,3.8,1.6,5.1c-1,1.3-3.2,1.2-5.1-.3Z"/>
                  <path class="cls-4" d="M51.8,42.7c-2-2.1-4.1-2.9-4.7-1.8-.6,1.1.6,3.6,2.7,5.7,2,2.1,4.1,2.9,4.7,1.8.6-1.1-.6-3.6-2.7-5.7Z"/>
                </g>
              </g>
              <g>
                <g>
                  <path class="cls-17" d="M18.5,90.5c-1.1,2-3.6,2.6-5.6,1.5-2-1.1-2.6-3.7-1.5-5.6,1.1-2,8.2-5.9,8.2-5.9,0,0,.1,8.1-1,10h0Z"/>
                  <path class="cls-8" d="M11.5,89.8c-.6-1.7-.2-3.4.9-3.9,1.1-.5,2.5.4,3.2,2.1.6,1.7.2,3.4-.9,3.9-1.1.5-2.5-.4-3.2-2.1Z"/>
                </g>
                <g>
                  <path class="cls-20" d="M35.8,90.5c-1.1,2-3.7,2.6-5.6,1.5s-2.6-3.7-1.5-5.6c1.1-2,8.2-5.9,8.2-5.9,0,0,0,8.1-1,10h0Z"/>
                  <path class="cls-9" d="M28.8,89.8c-.6-1.7-.2-3.4.9-3.9,1.1-.5,2.5.4,3.2,2.1.6,1.7.2,3.4-.9,3.9-1.1.5-2.5-.4-3.2-2.1Z"/>
                </g>
                <g>
                  <path class="cls-19" d="M53.1,90.5c-1.1,2-3.7,2.6-5.6,1.5s-2.6-3.7-1.5-5.6c1.1-2,8.2-5.9,8.2-5.9,0,0,0,8.1-1,10h0Z"/>
                  <path class="cls-10" d="M46.1,89.8c-.6-1.7-.2-3.4.9-3.9,1.1-.5,2.5.4,3.2,2.1.6,1.7.2,3.4-.9,3.9-1.1.5-2.5-.4-3.2-2.1Z"/>
                </g>
                <g>
                  <path class="cls-18" d="M70.4,90.5c-1.1,2-3.7,2.6-5.6,1.5-2-1.1-2.6-3.7-1.5-5.6,1.1-2,8.2-5.9,8.2-5.9,0,0,0,8.1-1,10h0Z"/>
                  <path class="cls-7" d="M63.4,89.8c-.6-1.7-.2-3.4.9-3.9,1.1-.5,2.5.4,3.2,2.1.6,1.7.2,3.4-.9,3.9-1.1.5-2.5-.4-3.2-2.1Z"/>
                </g>
              </g>
            </g>
          </g>
        </g>
      </g>
    </g>
  </g>
</svg>