<?xml version="1.0" encoding="UTF-8"?>
<svg id="uuid-84c49969-b4b2-4405-a639-8bbb8dfff4ad" data-name="Livello_2" xmlns="http://www.w3.org/2000/svg" xmlns:xlink="http://www.w3.org/1999/xlink" viewBox="0 0 79.04 89.95">
  <defs>
    <style>
      .uuid-ece95b73-1870-4eaf-b5a5-128fe039e707 {
        fill: url(#uuid-06004fc0-a2ff-4216-906e-bafce00d3c17);
      }
    </style>
    <radialGradient id="uuid-06004fc0-a2ff-4216-906e-bafce00d3c17" cx="65.32" cy="27.03" fx="65.32" fy="27.03" r="76.71" gradientUnits="userSpaceOnUse">
      <stop offset="0" stop-color="#28cbe9"/>
      <stop offset="1" stop-color="#0a4fbb"/>
    </radialGradient>
  </defs>
  <g id="uuid-b75ddce8-0899-4d49-ba53-7ed8e1ce5714" data-name="Livello_1">
    <path class="uuid-ece95b73-1870-4eaf-b5a5-128fe039e707" d="M76.92,61.7l-8.23-4.75,2.55-1.47c2.02-1.16,2.71-3.75,1.55-5.77-1.17-2.02-3.75-2.71-5.77-1.55l-6.77,3.91-6.25-3.61c.27-1.12.43-2.28.43-3.49s-.16-2.37-.43-3.49l6.25-3.61,6.77,3.91c.66.39,1.39.57,2.11.57,1.46,0,2.88-.76,3.66-2.11,1.17-2.02.47-4.6-1.54-5.77l-2.55-1.47,8.23-4.75c2.02-1.17,2.71-3.75,1.55-5.77-1.17-2.02-3.74-2.71-5.77-1.54l-8.23,4.75v-2.94c0-2.33-1.89-4.22-4.22-4.22h0c-2.33,0-4.22,1.89-4.22,4.22v7.82s-6.26,3.61-6.26,3.61c-1.69-1.6-3.74-2.82-6.03-3.49v-7.21l6.77-3.91c2.02-1.16,2.71-3.75,1.54-5.77-1.17-2.02-3.75-2.71-5.77-1.55l-2.55,1.47V4.22c0-2.33-1.89-4.22-4.22-4.22s-4.22,1.89-4.22,4.22v9.5l-2.55-1.47c-2.02-1.17-4.6-.47-5.77,1.55-1.17,2.02-.47,4.6,1.54,5.77l6.77,3.91v7.21c-2.29.68-4.35,1.89-6.03,3.5l-6.25-3.61v-7.82c0-2.33-1.89-4.22-4.22-4.22s-4.22,1.89-4.22,4.22v2.94l-8.23-4.75c-2.02-1.17-4.6-.48-5.77,1.54-1.17,2.02-.48,4.6,1.54,5.77l8.23,4.75-2.55,1.47c-2.02,1.16-2.71,3.75-1.54,5.77.78,1.35,2.2,2.11,3.66,2.11.71,0,1.44-.18,2.11-.57l6.77-3.91,6.25,3.61c-.27,1.12-.43,2.28-.43,3.49s.16,2.37.43,3.49l-6.25,3.61-6.77-3.91c-2.02-1.17-4.6-.47-5.77,1.54-1.17,2.02-.48,4.6,1.54,5.77l2.55,1.47-8.23,4.75c-2.02,1.16-2.71,3.75-1.54,5.77.78,1.36,2.2,2.11,3.66,2.11.72,0,1.44-.18,2.11-.57l8.22-4.75v2.94c0,2.33,1.89,4.22,4.22,4.22s4.22-1.89,4.22-4.22v-7.82s6.26-3.61,6.26-3.61c1.69,1.6,3.74,2.82,6.03,3.5v7.21l-6.77,3.91c-2.02,1.16-2.71,3.75-1.54,5.77,1.17,2.02,3.75,2.71,5.77,1.54l2.55-1.47v9.5c0,2.33,1.89,4.22,4.22,4.22s4.22-1.89,4.22-4.22v-9.5l2.54,1.47c.66.38,1.39.57,2.11.57,1.46,0,2.88-.76,3.66-2.11,1.17-2.02.48-4.6-1.54-5.77l-6.77-3.91v-7.21c2.29-.67,4.35-1.89,6.03-3.49l6.25,3.61v7.82c0,2.33,1.89,4.22,4.22,4.22s4.22-1.89,4.22-4.22v-2.94l8.23,4.75c.66.38,1.39.57,2.11.57,1.46,0,2.88-.76,3.66-2.11,1.16-2.02.47-4.6-1.55-5.77ZM39.52,51.44c-3.57,0-6.47-2.9-6.47-6.47s2.9-6.47,6.47-6.47,6.47,2.9,6.47,6.47-2.9,6.47-6.47,6.47Z"/>
  </g>
</svg>