<?xml version="1.0" encoding="UTF-8"?>
<svg xmlns="http://www.w3.org/2000/svg" xmlns:xlink="http://www.w3.org/1999/xlink" viewBox="0 0 103 88.78">
  <defs>
    <style>
      .uuid-821cf61a-8da1-4201-99a0-38aecb50946c {
        fill: url(#uuid-300bb9c2-72e2-41ad-9641-2281486a5845);
      }

      .uuid-821cf61a-8da1-4201-99a0-38aecb50946c, .uuid-3a460556-ec9a-4897-b7ac-08417c0a6f39, .uuid-b4984347-2493-4a91-b2bf-05e68afabe11, .uuid-c8e8164f-50fd-4387-9d7d-8576800faa39, .uuid-138f1a93-941a-4c84-82ea-2fc18b3d78d4, .uuid-50cf4c3e-4ae7-48bf-8086-85a58aef2664, .uuid-7aba545d-5195-4c7f-8f3b-2d40b61efba5, .uuid-2e9546d6-112b-4d8f-9054-4c622ce94327, .uuid-6e00d7a9-08f2-4b40-940d-2c9ba33bceb1, .uuid-055e561d-92e4-463b-acbb-408ffa65a9ab, .uuid-ded870d9-50a7-4023-9c23-241ef55596e5, .uuid-fd300288-2623-403a-af12-2f38e4717ecb, .uuid-157a169b-7ca8-4b2c-9d9c-e4d2999e91cc, .uuid-47df16cb-c792-4c34-b0ba-98d8ed1db6a6, .uuid-e0f999a5-4e82-4baf-9a2f-c431d00ac3f5, .uuid-5a387456-388e-4fbe-842b-5b41c108dd65, .uuid-c56538ad-25ce-431b-b5e5-fa60329579a4, .uuid-8951d031-4f93-40d6-bc99-471b238bbdfe {
        stroke-width: 0px;
      }

      .uuid-3a460556-ec9a-4897-b7ac-08417c0a6f39 {
        fill: url(#uuid-eb0549b3-b3f1-4b0d-ad83-b69c64daac29);
      }

      .uuid-b4984347-2493-4a91-b2bf-05e68afabe11 {
        fill: url(#uuid-ee024b96-79a8-4148-8851-30fa339e275b);
      }

      .uuid-b4984347-2493-4a91-b2bf-05e68afabe11, .uuid-c8e8164f-50fd-4387-9d7d-8576800faa39, .uuid-138f1a93-941a-4c84-82ea-2fc18b3d78d4, .uuid-50cf4c3e-4ae7-48bf-8086-85a58aef2664, .uuid-2e9546d6-112b-4d8f-9054-4c622ce94327, .uuid-055e561d-92e4-463b-acbb-408ffa65a9ab, .uuid-ded870d9-50a7-4023-9c23-241ef55596e5, .uuid-fd300288-2623-403a-af12-2f38e4717ecb, .uuid-157a169b-7ca8-4b2c-9d9c-e4d2999e91cc, .uuid-c56538ad-25ce-431b-b5e5-fa60329579a4, .uuid-8951d031-4f93-40d6-bc99-471b238bbdfe {
        mix-blend-mode: overlay;
      }

      .uuid-c8e8164f-50fd-4387-9d7d-8576800faa39 {
        fill: url(#uuid-c94ec72d-8ec8-4991-9bc8-2d69e645bbab);
        opacity: .3;
      }

      .uuid-138f1a93-941a-4c84-82ea-2fc18b3d78d4 {
        fill: url(#uuid-6da1b381-e7e9-4832-8167-9ffbffdb78b9);
      }

      .uuid-50cf4c3e-4ae7-48bf-8086-85a58aef2664 {
        fill: url(#uuid-0bb4ed73-ac4e-4c9a-b106-1918d979bc7e);
        opacity: .4;
      }

      .uuid-7aba545d-5195-4c7f-8f3b-2d40b61efba5 {
        fill: url(#uuid-47771e8a-f29d-43cb-b5e5-92f7de92ac6d);
      }

      .uuid-2e9546d6-112b-4d8f-9054-4c622ce94327 {
        fill: url(#uuid-033872b4-3745-453d-b470-db9cf80137eb);
      }

      .uuid-6e00d7a9-08f2-4b40-940d-2c9ba33bceb1 {
        fill: url(#uuid-f35e2854-cd27-42a5-be3e-da8bde3964bc);
      }

      .uuid-055e561d-92e4-463b-acbb-408ffa65a9ab {
        fill: url(#uuid-353fc366-a407-456b-9e27-a92b6ede64c6);
      }

      .uuid-055e561d-92e4-463b-acbb-408ffa65a9ab, .uuid-fd300288-2623-403a-af12-2f38e4717ecb {
        opacity: .2;
      }

      .uuid-ded870d9-50a7-4023-9c23-241ef55596e5 {
        fill: url(#uuid-0fb9f435-9e4e-4dfa-a89f-05faed9fca01);
      }

      .uuid-fd300288-2623-403a-af12-2f38e4717ecb {
        fill: url(#uuid-c0dd98de-8d38-4209-bdfc-297dc139a357);
      }

      .uuid-24ed061a-8330-4c4f-a7ce-409098b51294 {
        isolation: isolate;
      }

      .uuid-157a169b-7ca8-4b2c-9d9c-e4d2999e91cc {
        fill: url(#uuid-067885e6-c27e-4023-b015-390bb942f774);
      }

      .uuid-47df16cb-c792-4c34-b0ba-98d8ed1db6a6 {
        fill: url(#uuid-2bb147e1-6e4f-468f-8eca-a6fb8ef42a2d);
      }

      .uuid-e0f999a5-4e82-4baf-9a2f-c431d00ac3f5 {
        fill: url(#uuid-99d4b3ae-ad98-495b-a641-81c7d55f7eca);
      }

      .uuid-5a387456-388e-4fbe-842b-5b41c108dd65 {
        fill: url(#uuid-0880baa9-137d-4b21-ae16-bef0c4abfd35);
      }

      .uuid-c56538ad-25ce-431b-b5e5-fa60329579a4 {
        fill: url(#uuid-a1b916a7-cc96-485a-bbc3-b3c00e60f777);
        opacity: .5;
      }

      .uuid-8951d031-4f93-40d6-bc99-471b238bbdfe {
        fill: url(#uuid-7ca328a7-d6da-4dca-9879-07536019275d);
      }
    </style>
    <radialGradient id="uuid-300bb9c2-72e2-41ad-9641-2281486a5845" cx="1080.04" cy="7.79" fx="1080.04" fy="7.79" r="70.49" gradientTransform="translate(1118.31) rotate(-180) scale(1 -1)" gradientUnits="userSpaceOnUse">
      <stop offset="0" stop-color="#bad0d6"/>
      <stop offset=".2" stop-color="#9bbac2"/>
      <stop offset="1" stop-color="#5d8bb8"/>
    </radialGradient>
    <radialGradient id="uuid-a1b916a7-cc96-485a-bbc3-b3c00e60f777" cx="414.09" cy="-2250.4" fx="414.09" fy="-2250.4" r="8.27" gradientTransform="translate(3333.34 -3413.98) rotate(53.97) scale(1.43 -2.08) skewX(-4.38)" gradientUnits="userSpaceOnUse">
      <stop offset="0" stop-color="#fff"/>
      <stop offset=".1" stop-color="rgba(255, 255, 255, .85)" stop-opacity=".85"/>
      <stop offset=".29" stop-color="rgba(255, 255, 255, .59)" stop-opacity=".59"/>
      <stop offset=".47" stop-color="rgba(255, 255, 255, .38)" stop-opacity=".38"/>
      <stop offset=".63" stop-color="rgba(255, 255, 255, .22)" stop-opacity=".22"/>
      <stop offset=".78" stop-color="rgba(255, 255, 255, .1)" stop-opacity=".1"/>
      <stop offset=".91" stop-color="rgba(255, 255, 255, .03)" stop-opacity=".03"/>
      <stop offset="1" stop-color="#fff" stop-opacity="0"/>
    </radialGradient>
    <radialGradient id="uuid-c94ec72d-8ec8-4991-9bc8-2d69e645bbab" cx="438.51" cy="-2238.15" fx="438.51" fy="-2238.15" r="4.55" xlink:href="#uuid-a1b916a7-cc96-485a-bbc3-b3c00e60f777"/>
    <radialGradient id="uuid-c0dd98de-8d38-4209-bdfc-297dc139a357" data-name="Degradado sin nombre 34" cx="1186.5" cy="29.76" fx="1186.5" fy="29.76" r="4.75" gradientTransform="translate(972.59 535.65) rotate(-146.99) scale(.84 -2.3) skewX(11.81)" gradientUnits="userSpaceOnUse">
      <stop offset="0" stop-color="#fff"/>
      <stop offset=".1" stop-color="rgba(255, 255, 255, .85)" stop-opacity=".85"/>
      <stop offset=".29" stop-color="rgba(255, 255, 255, .59)" stop-opacity=".59"/>
      <stop offset=".47" stop-color="rgba(255, 255, 255, .38)" stop-opacity=".38"/>
      <stop offset=".63" stop-color="rgba(255, 255, 255, .22)" stop-opacity=".22"/>
      <stop offset=".78" stop-color="rgba(255, 255, 255, .1)" stop-opacity=".1"/>
      <stop offset=".91" stop-color="rgba(255, 255, 255, .03)" stop-opacity=".03"/>
      <stop offset="1" stop-color="#fff" stop-opacity="0"/>
    </radialGradient>
    <radialGradient id="uuid-f35e2854-cd27-42a5-be3e-da8bde3964bc" cx="1100.56" cy="23.14" fx="1100.56" fy="23.14" r="70.49" gradientTransform="translate(1118.31) rotate(-180) scale(1 -1)" gradientUnits="userSpaceOnUse">
      <stop offset="0" stop-color="#fff"/>
      <stop offset=".2" stop-color="#d9f7ff"/>
      <stop offset="1" stop-color="#89c0f5"/>
    </radialGradient>
    <radialGradient id="uuid-033872b4-3745-453d-b470-db9cf80137eb" cx="413.38" cy="-2262.72" fx="413.38" fy="-2262.72" r="8.27" xlink:href="#uuid-a1b916a7-cc96-485a-bbc3-b3c00e60f777"/>
    <radialGradient id="uuid-0bb4ed73-ac4e-4c9a-b106-1918d979bc7e" cx="437.8" cy="-2250.46" fx="437.8" fy="-2250.46" r="4.55" xlink:href="#uuid-a1b916a7-cc96-485a-bbc3-b3c00e60f777"/>
    <radialGradient id="uuid-353fc366-a407-456b-9e27-a92b6ede64c6" data-name="Degradado sin nombre 34" cx="1207.22" cy="53.6" fx="1207.22" fy="53.6" r="4.75" gradientTransform="translate(1000.05 516.84) rotate(-146.99) scale(.84 -2.3) skewX(11.81)" xlink:href="#uuid-c0dd98de-8d38-4209-bdfc-297dc139a357"/>
    <radialGradient id="uuid-99d4b3ae-ad98-495b-a641-81c7d55f7eca" cx="-295.98" cy="-54.86" fx="-295.98" fy="-54.86" r="9.89" gradientTransform="translate(249.52 281.29) rotate(30)" gradientUnits="userSpaceOnUse">
      <stop offset="0" stop-color="#d4f6ff"/>
      <stop offset=".2" stop-color="#d9f7ff"/>
      <stop offset="1" stop-color="#89c0f5"/>
    </radialGradient>
    <radialGradient id="uuid-ee024b96-79a8-4148-8851-30fa339e275b" cx="982.58" cy="-1695" fx="982.58" fy="-1695" r="1.55" gradientTransform="translate(38.59 -3782.63) rotate(156.04) scale(1.43 2.08) skewX(-4.38)" xlink:href="#uuid-a1b916a7-cc96-485a-bbc3-b3c00e60f777"/>
    <radialGradient id="uuid-0880baa9-137d-4b21-ae16-bef0c4abfd35" cx="-276.37" cy="-66.19" fx="-276.37" fy="-66.19" r="9.89" xlink:href="#uuid-99d4b3ae-ad98-495b-a641-81c7d55f7eca"/>
    <radialGradient id="uuid-0fb9f435-9e4e-4dfa-a89f-05faed9fca01" cx="967.73" cy="-1699.42" fx="967.73" fy="-1699.42" r="1.55" gradientTransform="translate(38.59 -3782.63) rotate(156.04) scale(1.43 2.08) skewX(-4.38)" xlink:href="#uuid-a1b916a7-cc96-485a-bbc3-b3c00e60f777"/>
    <radialGradient id="uuid-47771e8a-f29d-43cb-b5e5-92f7de92ac6d" cx="-256.75" cy="-77.51" fx="-256.75" fy="-77.51" r="9.89" xlink:href="#uuid-99d4b3ae-ad98-495b-a641-81c7d55f7eca"/>
    <radialGradient id="uuid-7ca328a7-d6da-4dca-9879-07536019275d" cx="952.88" cy="-1703.84" fx="952.88" fy="-1703.84" r="1.55" gradientTransform="translate(38.59 -3782.63) rotate(156.04) scale(1.43 2.08) skewX(-4.38)" xlink:href="#uuid-a1b916a7-cc96-485a-bbc3-b3c00e60f777"/>
    <radialGradient id="uuid-2bb147e1-6e4f-468f-8eca-a6fb8ef42a2d" cx="-291.28" cy="-71.68" fx="-291.28" fy="-71.68" r="14.06" xlink:href="#uuid-99d4b3ae-ad98-495b-a641-81c7d55f7eca"/>
    <radialGradient id="uuid-6da1b381-e7e9-4832-8167-9ffbffdb78b9" cx="971.12" cy="-1692" fx="971.12" fy="-1692" r="2.2" gradientTransform="translate(38.59 -3782.63) rotate(156.04) scale(1.43 2.08) skewX(-4.38)" xlink:href="#uuid-a1b916a7-cc96-485a-bbc3-b3c00e60f777"/>
    <radialGradient id="uuid-eb0549b3-b3f1-4b0d-ad83-b69c64daac29" cx="-270.11" cy="-83.9" fx="-270.11" fy="-83.9" r="14.06" xlink:href="#uuid-99d4b3ae-ad98-495b-a641-81c7d55f7eca"/>
    <radialGradient id="uuid-067885e6-c27e-4023-b015-390bb942f774" cx="955.1" cy="-1696.77" fx="955.1" fy="-1696.77" r="2.2" gradientTransform="translate(38.59 -3782.63) rotate(156.04) scale(1.43 2.08) skewX(-4.38)" xlink:href="#uuid-a1b916a7-cc96-485a-bbc3-b3c00e60f777"/>
  </defs>
  <g class="uuid-24ed061a-8330-4c4f-a7ce-409098b51294">
    <g id="uuid-5fe6d9ed-99c2-4a1d-8bea-94b5f5b88f20" data-name="Livello 2">
      <g id="uuid-9f4fc509-49da-4a87-9838-7781ba96d93d" data-name="OBJECTS">
        <g>
          <g>
            <g>
              <path class="uuid-821cf61a-8da1-4201-99a0-38aecb50946c" d="M48.92,0c13.37,0,24.58,9.25,27.59,21.7,2.43-1.18,5.14-1.86,8.03-1.86,10.2,0,18.47,8.27,18.47,18.47s-8.27,18.47-18.47,18.47h-35.62c-15.68,0-28.39-12.71-28.39-28.39S33.24,0,48.92,0Z"/>
              <path class="uuid-c56538ad-25ce-431b-b5e5-fa60329579a4" d="M45.28,27.13c7.39-6,10.28-15.13,6.45-20.4-3.83-5.27-12.94-4.68-20.33,1.31-7.39,6-10.27,15.13-6.44,20.4,3.83,5.27,12.94,4.68,20.33-1.32Z"/>
              <path class="uuid-c8e8164f-50fd-4387-9d7d-8576800faa39" d="M82.48,34.92c4.06-3.3,5.65-8.32,3.54-11.21-2.11-2.9-7.11-2.57-11.17.72-4.06,3.3-5.65,8.32-3.54,11.21,2.11,2.9,7.11,2.57,11.17-.72Z"/>
              <path class="uuid-fd300288-2623-403a-af12-2f38e4717ecb" d="M91.49,42.1c4.47-4.52,9.08-6.29,10.31-3.95,1.22,2.33-1.4,7.9-5.87,12.42-4.47,4.52-9.09,6.29-10.31,3.95-1.22-2.34,1.4-7.9,5.87-12.42Z"/>
            </g>
            <g>
              <path class="uuid-6e00d7a9-08f2-4b40-940d-2c9ba33bceb1" d="M28.39,15.35c13.37,0,24.58,9.25,27.59,21.7,2.43-1.18,5.15-1.86,8.03-1.86,10.2,0,18.47,8.27,18.47,18.47s-8.27,18.47-18.47,18.47H28.39c-15.68,0-28.39-12.71-28.39-28.39S12.71,15.35,28.39,15.35Z"/>
              <path class="uuid-2e9546d6-112b-4d8f-9054-4c622ce94327" d="M24.75,42.48c7.39-6,10.28-15.13,6.45-20.4-3.83-5.27-12.93-4.68-20.33,1.31-7.39,6-10.27,15.13-6.44,20.4,3.84,5.27,12.94,4.68,20.33-1.31Z"/>
              <path class="uuid-50cf4c3e-4ae7-48bf-8086-85a58aef2664" d="M61.95,50.27c4.06-3.3,5.65-8.31,3.54-11.21-2.11-2.9-7.11-2.57-11.17.72-4.06,3.3-5.65,8.32-3.54,11.21,2.11,2.9,7.11,2.57,11.17-.72Z"/>
              <path class="uuid-055e561d-92e4-463b-acbb-408ffa65a9ab" d="M70.97,57.45c4.47-4.52,9.08-6.29,10.31-3.95,1.22,2.34-1.4,7.9-5.87,12.42-4.47,4.52-9.09,6.29-10.31,3.95-1.22-2.34,1.4-7.9,5.87-12.42Z"/>
            </g>
          </g>
          <g>
            <g>
              <path class="uuid-e0f999a5-4e82-4baf-9a2f-c431d00ac3f5" d="M26.14,86.73c-1.14,1.97-3.65,2.64-5.62,1.5-1.97-1.13-2.64-3.65-1.5-5.62,1.13-1.97,8.16-5.91,8.16-5.91,0,0,.1,8.05-1.04,10.02Z"/>
              <path class="uuid-b4984347-2493-4a91-b2bf-05e68afabe11" d="M19.14,86.05c-.64-1.66-.25-3.42.87-3.91,1.12-.5,2.54.45,3.18,2.12.64,1.67.25,3.42-.87,3.91-1.12.5-2.54-.45-3.18-2.12Z"/>
            </g>
            <g>
              <path class="uuid-5a387456-388e-4fbe-842b-5b41c108dd65" d="M48.79,86.73c-1.13,1.97-3.65,2.64-5.62,1.5-1.97-1.13-2.64-3.65-1.51-5.62,1.14-1.97,8.16-5.91,8.16-5.91,0,0,.1,8.05-1.04,10.02Z"/>
              <path class="uuid-ded870d9-50a7-4023-9c23-241ef55596e5" d="M41.79,86.05c-.64-1.66-.25-3.42.87-3.91,1.12-.5,2.54.45,3.17,2.12.64,1.67.25,3.42-.87,3.91-1.12.5-2.54-.45-3.17-2.12Z"/>
            </g>
            <g>
              <path class="uuid-7aba545d-5195-4c7f-8f3b-2d40b61efba5" d="M71.44,86.73c-1.13,1.97-3.65,2.64-5.62,1.5-1.97-1.13-2.64-3.65-1.51-5.62,1.14-1.97,8.16-5.91,8.16-5.91,0,0,.1,8.05-1.04,10.02Z"/>
              <path class="uuid-8951d031-4f93-40d6-bc99-471b238bbdfe" d="M64.44,86.05c-.64-1.66-.25-3.42.87-3.91,1.12-.5,2.54.45,3.17,2.12.64,1.67.25,3.42-.87,3.91-1.12.5-2.54-.45-3.17-2.12Z"/>
            </g>
          </g>
          <g>
            <g>
              <path class="uuid-47df16cb-c792-4c34-b0ba-98d8ed1db6a6" d="M40.94,74.91c-1.62,2.8-5.19,3.75-7.99,2.14-2.8-1.61-3.75-5.19-2.14-7.98,1.61-2.8,11.59-8.4,11.59-8.4,0,0,.14,11.44-1.47,14.24Z"/>
              <path class="uuid-138f1a93-941a-4c84-82ea-2fc18b3d78d4" d="M30.98,73.94c-.91-2.37-.36-4.86,1.23-5.56,1.59-.71,3.61.64,4.51,3.01.91,2.37.35,4.86-1.23,5.56-1.59.71-3.61-.64-4.51-3.01Z"/>
            </g>
            <g>
              <path class="uuid-3a460556-ec9a-4897-b7ac-08417c0a6f39" d="M65.37,74.91c-1.61,2.8-5.19,3.75-7.98,2.14-2.8-1.61-3.75-5.19-2.14-7.98,1.62-2.8,11.6-8.4,11.6-8.4,0,0,.14,11.44-1.47,14.24Z"/>
              <path class="uuid-157a169b-7ca8-4b2c-9d9c-e4d2999e91cc" d="M55.42,73.94c-.91-2.37-.36-4.86,1.23-5.56,1.58-.71,3.61.64,4.51,3.01.91,2.37.36,4.86-1.23,5.56-1.59.71-3.61-.64-4.51-3.01Z"/>
            </g>
          </g>
        </g>
      </g>
    </g>
  </g>
</svg>