<?xml version="1.0" encoding="UTF-8"?>
<svg xmlns="http://www.w3.org/2000/svg" xmlns:xlink="http://www.w3.org/1999/xlink" viewBox="0 0 53.34 63.49">
  <defs>
    <style>
      .uuid-95f062a3-1b35-4ac7-90fb-23559493cb40 {
        fill: url(#uuid-b751de25-169f-4266-b3bb-d03ee0139a8b);
      }

      .uuid-95f062a3-1b35-4ac7-90fb-23559493cb40, .uuid-1ab93d44-af73-4be0-bd9f-6ccd21a062c0, .uuid-ba46ecd2-ede6-48b2-b1a2-b46a50ef940c, .uuid-4ea8f8c5-7904-48d0-8e99-a737d3d97cde, .uuid-99334db6-5409-4364-b08e-a1c84ec6df50, .uuid-4178e802-de95-4b28-ac59-c091e6958e0a, .uuid-5c38b7ee-9067-49c0-9e8d-b2bbca12063d, .uuid-fbedc387-f5b5-4f04-8679-3b6b0a656484, .uuid-d558f1dd-60d1-4acb-bf21-0a268f2e2ef7, .uuid-eb8d4923-a309-45cc-9f3b-acfb24ba8199, .uuid-950380e9-c26e-488e-ab9c-5b141ffbc62f, .uuid-2419f066-ff04-49d7-b389-f0d6a3730605, .uuid-438a2a57-5b1f-40a3-bd4f-954d38b13c28 {
        stroke-width: 0px;
      }

      .uuid-1ab93d44-af73-4be0-bd9f-6ccd21a062c0 {
        fill: url(#uuid-96dbb1f1-feb6-4cbf-9bab-fc9738f3b689);
        opacity: .4;
      }

      .uuid-1ab93d44-af73-4be0-bd9f-6ccd21a062c0, .uuid-2419f066-ff04-49d7-b389-f0d6a3730605 {
        mix-blend-mode: overlay;
      }

      .uuid-ba46ecd2-ede6-48b2-b1a2-b46a50ef940c {
        fill: url(#uuid-3bf56b86-f5a7-4c4c-a953-35d9e55da0e6);
      }

      .uuid-4ea8f8c5-7904-48d0-8e99-a737d3d97cde {
        fill: url(#uuid-da8aeaa0-a69f-414d-9038-6eb7b2e6da67);
      }

      .uuid-99334db6-5409-4364-b08e-a1c84ec6df50 {
        fill: url(#uuid-d28be5a8-5817-4c45-91c9-d168b2864616);
      }

      .uuid-4178e802-de95-4b28-ac59-c091e6958e0a {
        fill: url(#uuid-762c0b87-5cab-4366-97cc-97447a37d3dc);
      }

      .uuid-5c38b7ee-9067-49c0-9e8d-b2bbca12063d {
        fill: url(#uuid-1ecb5aa7-ccd5-4565-8cee-b9033a4cd198);
      }

      .uuid-fbedc387-f5b5-4f04-8679-3b6b0a656484 {
        fill: url(#uuid-1a504ad3-3161-4924-95dc-aeb28006aac6);
      }

      .uuid-d558f1dd-60d1-4acb-bf21-0a268f2e2ef7 {
        fill: url(#uuid-78cf75d2-93d7-4588-ba5d-d97f20ccf7f4);
      }

      .uuid-eb8d4923-a309-45cc-9f3b-acfb24ba8199 {
        fill: url(#uuid-b26fee97-ddc4-4459-918b-dd6afc632c1b);
      }

      .uuid-950380e9-c26e-488e-ab9c-5b141ffbc62f {
        fill: url(#uuid-c9fb6ce0-bf32-464e-9028-8601c5bc3ab8);
      }

      .uuid-2419f066-ff04-49d7-b389-f0d6a3730605 {
        fill: url(#uuid-16378334-9d3a-4968-9012-ac2cbf2270c6);
      }

      .uuid-0ea0835c-c5c2-4636-8d43-86032f1700e8 {
        isolation: isolate;
      }

      .uuid-438a2a57-5b1f-40a3-bd4f-954d38b13c28 {
        fill: url(#uuid-b1dc68d5-4d8a-4f78-8381-51db1e31e82c);
      }
    </style>
    <radialGradient id="uuid-b26fee97-ddc4-4459-918b-dd6afc632c1b" cx="350.04" cy="23.66" fx="350.04" fy="23.66" r="27.55" gradientTransform="translate(383.64) rotate(-180) scale(1 -1)" gradientUnits="userSpaceOnUse">
      <stop offset="0" stop-color="#fff8c7"/>
      <stop offset=".16" stop-color="#ffe436"/>
      <stop offset="1" stop-color="#fe761c"/>
    </radialGradient>
    <radialGradient id="uuid-16378334-9d3a-4968-9012-ac2cbf2270c6" cx="1536.69" cy="-2020.44" fx="1536.69" fy="-2020.44" r="4.14" gradientTransform="translate(-1944.74 -4398.27) rotate(126.03) scale(1.43 2.08) skewX(-4.38)" gradientUnits="userSpaceOnUse">
      <stop offset="0" stop-color="#fff"/>
      <stop offset=".1" stop-color="rgba(255, 255, 255, .85)" stop-opacity=".85"/>
      <stop offset=".29" stop-color="rgba(255, 255, 255, .59)" stop-opacity=".59"/>
      <stop offset=".47" stop-color="rgba(255, 255, 255, .38)" stop-opacity=".38"/>
      <stop offset=".63" stop-color="rgba(255, 255, 255, .22)" stop-opacity=".22"/>
      <stop offset=".78" stop-color="rgba(255, 255, 255, .1)" stop-opacity=".1"/>
      <stop offset=".91" stop-color="rgba(255, 255, 255, .03)" stop-opacity=".03"/>
      <stop offset="1" stop-color="#fff" stop-opacity="0"/>
    </radialGradient>
    <radialGradient id="uuid-96dbb1f1-feb6-4cbf-9bab-fc9738f3b689" data-name="Degradado sin nombre 34" cx="-2630.19" cy="2303.65" fx="-2630.19" fy="2303.65" r="3.99" gradientTransform="translate(-3571.07 -1176.94) rotate(-136.79) scale(1.61 .68) skewX(11.83)" gradientUnits="userSpaceOnUse">
      <stop offset="0" stop-color="#fff"/>
      <stop offset=".1" stop-color="rgba(255, 255, 255, .85)" stop-opacity=".85"/>
      <stop offset=".29" stop-color="rgba(255, 255, 255, .59)" stop-opacity=".59"/>
      <stop offset=".47" stop-color="rgba(255, 255, 255, .38)" stop-opacity=".38"/>
      <stop offset=".63" stop-color="rgba(255, 255, 255, .22)" stop-opacity=".22"/>
      <stop offset=".78" stop-color="rgba(255, 255, 255, .1)" stop-opacity=".1"/>
      <stop offset=".91" stop-color="rgba(255, 255, 255, .03)" stop-opacity=".03"/>
      <stop offset="1" stop-color="#fff" stop-opacity="0"/>
    </radialGradient>
    <radialGradient id="uuid-b1dc68d5-4d8a-4f78-8381-51db1e31e82c" cx="30.6" cy="10.59" fx="30.6" fy="10.59" r="4.79" gradientTransform="matrix(1,0,0,1,0,0)" xlink:href="#uuid-b26fee97-ddc4-4459-918b-dd6afc632c1b"/>
    <radialGradient id="uuid-1ecb5aa7-ccd5-4565-8cee-b9033a4cd198" cx="380.04" cy="-453.35" fx="380.04" fy="-453.35" r="4.79" gradientTransform="translate(66.66 606.15) rotate(-45)" xlink:href="#uuid-b26fee97-ddc4-4459-918b-dd6afc632c1b"/>
    <radialGradient id="uuid-da8aeaa0-a69f-414d-9038-6eb7b2e6da67" cx="955.11" cy="-534.49" fx="955.11" fy="-534.49" r="4.79" gradientTransform="translate(542.6 987.55) rotate(-90)" xlink:href="#uuid-b26fee97-ddc4-4459-918b-dd6afc632c1b"/>
    <radialGradient id="uuid-d28be5a8-5817-4c45-91c9-d168b2864616" cx="1419.21" cy="-185.05" fx="1419.21" fy="-185.05" r="4.79" gradientTransform="translate(1148.75 920.88) rotate(-135)" xlink:href="#uuid-b26fee97-ddc4-4459-918b-dd6afc632c1b"/>
    <radialGradient id="uuid-1a504ad3-3161-4924-95dc-aeb28006aac6" cx="1500.18" cy="390.02" fx="1500.18" fy="390.02" r="4.79" gradientTransform="translate(1530.14 444.95) rotate(-180)" xlink:href="#uuid-b26fee97-ddc4-4459-918b-dd6afc632c1b"/>
    <radialGradient id="uuid-3bf56b86-f5a7-4c4c-a953-35d9e55da0e6" cx="1150.91" cy="854.12" fx="1150.91" fy="854.12" r="4.79" gradientTransform="translate(1463.48 -161.2) rotate(135)" xlink:href="#uuid-b26fee97-ddc4-4459-918b-dd6afc632c1b"/>
    <radialGradient id="uuid-b751de25-169f-4266-b3bb-d03ee0139a8b" cx="575.68" cy="935.1" fx="575.68" fy="935.1" r="4.79" gradientTransform="translate(987.55 -542.6) rotate(90)" xlink:href="#uuid-b26fee97-ddc4-4459-918b-dd6afc632c1b"/>
    <radialGradient id="uuid-78cf75d2-93d7-4588-ba5d-d97f20ccf7f4" cx="111.74" cy="585.82" fx="111.74" fy="585.82" r="4.79" gradientTransform="translate(381.41 -475.94) rotate(45)" xlink:href="#uuid-b26fee97-ddc4-4459-918b-dd6afc632c1b"/>
    <linearGradient id="uuid-762c0b87-5cab-4366-97cc-97447a37d3dc" x1="13.06" y1=".93" x2="13.06" y2="27.36" gradientUnits="userSpaceOnUse">
      <stop offset="0" stop-color="#ed3c28"/>
      <stop offset="1" stop-color="#bf160a"/>
    </linearGradient>
    <radialGradient id="uuid-c9fb6ce0-bf32-464e-9028-8601c5bc3ab8" cx="9.41" cy="58.01" fx="9.41" fy="58.01" r="20.31" gradientUnits="userSpaceOnUse">
      <stop offset="0" stop-color="#ff949e"/>
      <stop offset=".2" stop-color="#ed3c28"/>
      <stop offset="1" stop-color="#bf160a"/>
    </radialGradient>
  </defs>
  <g class="uuid-0ea0835c-c5c2-4636-8d43-86032f1700e8">
    <g id="uuid-3791aa25-7b65-4a02-80d3-c6922cabdd59" data-name="Livello 2">
      <g id="uuid-2029e491-8360-4318-a2ba-7abe923ae71f" data-name="OBJECTS">
        <g>
          <g>
            <path class="uuid-eb8d4923-a309-45cc-9f3b-acfb24ba8199" d="M15.77,32.76c0,8.01,6.5,14.51,14.51,14.51s14.51-6.5,14.51-14.51-6.5-14.51-14.51-14.51-14.51,6.5-14.51,14.51Z"/>
            <g>
              <path class="uuid-2419f066-ff04-49d7-b389-f0d6a3730605" d="M32.49,31.27c-3.7-3-5.14-7.56-3.22-10.2,1.92-2.63,6.47-2.34,10.16.66,3.69,3,5.14,7.56,3.22,10.2-1.92,2.64-6.47,2.34-10.16-.66Z"/>
              <path class="uuid-1ab93d44-af73-4be0-bd9f-6ccd21a062c0" d="M17.45,35.97c.49-1.61,2.98-.94,5.56,1.49,2.58,2.43,4.28,5.69,3.79,7.3-.49,1.6-2.98.94-5.56-1.49-2.58-2.43-4.28-5.7-3.79-7.3Z"/>
            </g>
            <path class="uuid-438a2a57-5b1f-40a3-bd4f-954d38b13c28" d="M32.04,13.96c0,.97-.79,1.76-1.76,1.76h0c-.97,0-1.76-.79-1.76-1.76v-2.5c0-.97.79-1.76,1.76-1.76h0c.97,0,1.76.79,1.76,1.76v2.5Z"/>
            <path class="uuid-5c38b7ee-9067-49c0-9e8d-b2bbca12063d" d="M18.23,18.22c.69.69.69,1.8,0,2.49h0c-.69.69-1.8.69-2.49,0l-1.77-1.76c-.69-.69-.69-1.8,0-2.49h0c.69-.69,1.8-.69,2.49,0l1.76,1.77Z"/>
            <path class="uuid-4ea8f8c5-7904-48d0-8e99-a737d3d97cde" d="M11.48,31c.97,0,1.76.79,1.76,1.76h0c0,.97-.79,1.76-1.76,1.76h-2.5c-.97,0-1.76-.79-1.76-1.76h0c0-.97.79-1.76,1.76-1.76h2.5Z"/>
            <path class="uuid-99334db6-5409-4364-b08e-a1c84ec6df50" d="M15.74,44.81c.69-.69,1.8-.69,2.49,0h0c.69.69.69,1.8,0,2.49l-1.77,1.77c-.69.69-1.8.69-2.49,0h0c-.69-.69-.69-1.8,0-2.49l1.77-1.77Z"/>
            <path class="uuid-fbedc387-f5b5-4f04-8679-3b6b0a656484" d="M28.52,51.56c0-.97.79-1.76,1.76-1.76h0c.97,0,1.76.79,1.76,1.76v2.5c0,.97-.79,1.76-1.76,1.76h0c-.97,0-1.76-.79-1.76-1.76v-2.5Z"/>
            <path class="uuid-ba46ecd2-ede6-48b2-b1a2-b46a50ef940c" d="M42.33,47.3c-.69-.69-.69-1.8,0-2.49h0c.69-.69,1.8-.69,2.49,0l1.77,1.77c.69.69.69,1.8,0,2.49h0c-.69.69-1.8.69-2.49,0l-1.77-1.76Z"/>
            <path class="uuid-95f062a3-1b35-4ac7-90fb-23559493cb40" d="M49.08,34.52c-.97,0-1.76-.79-1.76-1.76h0c0-.97.79-1.76,1.76-1.76h2.5c.97,0,1.76.79,1.76,1.76h0c0,.97-.79,1.76-1.76,1.76h-2.5Z"/>
            <path class="uuid-d558f1dd-60d1-4acb-bf21-0a268f2e2ef7" d="M44.82,20.71c-.69.69-1.8.69-2.49,0h0c-.69-.69-.69-1.8,0-2.49l1.77-1.77c.69-.69,1.8-.69,2.49,0h0c.69.69.69,1.8,0,2.49l-1.77,1.77Z"/>
          </g>
          <path class="uuid-4178e802-de95-4b28-ac59-c091e6958e0a" d="M6.72,45.53c0,3.5,2.83,6.33,6.33,6.33s6.33-2.84,6.33-6.33V6.33c0-3.5-2.83-6.33-6.33-6.33s-6.33,2.83-6.33,6.33v39.2Z"/>
          <path class="uuid-950380e9-c26e-488e-ab9c-5b141ffbc62f" d="M26.11,50.44c0,7.21-5.85,13.06-13.05,13.06S0,57.65,0,50.44s5.85-13.05,13.06-13.05,13.05,5.85,13.05,13.05Z"/>
        </g>
      </g>
    </g>
  </g>
</svg>