<?xml version="1.0" encoding="UTF-8"?>
<svg xmlns="http://www.w3.org/2000/svg" xmlns:xlink="http://www.w3.org/1999/xlink" viewBox="0 0 84.19 92.58">
  <defs>
    <style>
      .uuid-ce1c5268-27a4-459b-9521-d5f3817349a5 {
        fill: url(#uuid-43955155-622b-4119-afe5-11f4d2819b92);
      }

      .uuid-ce1c5268-27a4-459b-9521-d5f3817349a5, .uuid-ad0c7904-ead8-40d0-831e-92add7eb63a6, .uuid-73ca960b-9d3a-4d62-b981-2b2d7ce04aea, .uuid-4f0c5adf-5d5c-4ef2-b10d-313d8d99b444, .uuid-92229d69-8656-44fa-8e73-822b1ba89da9, .uuid-34dfd9a0-7d0e-46db-9a52-fba3cd6af822, .uuid-2505fc76-7dd7-47b1-a0e9-d31270df87d6, .uuid-4da2121c-78d8-4bb0-a89c-5a463c13f305, .uuid-91b0ae7b-15ef-418d-905e-6402310918f6, .uuid-3afba104-177a-4c4a-90ab-ac1218a90156, .uuid-9e2103f8-033f-45cb-a964-132bd73c9382, .uuid-a9b39f72-ac4c-4247-9455-e47eeab8948d, .uuid-5e0630fb-dc87-49db-ba35-6270acb422a2, .uuid-4db7c897-5ef8-42e0-b3a3-c8251f3defa5, .uuid-b88deaa5-2c4c-40cc-96e8-656debbccc43, .uuid-9d9ae973-1a10-43a8-b692-4916f65f21cb, .uuid-5e636684-647c-46fa-8b10-bfff2923f98b, .uuid-da0b5cd3-ee5b-4f47-afa2-3461d6b377e2, .uuid-186a314d-b8be-4a7f-93d4-e02f60d86941, .uuid-a8f81386-a65e-4bc2-a514-63bea3d62936, .uuid-184028f4-de3e-4b7c-9dd0-82c1678961cd, .uuid-f7cc4297-6ecd-4649-862a-5ce5bbb36861, .uuid-047cae76-c816-4c52-aad6-f18bf7c2620a, .uuid-f464b18d-7615-4ee0-b603-58fbb946c1aa, .uuid-98c7322f-0cab-44bb-aa66-c0fd45ffbcf5, .uuid-92cfd583-0225-45e0-b341-758b4418155d, .uuid-f10be7be-e3d7-4e43-9506-48513d9d5ed7, .uuid-fcc9941a-1234-4f85-848e-83574404f337, .uuid-95af550d-716a-465e-aca0-e10dd3c8d2a2 {
        stroke-width: 0px;
      }

      .uuid-ad0c7904-ead8-40d0-831e-92add7eb63a6 {
        fill: url(#uuid-ee64a307-446e-44a0-aa29-cb82c3ae5fef);
      }

      .uuid-ad0c7904-ead8-40d0-831e-92add7eb63a6, .uuid-73ca960b-9d3a-4d62-b981-2b2d7ce04aea, .uuid-91b0ae7b-15ef-418d-905e-6402310918f6, .uuid-3afba104-177a-4c4a-90ab-ac1218a90156, .uuid-9e2103f8-033f-45cb-a964-132bd73c9382, .uuid-a9b39f72-ac4c-4247-9455-e47eeab8948d, .uuid-5e0630fb-dc87-49db-ba35-6270acb422a2, .uuid-9d9ae973-1a10-43a8-b692-4916f65f21cb, .uuid-da0b5cd3-ee5b-4f47-afa2-3461d6b377e2, .uuid-a8f81386-a65e-4bc2-a514-63bea3d62936, .uuid-f7cc4297-6ecd-4649-862a-5ce5bbb36861, .uuid-95af550d-716a-465e-aca0-e10dd3c8d2a2 {
        mix-blend-mode: overlay;
      }

      .uuid-73ca960b-9d3a-4d62-b981-2b2d7ce04aea {
        fill: url(#uuid-3585616a-6036-4d63-a4bb-a16d8b99c3a1);
      }

      .uuid-4f0c5adf-5d5c-4ef2-b10d-313d8d99b444 {
        fill: url(#uuid-1770dc50-c82a-4470-9fad-177689b4c0da);
      }

      .uuid-92229d69-8656-44fa-8e73-822b1ba89da9 {
        fill: url(#uuid-f8d26145-5307-4684-bf94-4ce3932faa01);
      }

      .uuid-34dfd9a0-7d0e-46db-9a52-fba3cd6af822 {
        fill: url(#uuid-1b17bdba-124e-4319-b39c-0fba16277898);
      }

      .uuid-2505fc76-7dd7-47b1-a0e9-d31270df87d6 {
        fill: url(#uuid-42928d48-3818-42ea-8657-16e12338af3b);
      }

      .uuid-4da2121c-78d8-4bb0-a89c-5a463c13f305 {
        fill: url(#uuid-fd555fe4-64d2-481a-98ef-d60888d24f13);
      }

      .uuid-91b0ae7b-15ef-418d-905e-6402310918f6 {
        fill: url(#uuid-6d757ad8-5f32-4ee1-bd7b-bafbe4bcd666);
      }

      .uuid-91b0ae7b-15ef-418d-905e-6402310918f6, .uuid-a9b39f72-ac4c-4247-9455-e47eeab8948d, .uuid-a8f81386-a65e-4bc2-a514-63bea3d62936 {
        opacity: .4;
      }

      .uuid-3afba104-177a-4c4a-90ab-ac1218a90156 {
        fill: url(#uuid-8f1555a9-82db-4e26-8c05-118707515344);
      }

      .uuid-9e2103f8-033f-45cb-a964-132bd73c9382 {
        fill: url(#uuid-2887027e-2fc0-41c0-b58a-3a282ee6abcf);
      }

      .uuid-9e2103f8-033f-45cb-a964-132bd73c9382, .uuid-5e0630fb-dc87-49db-ba35-6270acb422a2 {
        opacity: .2;
      }

      .uuid-a9b39f72-ac4c-4247-9455-e47eeab8948d {
        fill: url(#uuid-67f1c298-bf90-4add-9e5d-4ec0486d211f);
      }

      .uuid-5e0630fb-dc87-49db-ba35-6270acb422a2 {
        fill: url(#uuid-01fdea19-5a6a-436e-8771-35f51b1c3aa2);
      }

      .uuid-4db7c897-5ef8-42e0-b3a3-c8251f3defa5 {
        fill: url(#uuid-9621d96b-d234-47d9-b3ba-42548592ad97);
      }

      .uuid-b88deaa5-2c4c-40cc-96e8-656debbccc43 {
        fill: url(#uuid-303eac78-6506-49fa-8c95-e014cdc5bb7b);
      }

      .uuid-9d9ae973-1a10-43a8-b692-4916f65f21cb {
        fill: url(#uuid-2fe9f9bb-b573-4f6d-ba73-4e8509090c31);
      }

      .uuid-5e636684-647c-46fa-8b10-bfff2923f98b {
        fill: url(#uuid-1f957194-9cf7-4dd2-91aa-4ddda584b978);
      }

      .uuid-da0b5cd3-ee5b-4f47-afa2-3461d6b377e2 {
        fill: url(#uuid-4c462748-9b1c-40ed-8fda-7be8413f7348);
      }

      .uuid-186a314d-b8be-4a7f-93d4-e02f60d86941 {
        fill: url(#uuid-356b926e-1226-4339-8942-c43602fc923a);
      }

      .uuid-a8f81386-a65e-4bc2-a514-63bea3d62936 {
        fill: url(#uuid-16eb27b0-4889-4d42-85c6-25a0df71255a);
      }

      .uuid-184028f4-de3e-4b7c-9dd0-82c1678961cd {
        fill: url(#uuid-ff13c9c8-d2d4-457b-8c57-28ff0fbb8359);
      }

      .uuid-f7cc4297-6ecd-4649-862a-5ce5bbb36861 {
        fill: url(#uuid-128a5209-16fb-497e-a48e-9079162e669e);
      }

      .uuid-9ac05d32-b5bb-42f6-ba3f-8f4d16a19d05 {
        isolation: isolate;
      }

      .uuid-047cae76-c816-4c52-aad6-f18bf7c2620a {
        fill: url(#uuid-8f265890-062e-47f8-b2d3-b74722612a6e);
      }

      .uuid-f464b18d-7615-4ee0-b603-58fbb946c1aa {
        fill: url(#uuid-97bac595-c772-4722-97fb-bf800042a951);
      }

      .uuid-98c7322f-0cab-44bb-aa66-c0fd45ffbcf5 {
        fill: url(#uuid-4f7c17be-35ef-41c0-951c-4da9d2add919);
      }

      .uuid-92cfd583-0225-45e0-b341-758b4418155d {
        fill: url(#uuid-a50affa0-7e90-40a0-8c8c-a5033e2f8963);
      }

      .uuid-f10be7be-e3d7-4e43-9506-48513d9d5ed7 {
        fill: url(#uuid-3ec26b10-7403-488f-b88a-47db25747b67);
      }

      .uuid-fcc9941a-1234-4f85-848e-83574404f337 {
        fill: url(#uuid-522e162a-c25b-428b-928d-211fa3696975);
      }

      .uuid-95af550d-716a-465e-aca0-e10dd3c8d2a2 {
        fill: url(#uuid-621bdfa3-4f84-48dd-b9b6-2c46546f2e32);
      }
    </style>
    <radialGradient id="uuid-8f265890-062e-47f8-b2d3-b74722612a6e" cx="131.61" cy="22.68" fx="131.61" fy="22.68" r="44.76" gradientTransform="translate(174.48) rotate(-180) scale(1 -1)" gradientUnits="userSpaceOnUse">
      <stop offset="0" stop-color="#fff8c7"/>
      <stop offset=".16" stop-color="#ffe436"/>
      <stop offset="1" stop-color="#fe761c"/>
    </radialGradient>
    <radialGradient id="uuid-2fe9f9bb-b573-4f6d-ba73-4e8509090c31" cx="1371.07" cy="-2040.82" fx="1371.07" fy="-2040.82" r="6.72" gradientTransform="translate(-2105.97 -4233.16) rotate(126.03) scale(1.43 2.08) skewX(-4.38)" gradientUnits="userSpaceOnUse">
      <stop offset="0" stop-color="#fff"/>
      <stop offset=".1" stop-color="rgba(255, 255, 255, .85)" stop-opacity=".85"/>
      <stop offset=".29" stop-color="rgba(255, 255, 255, .59)" stop-opacity=".59"/>
      <stop offset=".47" stop-color="rgba(255, 255, 255, .38)" stop-opacity=".38"/>
      <stop offset=".63" stop-color="rgba(255, 255, 255, .22)" stop-opacity=".22"/>
      <stop offset=".78" stop-color="rgba(255, 255, 255, .1)" stop-opacity=".1"/>
      <stop offset=".91" stop-color="rgba(255, 255, 255, .03)" stop-opacity=".03"/>
      <stop offset="1" stop-color="#fff" stop-opacity="0"/>
    </radialGradient>
    <radialGradient id="uuid-16eb27b0-4889-4d42-85c6-25a0df71255a" data-name="Degradado sin nombre 34" cx="-2803.58" cy="2440.27" fx="-2803.58" fy="2440.27" r="6.48" gradientTransform="translate(-3802.46 -1258.84) rotate(-136.79) scale(1.61 .68) skewX(11.83)" gradientUnits="userSpaceOnUse">
      <stop offset="0" stop-color="#fff"/>
      <stop offset=".1" stop-color="rgba(255, 255, 255, .85)" stop-opacity=".85"/>
      <stop offset=".29" stop-color="rgba(255, 255, 255, .59)" stop-opacity=".59"/>
      <stop offset=".47" stop-color="rgba(255, 255, 255, .38)" stop-opacity=".38"/>
      <stop offset=".63" stop-color="rgba(255, 255, 255, .22)" stop-opacity=".22"/>
      <stop offset=".78" stop-color="rgba(255, 255, 255, .1)" stop-opacity=".1"/>
      <stop offset=".91" stop-color="rgba(255, 255, 255, .03)" stop-opacity=".03"/>
      <stop offset="1" stop-color="#fff" stop-opacity="0"/>
    </radialGradient>
    <radialGradient id="uuid-4f7c17be-35ef-41c0-951c-4da9d2add919" cx="37.99" cy="1.44" fx="37.99" fy="1.44" r="7.79" gradientTransform="matrix(1,0,0,1,0,0)" xlink:href="#uuid-8f265890-062e-47f8-b2d3-b74722612a6e"/>
    <radialGradient id="uuid-f8d26145-5307-4684-bf94-4ce3932faa01" cx="364.96" cy="-379.21" fx="364.96" fy="-379.21" r="7.79" gradientTransform="translate(22.44 537.83) rotate(-45)" xlink:href="#uuid-8f265890-062e-47f8-b2d3-b74722612a6e"/>
    <radialGradient id="uuid-fd555fe4-64d2-481a-98ef-d60888d24f13" cx="865.24" cy="-417.35" fx="865.24" fy="-417.35" r="7.79" gradientTransform="translate(418.8 902.19) rotate(-90)" xlink:href="#uuid-8f265890-062e-47f8-b2d3-b74722612a6e"/>
    <radialGradient id="uuid-42928d48-3818-42ea-8657-16e12338af3b" cx="1246.05" cy="-90.38" fx="1246.05" fy="-90.38" r="7.79" gradientTransform="translate(956.62 879.75) rotate(-135)" xlink:href="#uuid-8f265890-062e-47f8-b2d3-b74722612a6e"/>
    <radialGradient id="uuid-356b926e-1226-4339-8942-c43602fc923a" cx="1284.03" cy="409.9" fx="1284.03" fy="409.9" r="7.79" gradientTransform="translate(1320.98 483.39) rotate(-180)" xlink:href="#uuid-8f265890-062e-47f8-b2d3-b74722612a6e"/>
    <radialGradient id="uuid-97bac595-c772-4722-97fb-bf800042a951" cx="957.23" cy="790.71" fx="957.23" fy="790.71" r="7.79" gradientTransform="translate(1298.54 -54.43) rotate(135)" xlink:href="#uuid-8f265890-062e-47f8-b2d3-b74722612a6e"/>
    <radialGradient id="uuid-a50affa0-7e90-40a0-8c8c-a5033e2f8963" cx="456.78" cy="828.69" fx="456.78" fy="828.69" r="7.79" gradientTransform="translate(902.19 -418.79) rotate(90)" xlink:href="#uuid-8f265890-062e-47f8-b2d3-b74722612a6e"/>
    <radialGradient id="uuid-1770dc50-c82a-4470-9fad-177689b4c0da" cx="76.13" cy="501.89" fx="76.13" fy="501.89" r="7.79" gradientTransform="translate(364.36 -396.36) rotate(45)" xlink:href="#uuid-8f265890-062e-47f8-b2d3-b74722612a6e"/>
    <radialGradient id="uuid-303eac78-6506-49fa-8c95-e014cdc5bb7b" cx="1623.27" cy="46.78" fx="1623.27" fy="46.78" r="40.51" gradientTransform="translate(1633.99) rotate(-180) scale(1 -1)" gradientUnits="userSpaceOnUse">
      <stop offset="0" stop-color="#fff"/>
      <stop offset=".2" stop-color="#d9f7ff"/>
      <stop offset="1" stop-color="#89c0f5"/>
    </radialGradient>
    <radialGradient id="uuid-1f957194-9cf7-4dd2-91aa-4ddda584b978" cx="25.22" cy="45.31" fx="25.22" fy="45.31" r="40.53" gradientUnits="userSpaceOnUse">
      <stop offset="0" stop-color="#ffe436"/>
      <stop offset=".08" stop-color="rgba(254, 206, 48, .81)" stop-opacity=".81"/>
      <stop offset=".18" stop-color="rgba(254, 183, 43, .6)" stop-opacity=".6"/>
      <stop offset=".28" stop-color="rgba(254, 163, 38, .41)" stop-opacity=".41"/>
      <stop offset=".38" stop-color="rgba(254, 147, 34, .26)" stop-opacity=".26"/>
      <stop offset=".48" stop-color="rgba(254, 134, 31, .15)" stop-opacity=".15"/>
      <stop offset=".58" stop-color="rgba(254, 125, 29, .07)" stop-opacity=".07"/>
      <stop offset=".68" stop-color="rgba(254, 119, 28, .02)" stop-opacity=".02"/>
      <stop offset=".77" stop-color="#fe761c" stop-opacity="0"/>
    </radialGradient>
    <radialGradient id="uuid-ee64a307-446e-44a0-aa29-cb82c3ae5fef" cx="687.73" cy="-2660.53" fx="687.73" fy="-2660.53" r="4.75" gradientTransform="translate(3739.96 -4233.16) rotate(53.97) scale(1.43 -2.08) skewX(-4.38)" xlink:href="#uuid-2fe9f9bb-b573-4f6d-ba73-4e8509090c31"/>
    <radialGradient id="uuid-6d757ad8-5f32-4ee1-bd7b-bafbe4bcd666" cx="701.76" cy="-2653.49" fx="701.76" fy="-2653.49" r="2.61" gradientTransform="translate(3739.96 -4233.16) rotate(53.97) scale(1.43 -2.08) skewX(-4.38)" xlink:href="#uuid-2fe9f9bb-b573-4f6d-ba73-4e8509090c31"/>
    <radialGradient id="uuid-2887027e-2fc0-41c0-b58a-3a282ee6abcf" data-name="Degradado sin nombre 34" cx="1753.02" cy="184.84" fx="1753.02" fy="184.84" r="2.73" gradientTransform="translate(1538.23 533.92) rotate(-146.99) scale(.84 -2.3) skewX(11.81)" xlink:href="#uuid-16eb27b0-4889-4d42-85c6-25a0df71255a"/>
    <radialGradient id="uuid-3ec26b10-7403-488f-b88a-47db25747b67" cx="-815.26" cy="27.06" fx="-815.26" fy="27.06" r="32.13" gradientTransform="translate(891.36)" xlink:href="#uuid-303eac78-6506-49fa-8c95-e014cdc5bb7b"/>
    <radialGradient id="uuid-9621d96b-d234-47d9-b3ba-42548592ad97" cx="48.22" cy="33.65" fx="48.22" fy="33.65" r="37.37" xlink:href="#uuid-1f957194-9cf7-4dd2-91aa-4ddda584b978"/>
    <radialGradient id="uuid-4c462748-9b1c-40ed-8fda-7be8413f7348" cx="1754.5" cy="-1707.07" fx="1754.5" fy="-1707.07" r="3.77" gradientTransform="translate(-1214.61 -4233.16) rotate(126.03) scale(1.43 2.08) skewX(-4.38)" xlink:href="#uuid-2fe9f9bb-b573-4f6d-ba73-4e8509090c31"/>
    <radialGradient id="uuid-67f1c298-bf90-4add-9e5d-4ec0486d211f" cx="1765.63" cy="-1701.48" fx="1765.63" fy="-1701.48" r="2.07" gradientTransform="translate(-1214.61 -4233.16) rotate(126.03) scale(1.43 2.08) skewX(-4.38)" xlink:href="#uuid-2fe9f9bb-b573-4f6d-ba73-4e8509090c31"/>
    <radialGradient id="uuid-01fdea19-5a6a-436e-8771-35f51b1c3aa2" data-name="Degradado sin nombre 34" cx="-1045.58" cy="-359.03" fx="-1045.58" fy="-359.03" r="2.17" gradientTransform="translate(1291.02 222.86) rotate(-33.01) scale(.84 2.3) skewX(11.81)" xlink:href="#uuid-16eb27b0-4889-4d42-85c6-25a0df71255a"/>
    <radialGradient id="uuid-43955155-622b-4119-afe5-11f4d2819b92" cx="-153.34" cy="50.94" fx="-153.34" fy="50.94" r="9.89" gradientTransform="translate(171.27 122.14) rotate(30)" gradientUnits="userSpaceOnUse">
      <stop offset="0" stop-color="#d4f6ff"/>
      <stop offset=".2" stop-color="#d9f7ff"/>
      <stop offset="1" stop-color="#89c0f5"/>
    </radialGradient>
    <radialGradient id="uuid-621bdfa3-4f84-48dd-b9b6-2c46546f2e32" cx="1472.03" cy="-1969.53" fx="1472.03" fy="-1969.53" r="1.55" gradientTransform="translate(464.38 -4596.66) rotate(156.04) scale(1.43 2.08) skewX(-4.38)" xlink:href="#uuid-2fe9f9bb-b573-4f6d-ba73-4e8509090c31"/>
    <radialGradient id="uuid-1b17bdba-124e-4319-b39c-0fba16277898" cx="-138.36" cy="42.29" fx="-138.36" fy="42.29" r="9.89" xlink:href="#uuid-43955155-622b-4119-afe5-11f4d2819b92"/>
    <radialGradient id="uuid-128a5209-16fb-497e-a48e-9079162e669e" cx="1460.7" cy="-1972.91" fx="1460.7" fy="-1972.91" r="1.55" gradientTransform="translate(464.38 -4596.66) rotate(156.04) scale(1.43 2.08) skewX(-4.38)" xlink:href="#uuid-2fe9f9bb-b573-4f6d-ba73-4e8509090c31"/>
    <radialGradient id="uuid-522e162a-c25b-428b-928d-211fa3696975" cx="-123.38" cy="33.64" fx="-123.38" fy="33.64" r="9.89" xlink:href="#uuid-43955155-622b-4119-afe5-11f4d2819b92"/>
    <radialGradient id="uuid-3585616a-6036-4d63-a4bb-a16d8b99c3a1" cx="1449.36" cy="-1976.28" fx="1449.36" fy="-1976.28" r="1.55" gradientTransform="translate(464.38 -4596.66) rotate(156.04) scale(1.43 2.08) skewX(-4.38)" xlink:href="#uuid-2fe9f9bb-b573-4f6d-ba73-4e8509090c31"/>
    <radialGradient id="uuid-ff13c9c8-d2d4-457b-8c57-28ff0fbb8359" cx="-108.4" cy="24.99" fx="-108.4" fy="24.99" r="9.89" xlink:href="#uuid-43955155-622b-4119-afe5-11f4d2819b92"/>
    <radialGradient id="uuid-8f1555a9-82db-4e26-8c05-118707515344" cx="1438.02" cy="-1979.66" fx="1438.02" fy="-1979.66" r="1.55" gradientTransform="translate(464.38 -4596.66) rotate(156.04) scale(1.43 2.08) skewX(-4.38)" xlink:href="#uuid-2fe9f9bb-b573-4f6d-ba73-4e8509090c31"/>
  </defs>
  <g class="uuid-9ac05d32-b5bb-42f6-ba3f-8f4d16a19d05">
    <g id="uuid-35ee91e3-b2a6-4fbb-a331-5e2bba8568f8" data-name="Livello 2">
      <g id="uuid-f60c4742-fa49-4c0b-a77b-beb86ac8d773" data-name="OBJECTS">
        <g>
          <g>
            <g>
              <path class="uuid-047cae76-c816-4c52-aad6-f18bf7c2620a" d="M13.89,37.47c0,13.02,10.56,23.58,23.58,23.58s23.58-10.56,23.58-23.58-10.56-23.58-23.58-23.58-23.58,10.56-23.58,23.58Z"/>
              <g>
                <path class="uuid-9d9ae973-1a10-43a8-b692-4916f65f21cb" d="M41.06,35.04c-6.01-4.87-8.35-12.29-5.24-16.57,3.11-4.28,10.51-3.8,16.52,1.07,6,4.87,8.35,12.29,5.24,16.57-3.12,4.28-10.51,3.8-16.51-1.07Z"/>
                <path class="uuid-a8f81386-a65e-4bc2-a514-63bea3d62936" d="M16.63,42.68c.8-2.61,4.84-1.53,9.04,2.41,4.2,3.94,6.95,9.25,6.16,11.86-.79,2.61-4.84,1.53-9.04-2.41-4.19-3.94-6.95-9.25-6.16-11.86Z"/>
              </g>
              <path class="uuid-98c7322f-0cab-44bb-aa66-c0fd45ffbcf5" d="M40.33,6.92c0,1.58-1.28,2.86-2.86,2.86h0c-1.58,0-2.86-1.28-2.86-2.86V2.86c0-1.58,1.28-2.86,2.86-2.86h0c1.58,0,2.86,1.28,2.86,2.86v4.06Z"/>
              <path class="uuid-92229d69-8656-44fa-8e73-822b1ba89da9" d="M17.89,13.84c1.12,1.12,1.12,2.93,0,4.05h0c-1.12,1.12-2.93,1.12-4.04,0l-2.87-2.87c-1.12-1.12-1.12-2.93,0-4.04h0c1.12-1.12,2.93-1.12,4.04,0l2.87,2.87Z"/>
              <path class="uuid-4da2121c-78d8-4bb0-a89c-5a463c13f305" d="M6.92,34.61c1.58,0,2.86,1.28,2.86,2.86h0c0,1.58-1.28,2.86-2.86,2.86H2.86c-1.58,0-2.86-1.28-2.86-2.86h0c0-1.58,1.28-2.86,2.86-2.86h4.06Z"/>
              <path class="uuid-2505fc76-7dd7-47b1-a0e9-d31270df87d6" d="M13.84,57.05c1.12-1.12,2.93-1.12,4.04,0h0c1.12,1.12,1.12,2.93,0,4.04l-2.87,2.87c-1.12,1.12-2.93,1.12-4.04,0h0c-1.12-1.12-1.12-2.93,0-4.05l2.87-2.87Z"/>
              <path class="uuid-186a314d-b8be-4a7f-93d4-e02f60d86941" d="M34.61,68.02c0-1.58,1.28-2.86,2.86-2.86h0c1.58,0,2.86,1.28,2.86,2.86v4.06c0,1.58-1.28,2.86-2.86,2.86h0c-1.58,0-2.86-1.28-2.86-2.86v-4.06Z"/>
              <path class="uuid-f464b18d-7615-4ee0-b603-58fbb946c1aa" d="M57.05,61.09c-1.12-1.12-1.12-2.93,0-4.04h0c1.12-1.12,2.93-1.12,4.04,0l2.87,2.87c1.12,1.12,1.12,2.93,0,4.05h0c-1.12,1.12-2.93,1.12-4.05,0l-2.87-2.87Z"/>
              <path class="uuid-92cfd583-0225-45e0-b341-758b4418155d" d="M68.02,40.33c-1.58,0-2.86-1.28-2.86-2.86h0c0-1.58,1.28-2.86,2.86-2.86h4.06c1.58,0,2.86,1.28,2.86,2.86h0c0,1.58-1.28,2.86-2.86,2.86h-4.06Z"/>
              <path class="uuid-4f0c5adf-5d5c-4ef2-b10d-313d8d99b444" d="M61.09,17.89c-1.12,1.12-2.93,1.12-4.04,0h0c-1.12-1.12-1.12-2.93,0-4.04l2.87-2.87c1.12-1.12,2.93-1.12,4.04,0h0c1.12,1.12,1.12,2.93,0,4.05l-2.87,2.87Z"/>
            </g>
            <g>
              <path class="uuid-b88deaa5-2c4c-40cc-96e8-656debbccc43" d="M16.84,42.3c7.68,0,14.13,5.32,15.86,12.47,1.4-.68,2.96-1.07,4.61-1.07,5.86,0,10.61,4.75,10.61,10.62s-4.75,10.61-10.61,10.61h-20.47c-9.01,0-16.32-7.31-16.32-16.32s7.31-16.32,16.32-16.32Z"/>
              <path class="uuid-5e636684-647c-46fa-8b10-bfff2923f98b" d="M16.84,42.3c7.68,0,14.13,5.32,15.86,12.47,1.4-.68,2.96-1.07,4.61-1.07,5.86,0,10.61,4.75,10.61,10.62s-4.75,10.61-10.61,10.61h-20.47c-9.01,0-16.32-7.31-16.32-16.32s7.31-16.32,16.32-16.32Z"/>
              <path class="uuid-ad0c7904-ead8-40d0-831e-92add7eb63a6" d="M14.75,57.9c4.25-3.45,5.91-8.7,3.71-11.72-2.2-3.03-7.44-2.69-11.69.75-4.25,3.45-5.9,8.7-3.7,11.72,2.2,3.03,7.44,2.69,11.68-.75Z"/>
              <path class="uuid-91b0ae7b-15ef-418d-905e-6402310918f6" d="M36.13,62.37c2.33-1.9,3.25-4.78,2.04-6.44-1.21-1.67-4.09-1.48-6.42.41-2.33,1.89-3.24,4.78-2.04,6.44,1.21,1.67,4.09,1.48,6.42-.41Z"/>
              <path class="uuid-9e2103f8-033f-45cb-a964-132bd73c9382" d="M41.31,66.5c2.57-2.6,5.22-3.61,5.93-2.27.7,1.34-.81,4.54-3.37,7.14-2.57,2.6-5.22,3.61-5.93,2.27-.7-1.34.81-4.54,3.37-7.14Z"/>
            </g>
            <g>
              <path class="uuid-f10be7be-e3d7-4e43-9506-48513d9d5ed7" d="M71.25,23.51c-6.09,0-11.2,4.22-12.57,9.89-1.11-.54-2.35-.84-3.66-.84-4.65,0-8.42,3.77-8.42,8.42s3.77,8.42,8.42,8.42h16.23c7.15,0,12.94-5.79,12.94-12.94s-5.79-12.94-12.94-12.94Z"/>
              <path class="uuid-4db7c897-5ef8-42e0-b3a3-c8251f3defa5" d="M71.25,23.51c-6.09,0-11.2,4.22-12.57,9.89-1.11-.54-2.35-.84-3.66-.84-4.65,0-8.42,3.77-8.42,8.42s3.77,8.42,8.42,8.42h16.23c7.15,0,12.94-5.79,12.94-12.94s-5.79-12.94-12.94-12.94Z"/>
              <path class="uuid-da0b5cd3-ee5b-4f47-afa2-3461d6b377e2" d="M72.91,35.88c-3.37-2.73-4.68-6.9-2.94-9.3,1.75-2.4,5.89-2.13,9.27.6,3.37,2.73,4.68,6.9,2.94,9.3-1.75,2.4-5.9,2.13-9.27-.6Z"/>
              <path class="uuid-a9b39f72-ac4c-4247-9455-e47eeab8948d" d="M55.95,39.43c-1.85-1.5-2.57-3.79-1.62-5.11.96-1.32,3.24-1.17,5.09.33,1.85,1.5,2.57,3.79,1.62,5.11-.96,1.32-3.24,1.17-5.09-.33Z"/>
              <path class="uuid-5e0630fb-dc87-49db-ba35-6270acb422a2" d="M51.85,42.7c-2.04-2.06-4.14-2.87-4.7-1.8-.56,1.06.64,3.6,2.67,5.66,2.04,2.06,4.14,2.86,4.7,1.8.56-1.07-.64-3.6-2.67-5.66Z"/>
            </g>
          </g>
          <g>
            <g>
              <path class="uuid-ce1c5268-27a4-459b-9521-d5f3817349a5" d="M18.51,90.52c-1.14,1.97-3.65,2.64-5.62,1.5-1.97-1.13-2.64-3.65-1.5-5.62,1.13-1.97,8.16-5.91,8.16-5.91,0,0,.1,8.05-1.04,10.02Z"/>
              <path class="uuid-95af550d-716a-465e-aca0-e10dd3c8d2a2" d="M11.51,89.84c-.64-1.66-.25-3.42.87-3.91,1.12-.5,2.54.45,3.18,2.12.64,1.67.25,3.42-.87,3.91-1.12.5-2.54-.45-3.18-2.12Z"/>
            </g>
            <g>
              <path class="uuid-34dfd9a0-7d0e-46db-9a52-fba3cd6af822" d="M35.81,90.52c-1.13,1.97-3.65,2.64-5.62,1.5s-2.64-3.65-1.51-5.62c1.14-1.97,8.16-5.91,8.16-5.91,0,0,.1,8.05-1.04,10.02Z"/>
              <path class="uuid-f7cc4297-6ecd-4649-862a-5ce5bbb36861" d="M28.81,89.84c-.64-1.66-.25-3.42.87-3.91,1.12-.5,2.54.45,3.17,2.12.64,1.67.25,3.42-.87,3.91-1.12.5-2.54-.45-3.17-2.12Z"/>
            </g>
            <g>
              <path class="uuid-fcc9941a-1234-4f85-848e-83574404f337" d="M53.1,90.52c-1.13,1.97-3.65,2.64-5.62,1.5s-2.64-3.65-1.51-5.62c1.14-1.97,8.16-5.91,8.16-5.91,0,0,.1,8.05-1.04,10.02Z"/>
              <path class="uuid-73ca960b-9d3a-4d62-b981-2b2d7ce04aea" d="M46.1,89.84c-.64-1.66-.25-3.42.87-3.91,1.12-.5,2.54.45,3.17,2.12.64,1.67.25,3.42-.87,3.91-1.12.5-2.54-.45-3.17-2.12Z"/>
            </g>
            <g>
              <path class="uuid-184028f4-de3e-4b7c-9dd0-82c1678961cd" d="M70.4,90.52c-1.13,1.97-3.65,2.64-5.62,1.5-1.97-1.13-2.64-3.65-1.51-5.62,1.14-1.97,8.16-5.91,8.16-5.91,0,0,.1,8.05-1.04,10.02Z"/>
              <path class="uuid-3afba104-177a-4c4a-90ab-ac1218a90156" d="M63.4,89.84c-.64-1.66-.25-3.42.87-3.91,1.12-.5,2.54.45,3.17,2.12.64,1.67.25,3.42-.87,3.91-1.12.5-2.54-.45-3.17-2.12Z"/>
            </g>
          </g>
        </g>
      </g>
    </g>
  </g>
</svg>