<svg width="200" height="27" viewBox="0 0 200 27" fill="none" xmlns="http://www.w3.org/2000/svg">
<g clip-path="url(#clip0_360_3719)">
<path fill-rule="evenodd" clip-rule="evenodd" d="M176.662 13.5003C176.615 17.8188 175.092 21.4773 171.608 24.1862C168.726 26.427 165.368 27.1538 161.77 26.9478C158.98 26.7881 156.415 25.9505 154.18 24.2701C151.32 22.1188 149.673 19.2138 149.176 15.72C148.484 10.8495 149.775 6.58403 153.524 3.23365C155.448 1.51483 157.791 0.584837 160.351 0.209081C163.283 -0.221116 166.135 0.0233074 168.868 1.22634C172.222 2.70271 174.543 5.13067 175.809 8.55822C176.4 10.1581 176.708 11.7913 176.662 13.5003ZM170.268 13.511C170.268 13.1456 170.288 12.7791 170.265 12.4151C170.039 8.78497 168.039 5.58276 163.902 5.11776C161.043 4.79617 157.992 5.75478 156.509 8.53072C155.381 10.6435 155.182 12.8908 155.47 15.2026C155.642 16.5883 156.075 17.9041 156.886 19.0738C158.831 21.8797 162.461 22.3607 165.431 21.5228C166.765 21.1462 167.845 20.3554 168.661 19.2304C169.903 17.5194 170.346 15.5837 170.268 13.511Z" fill="white"/>
<mask id="mask0_360_3719" style="mask-type:luminance" maskUnits="userSpaceOnUse" x="61" y="0" width="23" height="27">
<path d="M61.6934 0H83.8505V26.928H61.6934V0Z" fill="white"/>
</mask>
<g mask="url(#mask0_360_3719)">
<path fill-rule="evenodd" clip-rule="evenodd" d="M68.0125 13.104V26.8619H61.6934V0.0757589C61.8956 0.0544315 62.0865 0.0168278 62.2774 0.0168278C65.5141 0.0162666 68.7523 -0.0336846 71.9874 0.0412421C74.4234 0.0976477 76.7363 0.664229 78.7521 2.14565C80.4225 3.37338 81.1847 5.07817 81.3804 7.04395C81.7484 10.7412 80.1048 13.612 76.7482 15.2991C76.5703 15.3883 76.4035 15.4989 76.2024 15.6167C78.5929 17.3154 79.4734 20.0571 81.0474 22.3066C81.9296 23.5674 82.6858 24.915 83.4959 26.2255C83.6078 26.4062 83.7026 26.597 83.8505 26.865C83.5562 26.8934 83.3684 26.9262 83.1806 26.9268C81.5246 26.9296 79.8685 26.9192 78.2125 26.9282C77.1442 26.934 76.3471 26.5117 75.7926 25.5901C73.3712 21.5677 70.936 17.5531 68.5039 13.537C68.4025 13.3695 68.2805 13.2146 68.1683 13.0538C68.1162 13.0704 68.0643 13.0872 68.0125 13.104ZM68.0607 12.5288C69.3862 12.5288 70.6828 12.6853 71.9231 12.4906C73.5939 12.2279 74.7599 11.2519 75.1256 9.48201C75.602 7.17584 74.5084 5.24851 72.2751 4.87472C70.9094 4.64629 69.4958 4.69961 68.0607 4.62412V12.5288Z" fill="white"/>
</g>
<mask id="mask1_360_3719" style="mask-type:luminance" maskUnits="userSpaceOnUse" x="27" y="0" width="29" height="27">
<path d="M27.7784 0H55.2178V26.9282H27.7784V0Z" fill="white"/>
</mask>
<g mask="url(#mask1_360_3719)">
<path fill-rule="evenodd" clip-rule="evenodd" d="M27.7784 26.9267C28.4259 25.2924 29.0159 23.8247 29.5894 22.3511C31.0837 18.5122 32.5631 14.6674 34.0633 10.8309C35.1835 7.96661 36.3289 5.11209 37.4595 2.25197C37.6875 1.675 37.8615 1.07278 38.1396 0.521638C38.2529 0.297419 38.5741 0.0375606 38.8057 0.0325093C40.6371 -0.00761997 42.4699 0.0229681 44.3018 0.000116065C44.7332 -0.00509435 44.9054 0.164964 45.0513 0.542965C46.8257 5.15026 48.6143 9.75222 50.4066 14.3525C51.9915 18.4213 53.5861 22.4858 55.1734 26.5538C55.2073 26.6405 55.2008 26.7426 55.2178 26.874C53.4366 26.874 51.6851 26.9267 49.9395 26.851C49.1066 26.815 48.5415 26.2339 48.2747 25.4363C47.1882 22.1895 46.1227 18.9357 45.0221 15.6936C44.0648 12.8739 43.0701 10.0668 42.0935 7.25354C41.9337 6.79331 41.7828 6.33028 41.5531 5.64724C41.156 6.81492 40.832 7.76568 40.5094 8.71671C39.3224 12.2164 38.1317 15.7149 36.9509 19.2166C36.2853 21.1908 35.6236 23.1664 34.9858 25.1492C34.6159 26.2987 33.8297 26.9205 32.6155 26.9253C31.0628 26.9315 29.5101 26.9267 27.7784 26.9267Z" fill="white"/>
</g>
<mask id="mask2_360_3719" style="mask-type:luminance" maskUnits="userSpaceOnUse" x="0" y="0" width="23" height="27">
<path d="M0 0H22.9437V26.9591H0V0Z" fill="white"/>
</mask>
<g mask="url(#mask2_360_3719)">
<path fill-rule="evenodd" clip-rule="evenodd" d="M22.7269 22.7791C20.8332 25.1524 18.4141 26.4115 15.4725 26.7848C12.1417 27.2074 8.94374 26.9324 6.00381 25.1748C2.74156 23.2242 0.979578 20.2496 0.315402 16.6262C-0.500019 12.1788 0.194746 8.01914 3.23381 4.48411C5.37758 1.99048 8.20168 0.671826 11.4526 0.193642C14.3155 -0.227856 17.1059 0.00337878 19.7317 1.23813C20.7814 1.73175 21.7075 2.48466 22.6818 3.1315C23.0605 3.38294 22.9826 3.68489 22.7379 4.00003C22.289 4.5784 21.8296 5.15059 21.4161 5.75338C20.418 7.20813 19.7833 7.37482 18.3241 6.39825C16.9274 5.46377 15.398 5.04957 13.7354 5.0636C10.4451 5.0911 7.74001 7.16183 6.84812 10.3194C6.06272 13.099 6.1001 15.8415 7.54628 18.3958C9.21139 21.3365 11.6826 22.388 15.0564 21.8233C16.2494 21.6235 17.2962 21.1577 18.2323 20.3994C19.2114 19.6061 19.7504 19.6544 20.6233 20.5605C21.3167 21.28 21.999 22.0105 22.7269 22.7791Z" fill="white"/>
</g>
<path fill-rule="evenodd" clip-rule="evenodd" d="M142.868 22.7837C141.074 25.0189 138.828 26.2632 136.096 26.7316C134.083 27.0767 132.072 27.1112 130.085 26.7007C127.704 26.209 125.615 25.1107 123.888 23.384C121.561 21.0576 120.511 18.1815 120.249 14.984C119.881 10.4988 121.021 6.51368 124.461 3.40829C126.468 1.59658 128.89 0.576789 131.589 0.191772C134.454 -0.216817 137.248 -0.00803287 139.874 1.23373C140.942 1.73914 141.89 2.50243 142.859 3.19642C142.992 3.29183 143.036 3.73915 142.929 3.89658C142.37 4.7233 141.754 5.51381 141.148 6.30854C140.598 7.02806 139.968 7.15182 139.141 6.77045C138.014 6.2513 136.922 5.56657 135.735 5.28819C131.254 4.23753 127.242 7.11422 126.684 11.641C126.459 13.4729 126.449 15.286 127.077 17.0522C128.383 20.7256 131.331 22.4419 135.205 21.8215C136.455 21.6214 137.538 21.1078 138.509 20.3182C139.32 19.6581 139.914 19.6716 140.627 20.3951C141.379 21.1583 142.095 21.9564 142.868 22.7837Z" fill="white"/>
<path fill-rule="evenodd" clip-rule="evenodd" d="M183.333 0V27H200V21.9918H189.769V0H183.333Z" fill="white"/>
<mask id="mask3_360_3719" style="mask-type:luminance" maskUnits="userSpaceOnUse" x="101" y="0" width="17" height="27">
<path d="M101.125 0H117.778V27H101.125V0Z" fill="white"/>
</mask>
<g mask="url(#mask3_360_3719)">
<path fill-rule="evenodd" clip-rule="evenodd" d="M117.778 27.0003C116.313 26.7147 115.426 25.8514 114.677 24.8613C114.005 23.9713 113.471 22.9862 112.723 22.1548C112.09 21.4513 111.326 20.7715 110.466 20.3216C108.551 19.3205 107.616 17.7932 106.971 15.9758C105.635 12.2152 104.201 8.48311 102.814 4.73719C102.248 3.20736 101.701 1.67219 101.125 0.0855223C101.32 0.0554154 101.48 0.0101143 101.641 0.00955151C102.966 0.00336129 104.292 0.0143349 105.617 0.000128812C106.013 -0.00395441 106.249 0.0877733 106.404 0.456372C107.859 3.91867 109.325 7.37703 110.809 10.8295C112.508 14.7842 114.231 18.7304 115.938 22.6823C116.559 24.119 117.165 25.5608 117.778 27.0003Z" fill="white"/>
</g>
<path fill-rule="evenodd" clip-rule="evenodd" d="M99.0771 1.08797C99.8587 3.5514 100.652 6.01144 101.408 8.48275C101.509 8.81139 101.515 9.23261 101.4 9.55225C100.729 11.4214 100.208 13.3823 99.2585 15.1049C97.7927 17.765 95.335 18.871 92.1371 18.6068C94.4091 12.7146 96.6585 6.87976 98.9083 1.04492C98.9646 1.05927 99.0207 1.07362 99.0771 1.08797Z" fill="white"/>
<path fill-rule="evenodd" clip-rule="evenodd" d="M98.2325 18.9512C97.6686 20.6408 97.1068 22.331 96.5398 24.0196C96.3496 24.5862 96.1769 25.1619 95.9402 25.7095C95.644 26.3941 95.0827 26.905 94.3586 26.9349C92.569 27.0083 90.7746 26.9588 88.8889 26.9588C89.2764 25.9185 89.6404 24.9228 90.0191 23.9326C90.1882 23.4908 90.4491 23.0755 90.5585 22.6217C90.7219 21.945 91.084 21.7629 91.769 21.7351C94.2535 21.6343 96.5528 21.0364 98.2325 18.9512Z" fill="white"/>
</g>
<defs>
<clipPath id="clip0_360_3719">
<rect width="200" height="27" fill="white"/>
</clipPath>
</defs>
</svg>
