<svg width="200" height="60" viewBox="0 0 200 60" fill="none" xmlns="http://www.w3.org/2000/svg">
<g clip-path="url(#clip0_360_3716)">
<path d="M27.7061 8.99121C18.4563 8.99121 10.7184 15.3398 8.60938 23.8811H46.8124C44.7034 15.335 36.9559 8.99121 27.7061 8.99121ZM27.7061 48.1166C36.8836 48.1166 44.583 41.883 46.7642 33.4422H8.65271C10.8291 41.883 18.5285 48.1166 27.7061 48.1166Z" fill="white"/>
<path d="M10.5354 26.7344H13.3715L13.5786 25.7529H9.5772L8.29639 31.7615H9.45683L9.98649 29.2767H12.6878L12.8852 28.3335H10.1935L10.5354 26.7344Z" fill="white"/>
<path d="M15.8369 25.7529H14.6764L13.386 31.7615H14.5512L15.8369 25.7529Z" fill="white"/>
<path d="M20.4834 30.7705H20.4641L18.9378 25.7529H17.0213L15.7357 31.7615H16.8913L17.8736 26.7344H17.9073L19.4096 31.7615H21.3405L22.6213 25.7529H21.4609L20.4834 30.7705Z" fill="white"/>
<path d="M28.279 27.7541L28.3464 27.4286C28.645 25.705 27.7831 25.7002 26.2711 25.7002C24.4944 25.7002 23.6469 26.1311 23.228 28.0606L22.9439 29.4346C22.5876 31.1965 22.8091 31.8955 24.9614 31.8094C26.4878 31.7519 27.499 31.8094 27.8698 30.0044L27.9516 29.607H26.7912L26.7238 29.9326C26.5456 30.7896 26.1171 30.8327 25.1685 30.8327C23.9503 30.8327 23.8588 30.5981 24.114 29.3915L24.4029 28.0606C24.6388 26.8828 24.894 26.6865 26.0593 26.6865C27.0801 26.6865 27.3401 26.7391 27.1908 27.4334L27.1234 27.7589H28.279V27.7541Z" fill="white"/>
<path fill-rule="evenodd" clip-rule="evenodd" d="M32.1697 25.7002C30.2533 25.7002 29.5358 26.0258 29.1362 27.9026L28.7943 29.516C28.3754 31.4982 28.9965 31.8094 30.8696 31.8094C32.7427 31.8094 33.5227 31.4407 33.9416 29.516L34.2739 27.9026C34.6976 25.9635 33.9128 25.7002 32.1697 25.7002ZM31.9626 26.6817C33.0027 26.6817 33.3927 26.7631 33.1231 27.9026L32.7668 29.516C32.5308 30.6842 32.1264 30.8327 31.0718 30.8327C29.9114 30.8327 29.7044 30.713 29.9644 29.516L30.3014 27.9026C30.5374 26.9498 30.7203 26.6817 31.9675 26.6817H31.9626Z" fill="white"/>
<path d="M39.2768 30.7705H39.2479L37.7311 25.7529H35.8099L34.5243 31.7615H35.6847L36.667 26.7344H36.7055L38.2078 31.7615H40.1339L41.4195 25.7529H40.2591L39.2768 30.7705Z" fill="white"/>
<path d="M41.5302 29.8473L41.4772 30.1202C41.1065 31.8485 42.3102 31.8055 43.6488 31.8055C45.2089 31.8055 46.0419 31.6666 46.3934 29.9717C46.7353 28.4349 46.2538 28.3439 44.4096 28.229C43.2492 28.162 43.0999 28.138 43.2636 27.4007C43.384 26.764 43.5959 26.6443 44.7515 26.6443C45.5701 26.6443 45.8204 26.6682 45.6904 27.3241L45.6471 27.5156H46.8075L46.8605 27.3241C47.1879 25.7442 46.1912 25.6963 44.9634 25.6963C43.5044 25.6963 42.4451 25.749 42.0936 27.3959C41.7228 29.1483 42.7629 29.0956 44.0581 29.177C44.9489 29.2296 45.4352 29.11 45.2474 29.967C45.1078 30.6612 44.9104 30.8527 43.8511 30.8527C42.7917 30.8527 42.498 30.8096 42.6473 30.1154L42.6906 29.8425H41.5398L41.5302 29.8473Z" fill="white"/>
<path d="M11.9992 5.9751C11.9992 9.26428 9.3124 11.9406 6.00443 11.9406C2.69646 11.9406 0 9.26428 0 5.9751C0 2.68592 2.69164 0 6.00924 0C9.32685 0 12.004 2.67635 12.004 5.9751H11.9992Z" fill="white"/>
<path d="M63.0585 20.9697H74.1188L74.9518 17.1299H59.3557L54.348 40.5611H58.879L60.9447 30.8755H71.4416L72.2265 27.1937H61.7344L63.0585 20.9697Z" fill="white"/>
<path d="M82.7474 17.1299H78.2116L73.1991 40.5611H77.7253L82.7474 17.1299Z" fill="white"/>
<path d="M99.9085 36.7165H99.7737L93.8848 17.1299H86.4069L81.3944 40.5611H85.9206L89.739 20.9697H89.8834L95.7145 40.5611H103.241L108.253 17.1299H103.732L99.9085 36.7165Z" fill="white"/>
<path d="M129.415 24.9773L129.685 23.699C130.817 16.977 127.456 16.9482 121.572 16.9482C114.633 16.9482 111.344 18.6335 109.751 26.1311L108.6 31.5126C107.232 38.359 108.123 41.0641 116.492 40.7529C122.39 40.4992 126.387 40.7529 127.817 33.691L128.13 32.1589H123.623L123.344 33.4372C122.631 36.7886 120.965 36.9036 117.31 36.9036C112.572 36.9036 112.197 36.0035 113.169 31.3163L114.277 26.1263C115.249 21.5349 116.203 20.788 120.753 20.788C124.726 20.788 125.751 20.9652 125.169 23.6942L124.894 24.9725H129.42L129.415 24.9773Z" fill="white"/>
<path fill-rule="evenodd" clip-rule="evenodd" d="M143.971 16.9482C136.494 16.9482 133.739 18.2266 132.194 25.5087L130.841 31.8238C129.189 39.5033 131.597 40.7577 138.887 40.7577C146.177 40.7577 149.254 39.3214 150.857 31.8238L152.21 25.5087C153.813 17.9728 150.761 16.9482 143.971 16.9482ZM143.153 20.7928C147.169 20.7928 148.714 21.104 147.674 25.5087L146.321 31.8238C145.368 36.3482 143.832 36.9083 139.71 36.9083C135.184 36.9083 134.365 36.4774 135.367 31.8238L136.71 25.5087C137.601 21.7839 138.28 20.7928 143.148 20.7928H143.153Z" fill="white"/>
<path d="M170.796 36.7165H170.676L164.773 17.1299H157.285L152.287 40.5611H156.808L160.632 20.9697H160.786L166.607 40.5611H174.119L179.141 17.1299H174.61L170.796 36.7165Z" fill="white"/>
<path d="M179.025 33.0924L178.785 34.1888C177.34 40.9156 182.035 40.7528 187.264 40.7528C193.326 40.7528 196.581 40.1926 197.987 33.6047C199.273 27.6392 197.376 27.2562 190.192 26.8157C185.68 26.5428 185.107 26.4375 185.714 23.5696C186.248 21.0704 187.067 20.6251 191.559 20.6251C194.732 20.6251 195.753 20.7305 195.209 23.2584L195.055 23.9957H199.567L199.74 23.2584C201.05 17.0918 197.154 16.9434 192.349 16.9434C186.691 16.9434 182.564 17.1253 181.178 23.5696C179.733 30.3873 183.788 30.1958 188.829 30.507C192.296 30.6985 194.174 30.2533 193.461 33.6047C192.883 36.3194 192.166 37.071 188.049 37.071C183.932 37.071 182.738 36.8795 183.306 34.1888L183.552 33.0924H179.021H179.025Z" fill="white"/>
<path d="M120.002 51.0612L119.357 54.0775C118.307 58.9849 116.853 59.9999 110.901 59.9999C105.557 59.9999 103.756 59.0663 104.95 53.4551L105.768 49.6392C106.958 44.1094 109.336 43.1327 114.498 43.1327C118.572 43.1327 121.822 42.9412 120.575 48.2699H117.387C117.917 45.8378 116.704 45.8569 113.92 45.8569C110.189 45.8569 109.702 46.441 108.966 49.6345L108.147 53.4503C107.449 56.9262 107.906 57.2661 111.479 57.2661C114.527 57.2661 115.481 57.2087 116.15 54.0727L116.27 53.4646H112.076L112.591 51.0564H120.007L120.002 51.0612Z" fill="white"/>
<path d="M127.542 54.3886L126.368 59.8754H123.17L126.719 43.2715H135.242C138.863 43.3625 140.033 44.4971 139.229 48.2555C138.699 50.7164 138.193 52.4975 135.28 52.9284L135.251 53.0193C137.476 53.2108 137.779 54.4317 137.288 56.7729L136.619 59.8802H133.407L134.076 56.7729C134.365 55.3845 133.995 54.4078 132.478 54.3934H127.547L127.542 54.3886ZM132.353 51.6596C134.727 51.6596 135.391 51.1952 135.906 48.7678C136.421 46.417 136.08 45.9861 133.788 45.9861H129.334L128.12 51.6548H132.353V51.6596Z" fill="white"/>
<path d="M157.507 49.198L156.549 53.6793C155.412 58.9889 153.12 59.9992 148.079 59.9992C143.037 59.9992 141.208 59.1182 142.378 53.6793L143.336 49.198C144.429 44.0512 146.384 43.1367 151.685 43.1367C156.491 43.1367 158.653 43.874 157.507 49.198ZM146.533 49.198L145.58 53.6793C144.882 56.9685 145.445 57.2701 148.657 57.2701C151.57 57.2701 152.658 56.8775 153.342 53.6793L154.295 49.198C155.032 46.0908 153.953 45.8657 151.098 45.8657C147.645 45.8657 147.174 46.5695 146.533 49.198Z" fill="white"/>
<path d="M176.825 43.2666L174.297 55.0684C173.3 59.6981 170.324 59.9998 166.275 59.9998C162.225 59.9998 159.413 59.7125 160.425 55.0684L162.938 43.2666H166.145L163.617 55.0684C163.251 56.768 163.766 57.2708 166.867 57.2708C169.968 57.2708 170.71 56.859 171.105 55.0684L173.618 43.2666H176.83H176.825Z" fill="white"/>
<path d="M182.68 43.2666H190.062C194.54 43.2666 195.772 44.3295 194.785 48.9736C193.788 53.6752 192.026 54.4891 187.664 54.4891H183.494L182.343 59.8705H179.136L182.685 43.2666H182.68ZM188.241 51.7696C190.553 51.7265 191.082 51.31 191.578 48.9736C192.084 46.6372 191.891 45.9717 189.479 45.986H185.295L184.052 51.7696H188.241Z" fill="white"/>
</g>
<defs>
<clipPath id="clip0_360_3716">
<rect width="200" height="60" fill="white"/>
</clipPath>
</defs>
</svg>
