<svg width="200" height="37" viewBox="0 0 200 37" fill="none" xmlns="http://www.w3.org/2000/svg">
<g clip-path="url(#clip0_360_3717)">
<mask id="mask0_360_3717" style="mask-type:luminance" maskUnits="userSpaceOnUse" x="-63" y="-42" width="931" height="1187">
<path d="M-62.9753 1144.83H867.355V-41.6782H-62.9753V1144.83Z" fill="white"/>
</mask>
<g mask="url(#mask0_360_3717)">
<path d="M23.5931 0.791134H8.93888C8.93888 0.791134 0.790894 0.401619 0.790894 8.52143V36.2217L23.5931 0.791134Z" fill="#686868"/>
</g>
<path d="M34.8961 0.791409H28.2987L17.3536 17.3007L28.3139 34.9785H35.1394L24.3159 16.9561L34.8961 0.791409Z" fill="white"/>
<mask id="mask1_360_3717" style="mask-type:luminance" maskUnits="userSpaceOnUse" x="-63" y="-42" width="931" height="1187">
<path d="M-62.9753 1144.83H867.355V-41.6782H-62.9753V1144.83Z" fill="white"/>
</mask>
<g mask="url(#mask1_360_3717)">
<path d="M59.2689 0.791073H43.8394C43.8394 0.791073 36.5731 0.791073 36.5427 8.37156V26.7086C36.5427 26.7086 35.8738 34.9932 44.5539 34.9932H59.9834V29.6149H44.9187C44.9187 29.6149 42.4409 29.8546 42.4409 26.9483V19.6374H58.3416V14.5288H42.4409V8.14684C42.4409 8.14684 42.2432 5.82476 45.2683 5.82476H56.107L59.2689 0.791073Z" fill="white"/>
<path d="M113.944 0.791073H98.5142C98.5142 0.791073 91.2479 0.791073 91.2175 8.37156V26.7086C91.2175 26.7086 90.5486 34.9932 99.2287 34.9932H114.658V29.6149H99.5935C99.5935 29.6149 97.1157 29.8546 97.1157 26.9483V19.6374H113.016V14.5288H97.1309V8.14684C97.1309 8.14684 96.9332 5.82476 99.9583 5.82476H110.797L113.944 0.791073Z" fill="white"/>
<path d="M156.214 14.523V8.14098C156.214 8.14098 156.016 5.8189 159.041 5.8189H169.88L173.057 0.785213H157.628C157.628 0.785213 150.361 0.785213 150.331 8.3657V26.7027C150.331 26.7027 149.662 34.9873 158.342 34.9873H173.483V29.9536H158.692C158.692 29.9536 156.214 30.1783 156.214 27.287V19.6316V14.523Z" fill="white"/>
<path d="M198.493 0.791073H183.064C183.064 0.791073 175.797 0.791073 175.767 8.37156V26.7086C175.767 26.7086 175.098 34.9932 183.778 34.9932H199.207V29.6149H184.143C184.143 29.6149 181.665 29.8546 181.665 26.9483V19.6374H197.566V14.5288H181.665V8.14684C181.665 8.14684 181.467 5.82476 184.492 5.82476H195.331L198.493 0.791073Z" fill="white"/>
</g>
<path d="M61.1544 0.791409H67.6302L75.6414 15.3382L84.0022 0.791409H90.478L78.2257 20.5516V34.9785H72.5859V20.4318L61.1544 0.791409Z" fill="white"/>
<path d="M119.086 0.791405V34.9785H124.619V11.9674L139.684 34.9785H144.868V0.776424H139.213V23.5628L124.376 0.791405H119.086Z" fill="white"/>
</g>
<defs>
<clipPath id="clip0_360_3717">
<rect width="200" height="37" fill="white"/>
</clipPath>
</defs>
</svg>
