<svg width="200" height="55" viewBox="0 0 200 55" fill="none" xmlns="http://www.w3.org/2000/svg">
<g clip-path="url(#clip0_360_3718)">
<path d="M163.511 24.1162C169.631 24.1162 174.605 19.1592 174.605 13.0608C174.605 6.96235 169.631 2.00534 163.511 2.00534C160.108 2.00534 157.065 3.5381 155.019 5.95138C154.43 5.60895 153.841 5.26653 153.252 4.9241C155.657 1.92381 159.355 -0.0166016 163.511 -0.0166016C170.744 -0.0166016 176.618 5.83724 176.618 13.0445C176.618 20.2517 170.744 26.1055 163.511 26.1055C161.155 26.1055 158.881 25.4859 156.901 24.3282C151.698 21.3279 146.494 18.3439 141.291 15.3436C141.635 14.7566 141.962 14.1859 142.306 13.5989C147.525 16.5992 152.761 19.6158 157.981 22.6161C159.65 23.5781 161.548 24.0999 163.528 24.0999" fill="white"/>
<path d="M143.681 11.2382L143.436 11.6621L156.837 19.3504L157.082 18.9264L143.681 11.2382Z" fill="white"/>
<path d="M156.019 20.7571L156.264 20.3331L142.863 12.6367L142.618 13.0444L156.019 20.7571Z" fill="white"/>
<path d="M0 1.76074V25.8773H15.2499V20.8061H5.87417V1.76074H0Z" fill="white"/>
<path d="M17.8508 25.8773H24.2158L25.9993 21.1485H35.3587L37.2404 25.8773H43.7364L33.6898 1.76074H28.0119L17.8508 25.8773ZM33.7552 16.4687H27.6683L30.7445 8.18529L33.7552 16.4687Z" fill="white"/>
<path d="M55.4694 25.8773V15.6534L64.7633 1.76074H57.9238L52.7532 10.6801L47.599 1.76074H40.514L49.6116 15.6534V25.8773H55.4694Z" fill="white"/>
<path d="M66.5797 1.76074V25.8773H83.4659V20.9039H72.2084V15.898H82.2714V11.2182H72.2084V6.66884H82.8441V1.76074H66.5797Z" fill="white"/>
<path d="M87.3277 25.8773H93.0382V16.3057H95.0345C96.7853 19.5016 98.5361 22.6813 100.287 25.8773H107.126L100.794 15.5556C102.365 15.0827 103.592 14.2837 104.492 13.1749C105.376 12.0661 105.817 10.6801 105.817 9.04951C105.817 7.6635 105.556 6.50578 105.032 5.57634C104.508 4.6469 103.805 3.89682 102.921 3.32611C102.038 2.75541 101.056 2.36406 99.9433 2.11947C98.847 1.87488 97.7016 1.76074 96.5398 1.76074H87.3113V25.8773H87.3277ZM96.1308 6.45686C96.5726 6.45686 97.0144 6.48947 97.4889 6.55469C97.9634 6.61992 98.3888 6.75037 98.7652 6.94604C99.1415 7.14171 99.4524 7.41891 99.6978 7.76134C99.9433 8.12007 100.058 8.57663 100.058 9.14734C100.058 9.76697 99.9269 10.2561 99.6651 10.6475C99.4033 11.0388 99.0597 11.3323 98.6506 11.528C98.2416 11.7237 97.7834 11.8704 97.2762 11.952C96.7689 12.0335 96.278 12.0661 95.8035 12.0661H93.0219V6.44055H96.1471L96.1308 6.45686Z" fill="white"/>
<path d="M180.659 25.8779H186.369V16.3063H188.365C191.033 16.5183 193.716 15.9639 196.072 14.7084C197.545 13.8115 198.576 12.4744 198.968 10.7623C199.148 9.94701 199.181 9.0828 199.116 8.2675C199.05 7.4359 198.87 6.60429 198.494 5.83791C198.134 5.10414 197.594 4.40299 196.972 3.86489C196.35 3.32679 195.581 2.88653 194.812 2.57672C194.027 2.26691 193.209 2.07124 192.374 1.94079C191.54 1.81034 190.705 1.74512 189.871 1.74512H180.642V25.8616L180.659 25.8779ZM189.445 6.45754C189.887 6.45754 190.329 6.49015 190.803 6.55537C191.278 6.6206 191.703 6.75105 192.08 6.94672C192.456 7.14239 192.767 7.41959 193.012 7.76202C193.258 8.12075 193.372 8.57731 193.372 9.14802C193.372 9.76765 193.241 10.2568 192.98 10.6482C192.718 11.0395 192.374 11.333 191.965 11.5287C191.556 11.7244 191.098 11.8711 190.591 11.9526C190.083 12.0342 189.593 12.0668 189.118 12.0668H186.336V6.44123H189.462L189.445 6.45754Z" fill="white"/>
<path d="M144.711 3.65256C150.013 6.70178 155.314 9.75099 160.615 12.8002C160.943 12.2132 161.286 11.6425 161.63 11.0555C156.345 8.02256 151.076 4.97334 145.791 1.94044C143.811 0.782712 141.537 0.163086 139.18 0.163086C131.948 0.163086 126.074 6.01692 126.074 13.2242C126.074 20.4314 131.948 26.2852 139.18 26.2852C143.337 26.2852 147.035 24.3611 149.44 21.3445C148.851 21.0021 148.262 20.6597 147.673 20.3172C145.644 22.7305 142.584 24.2633 139.18 24.2633C133.061 24.2633 128.087 19.3063 128.087 13.2079C128.087 7.10942 133.061 2.15241 139.18 2.15241C141.144 2.15241 143.058 2.6742 144.727 3.63626" fill="white"/>
<path d="M110.152 1.76074V25.8773H125.402V20.8061H116.043V1.76074H110.152Z" fill="white"/>
<path d="M160.043 13.7949L160.289 13.3709L146.904 5.6582L146.659 6.08216L160.043 13.7949Z" fill="white"/>
<path d="M146.104 7.06337L145.859 7.4873L159.26 15.1756L159.505 14.7516L146.104 7.06337Z" fill="white"/>
<path d="M158.439 16.583L158.684 16.159L145.283 8.44629L145.038 8.87024L158.439 16.583Z" fill="white"/>
<path d="M157.62 17.969L157.866 17.545L144.481 9.84863L144.236 10.2726L157.62 17.969Z" fill="white"/>
<path d="M2.2922 52.2114C1.83405 52.2114 1.47407 52.0646 1.245 51.7874C0.999557 51.4939 0.885019 51.1352 0.885019 50.6949V46.8467H0.083252V46.3901H0.885019V44.5312H1.5068V46.3901H2.83217V46.8467H1.5068V50.7112C1.5068 51.021 1.57225 51.2493 1.71951 51.4287C1.86677 51.5917 2.09585 51.6896 2.40674 51.6896H2.83217V52.2277H2.2922V52.2114Z" fill="#FDFCFB"/>
<path d="M11.6679 52.2111V48.5912C11.6679 48.0205 11.537 47.5965 11.2589 47.303C10.9807 47.0095 10.588 46.8628 10.048 46.8628C9.50806 46.8628 9.11535 47.0095 8.82083 47.3193C8.5263 47.6291 8.3954 48.0531 8.3954 48.6075V52.2274H7.77362V43.6016H8.3954V47.0747C8.83719 46.5692 9.40988 46.3084 10.1135 46.3084C10.7843 46.3084 11.3079 46.504 11.7006 46.8954C12.0933 47.2867 12.2733 47.8085 12.2733 48.4934V52.2274H11.6516L11.6679 52.2111Z" fill="#FDFCFB"/>
<path d="M17.9511 49.4237C17.9511 50.1738 18.1147 50.7445 18.442 51.1358C18.7692 51.5272 19.2438 51.7392 19.8655 51.7392C20.2092 51.7392 20.5037 51.6902 20.7491 51.5761C20.9946 51.462 21.24 51.2826 21.4854 51.038L21.9436 51.3967C21.7963 51.5435 21.6491 51.6739 21.5018 51.7881C21.3545 51.9022 21.1909 52.0001 21.0273 52.0653C20.8637 52.1468 20.6837 52.1957 20.4873 52.2283C20.291 52.2609 20.0783 52.2773 19.8328 52.2773C19.0147 52.2773 18.4093 52.0164 17.9838 51.5109C17.5584 51.0054 17.3457 50.2553 17.3457 49.277C17.3457 48.2986 17.5584 47.5974 17.9675 47.0757C18.3765 46.5539 18.9492 46.293 19.6856 46.293C20.4219 46.293 20.9946 46.5376 21.4036 47.043C21.8127 47.5485 22.0254 48.2497 22.0254 49.1465V49.4237H17.9511ZM21.3709 48.5758C21.3709 48.478 21.3545 48.3801 21.3382 48.3149C21.3382 48.2334 21.3055 48.1682 21.2727 48.0866C21.2564 48.0051 21.2236 47.9236 21.1909 47.842C21.06 47.5322 20.8637 47.2876 20.5855 47.1246C20.3073 46.9452 20.0128 46.8637 19.6692 46.8637C19.3256 46.8637 19.0311 46.9452 18.7529 47.1246C18.4747 47.3039 18.2784 47.5322 18.1475 47.842C18.0984 47.9236 18.082 48.0214 18.0493 48.0866C18.0329 48.1682 18.0166 48.2334 18.0002 48.3149C18.0002 48.3964 17.9675 48.478 17.9675 48.5758C17.9675 48.6736 17.9675 48.8041 17.9511 48.9345H21.4036C21.4036 48.8041 21.4036 48.6736 21.3873 48.5758" fill="#FDFCFB"/>
<path d="M34.6077 50.6467C34.5095 51.0869 34.3132 51.462 34.0023 51.7718C33.855 51.9185 33.6423 52.049 33.3969 52.1468C33.1514 52.2446 32.8733 52.2936 32.5624 52.2936C32.2351 52.2936 31.9243 52.2446 31.6297 52.1305C31.3516 52.0327 31.0734 51.8044 30.8116 51.462V55.0004H30.1898V46.3745H30.8116V47.1246C31.0734 46.7821 31.3352 46.5702 31.6297 46.456C31.9079 46.3419 32.2188 46.293 32.5624 46.293C32.8733 46.293 33.1514 46.3419 33.3969 46.4397C33.6423 46.5376 33.8387 46.6517 34.0023 46.8148C34.2968 47.1083 34.5095 47.4833 34.6077 47.9399C34.7059 48.3801 34.755 48.8367 34.755 49.3096C34.755 49.7824 34.7059 50.2227 34.6077 50.663M34.1005 48.3964C34.0678 48.1029 33.9859 47.842 33.8714 47.6138C33.7569 47.3855 33.5932 47.2061 33.3642 47.0594C33.1514 46.9126 32.8569 46.8474 32.4969 46.8474C32.137 46.8474 31.8588 46.9126 31.6297 47.0594C31.417 47.2061 31.237 47.3855 31.1225 47.6138C31.0079 47.842 30.9261 48.1029 30.8934 48.3964C30.8607 48.6899 30.8443 48.9835 30.8443 49.2933C30.8443 49.6031 30.8607 49.8966 30.8934 50.1901C30.9261 50.4836 31.0079 50.7445 31.1225 50.9728C31.237 51.2011 31.4007 51.3967 31.6297 51.5272C31.8424 51.6739 32.137 51.7392 32.4969 51.7392C32.8569 51.7392 33.1351 51.6739 33.3642 51.5272C33.5769 51.3804 33.7569 51.2011 33.8714 50.9728C33.9859 50.7445 34.0678 50.4836 34.1005 50.1901C34.1332 49.8966 34.1496 49.6031 34.1496 49.2933C34.1496 48.9835 34.1332 48.6899 34.1005 48.3964Z" fill="#FDFCFB"/>
<path d="M44.1133 50.5481C44.0315 50.9721 43.8188 51.3308 43.5243 51.6406C43.3116 51.8526 43.0661 52.0157 42.8043 52.1135C42.5261 52.2277 42.2316 52.2766 41.9044 52.2766C41.2499 52.2766 40.7099 52.0646 40.2681 51.6406C39.9572 51.3308 39.7609 50.9721 39.6791 50.5481C39.5972 50.1242 39.5482 49.7002 39.5482 49.2926C39.5482 48.8849 39.5972 48.461 39.6791 48.037C39.7772 47.6131 39.9736 47.2543 40.2681 46.9445C40.6935 46.5206 41.2335 46.3086 41.9044 46.3086C42.2316 46.3086 42.5425 46.3575 42.8043 46.4717C43.0825 46.5858 43.3116 46.7326 43.5243 46.9445C43.8352 47.2543 44.0315 47.6131 44.1133 48.037C44.1951 48.461 44.2442 48.8686 44.2442 49.2926C44.2442 49.7165 44.1951 50.1242 44.1133 50.5481ZM43.6224 48.7708C43.6224 48.5914 43.5897 48.4121 43.557 48.249C43.5243 48.0696 43.4752 47.9066 43.3934 47.7598C43.3279 47.6131 43.2297 47.4663 43.1152 47.3522C42.9516 47.1891 42.7716 47.075 42.5589 46.9771C42.3462 46.8956 42.1334 46.8467 41.9044 46.8467C41.4299 46.8467 41.0208 47.0098 40.6935 47.3359C40.579 47.45 40.4808 47.5968 40.4154 47.7435C40.3499 47.8903 40.3008 48.0533 40.2517 48.2327C40.219 48.4121 40.1863 48.5751 40.1863 48.7545C40.1863 48.9339 40.1863 49.1132 40.1863 49.2763C40.1863 49.4393 40.1863 49.6187 40.1863 49.7981C40.1863 49.9774 40.219 50.1568 40.2517 50.3199C40.2845 50.4992 40.3336 50.6623 40.4154 50.809C40.4808 50.9558 40.579 51.1025 40.6935 51.2167C41.0208 51.5428 41.4299 51.7059 41.9044 51.7059C42.1334 51.7059 42.3625 51.657 42.5589 51.5754C42.7716 51.4939 42.9516 51.3634 43.1152 51.2004C43.2461 51.0862 43.3279 50.9395 43.3934 50.7927C43.4588 50.646 43.5079 50.4829 43.557 50.3036C43.5897 50.1242 43.6224 49.9611 43.6224 49.7818C43.6224 49.6024 43.6224 49.423 43.6224 49.26C43.6224 49.0969 43.6224 48.9175 43.6224 48.7382" fill="#FDFCFB"/>
<path d="M54.7484 52.2116H54.1102L52.4576 47.3361L50.805 52.2116H50.1668L48.3015 46.374H48.9724L50.4777 51.4778L52.1467 46.374H52.7521L54.4375 51.4778L55.9265 46.374H56.6137L54.7484 52.2116Z" fill="#FDFCFB"/>
<path d="M61.2792 49.4237C61.2792 50.1738 61.4429 50.7445 61.7701 51.1358C62.0974 51.5272 62.5719 51.7392 63.1937 51.7392C63.5373 51.7392 63.8318 51.6902 64.0772 51.5761C64.3227 51.462 64.5681 51.2826 64.8136 51.038L65.2717 51.3967C65.1245 51.5435 64.9772 51.6739 64.8299 51.7881C64.6827 51.9022 64.519 52.0001 64.3554 52.0653C64.1918 52.1468 64.0118 52.1957 63.8154 52.2283C63.6191 52.2609 63.4064 52.2773 63.1609 52.2773C62.3592 52.2773 61.7374 52.0164 61.312 51.5109C60.8865 51.0054 60.6738 50.2553 60.6738 49.277C60.6738 48.2986 60.8865 47.5974 61.2956 47.0757C61.7047 46.5539 62.2774 46.293 63.0137 46.293C63.75 46.293 64.3227 46.5376 64.7318 47.043C65.1408 47.5485 65.3535 48.2497 65.3535 49.1465V49.4237H61.2792ZM64.699 48.5758C64.699 48.478 64.6827 48.3801 64.6663 48.3149C64.6663 48.2334 64.6336 48.1682 64.6008 48.0866C64.5845 48.0051 64.5518 47.9236 64.519 47.842C64.3881 47.5322 64.1918 47.2876 63.9136 47.1246C63.6355 46.9452 63.3409 46.8637 62.9973 46.8637C62.6537 46.8637 62.3592 46.9452 62.081 47.1246C61.8028 47.3039 61.6065 47.5322 61.4756 47.842C61.4265 47.9236 61.4101 48.0214 61.3774 48.0866C61.3611 48.1682 61.3447 48.2334 61.3283 48.3149C61.3283 48.3964 61.2956 48.478 61.2956 48.5758C61.2956 48.6736 61.2956 48.8041 61.2792 48.9345H64.7318C64.7318 48.8041 64.7317 48.6736 64.7154 48.5758" fill="#FDFCFB"/>
<path d="M73.7454 47.3033C73.5654 47.1239 73.4018 47.0098 73.2382 46.9445C73.0746 46.8793 72.8782 46.8467 72.6328 46.8467C72.3873 46.8467 72.1583 46.8956 71.9619 46.9934C71.7656 47.0913 71.6019 47.2217 71.471 47.3848C71.3401 47.5478 71.242 47.7272 71.1601 47.9555C71.0947 48.1675 71.062 48.3958 71.062 48.624V52.2114H70.4402V46.3738H71.062V47.1565C71.2256 46.8793 71.471 46.6673 71.7819 46.5206C72.0928 46.3738 72.4201 46.3086 72.7637 46.3086C73.0418 46.3086 73.3036 46.3412 73.5164 46.4227C73.7454 46.5043 73.9581 46.651 74.1709 46.863L73.7291 47.3033H73.7454Z" fill="#FDFCFB"/>
<path d="M85.854 50.5481C85.7722 50.9721 85.5595 51.3308 85.265 51.6406C85.0523 51.8526 84.8068 52.0157 84.545 52.1135C84.2669 52.2277 83.9723 52.2766 83.6451 52.2766C82.9906 52.2766 82.4506 52.0646 82.0088 51.6406C81.6979 51.3308 81.5016 50.9721 81.4198 50.5481C81.338 50.1242 81.2889 49.7002 81.2889 49.2926C81.2889 48.8849 81.338 48.461 81.4198 48.037C81.5016 47.6131 81.7143 47.2543 82.0088 46.9445C82.4343 46.5206 82.9742 46.3086 83.6451 46.3086C83.9723 46.3086 84.2832 46.3575 84.545 46.4717C84.8232 46.5858 85.0523 46.7326 85.265 46.9445C85.5759 47.2543 85.7722 47.6131 85.854 48.037C85.9359 48.461 85.9849 48.8686 85.9849 49.2926C85.9849 49.7165 85.9359 50.1242 85.854 50.5481ZM85.3632 48.7708C85.3632 48.5914 85.3304 48.4121 85.2977 48.249C85.265 48.0696 85.1995 47.9066 85.1341 47.7598C85.0686 47.6131 84.9705 47.4663 84.8559 47.3522C84.6923 47.1891 84.5123 47.075 84.2996 46.9771C84.0869 46.8956 83.8742 46.8467 83.6451 46.8467C83.1706 46.8467 82.7615 47.0098 82.4343 47.3359C82.3197 47.45 82.2215 47.5968 82.1561 47.7435C82.0906 47.8903 82.0252 48.0533 81.9925 48.2327C81.9597 48.4121 81.927 48.5751 81.927 48.7545C81.927 48.9339 81.927 49.1132 81.927 49.2763C81.927 49.4393 81.927 49.6187 81.927 49.7981C81.927 49.9774 81.9597 50.1568 81.9925 50.3199C82.0252 50.4992 82.0743 50.6623 82.1561 50.809C82.2215 50.9558 82.3197 51.1025 82.4343 51.2167C82.7615 51.5428 83.1706 51.7059 83.6451 51.7059C83.8742 51.7059 84.1032 51.657 84.2996 51.5754C84.5123 51.4939 84.6923 51.3634 84.8559 51.2004C84.9868 51.0862 85.0686 50.9395 85.1341 50.7927C85.1995 50.646 85.2486 50.4829 85.2977 50.3036C85.3304 50.1242 85.3632 49.9611 85.3632 49.7818C85.3632 49.6024 85.3632 49.423 85.3632 49.26C85.3632 49.0969 85.3632 48.9175 85.3632 48.7382" fill="#FDFCFB"/>
<path d="M91.9098 46.8301V52.2111H91.288V46.8301H90.4863V46.3736H91.288V45.118C91.288 44.6778 91.4026 44.3027 91.648 44.0255C91.8934 43.732 92.2371 43.6016 92.6952 43.6016H93.2352V44.1397H92.8098C92.4989 44.1397 92.2698 44.2212 92.1225 44.4006C91.9753 44.5636 91.9098 44.8082 91.9098 45.118V46.3899H93.2352V46.8464H91.9098V46.8301Z" fill="#FDFCFB"/>
<path d="M105.064 50.9397C104.933 51.2332 104.77 51.4778 104.541 51.6898C104.328 51.8855 104.066 52.0485 103.755 52.1464C103.461 52.2442 103.134 52.3094 102.79 52.3094C102.446 52.3094 102.135 52.2605 101.841 52.179C101.546 52.0974 101.301 51.9507 101.072 51.7713C100.859 51.592 100.679 51.3637 100.548 51.0865C100.417 50.8093 100.336 50.4832 100.319 50.1244H100.941C100.974 50.4179 101.039 50.6625 101.137 50.8745C101.252 51.0865 101.383 51.2495 101.563 51.38C101.726 51.5104 101.923 51.6083 102.135 51.6735C102.348 51.7387 102.561 51.7713 102.79 51.7713C103.052 51.7713 103.297 51.7224 103.51 51.6409C103.739 51.5593 103.935 51.4289 104.099 51.2821C104.263 51.1191 104.393 50.9397 104.492 50.7114C104.59 50.4832 104.623 50.2223 104.623 49.9288C104.623 49.3417 104.475 48.9015 104.181 48.5754C103.886 48.2492 103.412 48.0862 102.741 48.0862H102.594V47.5481H102.741C103.33 47.5481 103.755 47.4013 104.033 47.0915C104.312 46.798 104.459 46.3577 104.459 45.8033C104.459 45.5261 104.41 45.2652 104.328 45.0533C104.246 44.8413 104.132 44.6619 103.968 44.5152C103.804 44.3684 103.641 44.2543 103.428 44.1891C103.232 44.1075 103.003 44.0749 102.774 44.0749C102.266 44.0749 101.857 44.2217 101.563 44.4989C101.268 44.7761 101.105 45.1674 101.039 45.6403H100.417C100.483 44.9554 100.728 44.4336 101.17 44.0749C101.595 43.6999 102.135 43.5205 102.774 43.5205C103.117 43.5205 103.428 43.5694 103.706 43.6836C103.984 43.7977 104.23 43.9445 104.426 44.1564C104.623 44.3521 104.786 44.5967 104.901 44.8739C105.015 45.1511 105.064 45.4609 105.064 45.8196C105.064 46.2762 104.966 46.6839 104.786 47.01C104.59 47.3361 104.279 47.597 103.837 47.7927C104.328 47.9557 104.672 48.2166 104.901 48.5754C105.13 48.9341 105.228 49.3907 105.228 49.9451C105.228 50.3364 105.162 50.6788 105.032 50.9723" fill="#FDFCFB"/>
<path d="M116.387 48.7216C116.387 49.0641 116.354 49.3902 116.305 49.7163C116.256 50.0424 116.174 50.3522 116.06 50.662C115.945 50.9556 115.782 51.2164 115.569 51.4447C115.307 51.7056 114.996 51.9013 114.636 52.0317C114.276 52.1622 113.867 52.2274 113.409 52.2274H110.513V43.6016H113.409C114.325 43.6016 115.045 43.8625 115.569 44.3842C115.782 44.5962 115.945 44.8408 116.06 45.118C116.174 45.3952 116.256 45.6724 116.305 45.9659C116.354 46.2594 116.387 46.5692 116.387 46.8791C116.387 47.1889 116.387 47.4987 116.387 47.7759C116.387 48.0531 116.387 48.3792 116.387 48.7216ZM115.733 47.0095C115.733 46.7323 115.716 46.4714 115.667 46.2105C115.634 45.9496 115.569 45.705 115.487 45.4604C115.405 45.2159 115.274 45.0202 115.094 44.8408C114.849 44.5799 114.554 44.4006 114.244 44.319C113.916 44.2212 113.589 44.1723 113.245 44.1723H111.151V51.6241H113.245C113.589 51.6241 113.933 51.5752 114.244 51.4936C114.571 51.3958 114.849 51.2328 115.094 50.9719C115.258 50.7925 115.389 50.5805 115.487 50.3196C115.569 50.0587 115.634 49.7815 115.667 49.488C115.7 49.1945 115.733 48.901 115.733 48.6075C115.733 48.314 115.733 48.0368 115.733 47.8085C115.733 47.5802 115.733 47.303 115.733 47.0421" fill="#FDFCFB"/>
<path d="M126.318 52.2114C125.86 52.2114 125.5 52.0646 125.271 51.7874C125.025 51.4939 124.911 51.1352 124.911 50.6949V46.8467H124.109V46.3901H124.911V44.5312H125.533V46.3901H126.858V46.8467H125.533V50.7112C125.533 51.021 125.598 51.2493 125.745 51.4287C125.893 51.5917 126.122 51.6896 126.433 51.6896H126.858V52.2277H126.318V52.2114Z" fill="#FDFCFB"/>
<path d="M135.94 50.5481C135.858 50.9721 135.646 51.3308 135.351 51.6406C135.138 51.8526 134.893 52.0157 134.631 52.1135C134.353 52.2277 134.058 52.2766 133.731 52.2766C133.077 52.2766 132.537 52.0646 132.095 51.6406C131.784 51.3308 131.588 50.9721 131.506 50.5481C131.424 50.1242 131.375 49.7002 131.375 49.2926C131.375 48.8849 131.424 48.461 131.506 48.037C131.588 47.6131 131.8 47.2543 132.095 46.9445C132.52 46.5206 133.06 46.3086 133.731 46.3086C134.058 46.3086 134.369 46.3575 134.631 46.4717C134.909 46.5858 135.138 46.7326 135.351 46.9445C135.662 47.2543 135.858 47.6131 135.94 48.037C136.022 48.461 136.071 48.8686 136.071 49.2926C136.071 49.7165 136.022 50.1242 135.94 50.5481ZM135.433 48.7708C135.433 48.5914 135.4 48.4121 135.367 48.249C135.335 48.0696 135.269 47.9066 135.204 47.7598C135.138 47.6131 135.04 47.4663 134.926 47.3522C134.762 47.1891 134.582 47.075 134.369 46.9771C134.157 46.8956 133.944 46.8467 133.715 46.8467C133.24 46.8467 132.831 47.0098 132.504 47.3359C132.389 47.45 132.291 47.5968 132.226 47.7435C132.16 47.8903 132.111 48.0533 132.062 48.2327C132.029 48.4121 131.997 48.5751 131.997 48.7545C131.997 48.9339 131.997 49.1132 131.997 49.2763C131.997 49.4393 131.997 49.6187 131.997 49.7981C131.997 49.9774 132.029 50.1568 132.062 50.3199C132.095 50.4992 132.144 50.6623 132.226 50.809C132.291 50.9558 132.389 51.1025 132.504 51.2167C132.831 51.5428 133.24 51.7059 133.715 51.7059C133.944 51.7059 134.173 51.657 134.369 51.5754C134.582 51.4939 134.762 51.3634 134.926 51.2004C135.057 51.0862 135.138 50.9395 135.204 50.7927C135.269 50.646 135.318 50.4829 135.367 50.3036C135.4 50.1242 135.433 49.9611 135.433 49.7818C135.433 49.6024 135.433 49.423 135.433 49.26C135.433 49.0969 135.433 48.9175 135.433 48.7382" fill="#FDFCFB"/>
<path d="M144.202 43.5859H144.971V44.3523H144.202V43.5859ZM144.284 46.3743H144.906V52.2118H144.284V46.3743Z" fill="#FDFCFB"/>
<path d="M154.252 52.2114V48.5914C154.252 48.0207 154.121 47.5968 153.843 47.3033C153.565 47.0098 153.172 46.863 152.632 46.863C152.092 46.863 151.7 47.0098 151.405 47.3196C151.111 47.6294 150.98 48.0533 150.98 48.6077V52.2277H150.358V46.3901H150.98V47.075C151.422 46.5695 151.994 46.3086 152.698 46.3086C153.352 46.3086 153.86 46.488 154.252 46.863C154.661 47.2543 154.858 47.7924 154.858 48.4773V52.2114H154.236H154.252Z" fill="#FDFCFB"/>
<path d="M161.057 46.8301V52.2111H160.435V46.8301H159.633V46.3736H160.435V45.118C160.435 44.6778 160.549 44.3027 160.795 44.0255C161.04 43.732 161.384 43.6016 161.842 43.6016H162.382V44.1397H161.957C161.646 44.1397 161.417 44.2212 161.269 44.4006C161.122 44.5636 161.057 44.8082 161.057 45.118V46.3899H162.382V46.8464H161.057V46.8301Z" fill="#FDFCFB"/>
<path d="M166.963 43.5859H167.732V44.3523H166.963V43.5859ZM167.045 46.3743H167.666V52.2118H167.045V46.3743Z" fill="#FDFCFB"/>
<path d="M177.01 52.2114V48.5914C177.01 48.0207 176.879 47.5968 176.601 47.3033C176.323 47.0098 175.93 46.863 175.39 46.863C174.85 46.863 174.457 47.0098 174.163 47.3196C173.868 47.6294 173.737 48.0533 173.737 48.6077V52.2277H173.116V46.3901H173.737V47.075C174.179 46.5695 174.752 46.3086 175.455 46.3086C176.11 46.3086 176.617 46.488 177.01 46.863C177.419 47.2543 177.615 47.7924 177.615 48.4773V52.2114H176.993H177.01Z" fill="#FDFCFB"/>
<path d="M182.935 43.5859H183.704V44.3523H182.935V43.5859ZM183 46.3743H183.622V52.2118H183V46.3743Z" fill="#FDFCFB"/>
<path d="M190.642 52.2114C190.183 52.2114 189.823 52.0646 189.594 51.7874C189.349 51.4939 189.234 51.1352 189.234 50.6949V46.8467H188.433V46.3901H189.234V44.5312H189.856V46.3901H191.181V46.8467H189.856V50.7112C189.856 51.021 189.922 51.2493 190.069 51.4287C190.216 51.5917 190.445 51.6896 190.756 51.6896H191.181V52.2277H190.642V52.2114Z" fill="#FDFCFB"/>
<path d="M197.283 53.7932C197.169 54.103 197.038 54.3313 196.891 54.4781C196.743 54.6085 196.58 54.7064 196.367 54.7716C196.171 54.8205 195.974 54.8531 195.778 54.8531H195.483V54.315H195.713C195.876 54.315 196.023 54.315 196.138 54.2661C196.253 54.2335 196.334 54.1846 196.416 54.1193C196.498 54.0541 196.563 53.9726 196.612 53.8748C196.662 53.7769 196.727 53.6465 196.776 53.4997L197.251 52.2116L195.107 46.374H195.794L197.562 51.4778L199.329 46.374H200.016L197.3 53.7932H197.283Z" fill="#FDFCFB"/>
</g>
<defs>
<clipPath id="clip0_360_3718">
<rect width="200" height="55" fill="white"/>
</clipPath>
</defs>
</svg>
