<svg width="174" height="30" viewBox="0 0 174 30" fill="none" xmlns="http://www.w3.org/2000/svg">
<path d="M21.0844 29.5844L21.1288 13.923L21.0178 13.9007L12.0863 29.5844H0L20.1512 0.0215872H29.9935V16.6408L30.1713 16.6631L41.591 0.0215872H51.5445V29.5844H40.6357L41.591 13.3883H41.5022L30.7934 29.5844H21.0844Z" fill="white"/>
<path d="M92.7806 21.6756C96.2687 19.9157 97.5573 17.0864 97.5795 11.4055C97.5795 0.0215887 91.3586 0.0215872 83.0493 0.0215872H69.3189V29.5844H79.4501L79.0501 22.589H83.6937L87.2707 29.5844H98.8682L92.7806 21.6756ZM84.7378 15.4601H78.8502L78.5614 7.37317H84.8712C87.5817 7.37317 89.137 7.37317 89.137 11.4055C89.137 15.4378 87.3595 15.4601 84.6934 15.4601" fill="white"/>
<path d="M100.532 0.0215872H110.864L110.597 12.8313H110.864C111.254 11.628 111.857 10.5039 112.641 9.51185L118.773 0.0215872H130.77L119.817 14.4131L131.948 29.5844H119.039L112.996 20.6731C112.082 19.6438 111.333 18.479 110.774 17.2201H110.508L110.797 29.6066H100.532V0.0215872Z" fill="white"/>
<path d="M149.012 0.0215872H133.259V29.5844H143.524L143.346 25.2401H157.475L160.985 29.5844H173.161L149.012 0.0215872ZM143.168 17.8438L142.656 6.70496L151.544 17.8438H143.168Z" fill="white"/>
<path d="M65.5621 0H55.2977V29.5851H65.5621V0Z" fill="white"/>
</svg>
