<svg width="312" height="80" viewBox="0 0 312 80" fill="none" xmlns="http://www.w3.org/2000/svg">
<g clip-path="url(#clip0_802_3435)">
<path d="M42.9175 6.66602C44.2398 6.72037 45.5445 6.82906 46.8306 7.02832L51.0513 1.08594C52.3677 1.47241 53.6841 1.85314 55.0005 2.22754L55.4712 9.51074C56.685 10.0361 57.8631 10.634 59.0044 11.2861L65.0913 7.28223C66.1781 8.11545 67.2707 8.949 68.3696 9.78223L66.1782 16.7568C67.1021 17.6807 67.99 18.6594 68.8052 19.6738L75.9429 18.1514C76.6675 19.3229 77.3921 20.4945 78.1167 21.666L73.5327 27.3906C74.1486 28.7855 74.6927 30.2529 75.1274 31.7383C73.6601 30.3253 71.5585 29.6187 69.4028 29.999C66.8848 30.4338 64.9644 32.2458 64.2397 34.5283C61.2325 24.8726 52.1921 17.8438 41.5581 17.8438C28.4606 17.8439 17.7908 28.5138 17.7905 41.6113C17.7905 52.9881 25.8157 62.4989 36.4858 64.8359C34.2757 65.7417 32.6271 67.8255 32.4097 70.3799L32.4458 70.4521C32.2465 72.6442 33.1526 74.6555 34.6743 75.9961C34.1308 75.8874 33.5869 75.7606 33.0435 75.6338V75.7061C32.1017 75.4344 31.576 75.2714 30.3081 74.9092L24.9458 80.0723C23.726 79.4563 22.4999 78.8396 21.2681 78.2236L22.1558 70.8145C22.0653 70.7421 21.9747 70.67 21.8843 70.5977C20.9422 69.9455 20.0366 69.2564 19.1489 68.5137L12.2827 71.376C11.3529 70.3495 10.429 69.3288 9.51123 68.3145L12.9712 61.8115C12.2284 60.7608 11.5217 59.655 10.9058 58.5137L3.56885 58.6953C3.07368 57.403 2.57867 56.1161 2.0835 54.8359L7.60889 50.0723C7.30093 48.8042 7.04732 47.5177 6.88428 46.1953L0.0180664 43.7314V39.6006L6.88428 37.1738C7.04731 35.8696 7.30095 34.5649 7.60889 33.2969L2.0835 28.5137C2.57858 27.2337 3.07377 25.9538 3.56885 24.6738L10.8521 24.8906C11.486 23.7313 12.1924 22.6263 12.9351 21.5576L9.49365 15.0898C10.4235 14.0755 11.3474 13.0612 12.2651 12.0469L19.0044 14.9092C20.0007 14.0578 21.0328 13.2783 22.1196 12.5537L21.2319 5.27148C22.4517 4.65556 23.6778 4.04525 24.9097 3.44141L30.1812 8.5498C31.413 8.11502 32.6635 7.7713 33.9497 7.48145L35.7437 0.379883C37.7903 0.198764 37.7905 0.198724 39.8374 0.0175781L42.9175 6.66602Z" fill="white"/>
<path d="M50.7251 63.5322C49.439 65.5611 49.276 68.206 50.562 70.416C51.6671 72.3182 53.5516 73.4594 55.5806 73.6768C51.5407 75.4521 47.1021 76.4851 42.4282 76.5938C44.1492 75.543 45.3994 73.6953 45.5806 71.5215C45.7979 68.9673 44.5478 66.6486 42.519 65.3623V65.3438C45.4174 65.235 48.189 64.601 50.7251 63.5322Z" fill="white"/>
<path d="M61.6489 54.3115C61.7395 56.7028 63.1348 58.9677 65.4536 60.0547H65.4712C67.4639 60.9786 69.6744 60.8337 71.4497 59.8555C69.0766 63.714 65.9785 67.1012 62.3374 69.7822C63.1525 67.9345 63.0981 65.7243 62.0112 63.8223C60.7431 61.5941 58.3517 60.3986 55.9604 60.5254C58.2068 58.8044 60.1272 56.7028 61.6489 54.3115Z" fill="white"/>
<path d="M76.5044 39.4375C76.5587 40.144 76.5767 40.8867 76.5767 41.6113C76.5767 45.5244 75.9241 49.2746 74.7466 52.7891C74.3662 50.7783 73.0624 48.9845 71.0698 48.0605C68.751 46.9736 66.1238 47.354 64.2397 48.8213C64.9643 46.5569 65.3628 44.1294 65.3628 41.6113C65.3447 41.249 65.3267 40.8681 65.3267 40.5059C66.7759 42.4079 69.2032 43.4586 71.7212 43.0059C73.877 42.6254 75.5986 41.2491 76.5044 39.4375Z" fill="white"/>
<path d="M56.3409 41.6483C56.3409 49.7642 49.7648 56.3403 41.6489 56.3403C33.5329 56.3403 26.9568 49.7642 26.9568 41.6483C26.9568 33.5323 33.5329 26.9562 41.6489 26.9562C49.7648 26.9562 56.3409 33.5323 56.3409 41.6483Z" fill="white"/>
<path d="M214.927 27.917H204.33C202.917 27.917 202.211 28.6241 202.211 30.0371V51.251C202.211 52.6637 202.917 53.3701 204.33 53.3701H206.45V42.7725H204.33V34.2939H217.065V61.8662L217.048 61.8486H197.953C196.196 61.8486 194.692 61.2323 193.461 59.9824C192.211 58.7324 191.594 57.2465 191.594 55.4893V25.7979C191.594 24.0406 192.211 22.5366 193.461 21.3047C194.711 20.0549 196.196 19.4395 197.953 19.4395H214.927V27.917Z" fill="white"/>
<path d="M98.8044 23.6602C98.8044 22.4645 99.2216 21.4676 100.037 20.6523C100.852 19.8374 101.866 19.4209 103.044 19.4209H105.163C107.427 19.4209 109.203 20.3815 110.508 22.3018C111.758 20.3815 113.497 19.4209 115.761 19.4209H122.12C123.877 19.4209 125.381 20.0371 126.613 21.2871C127.863 22.537 128.478 24.0223 128.478 25.7793V61.8486H117.881V30.0371C117.881 28.6242 117.174 27.9171 115.761 27.917C114.348 27.917 113.641 28.6241 113.641 30.0371V61.8486H103.044V30.0371C103.044 28.6242 102.337 27.9171 100.925 27.917C99.5115 27.917 98.8044 28.6241 98.8044 30.0371V61.8486H88.2068V19.4209H98.8044V23.6602Z" fill="white"/>
<path fill-rule="evenodd" clip-rule="evenodd" d="M151.649 19.4395C153.406 19.4395 154.91 20.0549 156.141 21.3047C157.391 22.5547 158.008 24.0406 158.008 25.7979V55.4893C158.008 57.2465 157.391 58.7324 156.141 59.9824C154.891 61.2323 153.406 61.8486 151.649 61.8486H138.914C137.157 61.8486 135.653 61.2324 134.421 59.9824C133.171 58.7324 132.554 57.2465 132.554 55.4893V25.7979C132.554 24.0406 133.171 22.5366 134.421 21.3047C135.671 20.0548 137.157 19.4395 138.914 19.4395H151.649ZM145.272 27.917C143.859 27.917 143.152 28.6241 143.152 30.0371V51.251C143.152 52.6637 143.859 53.3701 145.272 53.3701C146.685 53.3701 147.391 52.6637 147.391 51.251V30.0371C147.391 28.6241 146.685 27.917 145.272 27.917Z" fill="white"/>
<path d="M172.7 23.6602C172.7 22.4645 173.116 21.4676 173.931 20.6523C174.747 19.8372 175.762 19.4209 176.939 19.4209H181.177C182.935 19.4209 184.421 20.0371 185.671 21.2871C186.92 22.537 187.537 24.0222 187.537 25.7793V61.8486H176.939V30.0371C176.939 28.6241 176.232 27.917 174.819 27.917C173.406 27.917 172.7 28.6241 172.7 30.0371V61.8486H162.102V19.4209H172.7V23.6602Z" fill="white"/>
<path d="M231.739 51.2324C231.739 52.6455 232.446 53.3525 233.859 53.3525C235.272 53.3525 235.978 52.6454 235.978 51.2324V19.4209H246.576V55.4893C246.576 57.2464 245.942 58.7325 244.711 59.9824C243.461 61.2324 241.975 61.8486 240.218 61.8486H227.501C225.743 61.8486 224.239 61.2324 223.008 59.9824C221.758 58.7324 221.141 57.2465 221.141 55.4893V19.4209H231.739V51.2324Z" fill="white"/>
<path d="M263.641 53.3701H271.866V61.8486H250.671L258.895 27.917H250.652V19.4395H271.866L263.641 53.3701Z" fill="white"/>
<path d="M288.913 53.3701H297.137V61.8486H275.942L284.167 27.917H275.925V19.4395H297.137L288.913 53.3701Z" fill="white"/>
<path d="M311.83 61.8486H301.232V19.4209H311.83V61.8486Z" fill="white"/>
<path d="M252.573 66.5215C253.352 66.5215 253.895 66.6492 254.185 66.9209C254.475 67.1926 254.638 67.6633 254.638 68.3516V68.5332L252.935 68.9316V68.0078H247.482V69.8008H252.663C253.479 69.8008 254.022 69.946 254.312 70.2178C254.602 70.4895 254.746 71.0146 254.746 71.7754V72.917C254.746 73.6777 254.602 74.1848 254.312 74.4746C254.022 74.7463 253.479 74.8916 252.663 74.8916H247.519C246.704 74.8916 246.159 74.7463 245.869 74.4746C245.58 74.2028 245.435 73.6775 245.435 72.917V72.6816L247.138 72.3193V73.2969H253.026V71.3955H247.844C247.029 71.3955 246.486 71.2502 246.214 70.9785C245.924 70.7068 245.78 70.1816 245.78 69.4209V68.4971C245.78 67.7362 245.924 67.2283 246.214 66.9385C246.504 66.6669 247.047 66.5215 247.844 66.5215H252.573Z" fill="white"/>
<path d="M96.6672 68.0078H90.1809V70.2002H93.678V71.7217H90.1809V74.874H88.2424V66.5586H96.6672V68.0078Z" fill="white"/>
<path fill-rule="evenodd" clip-rule="evenodd" d="M119.892 66.5586C120.562 66.5586 121.033 66.6859 121.323 66.9395C121.612 67.1931 121.776 67.6094 121.776 68.1709V70.127C121.776 70.6885 121.63 71.0876 121.323 71.3594C121.033 71.6129 120.544 71.7402 119.892 71.7402H118.805L122.645 74.874H119.873L116.522 71.7402H114.693V74.874H112.772V66.5586H119.892ZM114.674 70.3086H119.022C119.366 70.3086 119.583 70.2545 119.71 70.1641C119.837 70.0735 119.892 69.8918 119.892 69.6562V68.6602C119.892 68.4246 119.837 68.2429 119.71 68.1523C119.583 68.0619 119.366 68.0078 119.022 68.0078V67.9902H114.674V70.3086Z" fill="white"/>
<path d="M132.627 71.4678C132.826 71.6308 133.008 71.776 133.153 71.9209C133.297 72.0658 133.442 72.2111 133.569 72.374C133.532 71.903 133.515 71.5762 133.515 71.377V66.5586H135.254V74.874H133.931L127.826 69.7285C127.682 69.6017 127.554 69.4749 127.446 69.3662C127.337 69.2576 127.228 69.1486 127.138 69.04C127.156 69.2935 127.193 69.5474 127.193 69.7646C127.193 70.0002 127.21 70.2002 127.21 70.3633V74.8555H125.471L125.453 74.874V66.5586H126.776L132.627 71.4678Z" fill="white"/>
<path d="M141.196 74.874H139.258V66.5586H141.196V74.874Z" fill="white"/>
<path d="M152.899 68.0439H149.076V74.874H147.138V68.0439H143.316V66.5586H152.899V68.0439Z" fill="white"/>
<path fill-rule="evenodd" clip-rule="evenodd" d="M175.598 66.5586C176.268 66.5586 176.74 66.6858 177.03 66.9395C177.319 67.1931 177.482 67.6096 177.482 68.1709V70.127C177.482 70.6885 177.337 71.0876 177.03 71.3594C176.74 71.613 176.25 71.7402 175.598 71.7402H174.511L178.352 74.874H175.58L172.229 71.7402H170.399V74.874H168.479V66.5586H175.598ZM170.381 70.3086H174.729C175.073 70.3086 175.29 70.2546 175.417 70.1641C175.544 70.0735 175.598 69.8917 175.598 69.6562V68.6602C175.598 68.4246 175.544 68.2429 175.417 68.1523C175.29 68.0618 175.073 68.0078 174.729 68.0078V67.9902H170.381V70.3086Z" fill="white"/>
<path d="M189.693 67.9717H183.116V69.8379H186.956V71.251H183.116V73.3154H189.782V74.874H181.178V66.5586H189.693V67.9717Z" fill="white"/>
<path d="M201.069 74.874H199.131V66.5586H201.069V74.874Z" fill="white"/>
<path d="M212.246 71.4678C212.446 71.6308 212.627 71.776 212.772 71.9209C212.917 72.0658 213.062 72.211 213.189 72.374C213.152 71.903 213.134 71.5762 213.134 71.377V66.5586H214.873V74.874H213.551L207.446 69.7285C207.301 69.6018 207.174 69.4748 207.066 69.3662C206.957 69.2575 206.848 69.1487 206.757 69.04C206.775 69.2935 206.812 69.5474 206.812 69.7646C206.812 70.0002 206.83 70.2002 206.83 70.3633V74.8555H205.091L205.073 74.874V66.5586H206.395L212.246 71.4678Z" fill="white"/>
<path fill-rule="evenodd" clip-rule="evenodd" d="M224.221 66.5586C225.742 66.5586 226.92 66.9206 227.736 67.627C228.551 68.3335 228.968 69.3484 228.968 70.6709C228.968 71.4499 228.805 72.1384 228.479 72.7725C228.153 73.3884 227.699 73.8779 227.119 74.2402C226.757 74.4575 226.304 74.6199 225.761 74.7285C225.218 74.8372 224.529 74.874 223.696 74.874H218.877V66.5586H224.221ZM220.816 73.2979H223.316C224.638 73.2978 225.598 73.0983 226.142 72.6816C226.703 72.265 226.975 71.5766 226.975 70.6348C226.975 69.7833 226.739 69.1492 226.286 68.6963C225.815 68.2616 225.145 68.044 224.24 68.0439H220.816V73.2979Z" fill="white"/>
<path d="M266.232 68.0439H262.409V74.874H260.471V68.0439H256.649V66.5586H266.232V68.0439Z" fill="white"/>
<path fill-rule="evenodd" clip-rule="evenodd" d="M275.507 66.5586C276.159 66.5586 276.649 66.6858 276.939 66.9395C277.228 67.1931 277.392 67.6095 277.392 68.1709V70.127C277.392 70.6885 277.247 71.0876 276.939 71.3594C276.649 71.613 276.159 71.7402 275.507 71.7402H274.42L278.261 74.874H275.49L272.138 71.7402H270.308V74.874H268.388V66.5586H275.507ZM270.308 70.3086H274.656C275 70.3085 275.217 70.2544 275.344 70.1641C275.471 70.0735 275.526 69.8918 275.526 69.6562V68.6602C275.526 68.4246 275.471 68.2429 275.344 68.1523C275.217 68.062 274.982 68.0079 274.656 68.0078V67.9902H270.308V70.3086Z" fill="white"/>
<path d="M283.026 74.874H281.087V66.5586H283.026V74.874Z" fill="white"/>
<path fill-rule="evenodd" clip-rule="evenodd" d="M296.812 74.874H294.638L293.642 73.0625H288.369L287.409 74.874H285.471L290.181 66.5586H292.047L296.812 74.874ZM289.185 71.54H292.826L291.032 68.1523L289.185 71.54Z" fill="white"/>
<path d="M301.196 73.3154H307.446V74.874H299.258V66.5586H301.196V73.3154Z" fill="white"/>
<path d="M311.975 74.874H310.036V66.5586H311.975V74.874Z" fill="white"/>
<path fill-rule="evenodd" clip-rule="evenodd" d="M106.83 66.54C107.645 66.5401 108.189 66.6853 108.46 66.957C108.75 67.2288 108.877 67.7538 108.877 68.5146V72.8984C108.877 73.6593 108.732 74.1853 108.46 74.457C108.17 74.7286 107.627 74.873 106.83 74.873H100.706C99.8915 74.873 99.3482 74.7286 99.0764 74.457C98.7866 74.1853 98.6594 73.6593 98.6594 72.8984V68.5146C98.6594 67.7539 98.8048 67.2469 99.0764 66.957C99.3662 66.6853 99.9095 66.5401 100.706 66.54H106.83ZM100.598 73.2969H106.975V68.0254H100.598V73.2969Z" fill="white"/>
<path d="M156.993 73.2969H162.519V66.54H164.439V72.8984C164.439 73.6593 164.293 74.1853 164.022 74.457C163.732 74.7285 163.189 74.873 162.392 74.873H157.138C156.341 74.873 155.797 74.7288 155.507 74.457C155.217 74.1853 155.073 73.6592 155.073 72.8984V66.54H156.993V73.2969Z" fill="white"/>
<path d="M234.24 73.2969H239.765V66.54H241.685V72.8984C241.685 73.6592 241.54 74.1853 241.269 74.457C240.997 74.7288 240.435 74.873 239.638 74.873H234.384C233.587 74.873 233.044 74.7285 232.754 74.457C232.464 74.1853 232.32 73.6593 232.32 72.8984V66.54H234.24V73.2969Z" fill="white"/>
</g>
<defs>
<clipPath id="clip0_802_3435">
<rect width="311.975" height="80" fill="white"/>
</clipPath>
</defs>
</svg>
