<svg width="120" height="92" viewBox="0 0 120 92" fill="none" xmlns="http://www.w3.org/2000/svg">
<g clip-path="url(#clip0_360_3720)">
<path d="M8.36469 33.8925H25.1127V41.8045H8.36469V33.8925ZM35.6332 66.9022L23.344 50.6182H25.1127C29.7373 50.6182 33.496 46.8645 33.496 42.2461V33.4325C33.496 28.8141 29.7373 25.0605 25.1127 25.0605H-0.00012207V66.8838H8.36469V50.5997H12.8972L25.1496 66.8838H35.6332V66.9022ZM42.5425 66.9022H50.9257V25.0973H42.5425V66.9022ZM111.617 41.8229H94.8686V33.9109H111.617V41.8229ZM111.617 66.9022H120V33.4509C120 28.8325 116.241 25.0789 111.617 25.0789H86.5038V66.9022H94.887V50.6182H111.635V66.9022H111.617Z" fill="white"/>
<path d="M59.9539 92L78.8392 66.9024L59.9539 41.8232V92Z" fill="white"/>
<path d="M77.4573 0L58.572 25.0976L77.4573 50.1768V0Z" fill="white"/>
</g>
<defs>
<clipPath id="clip0_360_3720">
<rect width="120" height="92" fill="white"/>
</clipPath>
</defs>
</svg>
