<svg width="187" height="56" viewBox="0 0 187 56" fill="none" xmlns="http://www.w3.org/2000/svg">
<g clip-path="url(#clip0_360_3713)">
<path fill-rule="evenodd" clip-rule="evenodd" d="M157.771 30.2251C157.495 29.3934 157.351 28.5257 157.351 27.6419C157.351 23.1297 161.023 19.4591 165.538 19.4591C168.063 19.4591 170.461 20.6495 172.009 22.6431L186.17 15.102L186.174 0L171.592 7.70493C169.611 7.10412 167.571 6.8 165.529 6.8C154 6.8 144.621 16.172 144.621 27.6916C144.621 30.6782 145.24 33.5556 146.454 36.2518L157.771 30.2251Z" fill="#686868"/>
<path fill-rule="evenodd" clip-rule="evenodd" d="M165.51 22.1967C162.482 22.1967 160.018 24.657 160.018 27.6809C160.018 30.7036 162.482 33.1626 165.51 33.1626C168.536 33.1626 170.999 30.7036 170.999 27.6809C170.999 24.657 168.536 22.1967 165.51 22.1967Z" fill="white"/>
<path fill-rule="evenodd" clip-rule="evenodd" d="M173.314 25.0648C173.584 25.8866 173.725 26.7443 173.725 27.6207C173.725 32.1317 170.054 35.8011 165.538 35.8011C163.021 35.8011 160.63 34.6206 159.085 32.6419L144.925 40.183L144.924 55.3098L159.506 47.6024C161.487 48.202 163.527 48.5073 165.569 48.5073C177.098 48.5073 186.477 39.134 186.477 27.6145C186.477 24.6242 185.856 21.7406 184.634 19.0382L173.314 25.0648Z" fill="#686868"/>
<path d="M71.8693 29.8155C71.8694 32.8603 73.4096 34.3167 75.6394 34.3167C77.8407 34.3167 79.5 32.8602 79.5 29.4354V18.2785H86.708V29.9742C86.708 36.3136 82.9692 40.1805 75.822 40.1805C68.6725 40.1804 64.6627 36.6623 64.6627 30.7661V18.2785H71.8693V29.8155Z" fill="white"/>
<path d="M7.29997 17.9922C9.74243 17.9922 11.7326 18.6898 13.7836 20.3073V26.0123C11.7935 24.0784 10.1937 23.1909 8.65742 23.1909C7.45058 23.1909 6.66633 23.7618 6.66622 24.6803C6.66622 27.3118 14.5976 27.5976 14.5979 33.7456C14.5979 36.8514 12.5169 40.1798 7.14846 40.1798C4.49469 40.1798 2.11313 39.704 0.0311279 38.6911V32.826C2.02115 34.2523 3.92305 34.9811 5.64086 34.9811C6.96703 34.9811 7.69293 34.3489 7.69293 33.4924C7.69232 31.1465 0.0312199 30.8298 0.0311279 24.4919C0.0311279 21.7647 1.84088 17.9923 7.29997 17.9922Z" fill="white"/>
<path d="M28.9306 17.9922C31.6452 17.9922 34.0568 18.5004 36.048 19.4512V25.7592C33.9672 24.3639 32.1584 23.7621 30.0764 23.7621C26.457 23.7621 24.2247 25.7902 24.2245 29.087C24.2245 32.3206 26.5164 34.4125 30.1359 34.4126C32.2179 34.4126 33.9047 33.8736 36.2279 32.5094V38.2779H36.2292C34.0876 39.5465 31.4028 40.1798 28.5701 40.1798C19.9736 40.1798 17.0186 34.1257 17.0186 29.1815C17.0186 22.8731 21.3907 17.9922 28.9306 17.9922Z" fill="white"/>
<path d="M46.5241 26.1379H54.4538V18.2771H61.6624V39.8942H54.4538V31.716H46.5241V39.8942H39.3141V18.2771H46.5241V26.1379Z" fill="white"/>
<path d="M106.454 29.3699V18.2771H113.358V39.8942H107.208L96.8034 28.8001L96.804 39.8942H89.8964V18.2771H96.0492L106.454 29.3699Z" fill="white"/>
<path d="M123.798 28.0716L132.03 18.2771H139.599L131.216 28.3254L139.902 39.8942H131.307L123.858 29.7838H123.798V39.8942H116.59V18.2771H123.798V28.0716Z" fill="white"/>
</g>
<defs>
<clipPath id="clip0_360_3713">
<rect width="187" height="56" fill="white"/>
</clipPath>
</defs>
</svg>
