<svg width="237" height="50" viewBox="0 0 237 50" fill="none" xmlns="http://www.w3.org/2000/svg">
<g clip-path="url(#clip0_360_3724)">
<path d="M114.818 22.7173C115.534 22.7173 116.308 22.7566 117.138 22.8369C117.968 22.9167 118.838 23.054 119.749 23.2463L119.748 26.3314C118.821 26.1706 117.653 26.0003 116.979 25.9277C116.304 25.8551 115.6 25.8195 114.869 25.8195C114.461 25.8195 114.127 25.8399 113.867 25.8797C113.607 25.9208 113.404 25.9967 113.257 26.1092C113.112 26.2211 113.009 26.3736 112.953 26.5658C112.895 26.7579 112.868 26.9988 112.868 27.2868C112.868 27.6718 112.883 27.9726 112.915 28.1893C112.949 28.4058 113.05 28.5814 113.22 28.7183C113.391 28.8552 113.656 28.9767 114.015 29.0796C114.372 29.1843 114.868 29.3082 115.504 29.4523C116.61 29.7088 117.47 29.9693 118.079 30.2336C118.689 30.4985 119.149 30.8128 119.458 31.1735C119.767 31.5336 119.955 31.9793 120.021 32.5081C120.086 33.0373 120.119 33.6952 120.119 34.4808L120.113 34.7713C120.095 35.4379 120.015 36.031 119.873 36.5503C119.71 37.1443 119.407 37.6414 118.969 38.042C118.53 38.4426 117.922 38.74 117.15 38.9323C116.376 39.1245 115.38 39.2204 114.16 39.2204C113.216 39.2204 112.281 39.129 111.354 38.9445C110.427 38.7606 110.118 38.6413 109.538 38.4359L109.523 35.3979C110.273 35.6212 111.028 35.8059 111.793 35.9505C112.557 36.0945 113.364 36.1662 114.209 36.1662C114.681 36.1662 115.064 36.1436 115.356 36.0954C115.649 36.0472 115.876 35.9554 116.039 35.8187C116.202 35.6818 116.312 35.505 116.369 35.2889C116.426 35.0717 116.455 34.7953 116.455 34.458C116.455 34.0891 116.438 33.7963 116.406 33.5791C116.372 33.3644 116.267 33.1835 116.089 33.0396C115.909 32.8955 115.636 32.7663 115.27 32.6538C114.903 32.5413 114.388 32.4127 113.72 32.2681C112.744 32.0597 111.959 31.8398 111.364 31.6064C110.77 31.3738 110.315 31.0775 109.998 30.717C109.681 30.3562 109.468 29.8954 109.363 29.3335C109.256 28.7717 109.205 28.0582 109.205 27.1916C109.205 26.3899 109.286 25.7083 109.448 25.1465C109.611 24.5858 109.904 24.1236 110.327 23.763C110.75 23.4023 111.325 23.1368 112.049 22.9696C112.773 22.8005 113.697 22.7173 114.818 22.7173Z" fill="white"/>
<path d="M231.251 22.7165C231.967 22.7165 232.74 22.7558 233.569 22.8361C234.399 22.9159 235.27 23.0532 236.182 23.2454L236.179 26.3306C235.252 26.1698 234.085 25.9989 233.411 25.9269C232.735 25.8543 232.032 25.8187 231.299 25.8187C230.893 25.8187 230.559 25.8391 230.299 25.8789C230.038 25.92 229.836 25.9959 229.689 26.1084C229.543 26.2203 229.441 26.3727 229.384 26.5649C229.327 26.7571 229.3 26.9981 229.3 27.286C229.3 27.671 229.316 27.9718 229.348 28.1885C229.38 28.4051 229.482 28.5805 229.652 28.7174C229.824 28.8544 230.088 28.9759 230.446 29.0788C230.804 29.1835 231.3 29.3075 231.935 29.4515C233.041 29.7079 233.9 29.9686 234.51 30.2327C235.12 30.4977 235.58 30.812 235.889 31.1727C236.198 31.5328 236.386 31.9771 236.452 32.5073C236.517 33.0365 236.549 33.6944 236.549 34.48L236.544 34.7713C236.526 35.4379 236.446 36.031 236.304 36.5503C236.141 37.1437 235.839 37.6414 235.4 38.042C234.961 38.4425 234.354 38.7392 233.581 38.9315C232.809 39.1238 231.811 39.2196 230.591 39.2196C229.647 39.2196 228.712 39.1285 227.785 38.9445C226.858 38.7606 226.55 38.6405 225.97 38.4351L225.955 35.3979C226.702 35.6212 227.459 35.8059 228.225 35.9505C228.989 36.0939 229.794 36.1654 230.64 36.1654C231.112 36.1654 231.495 36.1426 231.787 36.0937C232.081 36.0462 232.308 35.9542 232.471 35.8179C232.634 35.681 232.742 35.5049 232.8 35.2889C232.857 35.0717 232.885 34.7949 232.885 34.458C232.885 34.089 232.869 33.7963 232.837 33.5791C232.804 33.363 232.699 33.1832 232.52 33.0379C232.341 32.8946 232.067 32.7655 231.703 32.653C231.336 32.5405 230.82 32.4125 230.152 32.2673C229.176 32.0589 228.39 31.8389 227.796 31.6056C227.202 31.3729 226.746 31.0767 226.429 30.7161C226.111 30.3554 225.9 29.8945 225.794 29.3327C225.689 28.7708 225.636 28.0574 225.636 27.1908C225.636 26.3891 225.717 25.707 225.88 25.1457C226.043 24.5838 226.337 24.1229 226.76 23.7622C227.183 23.4016 227.757 23.136 228.481 22.9687C229.205 22.7997 230.13 22.7165 231.251 22.7165Z" fill="white"/>
<path fill-rule="evenodd" clip-rule="evenodd" d="M176.648 22.4658C177.785 22.4658 178.775 22.6086 179.572 22.8931C180.368 23.177 181.014 23.5559 181.511 24.0267C182.005 24.4981 182.368 25.0308 182.595 25.6242C182.822 26.2176 182.936 26.8222 182.936 27.4406V34.2196C182.936 34.8368 182.822 35.4426 182.595 36.036C182.368 36.6294 182.006 37.1618 181.511 37.6326C181.015 38.104 180.367 38.4823 179.572 38.7663C178.775 39.0501 177.801 39.1935 176.648 39.1935C175.494 39.1935 174.541 39.0507 173.736 38.7663C172.931 38.4823 172.282 38.104 171.786 37.6326C171.291 37.1618 170.928 36.6288 170.701 36.036C170.474 35.4427 170.36 34.8367 170.36 34.2196V27.4406C170.36 26.8223 170.474 26.2175 170.701 25.6242C170.928 25.0308 171.291 24.4987 171.786 24.0267C172.282 23.5559 172.931 23.177 173.736 22.8931C174.541 22.6092 175.511 22.4658 176.648 22.4658ZM176.648 25.7113C175.726 25.7113 175.056 25.895 174.643 26.2598C174.23 26.6258 174.024 27.1255 174.024 27.7588V33.9014C174.024 34.5346 174.23 35.0342 174.643 35.3996C175.057 35.7654 175.725 35.9472 176.648 35.9473C177.572 35.9473 178.241 35.765 178.654 35.3996C179.067 35.0336 179.274 34.5346 179.274 33.9014V27.7588C179.274 27.1256 179.067 26.6258 178.654 26.2598C178.241 25.8949 177.571 25.7113 176.648 25.7113Z" fill="white"/>
<path fill-rule="evenodd" clip-rule="evenodd" d="M205.036 22.4658C206.174 22.4658 207.164 22.6086 207.961 22.8931C208.757 23.177 209.403 23.5559 209.899 24.0267C210.394 24.498 210.756 25.0309 210.984 25.6242C211.211 26.2175 211.325 26.8223 211.325 27.4406V34.2196C211.325 34.8367 211.211 35.4426 210.984 36.036C210.756 36.6294 210.395 37.1618 209.899 37.6326C209.403 38.104 208.757 38.4823 207.961 38.7663C207.164 39.0502 206.189 39.1935 205.036 39.1935C203.883 39.1935 202.929 39.0508 202.124 38.7663C201.319 38.4823 200.67 38.104 200.173 37.6326C199.678 37.1618 199.316 36.6288 199.089 36.036C198.862 35.4426 198.748 34.8367 198.748 34.2196V27.4406C198.748 26.8222 198.861 26.2175 199.089 25.6242C199.316 25.0308 199.679 24.4986 200.173 24.0267C200.67 23.5559 201.319 23.177 202.124 22.8931C202.929 22.6091 203.899 22.4658 205.036 22.4658ZM205.038 25.7113C204.115 25.7113 203.445 25.8949 203.032 26.2598C202.619 26.6258 202.412 27.1256 202.412 27.7588V33.9014C202.412 34.5346 202.619 35.0342 203.032 35.3996C203.445 35.7656 204.115 35.9473 205.038 35.9473C205.96 35.9473 206.63 35.7651 207.043 35.3996C207.456 35.0336 207.662 34.5345 207.662 33.9014V27.7588C207.662 27.1257 207.455 26.6258 207.043 26.2598C206.63 25.8949 205.96 25.7113 205.038 25.7113Z" fill="white"/>
<path d="M31.9656 33.877C31.9656 34.5428 32.1452 35.0541 32.5034 35.4118C32.8605 35.7694 33.5024 35.9473 34.4291 35.9473C35.3559 35.9473 35.9973 35.7688 36.3549 35.4118C36.7119 35.0541 36.8919 34.5428 36.8919 33.877V22.7165H40.5535V34.2204C40.5535 34.8376 40.4467 35.4434 40.2357 36.0368C40.0235 36.6301 39.6826 37.1613 39.2113 37.6326C38.7392 38.1041 38.1134 38.4826 37.332 38.7671C36.5512 39.051 35.5833 39.1927 34.4283 39.1927C33.2733 39.1927 32.3252 39.0509 31.5361 38.7671C30.7476 38.482 30.1169 38.1041 29.6454 37.6326C29.1734 37.1613 28.8312 36.6296 28.6202 36.0368C28.408 35.4434 28.3024 34.8382 28.3024 34.2204V22.7165H31.9656V33.877Z" fill="white"/>
<path fill-rule="evenodd" clip-rule="evenodd" d="M163.048 22.7075C164.741 22.7075 165.936 23.0246 166.634 23.6572C167.333 24.2917 167.685 25.1606 167.685 26.2646V27.9215C167.685 28.5065 167.546 29.0094 167.269 29.432C166.992 29.8545 166.529 30.2026 165.878 30.4793C166.561 30.6419 167.132 30.9907 167.588 31.5275C168.044 32.0638 168.271 32.7144 168.271 33.4774V38.9518H164.609V33.5734C164.609 33.1189 164.474 32.7774 164.207 32.5488C163.939 32.3214 163.56 32.207 163.074 32.207H160.333V38.9518H156.634V22.7075H163.048ZM160.333 25.6331V29.34H162.597C163.084 29.34 163.45 29.2302 163.693 29.0112C163.937 28.7916 164.058 28.519 164.058 28.1942V26.779C164.058 26.4212 163.944 26.1407 163.717 25.9383C163.49 25.7342 163.117 25.6331 162.597 25.6331H160.333Z" fill="white"/>
<path fill-rule="evenodd" clip-rule="evenodd" d="M101.552 22.6994C103.244 22.6994 104.439 23.0158 105.138 23.6491C105.837 24.2836 106.187 25.1532 106.187 26.2573V27.9134C106.187 28.4983 106.049 29.0013 105.772 29.4238C105.495 29.8464 105.031 30.1953 104.38 30.472C105.064 30.6345 105.634 30.9834 106.09 31.5202C106.546 32.0565 106.775 32.7063 106.775 33.4692V38.9445H103.111V33.5661C103.111 33.1102 102.977 32.7681 102.71 32.5407C102.442 32.3121 102.064 32.1989 101.577 32.1989H98.8353V38.9445H95.1363V22.6994H101.552ZM98.8353 29.3319H101.101C101.587 29.3318 101.953 29.2221 102.195 29.0031C102.439 28.7834 102.561 28.511 102.561 28.186V26.7716C102.561 26.4139 102.448 26.1329 102.221 25.9294C101.994 25.7258 101.62 25.6259 101.101 25.6258H98.8353V29.3319Z" fill="white"/>
<path d="M53.3099 33.9006V22.7165H56.797V38.9437H52.2814L46.9598 28.2715V38.9437H43.4718V22.7165H47.963L53.3099 33.9006Z" fill="white"/>
<path d="M63.4209 38.9437H59.7586V22.7173H63.4209V38.9437Z" fill="white"/>
<path d="M72.9208 35.6299L76.3615 22.7173H80.1192L75.5311 38.9437H70.3097L65.7223 22.7173H69.4809L72.9208 35.6299Z" fill="white"/>
<path d="M92.2668 25.9611H85.7024V28.9323H91.7542V32.1777H85.7024V35.6982H92.2668V38.9437H82.0401V22.7173H92.2668V25.9611Z" fill="white"/>
<path d="M135.421 38.9437H131.662L128.222 26.0303L124.782 38.9437H121.024L125.61 22.7165H130.833L135.421 38.9437Z" fill="white"/>
<path d="M140.663 35.6982H147.105V38.9437H136.999V22.7173H140.663V35.6982Z" fill="white"/>
<path d="M224.649 25.9619H220.281V38.9437H216.618V25.9619H212.25V22.7165H224.649V25.9619Z" fill="white"/>
<path fill-rule="evenodd" clip-rule="evenodd" d="M191.571 22.7165C193.262 22.7165 194.457 23.0329 195.157 23.6662C195.855 24.2995 196.205 25.1687 196.205 26.2728V27.9305C196.205 28.5142 196.067 29.0182 195.791 29.4401C195.513 29.8632 195.049 30.2127 194.399 30.4883C195.082 30.6502 195.652 31.0008 196.108 31.5365C196.565 32.0722 196.793 32.7231 196.793 33.4855V35.0692C196.793 36.2228 196.414 37.1577 195.658 37.8719C194.902 38.5867 193.71 38.9429 192.083 38.9429H185.153V22.7165H191.571ZM188.817 35.9977H191.083C191.652 35.9977 192.135 35.9083 192.533 35.7292C192.931 35.5506 193.13 35.1688 193.13 34.5833V33.5815C193.13 33.1271 192.996 32.7857 192.729 32.5578C192.46 32.3293 192.082 32.2152 191.595 32.2152H188.817V35.9977ZM188.816 29.3693H191.083C191.568 29.3692 191.933 29.2601 192.177 29.0405C192.421 28.8216 192.543 28.5489 192.543 28.2235V26.8083C192.543 26.4505 192.429 26.1704 192.202 25.9668C191.975 25.7634 191.601 25.6625 191.083 25.6624H188.816V29.3693Z" fill="white"/>
<path d="M2.47949 0L2.48145 16.5244C2.48145 17.0458 2.57084 17.5578 2.74902 18.0596L2.82227 18.2451C2.83634 18.2784 2.85209 18.3109 2.86719 18.3438C3.04565 18.732 3.29488 19.0868 3.61621 19.4092C3.7841 19.5763 3.97637 19.7285 4.19141 19.8682C4.2681 19.9179 4.34793 19.9655 4.43066 20.0117C4.49556 20.048 4.56226 20.0831 4.63086 20.1172C4.68917 20.1461 4.74856 20.1748 4.80957 20.2021C4.93887 20.2602 5.07347 20.3163 5.21484 20.3672C5.88179 20.6083 6.68293 20.7275 7.65918 20.7275C8.63549 20.7275 9.45344 20.6083 10.1133 20.3672C10.7731 20.1267 11.3024 19.8068 11.7012 19.4092C12.0998 19.0099 12.388 18.561 12.5674 18.0605C12.7455 17.5588 12.8349 17.0468 12.835 16.5254L12.8359 12.752L12.8955 7.43652C12.8955 6.89011 13.0744 6.45843 13.4297 6.14355C13.7861 5.82955 14.3623 5.67094 15.1582 5.6709C15.7542 5.6709 16.2264 5.75978 16.5762 5.93652C16.7747 6.06033 17.2971 6.46323 17.3447 7.29297C17.3453 7.29695 17.3491 7.34671 17.3486 7.43652C17.3484 7.48383 17.3462 7.54186 17.3398 7.61035C17.3331 7.68433 17.3243 7.77042 17.3057 7.86719C17.2171 8.32657 16.9676 9.03073 16.29 9.86621C16.2779 9.8794 15.3195 10.9265 14.7959 12.0596C14.7959 12.0596 14.1673 13.3157 14.541 14.7666C14.5942 14.9736 14.6679 15.1846 14.7666 15.3965C14.7676 15.3983 15.2072 16.1876 15.8223 16.8018L18.1465 19.1006L21.5254 22.4434H21.5264V22.4453H21.5283C21.3102 22.5393 21.0674 22.5918 20.8135 22.5918H1.81055C0.810382 22.5918 5.19735e-05 21.7835 0 20.7842V1.80762C4.47756e-05 0.809486 0.810036 4.04297e-05 1.80957 0H2.47949ZM20.8135 0C21.813 0 22.6228 0.809461 22.624 1.80762V19.2051L17.9619 14.5488C17.9619 14.5488 16.995 13.6712 17.9316 12.4131C17.9316 12.4131 19.2792 10.5412 19.5723 10.0723C19.5723 10.0723 20.5134 8.89998 20.5449 7.1875H20.5508C20.5508 7.12278 20.5454 7.0569 20.543 6.99219C20.5418 6.93688 20.5406 6.88208 20.5371 6.82617C20.5359 6.78872 20.5318 6.74996 20.5283 6.71191C20.5223 6.6429 20.5187 6.57373 20.5098 6.50293C20.5098 6.50293 20.4989 6.33968 20.4287 6.08203C20.3905 5.91789 20.3449 5.75489 20.2842 5.59668C20.1346 5.20556 19.9159 4.84479 19.6309 4.51465C19.543 4.4129 19.4492 4.31362 19.3486 4.21777C18.9213 3.81183 18.3642 3.48607 17.6787 3.24023C16.9921 2.9962 16.1518 2.87305 15.1582 2.87305C14.1648 2.87307 13.3412 2.99626 12.6475 3.24023C11.9549 3.48606 11.3939 3.81186 10.9678 4.21777C10.5403 4.62372 10.2287 5.08283 10.0332 5.59473C9.83717 6.10646 9.73833 6.62761 9.73828 7.16016V13.0029L9.73926 16.2324C9.73924 16.7954 9.58818 17.2279 9.28613 17.5303C9.24831 17.5681 9.20651 17.6036 9.16113 17.6367C9.11598 17.6697 9.06726 17.7003 9.01465 17.7285C8.69774 17.8984 8.24542 17.9824 7.6582 17.9824C7.65592 17.9824 7.65364 17.9824 7.65137 17.9824C7.2628 17.9819 6.93375 17.945 6.66406 17.8701C6.39304 17.7948 6.18228 17.6814 6.03125 17.5303C5.96688 17.466 5.91006 17.3954 5.85938 17.3193C5.67246 17.0378 5.57818 16.6762 5.57812 16.2334V0H20.8135Z" fill="white"/>
<path d="M178.941 47.5677L179.863 45.3989H180.469L179.089 48.6053C178.999 48.8111 178.902 48.9751 178.799 49.0985C178.696 49.2219 178.58 49.311 178.451 49.367C178.322 49.4231 178.167 49.4508 177.988 49.4508C177.931 49.4508 177.877 49.448 177.824 49.4427C177.772 49.4373 177.729 49.4325 177.695 49.4289V48.9292C177.763 48.9441 177.846 48.952 177.943 48.952C178.201 48.9519 178.392 48.8121 178.515 48.5321L178.633 48.2627L177.488 45.3989H178.105L178.941 47.5677Z" fill="white"/>
<path d="M235.022 47.5677L235.944 45.3989H236.549L235.168 48.6053C235.079 48.811 234.982 48.9751 234.88 49.0985C234.777 49.2219 234.66 49.3109 234.532 49.367C234.402 49.4231 234.248 49.4508 234.069 49.4508C234.012 49.4508 233.957 49.448 233.905 49.4427C233.852 49.4373 233.809 49.4325 233.776 49.4289V48.9292C233.843 48.9441 233.926 48.952 234.023 48.952C234.281 48.952 234.472 48.8122 234.596 48.5321L234.713 48.2627L233.568 45.3989H234.186L235.022 47.5677Z" fill="white"/>
<path fill-rule="evenodd" clip-rule="evenodd" d="M225.765 45.3525C226.035 45.3526 226.278 45.418 226.498 45.5487C226.717 45.6792 226.89 45.8566 227.017 46.0785C227.144 46.3009 227.208 46.5484 227.208 46.8215C227.208 47.0946 227.144 47.3478 227.017 47.5701C226.89 47.7925 226.716 47.9686 226.495 48.0991C226.274 48.2298 226.024 48.2952 225.748 48.2952C225.591 48.2952 225.44 48.271 225.296 48.2228C225.152 48.1745 225.019 48.1031 224.895 48.0096V49.3947L224.334 49.3939V45.3973H224.89V45.6724C225.133 45.4595 225.425 45.3525 225.765 45.3525ZM225.693 45.8335C225.532 45.8335 225.382 45.8648 225.244 45.9263C225.105 45.9877 224.989 46.0733 224.895 46.1818V47.4709C224.989 47.5716 225.105 47.6536 225.246 47.715C225.386 47.7765 225.536 47.8078 225.693 47.8078C225.875 47.8078 226.04 47.7657 226.183 47.6816C226.327 47.5976 226.443 47.4805 226.529 47.3309C226.615 47.1813 226.658 47.0129 226.658 46.8263C226.658 46.6397 226.615 46.4714 226.529 46.3218C226.443 46.1721 226.327 46.053 226.183 45.9653C226.04 45.8777 225.875 45.8335 225.693 45.8335Z" fill="white"/>
<path d="M214.027 44.2661C214.233 44.2661 214.434 44.2938 214.631 44.3475C214.827 44.4017 215.009 44.4795 215.175 44.5802C215.342 44.681 215.489 44.8041 215.617 44.9497L215.218 45.3477C215.073 45.1723 214.894 45.0383 214.684 44.9465C214.475 44.8547 214.255 44.8097 214.027 44.8097C213.818 44.8098 213.626 44.8468 213.45 44.9212C213.274 44.9958 213.119 45.1011 212.987 45.2354C212.853 45.3701 212.75 45.5271 212.678 45.7065C212.605 45.8859 212.569 46.0802 212.569 46.2892C212.569 46.4985 212.605 46.6933 212.678 46.8727C212.75 47.0521 212.853 47.2092 212.987 47.3439C213.119 47.4787 213.277 47.5835 213.459 47.658C213.641 47.7325 213.834 47.7695 214.04 47.7695C214.268 47.7695 214.485 47.7231 214.69 47.6296C214.896 47.536 215.07 47.4074 215.212 47.243L215.6 47.6353C215.473 47.7734 215.326 47.8941 215.159 47.9966C214.993 48.0991 214.813 48.1775 214.621 48.2318C214.427 48.2861 214.23 48.3132 214.028 48.3132L214.027 48.3123C213.735 48.3123 213.464 48.2611 213.216 48.1585C212.967 48.056 212.748 47.912 212.559 47.7272C212.369 47.5423 212.224 47.3264 212.121 47.0819C212.019 46.8375 211.966 46.5728 211.966 46.2892C211.966 46.0053 212.018 45.7347 212.121 45.4901C212.224 45.2457 212.37 45.0318 212.559 44.8488C212.748 44.6657 212.968 44.5225 213.218 44.4199C213.469 44.3174 213.739 44.2661 214.027 44.2661Z" fill="white"/>
<path fill-rule="evenodd" clip-rule="evenodd" d="M193.28 45.342C193.557 45.342 193.807 45.4085 194.034 45.5413C194.26 45.6743 194.439 45.8512 194.571 46.0736C194.702 46.296 194.766 46.547 194.766 46.8271C194.766 47.1074 194.702 47.3555 194.571 47.5815C194.44 47.8076 194.26 47.985 194.034 48.1138C193.807 48.2425 193.556 48.3074 193.28 48.3075C193.003 48.3075 192.75 48.2426 192.524 48.1138C192.298 47.9849 192.117 47.8076 191.986 47.5815C191.852 47.3555 191.787 47.1038 191.787 46.8271C191.787 46.5506 191.851 46.296 191.982 46.0736C192.113 45.8512 192.293 45.6737 192.521 45.5413C192.75 45.4089 193.003 45.342 193.28 45.342ZM193.28 45.8343C193.103 45.8343 192.949 45.8793 192.805 45.9694C192.661 46.0588 192.547 46.1772 192.465 46.325C192.382 46.4729 192.342 46.6384 192.342 46.8215C192.342 47.0045 192.382 47.1763 192.465 47.326C192.547 47.4757 192.66 47.5948 192.805 47.6825C192.949 47.7701 193.108 47.8135 193.28 47.8135C193.456 47.8134 193.614 47.7699 193.756 47.6825C193.898 47.5948 194.01 47.4757 194.093 47.326C194.176 47.1763 194.217 47.0081 194.217 46.8215C194.217 46.6348 194.176 46.4729 194.093 46.325C194.01 46.1779 193.898 46.0593 193.756 45.9694C193.614 45.88 193.456 45.8344 193.28 45.8343Z" fill="white"/>
<path fill-rule="evenodd" clip-rule="evenodd" d="M200.067 45.342C200.344 45.342 200.595 45.4083 200.821 45.5413C201.048 45.6742 201.227 45.8513 201.357 46.0736C201.488 46.296 201.554 46.547 201.554 46.8271C201.554 47.1074 201.488 47.3555 201.357 47.5815C201.227 47.8074 201.048 47.985 200.821 48.1138C200.595 48.2426 200.343 48.3074 200.067 48.3075C199.79 48.3075 199.538 48.2426 199.311 48.1138C199.085 47.985 198.906 47.8074 198.773 47.5815C198.64 47.3555 198.574 47.1038 198.574 46.8271C198.574 46.5506 198.639 46.296 198.77 46.0736C198.901 45.8513 199.08 45.6736 199.309 45.5413C199.537 45.4089 199.79 45.342 200.067 45.342ZM200.067 45.8343C199.891 45.8343 199.736 45.8793 199.592 45.9694C199.448 46.0587 199.335 46.1774 199.252 46.325C199.171 46.4729 199.129 46.6384 199.129 46.8215C199.129 47.0045 199.171 47.1763 199.252 47.326C199.335 47.4756 199.447 47.5948 199.592 47.6825C199.736 47.7701 199.895 47.8135 200.067 47.8135C200.243 47.8135 200.401 47.7701 200.544 47.6825C200.686 47.5948 200.797 47.4756 200.88 47.326C200.963 47.1763 201.004 47.0081 201.004 46.8215C201.004 46.6348 200.963 46.4729 200.88 46.325C200.797 46.178 200.686 46.0593 200.544 45.9694C200.401 45.8799 200.243 45.8343 200.067 45.8343Z" fill="white"/>
<path d="M209.222 45.3468C209.443 45.3468 209.631 45.3761 209.822 45.4339C210.013 45.4917 210.197 45.5844 210.372 45.7114L210.092 46.0809C209.931 45.9766 209.778 45.8997 209.632 45.8514C209.486 45.8031 209.336 45.779 209.183 45.779C209.011 45.779 208.872 45.8152 208.767 45.888C208.663 45.9608 208.611 46.0555 208.611 46.1712C208.611 46.2796 208.648 46.3603 208.722 46.4146C208.797 46.4688 208.915 46.5087 209.076 46.535L209.597 46.6139C209.882 46.6515 210.098 46.7377 210.244 46.8719C210.39 47.0066 210.463 47.1857 210.463 47.4098C210.463 47.5779 210.409 47.7298 210.302 47.8664C210.196 48.0029 210.053 48.1107 209.876 48.1895C209.699 48.2681 209.495 48.3074 209.267 48.3075C209.021 48.3075 208.789 48.2711 208.574 48.1984C208.359 48.1257 208.172 48.0193 208.016 47.881L208.319 47.5116C208.467 47.6314 208.621 47.7213 208.776 47.7809C208.931 47.8405 209.089 47.8696 209.25 47.8696C209.452 47.8696 209.616 47.8318 209.744 47.7549C209.871 47.6786 209.936 47.5767 209.936 47.4497C209.936 47.3454 209.897 47.2626 209.822 47.2023C209.748 47.1429 209.631 47.1021 209.474 47.0794L208.958 47.0062C208.67 46.965 208.456 46.878 208.315 46.7433C208.175 46.6086 208.105 46.4294 208.104 46.2054C208.104 46.0372 208.151 45.8868 208.245 45.7562C208.339 45.6257 208.47 45.5249 208.637 45.4535C208.806 45.3825 209.001 45.3469 209.222 45.3468Z" fill="white"/>
<path fill-rule="evenodd" clip-rule="evenodd" d="M217.384 45.342C217.661 45.342 217.913 45.4083 218.139 45.5413C218.366 45.6742 218.544 45.8513 218.675 46.0736C218.806 46.296 218.871 46.547 218.872 46.8271C218.872 47.1074 218.806 47.3555 218.675 47.5815C218.544 47.8074 218.366 47.985 218.139 48.1138C217.913 48.2426 217.66 48.3074 217.384 48.3075C217.107 48.3075 216.855 48.2426 216.629 48.1138C216.403 47.985 216.224 47.8074 216.091 47.5815C215.957 47.3555 215.891 47.1038 215.891 46.8271C215.891 46.5506 215.957 46.296 216.088 46.0736C216.219 45.8513 216.398 45.6736 216.626 45.5413C216.854 45.4089 217.107 45.342 217.384 45.342ZM217.384 45.8343C217.208 45.8343 217.053 45.8793 216.91 45.9694C216.766 46.0587 216.653 46.1774 216.57 46.325C216.488 46.4729 216.446 46.6384 216.446 46.8215C216.446 47.0045 216.488 47.1763 216.57 47.326C216.653 47.4756 216.765 47.5948 216.91 47.6825C217.053 47.7701 217.212 47.8135 217.384 47.8135C217.56 47.8135 217.719 47.7701 217.862 47.6825C218.004 47.5948 218.115 47.4756 218.198 47.326C218.28 47.1763 218.321 47.0081 218.321 46.8215C218.321 46.6348 218.28 46.4729 218.198 46.325C218.115 46.178 218.003 46.0593 217.862 45.9694C217.719 45.8799 217.56 45.8343 217.384 45.8343Z" fill="white"/>
<path fill-rule="evenodd" clip-rule="evenodd" d="M172.582 45.3436C172.952 45.3436 173.239 45.4307 173.444 45.6064C173.648 45.7824 173.75 46.0327 173.75 46.3584V48.2529H173.194V48.0055C173.07 48.1063 172.935 48.1818 172.789 48.2301C172.644 48.2783 172.486 48.3026 172.318 48.3026V48.3009C172.108 48.3009 171.925 48.2646 171.768 48.1919C171.611 48.1191 171.487 48.0173 171.398 47.8867C171.307 47.7561 171.263 47.6043 171.263 47.4326C171.263 47.1638 171.367 46.9528 171.574 46.7995C171.782 46.6462 172.064 46.57 172.419 46.57C172.701 46.57 172.958 46.6206 173.194 46.7214V46.4243C173.194 46.2186 173.136 46.0653 173.02 45.9645C172.904 45.8637 172.731 45.8132 172.503 45.8132C172.372 45.8132 172.237 45.8324 172.096 45.8717C171.956 45.9112 171.798 45.9727 171.622 46.0549L171.409 45.6341C171.622 45.5334 171.823 45.4592 172.013 45.4128C172.201 45.3663 172.391 45.3436 172.582 45.3436ZM172.469 46.95C172.26 46.9501 172.095 46.9927 171.975 47.0786C171.856 47.1644 171.796 47.2772 171.796 47.4155C171.796 47.5574 171.856 47.6714 171.975 47.7573C172.095 47.8431 172.251 47.8859 172.441 47.8859C172.591 47.8859 172.729 47.863 172.857 47.8184C172.984 47.7736 173.097 47.7045 173.194 47.6108V47.1291C173.089 47.0694 172.976 47.0252 172.857 46.9948C172.737 46.965 172.608 46.95 172.469 46.95Z" fill="white"/>
<path fill-rule="evenodd" clip-rule="evenodd" d="M228.943 45.3436C229.313 45.3436 229.601 45.4306 229.805 45.6064C230.009 45.7824 230.111 46.0327 230.111 46.3584V48.2529H229.555V48.0055C229.431 48.1063 229.297 48.1818 229.15 48.2301C229.005 48.2783 228.847 48.3025 228.679 48.3026V48.3009C228.469 48.3009 228.286 48.2646 228.129 48.1919C227.972 48.1191 227.848 48.0173 227.759 47.8867C227.669 47.7561 227.623 47.6044 227.623 47.4326C227.623 47.1638 227.728 46.9528 227.935 46.7995C228.143 46.6462 228.425 46.57 228.78 46.57C229.062 46.57 229.319 46.6207 229.555 46.7214V46.4243C229.555 46.2186 229.497 46.0653 229.381 45.9645C229.265 45.8637 229.093 45.8132 228.864 45.8132C228.734 45.8132 228.598 45.8324 228.457 45.8717C228.317 45.9111 228.159 45.9727 227.983 46.0549L227.769 45.6341C227.983 45.5334 228.184 45.4593 228.374 45.4128C228.562 45.3663 228.752 45.3436 228.943 45.3436ZM228.83 46.95C228.621 46.95 228.456 46.9928 228.336 47.0786C228.216 47.1644 228.156 47.2772 228.156 47.4155C228.156 47.5574 228.216 47.6714 228.336 47.7573C228.456 47.8431 228.612 47.8859 228.802 47.8859C228.952 47.8859 229.09 47.863 229.217 47.8184C229.345 47.7736 229.457 47.7045 229.555 47.6108V47.1291C229.45 47.0694 229.337 47.0252 229.217 46.9948C229.097 46.965 228.969 46.95 228.83 46.95Z" fill="white"/>
<path fill-rule="evenodd" clip-rule="evenodd" d="M167.535 45.3477C167.804 45.3477 168.031 45.4134 168.239 45.5462C168.447 45.6792 168.612 45.8582 168.733 46.0841C168.855 46.31 168.916 46.5654 168.916 46.8491V47.0013H166.659C166.685 47.1622 166.742 47.3029 166.831 47.4245C166.918 47.5461 167.031 47.6431 167.168 47.7158C167.305 47.7885 167.455 47.8249 167.62 47.8249C167.762 47.8248 167.897 47.8027 168.024 47.7581C168.151 47.7134 168.259 47.6534 168.345 47.5783L168.698 47.9258C168.533 48.0527 168.361 48.147 168.184 48.209C168.006 48.2704 167.811 48.3018 167.597 48.3018L167.597 48.3009C167.316 48.3009 167.062 48.2369 166.836 48.1081C166.609 47.9793 166.429 47.801 166.295 47.575C166.16 47.349 166.093 47.0982 166.093 46.8215C166.093 46.5448 166.157 46.2966 166.286 46.076C166.415 45.8554 166.588 45.6786 166.805 45.5462C167.021 45.4138 167.265 45.3477 167.535 45.3477ZM167.518 45.8237C167.377 45.8237 167.244 45.8566 167.125 45.9222C167.005 45.9878 166.906 46.0763 166.825 46.1883C166.745 46.3005 166.691 46.4309 166.664 46.5806H168.36C168.334 46.4351 168.281 46.3047 168.2 46.1908C168.12 46.077 168.021 45.9871 167.905 45.9222C167.79 45.8567 167.66 45.8238 167.518 45.8237Z" fill="white"/>
<path fill-rule="evenodd" clip-rule="evenodd" d="M185.307 45.3477C185.577 45.3477 185.805 45.4132 186.013 45.5462C186.221 45.6792 186.385 45.8582 186.507 46.0841C186.628 46.31 186.689 46.5654 186.689 46.8491V47.0013H184.432C184.459 47.1622 184.515 47.3029 184.604 47.4245C184.691 47.5461 184.803 47.6431 184.94 47.7158C185.077 47.7886 185.227 47.8249 185.393 47.8249C185.534 47.8249 185.67 47.8028 185.797 47.7581C185.924 47.7134 186.031 47.6533 186.117 47.5783L186.471 47.9258C186.306 48.0528 186.134 48.147 185.957 48.209C185.779 48.2704 185.583 48.3009 185.37 48.3009C185.089 48.3009 184.835 48.2369 184.609 48.1081C184.383 47.9793 184.202 47.801 184.068 47.575C183.932 47.3491 183.865 47.0982 183.865 46.8215C183.865 46.5448 183.93 46.2967 184.059 46.076C184.189 45.8554 184.362 45.6786 184.578 45.5462C184.795 45.414 185.039 45.3477 185.307 45.3477ZM185.291 45.8237C185.149 45.8237 185.018 45.8567 184.898 45.9222C184.779 45.9879 184.678 46.0762 184.597 46.1883C184.517 46.3004 184.463 46.431 184.438 46.5806H186.133C186.107 46.4351 186.054 46.3047 185.974 46.1908C185.893 46.0769 185.795 45.9872 185.679 45.9222C185.563 45.8566 185.433 45.8237 185.291 45.8237Z" fill="white"/>
<path d="M202.85 45.3965H203.698V45.8677H202.85V47.4204C202.85 47.5624 202.883 47.6642 202.949 47.7256C203.015 47.7871 203.122 47.8184 203.272 47.8184C203.351 47.8184 203.421 47.8134 203.482 47.8021C203.544 47.7907 203.611 47.7722 203.682 47.7459V48.222C203.607 48.2482 203.519 48.2683 203.421 48.2814C203.322 48.2945 203.229 48.3009 203.143 48.3009C202.869 48.3009 202.66 48.2373 202.514 48.1097C202.368 47.9827 202.295 47.7944 202.295 47.5441V45.8677H201.688V45.3965H202.295V44.673L202.85 44.533V45.3965Z" fill="white"/>
<path d="M206.679 45.3411C206.893 45.3412 207.099 45.3811 207.3 45.4616C207.499 45.5421 207.673 45.6591 207.819 45.8123L207.471 46.1997C207.363 46.0805 207.24 45.9899 207.106 45.9303C206.971 45.8707 206.831 45.8408 206.685 45.8408C206.509 45.8408 206.351 45.8836 206.21 45.9694C206.07 46.0553 205.96 46.1736 205.88 46.3226C205.799 46.4723 205.758 46.6392 205.758 46.8223C205.758 47.0052 205.8 47.1727 205.882 47.3236C205.965 47.475 206.078 47.5934 206.219 47.6792C206.361 47.765 206.52 47.8085 206.696 47.8086C206.841 47.8086 206.978 47.7794 207.106 47.7215C207.233 47.6637 207.354 47.5781 207.466 47.466L207.808 47.8306C207.658 47.9801 207.484 48.0959 207.288 48.1781C207.092 48.2603 206.888 48.3009 206.679 48.3009C206.402 48.3009 206.151 48.2354 205.926 48.1048C205.702 47.9742 205.524 47.796 205.393 47.5718C205.263 47.3476 205.197 47.0987 205.197 46.8263C205.197 46.5539 205.263 46.2951 205.396 46.0728C205.529 45.8505 205.707 45.6728 205.929 45.5405C206.152 45.4081 206.402 45.3411 206.679 45.3411Z" fill="white"/>
<path fill-rule="evenodd" clip-rule="evenodd" d="M195.861 45.6667C196.101 45.4573 196.391 45.3525 196.732 45.3525C197 45.3525 197.245 45.418 197.464 45.5487C197.683 45.6792 197.856 45.8565 197.984 46.0785C198.11 46.3009 198.174 46.5484 198.174 46.8215C198.174 47.0946 198.11 47.3476 197.984 47.5701C197.856 47.7924 197.682 47.9686 197.461 48.0991C197.24 48.2298 196.991 48.2961 196.715 48.2961C196.557 48.296 196.404 48.2702 196.258 48.2196C196.109 48.1689 195.976 48.0975 195.857 48.0039V48.2513H195.3V44.3271L195.861 44.2197V45.6667ZM196.658 45.8335C196.497 45.8335 196.348 45.8649 196.209 45.9263C196.071 45.9877 195.955 46.0732 195.861 46.1818V47.4709C195.955 47.5716 196.072 47.6535 196.213 47.715C196.353 47.7764 196.502 47.8078 196.658 47.8078C196.842 47.8078 197.006 47.7657 197.15 47.6816C197.293 47.5976 197.409 47.4805 197.495 47.3309C197.581 47.1812 197.624 47.013 197.624 46.8263C197.624 46.6397 197.581 46.4715 197.495 46.3218C197.409 46.1721 197.293 46.053 197.15 45.9653C197.006 45.8777 196.841 45.8335 196.658 45.8335Z" fill="white"/>
<path fill-rule="evenodd" clip-rule="evenodd" d="M177.14 48.2513H176.583V47.9762C176.34 48.189 176.048 48.2952 175.708 48.2952C175.442 48.2951 175.199 48.2296 174.976 48.0991C174.753 47.9686 174.578 47.7924 174.451 47.5701C174.323 47.3476 174.26 47.096 174.26 46.8158C174.26 46.5356 174.324 46.2953 174.454 46.0736C174.582 45.8518 174.758 45.6756 174.981 45.5462C175.204 45.4175 175.45 45.3534 175.719 45.3534C175.876 45.3534 176.029 45.3768 176.174 45.4233C176.32 45.4698 176.455 45.5403 176.578 45.6333V44.3271L177.14 44.2197V48.2513ZM175.781 45.8351C175.602 45.8352 175.438 45.8778 175.291 45.9613C175.142 46.0453 175.027 46.1623 174.943 46.312C174.858 46.4615 174.815 46.6294 174.815 46.8158C174.815 47.0023 174.858 47.1713 174.943 47.3203C175.027 47.47 175.142 47.5891 175.291 47.6768C175.438 47.7644 175.602 47.8077 175.781 47.8078C175.946 47.8078 176.097 47.7778 176.233 47.7183C176.37 47.6586 176.485 47.5746 176.579 47.466V46.1769C176.489 46.0684 176.374 45.9843 176.233 45.9246C176.093 45.8651 175.942 45.8351 175.781 45.8351Z" fill="white"/>
<path d="M182.237 45.3411C182.457 45.3411 182.651 45.3875 182.818 45.4811C182.985 45.5747 183.115 45.7054 183.211 45.8734C183.306 46.0415 183.354 46.2362 183.354 46.4569V48.2505H182.793V46.5521C182.793 46.3282 182.729 46.1519 182.602 46.0231C182.475 45.8943 182.3 45.8295 182.08 45.8294C181.93 45.8294 181.796 45.8623 181.678 45.9279C181.56 45.9935 181.46 46.0862 181.377 46.2054V48.2513L180.817 48.2505V45.3973H181.377V45.6886C181.599 45.4573 181.885 45.3412 182.237 45.3411Z" fill="white"/>
<path d="M204.669 48.2513H204.108V45.3973H204.669V48.2513Z" fill="white"/>
<path d="M222.615 45.3411C222.829 45.3411 223.015 45.3877 223.174 45.4811C223.333 45.5748 223.458 45.7052 223.548 45.8709C223.637 46.0372 223.683 46.232 223.683 46.4561V48.2505H223.126V46.5521C223.126 46.3279 223.067 46.1511 222.95 46.0223C222.833 45.8935 222.674 45.8286 222.475 45.8286C222.333 45.8287 222.206 45.8615 222.094 45.9271C221.981 45.9927 221.885 46.089 221.802 46.216C221.81 46.2535 221.815 46.2928 221.818 46.3332C221.822 46.3743 221.825 46.4157 221.825 46.4569V48.2505H221.268V46.5521C221.268 46.328 221.208 46.1519 221.088 46.0231C220.968 45.8943 220.812 45.8294 220.617 45.8294C220.479 45.8294 220.354 45.8587 220.246 45.9165C220.138 45.9743 220.044 46.0613 219.965 46.1769V48.2513H219.404L219.405 48.2505V45.3973H219.966V45.6659C220.18 45.4495 220.447 45.3412 220.769 45.3411C220.963 45.3411 221.138 45.384 221.29 45.4697C221.444 45.5556 221.565 45.6738 221.65 45.8229C221.766 45.6626 221.907 45.542 222.069 45.4616C222.232 45.3812 222.414 45.3412 222.615 45.3411Z" fill="white"/>
<path d="M232.176 45.3411C232.397 45.3411 232.591 45.3876 232.757 45.4811C232.923 45.5747 233.054 45.7054 233.15 45.8734C233.245 46.0415 233.293 46.2362 233.293 46.4569V48.2505H232.732V46.5521C232.732 46.3281 232.668 46.1519 232.541 46.0231C232.414 45.8943 232.239 45.8295 232.019 45.8294C231.87 45.8294 231.735 45.8623 231.617 45.9279C231.5 45.9935 231.4 46.0862 231.317 46.2054V48.2513L230.757 48.2505V45.3973H231.317V45.6886C231.538 45.4575 231.824 45.3412 232.176 45.3411Z" fill="white"/>
<path fill-rule="evenodd" clip-rule="evenodd" d="M161.826 48.2505H161.186L160.731 47.1014H158.969L158.514 48.2505H157.902L159.525 44.3271H160.215L161.826 48.2505ZM159.165 46.6139H160.54L159.855 44.887L159.165 46.6139Z" fill="white"/>
<path d="M166.452 44.848H165.071V48.2505H164.481V44.848H163.101V44.3271H166.452V44.848Z" fill="white"/>
<path d="M170.791 45.3363C170.906 45.3363 171.002 45.3504 171.076 45.3802V45.8848C171.024 45.8621 170.969 45.8471 170.913 45.8376C170.858 45.8281 170.799 45.8229 170.74 45.8229C170.579 45.823 170.435 45.8672 170.308 45.9548C170.18 46.0424 170.079 46.1707 170.004 46.3389V48.2505H169.443V45.3916H170.005V45.7619C170.094 45.627 170.206 45.5223 170.339 45.4478C170.472 45.3733 170.623 45.3363 170.791 45.3363Z" fill="white"/>
<path fill-rule="evenodd" clip-rule="evenodd" d="M190.236 44.3271C190.499 44.3271 190.728 44.3754 190.924 44.472C191.121 44.5692 191.274 44.7048 191.385 44.8789C191.495 45.0524 191.55 45.257 191.55 45.4925C191.55 45.7465 191.476 45.969 191.328 46.1574C191.18 46.3462 190.987 46.4797 190.748 46.5578L191.618 48.2505H190.961L190.153 46.6416H189.052V48.2505H188.463V44.3271H190.236ZM189.052 46.1484H190.192C190.423 46.1484 190.609 46.0892 190.748 45.9718C190.886 45.8544 190.955 45.6945 190.955 45.4925C190.955 45.2904 190.886 45.1364 190.748 45.0189C190.609 44.9014 190.424 44.8423 190.192 44.8423H189.052V46.1484Z" fill="white"/>
<path d="M204.389 44.2433C204.482 44.2433 204.568 44.2762 204.636 44.3434C204.704 44.4108 204.737 44.4937 204.737 44.5908C204.737 44.688 204.704 44.7643 204.636 44.8317C204.568 44.8989 204.486 44.9326 204.389 44.9326C204.295 44.9326 204.215 44.899 204.147 44.8317C204.08 44.7643 204.047 44.6815 204.047 44.5843C204.047 44.4872 204.08 44.4107 204.147 44.3434C204.215 44.2761 204.295 44.2433 204.389 44.2433Z" fill="white"/>
</g>
<defs>
<clipPath id="clip0_360_3724">
<rect width="237" height="50" fill="white"/>
</clipPath>
</defs>
</svg>
