<svg width="152" height="123" viewBox="0 0 152 123" fill="none" xmlns="http://www.w3.org/2000/svg">
<g clip-path="url(#clip0_360_3715)">
<path fill-rule="evenodd" clip-rule="evenodd" d="M93.2201 21.7119H58.5053L57.777 22.4397V46.2134L66.395 57.7364H93.2201L93.9484 57.0086V22.4397L93.2201 21.7119ZM84.6021 26.8063L83.1455 30.809H73.1923L71.1289 26.8063H84.6021ZM80.3538 35.5395H75.7413L73.7992 31.9006H78.4117L80.3538 35.5395ZM85.4517 53.9762L78.8972 41.6042L75.4986 50.7013H70.8861L60.2046 30.6877H64.8171L72.8282 45.7282L76.3482 36.6311H80.9607L90.1856 53.9762H85.4517Z" fill="white"/>
<path fill-rule="evenodd" clip-rule="evenodd" d="M21.7271 69.623H26.9464L28.8885 77.6285L30.952 69.623H35.2003L37.2637 77.6285L39.2058 69.623H44.1824L40.0555 82.8441H34.9575L33.0154 75.2026L31.0733 82.8441H25.9754L21.7271 69.623Z" fill="white"/>
<path fill-rule="evenodd" clip-rule="evenodd" d="M59.8405 78.9623C59.1122 81.7521 56.6846 83.3289 52.5576 83.3289C47.9452 83.3289 45.1534 80.5392 45.1534 76.4152C45.1534 72.0486 48.0666 69.2588 52.679 69.2588C57.2915 69.2588 60.2046 72.1699 60.2046 77.1429V77.5068H50.3728C50.3728 79.2049 51.3438 80.1753 52.8004 80.1753C53.7714 80.1753 54.4997 79.8114 54.7425 79.0836H59.8405V78.9623ZM55.1066 74.717C54.9852 73.1402 54.257 72.2912 52.679 72.2912C51.3438 72.2912 50.4942 73.1402 50.3728 74.717H55.1066Z" fill="white"/>
<path fill-rule="evenodd" clip-rule="evenodd" d="M62.3895 69.6227H67.1233V71.5634C68.3371 69.9866 69.7937 69.2588 71.7357 69.2588C73.3137 69.2588 74.6489 69.744 75.4985 70.8356C76.4696 72.0486 76.591 73.6254 76.591 75.93V82.7225H71.3716V75.93C71.3716 74.1106 71.0075 73.2615 69.5509 73.2615C68.2157 73.2615 67.6088 74.1106 67.6088 75.93V82.7225H62.3895V69.6227Z" fill="white"/>
<path fill-rule="evenodd" clip-rule="evenodd" d="M84.7235 84.178C84.8448 84.7845 85.3303 85.0271 86.3014 85.0271C88.0007 85.0271 88.2435 84.2993 88.2435 82.2373V81.5095C87.3938 82.3586 86.18 82.8438 84.6021 82.8438C81.082 82.8438 78.7758 80.1753 78.7758 76.1726C78.7758 71.806 81.082 69.2588 84.3593 69.2588C86.3014 69.2588 87.6366 69.8653 88.729 71.3208V69.6227H93.3415V81.7521C93.3415 86.3613 91.278 88.0594 85.9373 88.0594C82.1745 88.0594 79.9896 86.6039 79.6255 84.178H84.7235ZM85.9373 79.2049C87.5152 79.2049 88.1221 78.2346 88.1221 76.1726C88.1221 74.2319 87.2724 73.1402 85.9373 73.1402C84.4807 73.1402 83.8738 74.1106 83.8738 76.0513C83.8738 78.2346 84.4807 79.2049 85.9373 79.2049Z" fill="white"/>
<path fill-rule="evenodd" clip-rule="evenodd" d="M96.1331 65.0137H101.352V82.844H96.1331V65.0137Z" fill="white"/>
<path fill-rule="evenodd" clip-rule="evenodd" d="M111.063 69.1377C115.675 69.1377 118.467 71.8062 118.467 76.1728C118.467 80.5394 115.675 83.2079 111.063 83.2079C106.45 83.2079 103.659 80.5394 103.659 76.1728C103.659 71.8062 106.45 69.1377 111.063 69.1377ZM111.063 79.569C112.641 79.569 113.248 78.4774 113.248 76.1728C113.248 73.8682 112.641 72.7765 111.063 72.7765C109.485 72.7765 108.878 73.8682 108.878 76.1728C108.999 78.4774 109.485 79.569 111.063 79.569Z" fill="white"/>
<path fill-rule="evenodd" clip-rule="evenodd" d="M120.652 69.6227H125.507V72.0486C126.235 70.1079 127.449 69.2588 129.634 69.2588H130.12V74.4745C129.755 74.4745 129.391 74.3532 129.027 74.3532C126.964 74.3532 125.993 75.3235 125.993 77.2642V82.6012H120.773V69.6227H120.652Z" fill="white"/>
<path d="M23.9119 98.8548C22.6981 98.8548 22.4553 98.3696 22.4553 97.278V94.2456H21.7271V93.154H22.4553V91.5771H23.9119V93.154H24.7616V94.2456H23.9119V97.3993C23.9119 97.6419 24.0333 97.7632 24.3974 97.7632H24.7616V98.8548C24.3974 98.8548 24.0333 98.8548 23.9119 98.8548Z" fill="white"/>
<path d="M25.9753 91.2129H27.4319V93.8814C27.796 93.3962 28.4029 93.1536 29.1312 93.1536C29.7381 93.1536 30.345 93.3962 30.7092 93.7601C30.9519 94.124 31.0733 94.6091 31.0733 95.0943V98.8544H29.6167V95.8221C29.6167 94.7304 29.6168 94.2453 28.7671 94.2453C28.0388 94.2453 27.6747 94.7304 27.6747 95.4582V98.7332H26.2181V91.2129H25.9753Z" fill="white"/>
<path d="M37.5065 97.0349C37.1423 98.2479 36.2927 98.9757 34.9575 98.9757C33.3795 98.9757 32.2871 97.884 32.2871 95.9433C32.2871 94.1239 33.2582 93.0322 34.9575 93.0322C36.6568 93.0322 37.6278 94.1239 37.6278 96.0646C37.6278 96.1859 37.6278 96.3072 37.6278 96.4285H33.8651C33.8651 97.2775 34.3506 97.7627 35.0789 97.7627C35.5644 97.7627 35.9285 97.5201 36.0499 97.1562H37.5065V97.0349ZM36.0499 95.4581C36.0499 94.7303 35.6858 94.2452 34.9575 94.2452C34.3506 94.2452 33.8651 94.6091 33.8651 95.4581H36.0499Z" fill="white"/>
<path d="M42.119 91.2129H43.5755V92.5471H42.119V91.2129ZM42.119 93.1536H43.5755V98.7332H42.119V93.1536Z" fill="white"/>
<path d="M45.2748 93.1535H46.7314V93.8813C47.0955 93.3961 47.7024 93.0322 48.4307 93.0322C49.6445 93.0322 50.2514 93.6387 50.2514 94.9729V98.8544H48.7949V95.4581C48.7949 94.7303 48.5521 94.3665 47.9452 94.3665C47.2169 94.3665 46.7314 94.8517 46.7314 95.5794V98.8544H45.2748V93.1535Z" fill="white"/>
<path d="M51.8294 93.1535H53.286V93.8813C53.6501 93.3961 54.257 93.0322 54.9853 93.0322C56.1991 93.0322 56.806 93.6387 56.806 94.9729V98.8544H55.3494V95.4581C55.3494 94.7303 55.1067 94.3665 54.4998 94.3665C53.7715 94.3665 53.286 94.8517 53.286 95.5794V98.8544H51.8294V93.1535Z" fill="white"/>
<path d="M60.9329 93.0322C62.7536 93.0322 63.7247 94.1239 63.7247 96.0646C63.7247 97.884 62.6322 99.097 60.9329 99.097C59.1122 99.097 58.1412 98.0053 58.1412 96.0646C58.1412 94.1239 59.2336 93.0322 60.9329 93.0322ZM60.9329 97.7627C61.7826 97.7627 62.2681 97.1562 62.2681 96.0646C62.2681 94.9729 61.7826 94.3665 60.9329 94.3665C60.0833 94.3665 59.5977 94.9729 59.5977 96.0646C59.5977 97.1562 60.0833 97.7627 60.9329 97.7627Z" fill="white"/>
<path d="M64.4529 93.1533H66.1523L67.2447 97.156L68.4585 93.1533H70.0364L67.973 98.7329H66.395L64.4529 93.1533Z" fill="white"/>
<path d="M72.3426 98.9757C71.2501 98.9757 70.6432 98.3692 70.6432 97.1562C70.6432 96.0646 71.2501 95.5794 72.5853 95.3368C73.7991 95.2155 74.1633 95.2155 74.1633 94.7304C74.1633 94.2452 73.9205 94.1239 73.1922 94.1239C72.5853 94.1239 72.2212 94.3665 72.2212 94.8516V94.9729H70.7646V94.8516C70.7646 93.76 71.6143 93.0322 73.0709 93.0322C74.6488 93.0322 75.4985 93.6387 75.4985 94.6091V97.7627C75.4985 98.1266 75.6198 98.3692 75.8626 98.4905V98.7331H74.2847C74.1633 98.4905 74.1633 98.2479 74.1633 98.0053C73.7991 98.7331 73.1922 98.9757 72.3426 98.9757ZM72.8281 96.4285C72.3426 96.5498 72.0998 96.7924 72.0998 97.1562C72.0998 97.5201 72.3426 97.884 72.8281 97.884C73.6778 97.884 74.1633 97.3988 74.1633 96.5498V96.0646C73.5564 96.3072 73.0709 96.3072 72.8281 96.4285Z" fill="white"/>
<path d="M78.7757 98.8548C77.5619 98.8548 77.3192 98.3696 77.3192 97.278V94.2456H76.5909V93.154H77.3192V91.5771H78.7757V93.154H79.6254V94.2456H78.7757V97.3993C78.7757 97.6419 78.8971 97.7632 79.2613 97.7632H79.6254V98.8548C79.2612 98.8548 78.8971 98.8548 78.7757 98.8548Z" fill="white"/>
<path d="M80.8393 91.2129H82.2959V92.5471H80.8393V91.2129ZM80.8393 93.1536H82.2959V98.7332H80.8393V93.1536Z" fill="white"/>
<path d="M83.2668 93.1533H84.9661L86.1799 97.156L87.3937 93.1533H88.9717L86.9082 98.7329H85.3303L83.2668 93.1533Z" fill="white"/>
<path d="M94.798 97.0349C94.4339 98.2479 93.5842 98.9757 92.249 98.9757C90.6711 98.9757 89.5787 97.884 89.5787 95.9433C89.5787 94.1239 90.5497 93.0322 92.249 93.0322C93.9484 93.0322 94.9194 94.1239 94.9194 96.0646C94.9194 96.1859 94.9194 96.3072 94.9194 96.4285H91.0352C91.0352 97.2775 91.5208 97.7627 92.249 97.7627C92.7346 97.7627 93.0987 97.5201 93.2201 97.1562H94.798V97.0349ZM93.2201 95.4581C93.2201 94.7303 92.8559 94.2452 92.1277 94.2452C91.5208 94.2452 91.0352 94.6091 91.0352 95.4581H93.2201Z" fill="white"/>
<path d="M99.6532 94.2455H98.8035V93.1538H99.6532V92.6686C99.6532 91.577 100.139 91.0918 101.353 91.0918C101.595 91.0918 101.838 91.0918 102.081 91.0918V92.3047H101.717C101.353 92.3047 101.11 92.426 101.11 92.6686V93.0325H101.959V94.1242H100.988V98.7334H99.5318V94.2455H99.6532Z" fill="white"/>
<path d="M104.387 98.9757C103.295 98.9757 102.688 98.3692 102.688 97.1562C102.688 96.0646 103.295 95.5794 104.63 95.3368C105.844 95.2155 106.208 95.2155 106.208 94.7304C106.208 94.2452 105.965 94.1239 105.237 94.1239C104.63 94.1239 104.266 94.3665 104.266 94.8516V94.9729H102.809V94.8516C102.809 93.76 103.659 93.0322 105.115 93.0322C106.693 93.0322 107.543 93.6387 107.543 94.6091V97.7627C107.543 98.1266 107.664 98.3692 107.907 98.4905V98.7331H106.329C106.208 98.4905 106.208 98.2479 106.208 98.0053C105.844 98.7331 105.237 98.9757 104.387 98.9757ZM104.873 96.4285C104.387 96.5498 104.144 96.7924 104.144 97.1562C104.144 97.5201 104.387 97.884 104.873 97.884C105.722 97.884 106.208 97.3988 106.208 96.5498V96.0646C105.601 96.3072 105.115 96.3072 104.873 96.4285Z" fill="white"/>
<path d="M109.242 93.1535H110.699V93.76C111.063 93.2748 111.67 93.0322 112.277 93.0322C113.005 93.0322 113.491 93.2748 113.855 93.8813C114.219 93.3961 114.826 93.0322 115.433 93.0322C116.525 93.0322 117.253 93.76 117.253 94.8516V98.7331H115.797V95.0942C115.797 94.4878 115.433 94.2452 114.947 94.2452C114.34 94.2452 113.976 94.6091 113.976 95.3368V98.7331H112.52V95.0942C112.52 94.4878 112.155 94.2452 111.67 94.2452C111.063 94.2452 110.699 94.6091 110.699 95.3368V98.7331H109.242V93.1535Z" fill="white"/>
<path d="M118.831 91.2129H120.288V92.5471H118.831V91.2129ZM118.831 93.1536H120.288V98.7332H118.831V93.1536Z" fill="white"/>
<path d="M121.987 91.2129H123.444V98.8544H121.987V91.2129Z" fill="white"/>
<path d="M125.264 99.8245C125.386 99.8245 125.507 99.8245 125.629 99.8245C126.235 99.8245 126.478 99.5819 126.478 98.9754V98.8542L124.415 93.1533H126.114L127.328 97.156L128.42 93.1533H129.998L127.692 99.8245C127.328 100.795 126.964 101.159 125.871 101.159C125.75 101.159 125.507 101.159 125.264 101.159V99.8245Z" fill="white"/>
</g>
<defs>
<clipPath id="clip0_360_3715">
<rect width="151.725" height="122.75" fill="white"/>
</clipPath>
</defs>
</svg>
