<svg width="110" height="30" viewBox="0 0 110 30" fill="none" xmlns="http://www.w3.org/2000/svg">
<g clip-path="url(#clip0_360_3712)">
<mask id="mask0_360_3712" style="mask-type:luminance" maskUnits="userSpaceOnUse" x="-1" y="0" width="111" height="30">
<path d="M109.999 0H-0.00109863V30H109.999V0Z" fill="white"/>
</mask>
<g mask="url(#mask0_360_3712)">
<path d="M29.0718 28.609H35.1992V8.2568L29.0718 8.95772V28.609ZM53.2802 20.4927L45.9711 1.39078H39.1803L50.4437 28.609L55.9522 28.604L67.2208 1.39078H60.5902L53.2802 20.4927ZM71.1434 28.609H77.2949V1.39062H71.1434V28.609ZM94.0965 1.39078H83.1923V28.609H94.0965C102.884 28.609 108.956 22.66 108.956 15.0002V14.922C108.956 7.26196 102.884 1.39078 94.0965 1.39078ZM102.525 15.1098C102.525 19.9147 99.1292 23.2079 94.0965 23.2079H89.3438V6.85692H94.0965C99.1292 6.85692 102.525 10.2276 102.525 15.0329V15.1098ZM21.199 10.0679L13.0557 10.9994L1.36322 24.0603V28.609H24.6474V23.3443H9.33005L21.199 10.0679ZM23.5808 1.39078H1.58101V6.60065H23.5808V1.39078ZM35.1645 1.39078H28.8477V6.60065H35.1645V1.39078Z" fill="white"/>
</g>
</g>
<defs>
<clipPath id="clip0_360_3712">
<rect width="110" height="30" fill="white"/>
</clipPath>
</defs>
</svg>
