<svg width="19" height="13" viewBox="0 0 19 13" fill="none" xmlns="http://www.w3.org/2000/svg">
<path d="M18.5 6.5C18.5 6.5 15.5 12.5 9.5 12.5C3.5 12.5 0.5 6.5 0.5 6.5C0.5 6.5 3.5 0.5 9.5 0.5C15.5 0.5 18.5 6.5 18.5 6.5ZM9.5 8.5C9.89556 8.5 10.2822 8.3827 10.6111 8.16294C10.94 7.94318 11.1964 7.63082 11.3478 7.26537C11.4991 6.89991 11.5387 6.49778 11.4616 6.10982C11.3844 5.72186 11.1939 5.36549 10.9142 5.08579C10.6345 4.80608 10.2781 4.6156 9.89018 4.53843C9.50222 4.46126 9.10009 4.50087 8.73463 4.65224C8.36918 4.80362 8.05682 5.05996 7.83706 5.38886C7.6173 5.71776 7.5 6.10444 7.5 6.5C7.5 7.03043 7.71071 7.53914 8.08579 7.91421C8.46086 8.28929 8.96957 8.5 9.5 8.5Z" stroke="#1B1B1B" stroke-linecap="round" stroke-linejoin="round"/>
</svg>
