<svg width="19" height="20" viewBox="0 0 19 20" fill="none" xmlns="http://www.w3.org/2000/svg">
<path d="M9.44995 10H9.54995" stroke="#1B1B1B" stroke-linecap="round" stroke-linejoin="round"/>
<path d="M18.5 10C18.5 11.78 17.9722 13.5201 16.9832 15.0001C15.9943 16.4802 14.5887 17.6337 12.9442 18.3149C11.2996 18.9961 9.49002 19.1743 7.74419 18.8271C5.99836 18.4798 4.39472 17.6226 3.13604 16.364C1.87737 15.1053 1.0202 13.5016 0.672937 11.7558C0.32567 10.01 0.5039 8.20038 1.18509 6.55585C1.86628 4.91131 3.01983 3.50571 4.49987 2.51677C5.97991 1.52784 7.71997 1 9.5 1C11.887 1 14.1761 1.94821 15.864 3.63604C17.5518 5.32387 18.5 7.61305 18.5 10ZM14.5 10C14.5 9.01109 14.2068 8.04439 13.6574 7.22215C13.1079 6.3999 12.3271 5.75904 11.4134 5.3806C10.4998 5.00216 9.49446 4.90315 8.52455 5.09607C7.55465 5.289 6.66373 5.7652 5.96447 6.46447C5.26521 7.16373 4.789 8.05464 4.59608 9.02455C4.40315 9.99445 4.50217 10.9998 4.88061 11.9134C5.25904 12.827 5.89991 13.6079 6.72215 14.1573C7.5444 14.7068 8.5111 15 9.5 15C10.8261 15 12.0979 14.4732 13.0355 13.5355C13.9732 12.5979 14.5 11.3261 14.5 10Z" stroke="#1B1B1B" stroke-linecap="round" stroke-linejoin="round"/>
</svg>
