<svg width="19" height="19" viewBox="0 0 19 19" fill="none" xmlns="http://www.w3.org/2000/svg">
<path d="M8.49991 0.91C9.13221 0.640193 9.81245 0.500743 10.4999 0.5C11.401 0.501338 12.2851 0.746186 13.0585 1.20865C13.8319 1.67111 14.466 2.33399 14.8936 3.12719C15.3212 3.92039 15.5266 4.81442 15.4879 5.71472C15.4492 6.61502 15.1679 7.48813 14.6738 8.24171C14.1796 8.99529 13.491 9.60132 12.6808 9.9957C11.8705 10.3901 10.9688 10.5582 10.0708 10.4822C9.1729 10.4062 8.31221 10.0889 7.57977 9.56399C6.84732 9.03904 6.27037 8.3259 5.90991 7.5" stroke="#1B1B1B" stroke-linecap="round" stroke-linejoin="round"/>
<path d="M4.5 2.5H0.5M2.5 4.5V0.5M11.5 10.5H9.5C7.64348 10.5 5.86301 11.2375 4.55025 12.5503C3.2375 13.863 2.5 15.6435 2.5 17.5C2.5 17.7652 2.60536 18.0196 2.79289 18.2071C2.98043 18.3946 3.23478 18.5 3.5 18.5H17.5C17.7652 18.5 18.0196 18.3946 18.2071 18.2071C18.3946 18.0196 18.5 17.7652 18.5 17.5C18.5 15.6435 17.7625 13.863 16.4497 12.5503C15.137 11.2375 13.3565 10.5 11.5 10.5Z" stroke="#1B1B1B" stroke-linecap="round" stroke-linejoin="round"/>
</svg>
