<svg width="17" height="20" viewBox="0 0 17 20" fill="none" xmlns="http://www.w3.org/2000/svg">
<path d="M13.5 5.9082C13.5 6.89711 13.2068 7.86381 12.6573 8.68605C12.1079 9.5083 11.327 10.1492 10.4134 10.5276C9.49979 10.906 8.49445 11.0051 7.52455 10.8121C6.55464 10.6192 5.66373 10.143 4.96447 9.44374C4.2652 8.74447 3.789 7.85356 3.59607 6.88365C3.40315 5.91375 3.50216 4.90842 3.8806 3.99479C4.25904 3.08116 4.8999 2.30026 5.72215 1.75085C6.54439 1.20145 7.51109 0.908203 8.5 0.908203C9.82608 0.908203 11.0979 1.43499 12.0355 2.37267C12.9732 3.31035 13.5 4.58212 13.5 5.9082ZM11.5 10.9082H5.5C4.17392 10.9082 2.90215 11.435 1.96447 12.3727C1.02678 13.3104 0.5 14.5821 0.5 15.9082C0.5 16.7039 0.816071 17.4669 1.37868 18.0295C1.94129 18.5921 2.70435 18.9082 3.5 18.9082H13.5C14.2956 18.9082 15.0587 18.5921 15.6213 18.0295C16.1839 17.4669 16.5 16.7039 16.5 15.9082C16.5 14.5821 15.9732 13.3104 15.0355 12.3727C14.0979 11.435 12.8261 10.9082 11.5 10.9082Z" stroke="#1B1B1B" stroke-linecap="round" stroke-linejoin="round"/>
</svg>
