<svg width="19" height="19" viewBox="0 0 19 19" fill="none" xmlns="http://www.w3.org/2000/svg">
<path d="M12.0698 1.92969C13.2327 2.32098 14.2899 2.9745 15.1598 3.83969C16.0817 4.76324 16.7676 5.89512 17.1598 7.13969" stroke="#1B1B1B" stroke-linecap="round" stroke-linejoin="round"/>
<path d="M15.3501 6.30984L17.1601 7.14984L18.0001 5.33984" stroke="#1B1B1B" stroke-linecap="round" stroke-linejoin="round"/>
<path d="M1.8501 11.8604C2.24227 13.1049 2.92826 14.2368 3.8501 15.1604C4.72001 16.0255 5.77726 16.6791 6.9401 17.0704" stroke="#1B1B1B" stroke-linecap="round" stroke-linejoin="round"/>
<path d="M3.65 12.6896L1.84 11.8496L1 13.6596" stroke="#1B1B1B" stroke-linecap="round" stroke-linejoin="round"/>
<path d="M4.5 0.5C3.70888 0.5 2.93552 0.734596 2.27772 1.17412C1.61992 1.61365 1.10723 2.23836 0.804484 2.96927C0.501733 3.70017 0.42252 4.50444 0.576861 5.28036C0.731202 6.05629 1.11216 6.76902 1.67157 7.32843C2.23098 7.88784 2.94372 8.2688 3.71964 8.42314C4.49556 8.57748 5.29983 8.49827 6.03074 8.19552C6.76164 7.89277 7.38635 7.38008 7.82588 6.72228C8.26541 6.06448 8.5 5.29113 8.5 4.5C8.5 3.43913 8.07857 2.42172 7.32843 1.67157C6.57828 0.921427 5.56087 0.5 4.5 0.5ZM14.5 18.5C15.2911 18.5 16.0645 18.2654 16.7223 17.8259C17.3801 17.3864 17.8928 16.7616 18.1955 16.0307C18.4983 15.2998 18.5775 14.4956 18.4231 13.7196C18.2688 12.9437 17.8878 12.231 17.3284 11.6716C16.769 11.1122 16.0563 10.7312 15.2804 10.5769C14.5044 10.4225 13.7002 10.5017 12.9693 10.8045C12.2384 11.1072 11.6136 11.6199 11.1741 12.2777C10.7346 12.9355 10.5 13.7089 10.5 14.5C10.5 15.5609 10.9214 16.5783 11.6716 17.3284C12.4217 18.0786 13.4391 18.5 14.5 18.5Z" stroke="#1B1B1B" stroke-linecap="round" stroke-linejoin="round"/>
</svg>
