<svg width="19" height="18" viewBox="0 0 19 18" fill="none" xmlns="http://www.w3.org/2000/svg">
<path d="M13.5 6.00674L9.49999 12.0067M18.5 10.0067C18.498 11.3503 18.1951 12.6764 17.6137 13.8877C17.0323 15.099 16.187 16.1648 15.14 17.0067H3.85999C2.67406 16.0531 1.74932 14.8143 1.17223 13.4061C0.59513 11.998 0.384526 10.4665 0.560103 8.95481C0.735679 7.44316 1.2917 6.00071 2.17619 4.76232C3.06068 3.52393 4.24474 2.53005 5.61769 1.87358C6.99063 1.21712 8.50762 0.919517 10.0268 1.0086C11.546 1.09768 13.0178 1.57053 14.3047 2.38296C15.5915 3.19538 16.6513 4.32084 17.385 5.65411C18.1187 6.98738 18.5023 8.48493 18.5 10.0067Z" stroke="#1B1B1B" stroke-linecap="round" stroke-linejoin="round"/>
<path d="M9.5 11.9863V12.0863" stroke="#1B1B1B" stroke-linecap="round" stroke-linejoin="round"/>
</svg>
