<svg width="19" height="20" viewBox="0 0 19 20" fill="none" xmlns="http://www.w3.org/2000/svg">
<path d="M10.502 3H13.502C13.7672 3 14.0215 3.10536 14.2091 3.29289C14.3966 3.48043 14.502 3.73478 14.502 4V8" stroke="#1B1B1B" stroke-linecap="round" stroke-linejoin="round"/>
<path d="M4.50195 3H1.50195C1.23674 3 0.982383 3.10536 0.794846 3.29289C0.60731 3.48043 0.501953 3.73478 0.501953 4V18C0.501953 18.2652 0.60731 18.5196 0.794846 18.7071C0.982383 18.8946 1.23674 19 1.50195 19H13.502C13.7672 19 14.0215 18.8946 14.2091 18.7071C14.3966 18.5196 14.502 18.2652 14.502 18V14" stroke="#1B1B1B" stroke-linecap="round" stroke-linejoin="round"/>
<path d="M10.502 2C10.502 1.73478 10.3966 1.48043 10.2091 1.29289C10.0215 1.10536 9.76717 1 9.50195 1H5.50195C5.23674 1 4.98238 1.10536 4.79485 1.29289C4.60731 1.48043 4.50195 1.73478 4.50195 2V5H10.502V2ZM18.212 8.69L16.812 7.29C16.625 7.10677 16.3737 7.00414 16.112 7.00414C15.8502 7.00414 15.5989 7.10677 15.412 7.29L10.502 12.2V15H13.302L18.212 10.09C18.3952 9.90307 18.4978 9.65175 18.4978 9.39C18.4978 9.12825 18.3952 8.87693 18.212 8.69Z" stroke="#1B1B1B" stroke-linecap="round" stroke-linejoin="round"/>
</svg>
