<svg width="19" height="19" viewBox="0 0 19 19" fill="none" xmlns="http://www.w3.org/2000/svg">
<path d="M9.5 4.5V7.5C9.5 8.5 9.5 10.5 7.5 10.5" stroke="#1B1B1B" stroke-linecap="round" stroke-linejoin="round"/>
<path d="M5.5 6.5V4.5M13.5 6.5V4.5" stroke="#1B1B1B" stroke-linecap="round" stroke-linejoin="round"/>
<path d="M5.5 13.5C6.60784 14.4678 8.02898 15.0011 9.5 15.0011C10.971 15.0011 12.3922 14.4678 13.5 13.5" stroke="#1B1B1B" stroke-linecap="round" stroke-linejoin="round"/>
<path d="M5.5 18.5H1.5C1.23478 18.5 0.98043 18.3946 0.792893 18.2071C0.605357 18.0196 0.5 17.7652 0.5 17.5V13.5" stroke="#1B1B1B" stroke-linecap="round" stroke-linejoin="round"/>
<path d="M13.5 18.5H17.5C17.7652 18.5 18.0196 18.3946 18.2071 18.2071C18.3946 18.0196 18.5 17.7652 18.5 17.5V13.5" stroke="#1B1B1B" stroke-linecap="round" stroke-linejoin="round"/>
<path d="M0.5 13.5V17.5C0.5 17.7652 0.605357 18.0196 0.792893 18.2071C0.98043 18.3946 1.23478 18.5 1.5 18.5H5.5" stroke="#1B1B1B" stroke-linecap="round" stroke-linejoin="round"/>
<path d="M0.5 5.5V1.5C0.5 1.23478 0.605357 0.98043 0.792893 0.792893C0.98043 0.605357 1.23478 0.5 1.5 0.5H5.5" stroke="#1B1B1B" stroke-linecap="round" stroke-linejoin="round"/>
<path d="M18.5 5.5V1.5C18.5 1.23478 18.3946 0.98043 18.2071 0.792893C18.0196 0.605357 17.7652 0.5 17.5 0.5H13.5" stroke="#1B1B1B" stroke-linecap="round" stroke-linejoin="round"/>
</svg>
