<svg width="19" height="20" viewBox="0 0 19 20" fill="none" xmlns="http://www.w3.org/2000/svg">
<path d="M3.29 11.9785L0.5 15.9685L3.53 16.8685L5.41 19.4085L8.29 15.2985" stroke="#1B1B1B" stroke-linecap="round" stroke-linejoin="round"/>
<path d="M15.71 11.9785L18.5 15.9685L15.47 16.8685L13.59 19.4085L10.71 15.2985" stroke="#1B1B1B" stroke-linecap="round" stroke-linejoin="round"/>
<path d="M16.5 8.4082C16.5 9.79267 16.0895 11.1461 15.3203 12.2972C14.5511 13.4483 13.4579 14.3455 12.1788 14.8754C10.8997 15.4052 9.49224 15.5438 8.13437 15.2737C6.7765 15.0036 5.52922 14.3369 4.55026 13.358C3.57129 12.379 2.9046 11.1317 2.63451 9.77384C2.36441 8.41597 2.50303 7.0085 3.03285 5.72942C3.56266 4.45034 4.45987 3.35709 5.61101 2.58792C6.76216 1.81875 8.11553 1.4082 9.5 1.4082C11.3565 1.4082 13.137 2.1457 14.4497 3.45846C15.7625 4.77121 16.5 6.55169 16.5 8.4082ZM9.5 6.6582L8.88 7.8082L7.5 7.9982L8.5 8.8882L8.26 10.1582L9.5 9.5582L10.74 10.1582L10.5 8.8882L11.5 7.9982L10.12 7.8082L9.5 6.6582Z" stroke="#1B1B1B" stroke-linecap="round" stroke-linejoin="round"/>
</svg>
