<svg width="19" height="10" viewBox="0 0 19 10" fill="none" xmlns="http://www.w3.org/2000/svg">
<path d="M9.50625 5.00467L12.1462 7.64467C12.8468 8.34022 13.794 8.73055 14.7812 8.73055C15.7685 8.73055 16.7157 8.34022 17.4162 7.64467C18.1137 6.94526 18.5053 5.99775 18.5051 5.01C18.5049 4.02224 18.1129 3.07489 17.4151 2.37578C16.7173 1.67667 15.7707 1.28288 14.783 1.2808C13.7952 1.27872 12.847 1.66851 12.1462 2.36467L9.50625 5.00467ZM9.50625 5.00467L6.86625 7.64467C6.16565 8.34022 5.21847 8.73055 4.23125 8.73055C3.24402 8.73055 2.29684 8.34022 1.59625 7.64467C1.24824 7.29893 0.971845 6.88794 0.782898 6.43523C0.593951 5.98251 0.49616 5.49698 0.495125 5.00642C0.494091 4.51586 0.589833 4.02992 0.776869 3.57641C0.963905 3.12291 1.23856 2.71075 1.58511 2.36355C1.93166 2.01634 2.34329 1.7409 2.79644 1.55301C3.24959 1.36511 3.73535 1.26845 4.22591 1.26855C4.71647 1.26866 5.20219 1.36553 5.65526 1.55362C6.10833 1.74171 6.51985 2.01732 6.86625 2.36467L9.50625 5.00467Z" stroke="#1B1B1B" stroke-linecap="round" stroke-linejoin="round"/>
</svg>
