<svg width="20" height="20" viewBox="0 0 20 20" fill="none" xmlns="http://www.w3.org/2000/svg">
<path d="M17.5396 1.12609L1.61963 8.33609C1.40226 8.45197 1.22701 8.63348 1.11884 8.85479C1.01068 9.07609 0.975114 9.32589 1.01723 9.56859C1.05934 9.81129 1.17697 10.0345 1.35337 10.2064C1.52977 10.3784 1.75593 10.4902 1.99963 10.5261L8.22963 11.7861L9.49963 18.0261C9.53391 18.2705 9.64459 18.4978 9.81586 18.6755C9.98712 18.8532 10.2102 18.9722 10.4532 19.0155C10.6961 19.0588 10.9466 19.0241 11.1687 18.9164C11.3907 18.8088 11.5731 18.6336 11.6896 18.4161L18.8996 2.48609C19.0053 2.29611 19.0462 2.07686 19.0161 1.86156C18.986 1.64625 18.8866 1.44662 18.7328 1.29289C18.5791 1.13917 18.3795 1.03973 18.1642 1.00963C17.9489 0.979533 17.7296 1.02042 17.5396 1.12609Z" stroke="black" stroke-linecap="round" stroke-linejoin="round"/>
</svg>
