<?xml version="1.0" encoding="UTF-8"?>
<svg xmlns="http://www.w3.org/2000/svg" version="1.1" viewBox="0 0 24 24">
  <defs>
    <style>
      .cls-1 {
        fill: none;
        stroke: #000;
        stroke-linecap: round;
        stroke-linejoin: round;
      }
    </style>
  </defs>
  <!-- Generator: Adobe Illustrator 28.6.0, SVG Export Plug-In . SVG Version: 1.2.0 Build 709)  -->
  <g>
    <g id="Livello_1">
      <path class="cls-1" d="M13.3,10.6c.6.7,1.5,1.2,2.5,1.2,1,0,1.9-.2,2.6-.9,1.6-1.6.9-4,2.6-6.5-.5-.5-1.2-.9-1.9-1.1-.7-.2-1.4-.3-2.1-.3-.7,0-1.4.2-2.1.5-.7.3-1.2.8-1.7,1.3-.7.8-1.1,1.8-1.1,2.9,0,1.1.4,2.1,1.2,2.9ZM13.3,10.6c-.5-.5-.8-1.1-1-1.7L3.6,17.6c-.4.4-.6.9-.6,1.4s.2,1,.6,1.4c.4.4.9.6,1.4.6s1-.2,1.4-.6l8.7-8.7c-.7-.2-1.3-.6-1.8-1.1h0Z"/>
    </g>
  </g>
</svg>