<?xml version="1.0" encoding="UTF-8"?>
<svg xmlns="http://www.w3.org/2000/svg" version="1.1" viewBox="0 0 24 24">
  <defs>
    <style>
      .cls-1 {
        fill: none;
        stroke: #000;
        stroke-linecap: round;
        stroke-linejoin: round;
      }
    </style>
  </defs>
  <!-- Generator: Adobe Illustrator 28.6.0, SVG Export Plug-In . SVG Version: 1.2.0 Build 709)  -->
  <g>
    <g id="Livello_1">
      <path class="cls-1" d="M12,15H4V4c0-.3.1-.5.3-.7.2-.2.4-.3.7-.3h14c.3,0,.5.1.7.3.2.2.3.4.3.7v5h-7c-.3,0-.5.1-.7.3-.2.2-.3.4-.3.7v5ZM12,15v2H4c-.3,0-.5-.1-.7-.3-.2-.2-.3-.4-.3-.7v-1h9Z"/>
      <path class="cls-1" d="M12,20v-10c0-.3.1-.5.3-.7.2-.2.4-.3.7-.3h7c.3,0,.5.1.7.3.2.2.3.4.3.7v10c0,.3-.1.5-.3.7s-.4.3-.7.3h-7c-.3,0-.5-.1-.7-.3s-.3-.4-.3-.7ZM18,9h-3l.5,2h2l.5-2Z"/>
    </g>
  </g>
</svg>