<?xml version="1.0" encoding="UTF-8"?>
<svg xmlns="http://www.w3.org/2000/svg" version="1.1" viewBox="0 0 24 24">
  <defs>
    <style>
      .cls-1 {
        fill: none;
        stroke: #000;
        stroke-linecap: round;
        stroke-linejoin: round;
      }
    </style>
  </defs>
  <!-- Generator: Adobe Illustrator 28.6.0, SVG Export Plug-In . SVG Version: 1.2.0 Build 709)  -->
  <g>
    <g id="Livello_1">
      <path class="cls-1" d="M11,8h9c.3,0,.5.1.7.3.2.2.3.4.3.7v11c0,.3-.1.5-.3.7s-.4.3-.7.3H4c-.3,0-.5-.1-.7-.3-.2-.2-.3-.4-.3-.7v-11c0-.3.1-.5.3-.7.2-.2.4-.3.7-.3h3"/>
      <path class="cls-1" d="M17,8v13h3c.3,0,.5-.1.7-.3s.3-.4.3-.7v-11c0-.3-.1-.5-.3-.7-.2-.2-.4-.3-.7-.3h-3ZM7,4v7l2,2,2-2v-7c0-.3-.1-.5-.3-.7-.2-.2-.4-.3-.7-.3h-2c-.3,0-.5.1-.7.3-.2.2-.3.4-.3.7Z"/>
    </g>
  </g>
</svg>