<?xml version="1.0" encoding="UTF-8"?>
<svg xmlns="http://www.w3.org/2000/svg" version="1.1" viewBox="0 0 24 24">
  <defs>
    <style>
      .cls-1 {
        fill: none;
        stroke: #000;
        stroke-linecap: round;
        stroke-linejoin: round;
      }
    </style>
  </defs>
  <!-- Generator: Adobe Illustrator 28.6.0, SVG Export Plug-In . SVG Version: 1.2.0 Build 709)  -->
  <g>
    <g id="Livello_1">
      <path class="cls-1" d="M3,15v2c0,.3.1.5.3.7.2.2.4.3.7.3h3v-4h-3c-.3,0-.5.1-.7.3-.2.2-.3.4-.3.7ZM11,12c0-.6.2-1.2.5-1.7.3-.5.8-.9,1.3-1.1.5-.2,1.2-.3,1.7-.2.6.1,1.1.4,1.5.8.4.4.7,1,.8,1.5.1.6,0,1.2-.2,1.7-.2.5-.6,1-1.1,1.3-.5.3-1.1.5-1.7.5s-1.6-.3-2.1-.9-.9-1.3-.9-2.1Z"/>
      <path class="cls-1" d="M21,12c0,1.9-.7,3.6-2.1,4.9-1.3,1.3-3.1,2.1-4.9,2.1h-6c-.3,0-.5-.1-.7-.3-.2-.2-.3-.4-.3-.7v-6c0-1.9.7-3.6,2.1-4.9,1.3-1.3,3.1-2.1,4.9-2.1s3.6.7,4.9,2.1c1.3,1.3,2.1,3.1,2.1,4.9Z"/>
    </g>
  </g>
</svg>