<?xml version="1.0" encoding="UTF-8"?>
<svg xmlns="http://www.w3.org/2000/svg" version="1.1" viewBox="0 0 24 24">
  <defs>
    <style>
      .cls-1 {
        fill: none;
        stroke: #000;
        stroke-linecap: round;
        stroke-linejoin: round;
      }
    </style>
  </defs>
  <!-- Generator: Adobe Illustrator 28.6.0, SVG Export Plug-In . SVG Version: 1.2.0 Build 709)  -->
  <g>
    <g id="Livello_1">
      <path class="cls-1" d="M21,12c0,1.8-.5,3.5-1.5,5-1,1.5-2.4,2.6-4,3.3-1.6.7-3.5.9-5.2.5-1.7-.3-3.3-1.2-4.6-2.5-1.3-1.3-2.1-2.9-2.5-4.6-.3-1.7-.2-3.6.5-5.2.7-1.6,1.8-3.1,3.3-4,1.5-1,3.2-1.5,5-1.5s4.7.9,6.4,2.6c1.7,1.7,2.6,4,2.6,6.4ZM12,8c-.8,0-1.6.2-2.2.7-.7.4-1.2,1.1-1.5,1.8-.3.7-.4,1.5-.2,2.3.2.8.5,1.5,1.1,2,.6.6,1.3.9,2,1.1.8.2,1.6,0,2.3-.2.7-.3,1.4-.8,1.8-1.5.4-.7.7-1.4.7-2.2s-.4-2.1-1.2-2.8c-.8-.8-1.8-1.2-2.8-1.2Z"/>
      <path class="cls-1" d="M14.4,3.6l-1.2,4.3"/>
      <path class="cls-1" d="M9.6,3.6l1.2,4.3"/>
      <path class="cls-1" d="M20.4,14.4l-4.3-1.2"/>
      <path class="cls-1" d="M20.4,9.6l-4.3,1.2"/>
      <path class="cls-1" d="M9.6,20.4l1.2-4.3"/>
      <path class="cls-1" d="M14.4,20.4l-1.2-4.3"/>
      <path class="cls-1" d="M3.6,9.6l4.3,1.2"/>
      <path class="cls-1" d="M3.6,14.4l4.3-1.2"/>
    </g>
  </g>
</svg>