<?xml version="1.0" encoding="UTF-8"?>
<svg id="uuid-9bdef3d3-26a6-4ec0-8412-ad79f222aeb4" data-name="Livello_2" xmlns="http://www.w3.org/2000/svg" viewBox="0 0 50 50">
  <defs>
    <style>
      .uuid-c1178fce-f1a1-4be8-89ff-65293afa0543 {
        fill: #fff;
      }
    </style>
  </defs>
  <g id="uuid-7997f40a-4071-4cea-ad10-da21d1a2cc65" data-name="Livello_1">
    <path class="uuid-c1178fce-f1a1-4be8-89ff-65293afa0543" d="M24.24,0c.5,0,1.01,0,1.51,0,.02,0,.05.02.07.02.19,0,.38.02.57.03.71.03,1.42.11,2.12.21.93.13,1.85.32,2.76.55,1.12.29,2.22.66,3.29,1.1,1.46.6,2.85,1.34,4.17,2.21,1.48.97,2.84,2.09,4.07,3.35.71.73,1.38,1.49,2,2.3,1.08,1.41,2,2.91,2.77,4.52.57,1.2,1.04,2.45,1.42,3.73.26.89.47,1.79.63,2.71.11.63.2,1.27.25,1.91.04.49.06.97.1,1.46,0,.06.01.12.02.18v1.49s-.02.05-.02.07c0,.18-.02.37-.03.55-.04.8-.12,1.6-.24,2.39-.13.84-.3,1.66-.51,2.48-.47,1.82-1.13,3.56-1.99,5.22-.65,1.26-1.41,2.46-2.26,3.59-.82,1.09-1.73,2.11-2.72,3.05-.79.76-1.63,1.46-2.52,2.1-1.1.8-2.27,1.51-3.49,2.13-1,.5-2.03.94-3.09,1.3-1.06.37-2.14.66-3.25.88-.49.1-.98.17-1.48.25-.38.06-.77.1-1.15.14-.47.04-.94.06-1.41.09-.03,0-.06.01-.09.02h-1.49s-.06-.02-.09-.02c-.18,0-.37-.02-.55-.03-.72-.03-1.44-.11-2.15-.21-.73-.1-1.45-.24-2.17-.41-.91-.21-1.81-.48-2.69-.79-1.49-.53-2.92-1.2-4.28-2-1.17-.69-2.27-1.46-3.31-2.33-.91-.75-1.76-1.57-2.55-2.44-.59-.65-1.15-1.34-1.67-2.05-.8-1.1-1.51-2.25-2.12-3.46-.69-1.36-1.24-2.77-1.67-4.24-.44-1.48-.73-2.99-.88-4.53-.05-.55-.07-1.09-.11-1.64,0-.03-.01-.05-.02-.08,0-.51,0-1.03,0-1.54,0-.03.02-.05.02-.08,0-.18.02-.37.03-.55.03-.72.11-1.43.21-2.14.1-.73.24-1.46.41-2.18.23-.97.51-1.92.85-2.85.43-1.19.95-2.33,1.56-3.44.53-.97,1.12-1.89,1.77-2.78.56-.76,1.16-1.49,1.8-2.18.5-.55,1.03-1.07,1.58-1.57.74-.67,1.52-1.3,2.34-1.88,1.2-.84,2.45-1.58,3.78-2.2.83-.39,1.68-.74,2.55-1.04,1.05-.36,2.12-.65,3.21-.87.69-.14,1.38-.25,2.08-.32.63-.07,1.27-.12,1.91-.14.05,0,.1-.01.15-.02ZM12.51,35.37c.08-.12,9.22-20.68,9.24-20.79h-9.24v20.79ZM37.48,35.36s.01,0,.02,0V14.59c-.13-.02-9.15-.02-9.26,0,3.08,6.92,6.16,13.84,9.24,20.76ZM25.02,22.32s-.02,0-.03,0c-1.35,2.97-2.69,5.94-4.05,8.92h4.27c.56,1.4,1.11,2.78,1.67,4.17,1.29,0,2.57,0,3.84,0,.03,0,.06,0,.08,0,0,0,0,0,.01,0,0,0,0,0,0-.02-1.93-4.35-3.87-8.71-5.81-13.07Z"/>
  </g>
</svg>