<?xml version="1.0" encoding="UTF-8"?>
<svg id="uuid-23de8caf-fcfc-4b46-b254-259a08ebac7d" data-name="Livello_2" xmlns="http://www.w3.org/2000/svg" viewBox="0 0 46.64 50">
  <defs>
    <style>
      .uuid-1fb2283b-b147-4fe3-9bfe-333c002b92f0 {
        fill: #fff;
      }
    </style>
  </defs>
  <g id="uuid-11c3e041-6067-43d6-b40c-7cecc994584e" data-name="Livello_1">
    <g>
      <path class="uuid-1fb2283b-b147-4fe3-9bfe-333c002b92f0" d="M43.11,39.01c-.68.42-19.51,10.88-19.78,10.99-.01,0-.02,0-.03,0-.01,0-.02,0-.03,0-.09-.04-.18-.09-.26-.13-6.48-3.6-12.96-7.21-19.44-10.82-.02-.09-.05-.19-.06-.28-.05-.47-.1-.93-.15-1.4-.05-.46-.11-.91-.16-1.36-.03-.24-.05-.48-.08-.72-.08-.74-.17-1.47-.25-2.21-.08-.67-.15-1.35-.22-2.02-.05-.46-.11-.91-.17-1.36-.05-.46-.1-.91-.15-1.37-.06-.5-.12-1-.17-1.5-.05-.47-.1-.93-.16-1.4-.05-.47-.11-.93-.16-1.4-.03-.26-.06-.52-.09-.78-.06-.52-.12-1.04-.18-1.56-.05-.47-.1-.93-.15-1.4-.06-.49-.12-.97-.17-1.46-.05-.47-.1-.93-.16-1.4-.05-.47-.11-.93-.17-1.4-.03-.24-.06-.48-.08-.72-.09-.75-.17-1.5-.26-2.24-.08-.67-.14-1.35-.22-2.02-.07-.65-.16-1.3-.23-1.95-.03-.28-.06-.56-.09-.86.1-.04.19-.08.28-.11,1.74-.62,3.48-1.23,5.22-1.85,2.98-1.06,5.97-2.12,8.95-3.17,2.7-.95,5.39-1.91,8.09-2.86.19-.07.37-.13.55-.2.16-.07.31-.06.47,0,.65.23,1.3.46,1.95.69,1.69.6,3.37,1.2,5.06,1.79,3.38,1.2,6.77,2.4,10.15,3.59,1.88.67,3.77,1.33,5.65,2,.09.03.18.07.28.11-.01.19-.02.36-.04.53-.08.65-.16,1.3-.23,1.95-.05.47-.1.93-.15,1.4-.06.49-.12.97-.17,1.46-.05.47-.1.93-.15,1.4-.05.47-.11.93-.17,1.4-.03.24-.05.48-.08.72-.09.74-.17,1.47-.25,2.21-.05.47-.1.93-.15,1.4-.05.47-.11.93-.17,1.4-.05.46-.1.91-.15,1.37-.06.5-.12,1-.18,1.5-.05.43-.1.87-.15,1.3-.06.51-.12,1.02-.18,1.53-.05.46-.1.91-.15,1.37-.06.5-.12,1-.17,1.5-.05.46-.1.91-.15,1.37-.06.49-.11.98-.17,1.46-.03.25-.06.5-.09.75-.06.52-.12,1.04-.18,1.56-.05.46-.1.91-.15,1.37-.07.62-.14,1.23-.21,1.86ZM37.84,38.06c-.02-.06-.04-.12-.06-.16-4.8-10.77-9.6-21.53-14.4-32.3,0,0-.01-.02-.02-.03,0,0-.02-.02-.02-.02,0,0-.02,0-.04-.02-.04.09-.09.17-.13.26-.85,1.9-1.7,3.81-2.54,5.71-.76,1.71-1.53,3.43-2.29,5.14-1.11,2.49-2.22,4.99-3.33,7.48-.86,1.92-1.72,3.85-2.58,5.77-.97,2.17-1.94,4.35-2.91,6.52-.21.48-.43.96-.64,1.44-.03.07-.1.15-.05.24.31.04,3.6.06,5.21.03.08,0,.15-.01.25-.02.96-2.38,1.91-4.78,2.86-7.14.14-.07.26-.04.38-.04,2,0,4,0,6,0,1.89,0,3.78,0,5.67,0,.1,0,.19.01.29.02.04.07.07.13.09.19.22.54.43,1.07.65,1.61.68,1.69,1.35,3.38,2.03,5.08.04.1.09.2.13.3.09,0,.17.02.24.02,1.71,0,3.43,0,5.14,0,.02,0,.03-.02.08-.05Z"/>
      <path class="uuid-1fb2283b-b147-4fe3-9bfe-333c002b92f0" d="M27.59,26.26s-.08.03-.12.03c-.09,0-.17,0-.26,0-2.6,0-5.2,0-7.8,0-.12,0-.24.02-.36-.04.02-.06.03-.11.05-.16,1.39-3.28,2.78-6.55,4.17-9.83.01-.03.04-.05.06-.07.07.01.08.07.1.12.32.75.64,1.51.96,2.26.72,1.71,1.45,3.42,2.17,5.13.31.73.62,1.47.93,2.2.05.11.11.21.11.35Z"/>
    </g>
  </g>
</svg>