<svg width="37" height="37" viewBox="0 0 37 37" fill="none" xmlns="http://www.w3.org/2000/svg">
<path d="M1.25928 12.754V33.826C1.25928 34.334 1.4611 34.8213 1.82035 35.1806C2.17961 35.5398 2.66686 35.7416 3.17492 35.7416H33.8251C34.3332 35.7416 34.8204 35.5398 35.1797 35.1806C35.5389 34.8213 35.7408 34.334 35.7408 33.826V12.754M1.25928 12.754H35.7408M1.25928 12.754V5.09142C1.25928 4.58336 1.4611 4.09611 1.82035 3.73686C2.17961 3.37761 2.66686 3.17578 3.17492 3.17578H33.8251C34.3332 3.17578 34.8204 3.37761 35.1797 3.73686C35.5389 4.09611 35.7408 4.58336 35.7408 5.09142V12.754" stroke="white" stroke-width="2.46296" stroke-linecap="round" stroke-linejoin="round"/>
<path d="M8.9212 24.2473L12.7525 28.0786L20.415 20.416" stroke="white" stroke-width="2.46296" stroke-linecap="round" stroke-linejoin="round"/>
<path d="M26.1632 1.25879V7.0057M10.8381 1.25879V7.0057M20.4163 28.0777L28.0788 20.4152" stroke="white" stroke-width="2.46296" stroke-linecap="round" stroke-linejoin="round"/>
</svg>
