<svg width="20" height="18" viewBox="0 0 20 18" fill="none" xmlns="http://www.w3.org/2000/svg">
<path d="M8 8.02441L6 10.0244L8 12.0244" stroke="#1B1B1B" stroke-linecap="round" stroke-linejoin="round"/>
<path d="M12 12.0244L14 10.0244L12 8.02441" stroke="#1B1B1B" stroke-linecap="round" stroke-linejoin="round"/>
<path d="M19 5.02441V16.0244C19 16.2896 18.8946 16.544 18.7071 16.7315C18.5196 16.9191 18.2652 17.0244 18 17.0244H2C1.73478 17.0244 1.48043 16.9191 1.29289 16.7315C1.10536 16.544 1 16.2896 1 16.0244V2.02441C1 1.7592 1.10536 1.50484 1.29289 1.31731C1.48043 1.12977 1.73478 1.02441 2 1.02441H7.59C7.85234 1.02552 8.10374 1.12967 8.29 1.31441L10.71 3.73441C10.8963 3.91916 11.1477 4.02331 11.41 4.02441H18C18.2652 4.02441 18.5196 4.12977 18.7071 4.31731C18.8946 4.50484 19 4.7592 19 5.02441Z" stroke="#1B1B1B" stroke-linecap="round" stroke-linejoin="round"/>
</svg>
