<svg width="20" height="20" viewBox="0 0 20 20" fill="none" xmlns="http://www.w3.org/2000/svg">
<path d="M11.2816 8.6084C11.9081 9.33422 12.7969 9.78186 13.753 9.8531C14.7091 9.92434 15.6545 9.61336 16.3816 8.9884C17.9516 7.3984 17.2816 4.9884 19.0116 2.4384C18.4729 1.9537 17.8439 1.58002 17.1606 1.33876C16.4773 1.0975 15.7531 0.993392 15.0295 1.03241C14.3059 1.07142 13.5971 1.25278 12.9436 1.56612C12.2902 1.87945 11.705 2.31859 11.2216 2.8584C10.5007 3.64582 10.1058 4.67771 10.117 5.74524C10.1281 6.81277 10.5444 7.8362 11.2816 8.6084ZM11.2816 8.6084C10.8087 8.12844 10.4647 7.53681 10.2816 6.8884L1.58159 15.5984C1.20908 15.9731 1 16.48 1 17.0084C1 17.5368 1.20908 18.0437 1.58159 18.4184C1.95631 18.7909 2.46321 19 2.99159 19C3.51996 19 4.02686 18.7909 4.40159 18.4184L13.1116 9.7184C12.4177 9.49854 11.789 9.11033 11.2816 8.5884V8.6084Z" stroke="#1B1B1B" stroke-linecap="round" stroke-linejoin="round"/>
</svg>
