<svg width="25" height="25" viewBox="0 0 25 25" fill="none" xmlns="http://www.w3.org/2000/svg">
<path d="M7.0619 5.25816C6.34697 6.08231 0.0615358 13.4104 0.0615358 17.1538C0.0615358 21.1852 3.54682 24.462 7.82648 24.462C12.1061 24.462 15.5914 21.1852 15.5914 17.1538C15.5914 13.4054 9.30599 6.07735 8.59106 5.25816C8.20877 4.81629 7.44916 4.81629 7.0619 5.25816ZM7.82648 23.4091C4.6639 23.4091 1.10949 20.8175 1.10949 17.1538C1.10949 13.721 5.87035 8.8764 7.82648 6.51463C10.2699 9.36524 14.5435 13.7182 14.5435 17.1538C14.5435 20.0682 10.9891 23.4091 7.82648 23.4091Z" fill="white"/>
<path d="M20.0051 0.467142C19.6179 0.0252754 18.8632 0.0252754 18.476 0.467142C17.7461 1.30619 14.092 5.6206 14.092 8.00867C14.092 10.6897 16.4007 12.8742 19.2356 12.8742C22.0754 12.8742 24.3791 10.6897 24.3791 8.00867C24.389 5.6206 20.7399 1.30619 20.0051 0.467142ZM19.2455 11.8213C17.5277 11.8213 15.1583 10.8318 15.1583 8.00867C15.1583 5.94336 17.6025 3.01031 19.2455 1.73851C20.5355 2.52147 23.3411 5.45452 23.3411 8.00867C23.3411 10.3429 20.9633 11.8213 19.2455 11.8213Z" fill="white"/>
</svg>
