<?xml version="1.0" encoding="UTF-8"?>
<svg xmlns="http://www.w3.org/2000/svg" version="1.1" viewBox="0 0 36.2 50">
  <defs>
    <style>
      .cls-1 {
        fill: #fff;
      }
    </style>
  </defs>
  <!-- Generator: Adobe Illustrator 28.7.1, SVG Export Plug-In . SVG Version: 1.2.0 Build 142)  -->
  <g>
    <g id="Livello_1">
      <g id="uuid-b666da75-d747-48b7-b364-2a2fc2ba8b66">
        <g id="Rh84eT">
          <g>
            <path class="cls-1" d="M22.9,0c.9,1.3,1.3,2.7,1.1,4.3-.2,2.2-1.2,3.9-2.6,5.5-.9,1.1-2,2-3,3s-1.9,1.7-2.8,2.6c-.6.6-1.1,1.3-1.5,2.1-.5,1-.7,2.1-.5,3.2.2,2,1.2,3.8,2.5,5.3.4.4.7.8,1.1,1.2l.3.3h-.2c-1.6-.9-3-2-4.2-3.3-.8-.9-1.5-1.9-1.8-3.1-.6-2-.4-3.8.8-5.5.7-.9,1.4-1.8,2.3-2.5,1.3-1.1,2.6-2.2,3.8-3.3,1.1-1,2.2-2,3.1-3.2.7-1,1.3-2,1.5-3.2.2-1,.2-1.9,0-2.9V0h.1Z"/>
            <path class="cls-1" d="M32.3,42.4c.7.5.8,1.1.3,1.7-.2.3-.6.6-.9.8-.9.6-2,.9-3.1,1.2-1.9.5-3.9.8-5.9,1-2.1.2-4.3.3-6.4.3s-4.1,0-6.1-.3c-1.8-.2-3.6-.4-5.4-.8-.9-.2-1.9-.5-2.8-.8-.4,0-.8-.4-1.2-.6-.2,0-.4-.3-.6-.5-.4-.4-.4-.9,0-1.4.3-.4.7-.6,1.1-.9,1-.5,2.1-.9,3.2-1.2.7-.2,1.5-.3,2.2-.4.2,0,.3,0,.5,0-.5.2-1,.3-1.5.5-.4.2-.8.4-1.1.6-.2.2-.5.3-.7.6-.4.5-.4,1,.2,1.4.5.4,1.1.6,1.7.8,1.4.4,2.7.7,4.1.9,2.9.5,5.9.6,8.9.5,2.7,0,5.3-.3,7.9-.8,1.1-.2,2.2-.5,3.2-.9h0c.9-.4,1.8-.8,2.3-1.8h0Z"/>
            <path class="cls-1" d="M27.4,10.4c-.2.1-.4.2-.5.3-1.6.9-3.2,2-4.4,3.5s-.8,1-1.1,1.6c-.6,1.3-.7,2.6,0,3.9.3.7.8,1.4,1.2,2.1.2.4.4.8.6,1.2.5,1,.4,1.9,0,2.9-.4.9-1.1,1.6-1.9,2.3-.3.3-.7.5-1,.8,0,0-.2,0-.3-.1.1-.2.2-.3.3-.5.8-1.1.9-2.3.3-3.6-.2-.5-.4-.9-.7-1.3-.4-.6-.8-1.2-1.1-1.8-.6-1-.9-2-.7-3.2.2-1.2.7-2.3,1.4-3.3.9-1.1,2-1.9,3.1-2.7,1.4-.9,2.9-1.5,4.4-2.1h.4Z"/>
            <path class="cls-1" d="M12.5,27.5c-.3,0-.6.1-.9.2-.8.2-1.6.4-2.4.6-.3,0-.6.2-.9.4-.2.1-.5.2-.4.5,0,.3.3.4.5.4.6.2,1.1.4,1.7.5,1.5.3,3,.5,4.4.5s3,.1,4.4,0c1.5,0,2.9-.2,4.4-.3,1.3-.1,2.7-.4,4-.7h.3c.5.2.9.5,1.4.8-.6.3-1.2.5-1.9.6-1.8.5-3.6.7-5.5.9-2.4.2-4.8.3-7.3.2-2.6-.1-5.2-.4-7.7-1.2-.5-.2-1.1-.4-1.6-.7-.7-.4-.7-.9,0-1.4.6-.4,1.2-.6,1.9-.8,1.7-.4,3.4-.7,5.1-.8h.3l.2.3Z"/>
            <path class="cls-1" d="M10.5,33.4c-.3.2-.5.4-.5.8s.4.5.7.6c.6.2,1.1.4,1.7.5,2.1.4,4.2.5,6.3.3,1.4,0,2.9-.2,4.3-.4.7,0,1.5-.3,2.2-.4.6.3,1.2.7,1.8,1.1-.8.4-1.6.6-2.4.8-1.7.4-3.4.6-5.1.7-1.1,0-2.1,0-3.2,0-2.5,0-4.9-.3-7.3-1-.5-.2-1.1-.4-1.6-.7-.2,0-.4-.2-.5-.4-.2-.3-.2-.6,0-.9,0,0,.2-.2.4-.3,1-.5,2-.7,3.1-.8h.1Z"/>
            <path class="cls-1" d="M11.9,39c-.2.6-.2.7.3.9.6.3,1.2.4,1.8.5,1.9.3,3.9.3,5.8,0,.9,0,1.8-.3,2.8-.4.7.4,1.4.8,2.2,1.3-.5.2-1,.4-1.4.6-1.2.4-2.5.6-3.7.7-1.3,0-2.7,0-4,0-1.7,0-3.3-.3-4.9-.9-.4,0-.7-.3-1-.5-.2,0-.4-.3-.5-.4-.3-.3-.3-.7,0-1,0,0,.2-.2.3-.2.7-.5,1.5-.7,2.4-.8v.2Z"/>
            <path class="cls-1" d="M6.3,48.5h.4c4,.7,8.1.8,12.1.6,3.1,0,6.2-.4,9.2-1.2,1.3-.3,2.6-.7,3.9-1.3,1-.5,2-1,2.9-1.9v.3c0,.6-.5,1-.9,1.4s-1.1.8-1.8,1.1c-1.3.6-2.6,1-4,1.3-2,.5-4.1.7-6.1.9-1.8,0-3.6.2-5.5.2-3.3,0-6.5-.4-9.7-1.2-.2,0-.5,0-.7-.2h0c0,0,.2,0,.2,0Z"/>
            <path class="cls-1" d="M28.5,36.6c.1,0,.3-.2.4-.3.9-.5,1.8-1.1,2.6-1.8.8-.7,1.5-1.5,2-2.5.3-.7.5-1.5.4-2.3-.2-1.3-1.4-2.3-2.7-2.3h-.8l.3-.3c1.4-.4,2.7-.3,4,.4,1.5.9,2,2.6,1.3,4.2-.4.9-1,1.6-1.7,2.2-1.6,1.3-3.4,2.1-5.3,2.7h-.4c0,0-.1,0-.1,0Z"/>
          </g>
        </g>
      </g>
    </g>
  </g>
</svg>