<svg width="18" height="18" viewBox="0 0 18 18" fill="none" xmlns="http://www.w3.org/2000/svg">
<path d="M8.99967 11.125C9.58995 11.125 10.0917 10.9184 10.5049 10.5052C10.9181 10.092 11.1247 9.59029 11.1247 9.00001C11.1247 8.40973 10.9181 7.908 10.5049 7.4948C10.0917 7.08161 9.58995 6.87501 8.99967 6.87501C8.4094 6.87501 7.90766 7.08161 7.49447 7.4948C7.08127 7.908 6.87467 8.40973 6.87467 9.00001C6.87467 9.59029 7.08127 10.092 7.49447 10.5052C7.90766 10.9184 8.4094 11.125 8.99967 11.125ZM8.99967 12.5417C8.01981 12.5417 7.18457 12.1964 6.49395 11.5057C5.80332 10.8151 5.45801 9.97987 5.45801 9.00001C5.45801 8.02015 5.80332 7.18491 6.49395 6.49428C7.18457 5.80366 8.01981 5.45834 8.99967 5.45834C9.97954 5.45834 10.8148 5.80366 11.5054 6.49428C12.196 7.18491 12.5413 8.02015 12.5413 9.00001C12.5413 9.97987 12.196 10.8151 11.5054 11.5057C10.8148 12.1964 9.97954 12.5417 8.99967 12.5417ZM4.04134 9.70834H1.20801V8.29168H4.04134V9.70834ZM16.7913 9.70834H13.958V8.29168H16.7913V9.70834ZM8.29134 4.04168V1.20834H9.70801V4.04168H8.29134ZM8.29134 16.7917V13.9583H9.70801V16.7917H8.29134ZM5.03301 5.98959L3.24447 4.27189L4.25384 3.22709L5.95384 4.99793L5.03301 5.98959ZM13.7455 14.7729L12.0278 12.9844L12.9663 12.0104L14.7549 13.7281L13.7455 14.7729ZM12.0101 5.03334L13.7278 3.2448L14.7726 4.25418L13.0018 5.95418L12.0101 5.03334ZM3.22676 13.7458L5.0153 12.0281L5.98926 12.9667L4.27155 14.7552L3.22676 13.7458Z" fill="white"/>
</svg>
