<svg width="17" height="14" viewBox="0 0 17 14" fill="none" xmlns="http://www.w3.org/2000/svg">
<path d="M15.1667 12.8337H1.83333C1.61232 12.8337 1.40036 12.7459 1.24408 12.5896C1.0878 12.4333 1 12.2213 1 12.0003V2.00033C1 1.77931 1.0878 1.56735 1.24408 1.41107C1.40036 1.25479 1.61232 1.16699 1.83333 1.16699H15.1667C15.3877 1.16699 15.5996 1.25479 15.7559 1.41107C15.9122 1.56735 16 1.77931 16 2.00033V12.0003C16 12.2213 15.9122 12.4333 15.7559 12.5896C15.5996 12.7459 15.3877 12.8337 15.1667 12.8337Z" fill="#1B1B1B"/>
<path d="M15.1667 12.8337H1.83333C1.61232 12.8337 1.40036 12.7459 1.24408 12.5896C1.0878 12.4333 1 12.2213 1 12.0003V2.00033C1 1.77931 1.0878 1.56735 1.24408 1.41107C1.40036 1.25479 1.61232 1.16699 1.83333 1.16699H15.1667C15.3877 1.16699 15.5996 1.25479 15.7559 1.41107C15.9122 1.56735 16 1.77931 16 2.00033V12.0003C16 12.2213 15.9122 12.4333 15.7559 12.5896C15.5996 12.7459 15.3877 12.8337 15.1667 12.8337Z" fill="#1B1B1B"/>
<path d="M15.1667 12.8337H1.83333C1.61232 12.8337 1.40036 12.7459 1.24408 12.5896C1.0878 12.4333 1 12.2213 1 12.0003V2.00033C1 1.77931 1.0878 1.56735 1.24408 1.41107C1.40036 1.25479 1.61232 1.16699 1.83333 1.16699H15.1667C15.3877 1.16699 15.5996 1.25479 15.7559 1.41107C15.9122 1.56735 16 1.77931 16 2.00033V12.0003C16 12.2213 15.9122 12.4333 15.7559 12.5896C15.5996 12.7459 15.3877 12.8337 15.1667 12.8337Z" stroke="white" stroke-linecap="round" stroke-linejoin="round"/>
<path d="M15.1667 12.8337H1.83333C1.61232 12.8337 1.40036 12.7459 1.24408 12.5896C1.0878 12.4333 1 12.2213 1 12.0003V2.00033C1 1.77931 1.0878 1.56735 1.24408 1.41107C1.40036 1.25479 1.61232 1.16699 1.83333 1.16699H15.1667C15.3877 1.16699 15.5996 1.25479 15.7559 1.41107C15.9122 1.56735 16 1.77931 16 2.00033V12.0003C16 12.2213 15.9122 12.4333 15.7559 12.5896C15.5996 12.7459 15.3877 12.8337 15.1667 12.8337Z" stroke="white" stroke-linecap="round" stroke-linejoin="round"/>
<path d="M1.56665 1.54199L7.98332 6.59199C8.13044 6.70825 8.31247 6.77149 8.49998 6.77149C8.6875 6.77149 8.86953 6.70825 9.01665 6.59199L15.4333 1.54199" fill="#1B1B1B"/>
<path d="M1.56665 1.54199L7.98332 6.59199C8.13044 6.70825 8.31247 6.77149 8.49998 6.77149C8.6875 6.77149 8.86953 6.70825 9.01665 6.59199L15.4333 1.54199" fill="#1B1B1B"/>
<path d="M1.56665 1.54199L7.98332 6.59199C8.13044 6.70825 8.31247 6.77149 8.49998 6.77149C8.6875 6.77149 8.86953 6.70825 9.01665 6.59199L15.4333 1.54199" stroke="white" stroke-linecap="round" stroke-linejoin="round"/>
</svg>
