<?xml version="1.0" encoding="UTF-8"?>
<svg id="uuid-884f5e79-da5b-4fc0-bc2a-7bacb2d223f8" data-name="Livello_2" xmlns="http://www.w3.org/2000/svg" viewBox="0 0 47.75 50">
  <defs>
    <style>
      .uuid-cd4a45dd-a5ba-40ac-a7d0-d7423208fcd0 {
        fill: #fff;
      }
    </style>
  </defs>
  <g id="uuid-f90ea3a2-4fd8-4614-9589-b15b3cc8185d" data-name="Livello_1">
    <g>
      <path class="uuid-cd4a45dd-a5ba-40ac-a7d0-d7423208fcd0" d="M.01,7.95c0-.11,0-.19,0-.27,0-.06.03-.12.04-.17.02-.1.04-.21.06-.31.07-.26.17-.51.3-.76.27-.5.63-.92,1.04-1.3.44-.41.92-.76,1.43-1.08.37-.23.75-.45,1.15-.64.14-.07.28-.14.42-.21.19-.09.38-.18.58-.26.2-.09.41-.18.62-.26.26-.1.53-.2.8-.3.34-.12.67-.24,1.01-.35.21-.07.43-.12.64-.19.15-.04.29-.09.44-.13.08-.02.16-.04.24-.06.12-.03.25-.07.37-.11.16-.04.32-.08.47-.11.13-.03.25-.06.38-.09.12-.03.24-.05.36-.08.08-.02.17-.03.25-.05.21-.05.42-.1.63-.14.23-.05.45-.08.68-.13.15-.03.29-.07.44-.09.15-.03.31-.05.46-.07.16-.03.33-.06.49-.09.04,0,.08,0,.12,0,.06,0,.11-.02.17-.03.01,0,.02,0,.03-.01.16-.02.31-.04.47-.06.06,0,.12-.02.18-.02.26-.03.51-.08.77-.1.2-.01.39-.05.59-.08,0,0,0,0,.01,0,.2,0,.39-.03.58-.06.13-.02.27-.03.4-.04.12-.01.23-.02.35-.03.22-.02.44-.02.66-.05.24-.03.49-.02.73-.05.3-.04.61-.04.91-.05.11,0,.23-.03.34-.04.03,0,.07,0,.1,0,.24,0,.49,0,.73,0,.23,0,.45-.03.68-.04.03,0,.07,0,.1,0,1,0,2.01,0,3.01,0,.19,0,.38.03.57.04.03,0,.07,0,.1,0,.27,0,.54,0,.81,0,.09,0,.19,0,.28.02.21.04.41.01.62.03.13,0,.26.02.39.04.04,0,.07,0,.11,0,.26,0,.52.03.78.07.02,0,.05,0,.07,0,.18.02.36.03.55.05.03,0,.07,0,.1,0,.09,0,.18.02.27.02.1,0,.2.02.3.03.08,0,.17.02.25.03.02,0,.04.01.06.02.21.02.41.04.62.06.05,0,.1.01.15.02.1.02.21.03.31.05.22.03.43.05.65.09.17.03.35.04.52.06.16.02.31.05.47.07.17.03.34.06.5.09.16.03.33.04.49.09.03,0,.06,0,.1.01.05,0,.1.02.14.03.02,0,.04.02.06.02.24.02.48.09.72.13.16.02.32.06.48.1.19.04.38.09.57.14.13.03.25.05.38.08.06.01.12.03.19.05.11.03.21.05.32.08.11.03.21.06.32.09.1.03.19.05.29.08.08.02.16.04.23.06.22.06.44.11.65.18.24.07.48.16.71.24.23.08.47.15.7.23.21.08.42.16.63.25.21.08.42.16.62.24.16.07.32.14.48.21.25.12.51.23.75.36.23.12.46.25.69.38.26.15.51.3.75.47.19.14.38.27.57.42.24.19.47.38.68.6.17.18.32.37.47.56.18.22.33.47.45.73.08.18.15.36.2.55.03.1.03.2.06.3.06.17.07.35.06.53,0,.18-.02.35-.06.53-.07.31-.18.6-.33.88-.17.31-.37.61-.62.87-.06.06-.1.12-.16.18-.24.24-.48.46-.75.66-.25.2-.51.39-.78.56-.28.18-.58.34-.87.51-.17.1-.34.2-.52.29-.29.14-.59.27-.88.4-.24.11-.48.21-.72.31-.19.08-.39.15-.59.22-.34.12-.67.23-1.01.34-.28.09-.57.18-.86.26-.25.07-.51.14-.76.21-.17.05-.34.1-.51.15-.08.02-.16.04-.25.06-.09.02-.19.04-.28.06-.11.03-.23.06-.34.09-.13.03-.25.05-.38.08-.12.03-.24.06-.35.08-.09.02-.17.04-.26.06-.15.03-.3.05-.46.08-.13.03-.26.06-.39.08-.03,0-.06,0-.1.01-.05,0-.1.02-.15.03-.02,0-.05.01-.07.02-.17.02-.34.05-.51.07-.16.03-.31.06-.47.09-.16.03-.33.04-.49.06-.04,0-.07.01-.11.02-.08.01-.17.02-.25.03-.02,0-.04,0-.06,0-.29.06-.58.09-.87.12-.21.02-.41.06-.61.09-.04,0-.08,0-.12,0-.13,0-.25.01-.38.04-.04,0-.09,0-.13.01-.14.01-.27.03-.41.04-.01,0-.02,0-.04,0-.2.02-.4.03-.61.05-.25.02-.49.03-.74.06-.12.02-.25,0-.38.01-.14,0-.28.02-.41.02-.22.01-.45.02-.67.03-.18,0-.36.03-.55.04-.06,0-.12,0-.18,0-.18,0-.37,0-.55,0-.85.04-1.7.02-2.54.02-.2,0-.41,0-.61,0-.31,0-.62-.01-.93-.02-.16,0-.31-.03-.47-.04-.18,0-.37,0-.55-.01-.16,0-.31-.03-.47-.04-.15,0-.29,0-.44-.01-.12,0-.23-.02-.35-.04-.03,0-.06,0-.09,0-.27-.02-.53-.04-.8-.07-.04,0-.08,0-.12,0-.1,0-.19-.02-.29-.03-.1,0-.19-.02-.29-.02-.07,0-.15-.02-.22-.03-.26-.03-.52-.05-.78-.08-.26-.03-.52-.07-.78-.11-.28-.04-.56-.07-.85-.11-.16-.02-.32-.06-.48-.09-.01,0-.02,0-.04,0-.23-.01-.46-.07-.69-.11-.23-.04-.46-.07-.7-.12-.22-.04-.44-.09-.65-.14-.14-.03-.27-.05-.41-.08-.12-.03-.24-.06-.35-.08-.08-.02-.17-.04-.25-.06-.19-.04-.39-.08-.58-.13-.17-.04-.33-.09-.49-.13-.16-.04-.33-.09-.49-.13-.11-.03-.21-.06-.31-.09-.13-.04-.27-.07-.4-.11-.17-.05-.33-.1-.5-.16-.22-.07-.44-.14-.66-.21-.23-.08-.46-.16-.69-.24-.34-.13-.69-.27-1.03-.41-.29-.12-.57-.26-.85-.39-.44-.2-.86-.43-1.27-.69-.3-.19-.6-.39-.89-.6-.17-.12-.33-.26-.49-.4-.17-.15-.34-.31-.5-.48-.35-.38-.65-.79-.85-1.27-.08-.19-.15-.39-.19-.59-.03-.2-.12-.39-.08-.57Z"/>
      <path class="uuid-cd4a45dd-a5ba-40ac-a7d0-d7423208fcd0" d="M45.47,12.57s0,.08,0,.12c0,2.23,0,4.45,0,6.68,0,.18-.02.36-.06.54-.12.56-.39,1.05-.74,1.49-.15.19-.31.37-.47.54-.26.26-.54.5-.84.71-.19.13-.37.28-.57.4-.43.28-.88.53-1.34.76-.25.12-.5.25-.76.36-.24.11-.48.2-.72.3-.19.08-.37.15-.56.23-.22.08-.45.16-.67.24-.2.07-.4.14-.6.2-.2.06-.4.12-.59.18-.15.04-.29.09-.44.13-.09.03-.17.04-.26.07-.12.03-.23.07-.35.1-.09.03-.19.04-.28.07-.09.02-.18.04-.27.07-.15.04-.29.07-.44.11-.18.05-.37.1-.55.14-.22.05-.45.09-.67.13-.13.03-.25.06-.38.09-.15.03-.3.05-.46.08-.2.03-.39.07-.59.1-.14.03-.28.06-.42.08-.16.03-.31.04-.47.06-.16.02-.32.05-.48.08-.1.01-.19.03-.29.04-.04,0-.09.01-.13.02-.06,0-.13.02-.19.03-.07,0-.14.02-.2.03-.02,0-.04.01-.06.01-.18.02-.35.04-.53.06-.07,0-.15.01-.22.02-.15.02-.29.03-.44.05-.26.03-.52.06-.79.09-.06,0-.13,0-.2,0-.13.01-.27.03-.4.04-.09,0-.19,0-.28.01-.08,0-.16.02-.24.02-.12,0-.24.02-.36.03-.15.01-.3.03-.45.04-.15,0-.3,0-.45.01-.17,0-.34.03-.51.04-.08,0-.15,0-.23,0-.31,0-.62,0-.93.03-.43.02-.85.02-1.28.02-.31,0-.63.02-.94.02-.33,0-.67,0-1-.02-.3-.02-.6-.01-.9-.02-.23,0-.47,0-.7-.03-.32-.03-.65-.03-.97-.05-.34-.02-.68-.06-1.02-.09-.28-.02-.56-.04-.84-.06-.08,0-.17-.02-.25-.03-.02,0-.03,0-.05,0-.28-.03-.56-.05-.84-.08-.21-.02-.43-.05-.64-.08-.19-.02-.38-.04-.57-.07-.18-.02-.35-.05-.53-.08-.2-.03-.4-.06-.6-.09-.13-.02-.27-.04-.4-.06-.15-.03-.29-.06-.44-.08-.13-.02-.26-.04-.4-.07-.16-.03-.31-.07-.47-.1-.12-.02-.25-.04-.37-.06-.09-.02-.18-.03-.27-.05-.21-.05-.41-.1-.62-.14-.11-.03-.23-.05-.34-.07-.17-.04-.35-.08-.52-.13-.19-.05-.37-.09-.55-.14-.16-.04-.31-.09-.47-.13-.16-.05-.33-.09-.49-.14-.15-.04-.29-.09-.44-.14-.2-.06-.4-.12-.6-.19-.17-.05-.33-.12-.49-.18-.28-.1-.56-.2-.83-.31-.23-.09-.46-.19-.69-.29-.11-.05-.22-.1-.33-.15-.26-.12-.52-.25-.78-.38-.61-.31-1.19-.66-1.74-1.06-.44-.32-.85-.68-1.21-1.1-.23-.27-.43-.55-.59-.86-.09-.18-.17-.36-.23-.55-.05-.16-.07-.33-.12-.48-.04-.15-.04-.29-.04-.43,0-2.2,0-4.4,0-6.61,0-.05,0-.11,0-.18.08.07.15.13.21.18.23.18.46.37.7.55.17.13.34.25.52.37.35.21.69.42,1.05.62.29.16.59.31.89.46.24.12.49.23.73.33.25.11.5.22.75.31.31.12.62.23.93.34.23.08.47.17.7.25.25.08.5.16.74.23.22.07.44.13.66.2.1.03.2.05.31.08.07.02.13.03.2.05.22.06.44.12.66.18.2.05.41.09.62.14.18.04.36.09.54.13.14.03.29.06.43.09.12.02.24.05.36.08.09.02.19.04.29.06.16.03.31.05.47.08.13.02.26.05.39.08.14.03.28.05.42.07.2.03.41.07.61.1.17.03.34.05.51.07.18.03.36.06.54.09.03,0,.06,0,.08,0,.04,0,.07,0,.11,0,.19.02.37.05.56.07.07,0,.14.02.2.03.21.02.41.04.62.07.25.03.49.06.74.09.04,0,.09,0,.13,0,.15,0,.31.01.46.04.07.01.15,0,.22.01.14.01.27.03.41.04.02,0,.03,0,.05,0,.2,0,.39.02.59.03.13,0,.26.02.39.04.01,0,.02,0,.04,0,.26.01.52.02.78.03.29,0,.58.01.87.02.16,0,.32.01.49.02.89.05,1.78.01,2.66.03.1,0,.2,0,.29,0,.29,0,.58,0,.87-.03.32-.03.64,0,.95-.02.16,0,.32-.03.48-.04.03,0,.07,0,.1,0,.24,0,.48-.01.72-.04.07,0,.15,0,.22,0,.26-.02.51-.04.77-.06.24-.02.48-.04.72-.06.13-.01.25-.02.38-.03.07,0,.14-.01.21-.02.08,0,.17-.02.25-.03.14-.01.28-.03.42-.05.25-.03.49-.06.74-.09.17-.02.35-.03.52-.06.18-.02.36-.06.54-.09.14-.02.27-.04.41-.06.21-.03.42-.07.63-.1.17-.03.34-.05.51-.08.1-.02.19-.03.29-.05.24-.05.48-.1.72-.14.13-.03.26-.05.39-.07.12-.03.24-.06.37-.09.2-.04.41-.09.61-.13.11-.03.23-.06.34-.09.07-.02.15-.03.22-.05.26-.06.51-.12.77-.19.14-.04.29-.09.43-.13.07-.02.14-.04.21-.06.19-.06.37-.12.56-.17.24-.06.47-.15.71-.22.31-.09.62-.2.92-.31.21-.08.43-.15.64-.23.25-.1.49-.2.74-.31.16-.07.31-.13.47-.2.26-.12.52-.24.78-.37.23-.11.46-.23.69-.36.22-.12.43-.25.65-.39.23-.15.46-.29.68-.45.27-.2.53-.41.79-.61.05-.04.1-.08.15-.12,0,0,.02,0,.03,0Z"/>
      <path class="uuid-cd4a45dd-a5ba-40ac-a7d0-d7423208fcd0" d="M0,23.86c.12.1.22.2.33.28.22.17.44.34.66.5.21.15.42.3.63.43.3.18.6.36.9.53.4.22.81.42,1.22.61.27.12.53.24.8.35.33.14.67.26,1.01.38.35.13.7.25,1.05.36.2.07.4.12.59.18.15.04.29.09.44.14.08.03.16.05.25.07.25.07.49.14.74.2.18.05.36.08.54.13.09.02.19.05.28.08.09.02.19.05.28.07.19.04.39.08.58.12.3.06.6.13.9.19.23.05.46.08.7.12.14.02.28.05.42.07.19.03.38.06.58.09.15.02.3.05.44.07.22.03.44.07.66.1.26.04.52.07.79.1.21.03.42.05.63.08.12.01.23.03.35.04.17.02.35.03.52.05.19.02.39.03.58.05.24.02.48.05.72.07.12.01.24.02.35.02.19.01.39.03.58.05.04,0,.07,0,.11,0,.24,0,.49.02.73.04.23.02.46,0,.68.01.19,0,.37.03.56.04.02,0,.05,0,.07,0,.22,0,.45,0,.67,0,.45,0,.9.02,1.34.02.65,0,1.3-.01,1.96-.02.18,0,.36-.03.55-.04.15,0,.3,0,.45,0,.24,0,.49-.02.73-.05.11-.01.22,0,.33,0,.16,0,.32-.02.47-.03.09,0,.18-.01.27-.02.15-.01.31-.03.46-.04.17-.01.34-.01.51-.03.27-.02.53-.06.8-.09.04,0,.07,0,.11,0,.12-.01.24-.03.36-.04,0,0,.02,0,.02,0,.2-.02.4-.04.61-.06.06,0,.11-.01.17-.02.24-.03.48-.06.72-.09.05,0,.1,0,.16,0,0,.03-.01.06-.03.08-.14.19-.23.41-.29.63-.07.22-.12.45-.12.68,0,.15,0,.31,0,.46,0,.08.02.15.03.23.02.11.04.21.06.32.06.28.16.54.29.8.16.32.37.62.59.91.09.11.17.21.26.32.06.09.11.18.14.28.13.37.25.74.39,1.1.12.32.26.63.44.92.03.04.04.08.03.14-.05.21-.1.42-.14.63-.03.17-.04.34-.07.51,0,.05-.02.1-.02.14-.01.17-.02.35-.03.52,0,.04,0,.09,0,.14-.18.03-.34.06-.51.09-.17.03-.34.06-.5.09-.16.02-.32.04-.48.06-.02,0-.03,0-.05,0-.17.03-.34.06-.5.08-.06,0-.12.01-.18.02-.19.02-.38.04-.57.06-.18.02-.35.05-.53.07-.16.02-.32.03-.49.05-.21.02-.41.05-.62.07-.15.01-.31.02-.46.03-.28.02-.56.05-.84.07-.22.02-.43.02-.65.03-.13,0-.25.02-.38.03-.09,0-.19.02-.28.02-.31.01-.63,0-.94.03-.38.03-.76,0-1.14.02-.61.03-1.21.01-1.82.02-.47,0-.94-.01-1.42-.02-.21,0-.43-.02-.64-.03-.18,0-.37-.01-.55-.02-.12,0-.24-.03-.36-.04-.15,0-.3,0-.45-.01-.13,0-.26-.03-.39-.04-.06,0-.13,0-.2,0-.27-.02-.53-.04-.8-.06-.23-.02-.45-.04-.68-.06-.06,0-.13-.02-.19-.03-.26-.03-.52-.05-.78-.08-.21-.02-.42-.06-.63-.09-.19-.03-.39-.05-.58-.08-.15-.02-.31-.03-.46-.06-.24-.04-.49-.08-.73-.12-.26-.04-.51-.09-.77-.14-.31-.06-.62-.11-.92-.17-.23-.04-.45-.1-.68-.15-.17-.04-.35-.07-.52-.11-.21-.05-.42-.1-.63-.16-.15-.04-.29-.07-.44-.11-.2-.05-.4-.11-.6-.16-.26-.07-.52-.14-.77-.22-.35-.11-.7-.22-1.04-.33-.34-.12-.68-.24-1.01-.37-.44-.18-.87-.37-1.3-.56-.61-.27-1.18-.6-1.74-.95-.35-.22-.68-.46-.99-.73-.18-.16-.36-.31-.52-.48-.34-.35-.64-.74-.86-1.18-.16-.31-.25-.64-.32-.98-.04-.2-.04-.4-.04-.6,0-2.16,0-4.31,0-6.47,0-.05,0-.09,0-.16Z"/>
      <path class="uuid-cd4a45dd-a5ba-40ac-a7d0-d7423208fcd0" d="M6.53,47.62c-.26-.1-.51-.19-.76-.28-.32-.13-.65-.26-.97-.41-.46-.2-.91-.43-1.35-.68-.34-.19-.67-.39-.99-.61-.32-.22-.64-.45-.92-.72-.13-.12-.26-.24-.38-.36-.35-.37-.65-.77-.87-1.23-.12-.26-.2-.54-.26-.82-.05-.23-.04-.45-.04-.68,0-2.14,0-4.27,0-6.41,0-.05,0-.1,0-.16.03.02.05.02.06.04.18.15.36.31.55.45.26.2.53.39.8.58.47.32.96.6,1.46.85.3.15.6.3.91.44.29.13.59.26.89.38.3.12.61.24.92.36.22.08.44.15.67.23.25.08.5.17.75.25.21.07.43.13.64.19.22.06.44.13.67.19.16.05.33.09.49.13.19.05.38.1.57.14.19.04.37.09.56.13.19.04.39.09.58.13.15.03.29.06.44.09.09.02.18.04.27.05.34.07.69.13,1.03.2.29.05.58.1.87.14.22.03.45.07.68.1.22.03.43.07.65.11-.49.35-.88.78-1.18,1.3-.09-.13-.18-.26-.27-.38-.24-.31-.54-.57-.86-.79-.33-.22-.68-.39-1.05-.51-.23-.08-.47-.12-.71-.15-.24-.03-.48,0-.72.02-.22.02-.44.06-.65.11-.47.11-.91.3-1.3.6-.29.22-.53.48-.73.78-.18.29-.29.59-.37.92-.08.31-.1.63-.1.94,0,1.4,0,2.8,0,4.2,0,.05,0,.1,0,.17Z"/>
      <path class="uuid-cd4a45dd-a5ba-40ac-a7d0-d7423208fcd0" d="M45.47,23.93s0,.08,0,.12c0,2.23,0,4.45,0,6.68,0,.15,0,.3-.03.45-.04.22-.09.44-.18.64-.12.28-.26.54-.44.79-.14.19-.29.39-.46.55-.13.13-.25.25-.38.38-.02.02-.04.03-.07.05-.02-.02-.04-.04-.06-.07-.19-.28-.38-.56-.58-.83-.11-.16-.24-.31-.36-.46-.22-.29-.47-.55-.73-.81-.26-.26-.53-.52-.81-.76-.27-.23-.55-.45-.84-.66-.33-.24-.67-.47-1.03-.67-.2-.11-.4-.23-.61-.33-.21-.1-.44-.18-.66-.24-.25-.07-.51-.12-.76-.18-.13-.04-.27-.06-.41-.07-.05,0-.1-.02-.14-.04-.2-.13-.41-.26-.61-.39,0,0-.01-.02-.02-.03.07-.02.14-.05.21-.06.16-.04.32-.07.49-.11.11-.03.22-.06.33-.09.16-.04.31-.08.47-.13.14-.04.29-.09.43-.13.1-.03.2-.06.3-.09.12-.04.25-.08.37-.12.2-.07.4-.13.6-.2.17-.06.33-.12.49-.18.18-.07.36-.13.53-.2.2-.08.39-.16.59-.24.39-.17.78-.33,1.16-.51.32-.15.63-.33.94-.5.25-.14.5-.29.75-.45.46-.29.89-.62,1.31-.95.03-.03.07-.06.1-.09.03-.03.06-.05.09-.08h.03Z"/>
      <path class="uuid-cd4a45dd-a5ba-40ac-a7d0-d7423208fcd0" d="M13.27,47.23c.1-.21.19-.42.29-.63.1-.23.2-.45.3-.68.14-.31.27-.62.41-.94.09-.21.19-.41.28-.62.12-.27.23-.53.35-.8.13-.28.24-.56.39-.83.18-.33.48-.51.85-.57.19-.03.38-.03.57,0,.26.05.53.09.75.27.11.08.18.19.22.32.04.13.05.27.05.41,0,1.63,0,3.26,0,4.89,0,.04,0,.09,0,.13-.1.03-1.01.04-1.26.01,0-.04-.01-.08-.01-.12,0-.28,0-.55,0-.83,0-1.3,0-2.6,0-3.9,0-.05.02-.11-.04-.17-.05.1-.09.2-.13.29-.15.34-.31.68-.46,1.02-.15.33-.29.66-.44.99-.16.36-.32.73-.49,1.09-.16.36-.33.73-.49,1.09-.07.15-.16.27-.28.38-.14.13-.31.19-.49.23-.25.04-.5.04-.74,0-.33-.06-.58-.25-.72-.56-.16-.35-.32-.7-.48-1.05-.22-.48-.43-.96-.65-1.43-.19-.41-.38-.82-.56-1.23-.12-.26-.23-.51-.34-.77,0-.01-.02-.02-.03-.05-.01.03-.02.05-.02.07,0,.04,0,.08,0,.12,0,1.56,0,3.12,0,4.67,0,.06,0,.11-.01.17h-1.25s0-.08,0-.12c0-1.63,0-3.26,0-4.89,0-.12.02-.24.03-.35.04-.24.18-.4.4-.49.13-.06.27-.09.4-.13.17-.05.34-.06.52-.06.26,0,.51.05.73.2.18.12.32.28.41.49.13.29.25.58.38.87.12.27.24.54.36.82.13.3.26.6.39.9.17.4.35.8.53,1.21.08.18.15.35.22.53.02.04.02.08.1.08Z"/>
      <path class="uuid-cd4a45dd-a5ba-40ac-a7d0-d7423208fcd0" d="M38.19,47.98c.4.36.79.72,1.19,1.08-.04.01-.06.02-.09.02-.41,0-.82,0-1.24,0-.06,0-.11-.02-.15-.06-.11-.1-.22-.2-.33-.31-.17-.16-.35-.32-.52-.48-.06-.06-.13-.09-.22-.08-.21,0-.41.01-.62.05-.07.01-.14,0-.21,0-.56,0-1.13,0-1.69,0-.05,0-.1,0-.14-.02-.13-.02-.26-.05-.39-.08-.32-.07-.61-.21-.85-.43-.17-.15-.27-.35-.33-.57-.04-.16-.04-.32-.04-.48,0-.98,0-1.96,0-2.94,0-.26.07-.5.22-.72.13-.19.31-.31.52-.41.17-.08.34-.14.53-.18.24-.05.48-.09.73-.09.78,0,1.57,0,2.35,0,.13,0,.27,0,.4.02.32.03.63.11.91.25.25.12.46.29.58.55.08.15.12.31.12.48,0,1.11,0,2.22,0,3.33,0,.2-.05.38-.14.55-.07.13-.17.23-.29.31-.07.05-.15.08-.22.13-.03.02-.05.05-.08.08ZM35.03,46.42c.06,0,.1,0,.14,0,.38,0,.75,0,1.13,0,.13,0,.22.04.3.12.21.19.42.38.63.57.05.04.09.08.14.12.04.03.07.03.11,0,.17-.13.29-.28.29-.51,0-.99,0-1.98,0-2.97,0-.2-.09-.35-.24-.46-.17-.13-.37-.18-.58-.18-.72,0-1.44,0-2.15,0-.13,0-.26.01-.38.06-.15.06-.29.13-.39.26-.1.14-.12.29-.12.44,0,.91,0,1.81,0,2.72,0,.14.03.28.1.41.13.23.35.32.59.37.13.03.26.03.39.03.3,0,.6,0,.89,0,.03,0,.07,0,.1,0,.04,0,.06-.03.05-.07-.33-.3-.65-.59-.99-.91Z"/>
      <path class="uuid-cd4a45dd-a5ba-40ac-a7d0-d7423208fcd0" d="M36.56,39.59c.02-.14.05-.27.06-.4.03-.38.08-.75.23-1.11.05-.13.14-.25.22-.36.07-.09.14-.18.22-.26,0,0,.02-.01.03-.02.06.02.07.08.09.13.04.12.08.24.13.36.1.23.2.46.31.68.13.25.26.5.4.74.13.23.26.45.41.67.29.44.6.87,1,1.21,0,0,0,.01,0,.03-.07-.02-.11-.06-.16-.1-.06-.05-.1-.1-.16-.15-.15-.13-.3-.27-.45-.39-.42-.34-.8-.71-1.09-1.16-.08-.13-.14-.27-.21-.4-.06-.12-.12-.24-.18-.36-.02-.03-.04-.06-.07-.1-.02.03-.03.04-.03.06-.04.22-.07.44-.11.66-.03.18-.05.36-.14.53-.1.2-.4.33-.63.26-.22-.07-.37-.21-.51-.39-.2-.26-.35-.56-.44-.88-.05-.18-.1-.37-.14-.55-.02-.09-.03-.19-.03-.29-.01-.21-.02-.41-.02-.62,0-.24.04-.48.08-.71.04-.22.11-.43.16-.65.04-.15.08-.3.12-.45,0-.02.02-.04.03-.07.03-.06.03-.11,0-.16-.03-.04-.05-.08-.09-.11-.12-.11-.21-.25-.3-.39-.2-.35-.37-.71-.5-1.1-.08-.23-.17-.46-.25-.69-.03-.07-.05-.15-.06-.22-.03-.17-.12-.32-.22-.46-.17-.25-.36-.48-.54-.72-.14-.19-.29-.38-.39-.6-.06-.15-.12-.31-.1-.47.03-.41.3-.74.75-.77.21-.01.41.03.61.09.37.1.7.28,1.03.47.13.07.24.18.36.28.11.1.24.14.39.14.22,0,.44.02.66.05.12.01.23.06.34.09.13.03.25.07.38.1.23.07.44.18.64.31.33.21.66.43.98.66.44.31.84.66,1.21,1.04.41.43.79.89,1.11,1.39.11.17.22.33.32.5.13.21.22.44.31.67.08.2.16.4.25.6.15.35.31.69.47,1.03.07.14.14.27.21.41.09.18.17.37.26.55.04.08.1.16.14.24.06.11.15.17.26.21.18.08.36.16.55.23.37.15.71.34,1.04.57.33.23.66.47.97.74.14.12.27.23.4.36.06.06.12.14.17.21.05.06.1.13.15.19.04.04.08.08.05.16-.14.04-.28.08-.43.12-.26.07-.53.09-.8.12-.11.01-.21.05-.32.08-.16.04-.32.08-.49.12-.03,0-.05.02-.09.03.04.09.08.16.14.22.16.18.36.3.57.42.45.25.85.56,1.2.93.07.07.12.16.18.23.09.1.18.2.28.29.11.11.18.24.23.4-.04-.02-.07-.04-.09-.06-.16-.17-.37-.29-.56-.44-.34-.26-.72-.44-1.11-.61-.28-.13-.54-.3-.79-.49-.08-.06-.15-.12-.23-.18-.21-.16-.36-.36-.5-.58-.06-.1-.1-.22-.15-.33.02-.11.11-.14.19-.17.14-.05.29-.09.43-.14.24-.08.49-.13.75-.16.26-.03.51-.03.77-.03.05,0,.1-.01.15-.02.02-.07-.03-.1-.05-.13-.11-.13-.25-.21-.39-.31-.27-.18-.54-.36-.81-.55-.27-.2-.56-.36-.88-.46-.27-.09-.55-.18-.82-.27-.07-.03-.14-.06-.21-.09-.09-.04-.15-.11-.21-.18-.21-.29-.36-.6-.51-.92-.15-.32-.3-.65-.45-.97-.2-.44-.41-.87-.58-1.32-.06-.16-.15-.31-.23-.46-.19-.33-.39-.65-.62-.95-.17-.23-.36-.46-.55-.67-.11-.12-.22-.24-.34-.35-.54-.53-1.13-.98-1.79-1.35-.33-.19-.68-.35-1.05-.46-.12-.04-.25-.05-.38-.07-.19-.02-.38-.03-.57-.05-.04,0-.08,0-.12,0-.11.01-.21-.03-.3-.09-.06-.04-.12-.08-.16-.13-.21-.2-.46-.32-.71-.44-.2-.09-.4-.17-.6-.24-.09-.03-.18-.06-.27-.07-.21-.03-.39.19-.34.4.04.16.12.3.21.44.1.15.22.28.33.43.2.27.41.53.55.83.09.19.16.4.23.6.05.13.09.25.13.38.06.18.12.36.19.54.15.39.32.77.63,1.06.05.04.09.1.12.15.12.16.08.34.03.5-.07.23-.16.44-.23.67-.06.19-.11.38-.12.58-.01.21-.05.43-.04.64,0,.27.03.53.08.8.06.31.17.59.3.88.08.17.19.32.38.4.02,0,.05,0,.09.01Z"/>
      <path class="uuid-cd4a45dd-a5ba-40ac-a7d0-d7423208fcd0" d="M23.69,47.39c0-.06,0-.12,0-.17,0-1,0-2,0-3,0-.05,0-.1,0-.15.1-.03,1.12-.03,1.26,0,0,.04.01.08.01.13,0,1.45,0,2.9,0,4.35,0,.26-.05.52-.21.74-.12.16-.27.28-.44.38-.27.15-.55.23-.85.29-.21.04-.43.05-.64.05-1.26,0-2.53,0-3.79,0h-.16c-.02-.28,0-.54,0-.82.06,0,.1-.01.14-.01.33,0,.67,0,1,0,.93,0,1.87,0,2.8,0,.2,0,.4-.03.58-.12.2-.1.3-.25.29-.48,0-.13,0-.25,0-.39-.05,0-.09-.02-.14-.02-.17,0-.34,0-.51,0-.66,0-1.33,0-1.99,0-.32,0-.63-.02-.94-.1-.25-.06-.48-.15-.7-.28-.19-.11-.35-.25-.46-.45-.09-.17-.13-.35-.11-.54,0-.04,0-.09,0-.13,0-.81,0-1.61,0-2.42,0-.05,0-.1,0-.14.09-.04.99-.05,1.23-.02.05.04.04.1.04.16,0,.84,0,1.68,0,2.52,0,.04,0,.07,0,.11,0,.2.1.34.27.43.14.07.29.1.44.1.92,0,1.83,0,2.75,0,.03,0,.06,0,.12-.01Z"/>
      <path class="uuid-cd4a45dd-a5ba-40ac-a7d0-d7423208fcd0" d="M31.73,42.29v.78s-.06.02-.08.02c-.07,0-.14,0-.21,0-1.12,0-2.24,0-3.36,0-.18,0-.36.02-.53.08-.15.05-.28.18-.29.39,0,.24-.01.47,0,.71.02.31.22.47.51.54.23.06.47.04.7.04.46,0,.93,0,1.39,0,.26,0,.51.05.75.12.26.08.5.19.71.36.15.11.26.25.31.43.03.09.03.18.03.28,0,.27,0,.54,0,.81,0,.27-.07.51-.26.72-.12.14-.28.24-.44.32-.24.12-.5.2-.76.26-.01,0-.02,0-.04,0-.18.01-.36.03-.54.03-1.16,0-2.32,0-3.49,0-.05,0-.1,0-.16,0-.01-.04-.03-.07-.03-.11,0-.21,0-.42,0-.62,0-.02,0-.04.01-.07.05,0,.11,0,.16,0,1.13,0,2.25,0,3.38,0,.18,0,.35-.03.52-.1.14-.05.25-.15.32-.29.02-.04.03-.09.03-.14,0-.26,0-.52,0-.78,0-.05-.02-.11-.05-.15-.11-.16-.28-.24-.47-.29-.3-.07-.6-.04-.9-.05-.35,0-.71,0-1.06,0-.21,0-.42-.05-.63-.09-.19-.04-.37-.1-.54-.17-.24-.11-.45-.26-.61-.48-.09-.13-.15-.28-.14-.44,0-.3,0-.6,0-.91,0-.18.07-.35.16-.51.17-.27.43-.41.7-.52.11-.04.22-.09.33-.11.14-.03.29-.06.43-.06,1.32,0,2.64,0,3.96,0,.04,0,.07,0,.11,0Z"/>
      <path class="uuid-cd4a45dd-a5ba-40ac-a7d0-d7423208fcd0" d="M39.79,42.29h1.24s0,.1,0,.14c0,.63,0,1.26,0,1.9,0,.8,0,1.59,0,2.39,0,.12.02.24.08.34.1.16.27.23.44.27.28.07.56.05.84.05.97,0,1.93,0,2.9,0,.05,0,.1,0,.14,0,.03.1.03.67,0,.8-.03,0-.06.01-.09.01-1.14,0-2.28,0-3.41,0-.15,0-.31,0-.46-.03-.33-.05-.66-.12-.97-.27-.25-.13-.47-.29-.6-.56-.08-.15-.13-.31-.13-.49,0-.55,0-1.09,0-1.64,0-.92,0-1.84,0-2.77,0-.04,0-.09,0-.15Z"/>
      <path class="uuid-cd4a45dd-a5ba-40ac-a7d0-d7423208fcd0" d="M24.25,41.78s-.09,0-.14,0c-.79,0-1.59-.01-2.38,0-.61.01-1.21.01-1.82.02-.05,0-.1,0-.15,0-.15-.35-.35-.68-.64-.94.02-.01.04-.03.05-.03.12,0,.24,0,.37.02.62.04,1.24.03,1.87.06.82.03,1.65,0,2.47.02.34,0,.68-.02,1.02-.03.04,0,.09,0,.16,0-.34.25-.59.54-.79.88Z"/>
      <path class="uuid-cd4a45dd-a5ba-40ac-a7d0-d7423208fcd0" d="M43.34,43.87c.32.24.62.47.94.7,0,.02-.02.05-.03.07-.13.13-.27.26-.41.39-.03.03-.07.05-.11.05-.13,0-.25,0-.38,0,0-.03-.02-.06-.02-.09,0-.35,0-.7,0-1.05,0-.02,0-.05.01-.07Z"/>
      <path class="uuid-cd4a45dd-a5ba-40ac-a7d0-d7423208fcd0" d="M44.9,35.76c.19-.15.36-.3.55-.46.02.03.03.05.04.07,0,.03,0,.06,0,.09,0,.4,0,.8,0,1.2,0,.04,0,.08,0,.12-.08,0-.11-.05-.14-.1-.1-.21-.21-.41-.31-.62-.04-.09-.09-.18-.14-.29Z"/>
      <path class="uuid-cd4a45dd-a5ba-40ac-a7d0-d7423208fcd0" d="M47.25,48.21s-.06,0-.09-.01c-.07-.18-.13-.35-.19-.52-.02-.05-.04-.07-.1-.07v.59s-.07,0-.12,0c0-.27,0-.54,0-.82h.22c.07.18.14.35.22.53.07-.01.09-.06.11-.11.04-.12.08-.24.13-.36,0-.03.03-.05.04-.07h.21c0,.27,0,.54,0,.81-.03,0-.04.01-.06.01-.02,0-.03,0-.05,0,0-.02-.01-.03-.01-.05,0-.14,0-.29,0-.43,0-.04,0-.08-.02-.12-.15.17-.17.4-.28.6Z"/>
      <path class="uuid-cd4a45dd-a5ba-40ac-a7d0-d7423208fcd0" d="M36.92,32.68c-.03.17-.04.35-.22.46-.04-.08-.09-.15-.12-.23-.07-.18-.18-.32-.31-.46-.04-.05-.09-.09-.09-.17.03,0,.05-.02.07-.02.04,0,.08,0,.11,0,.23-.07.34.1.46.24.05.05.07.13.1.19Z"/>
      <path class="uuid-cd4a45dd-a5ba-40ac-a7d0-d7423208fcd0" d="M46.1,47.48c-.09,0-.15-.01-.23-.02,0-.03,0-.05,0-.07.04-.03.5-.03.62,0,.02.05-.01.07-.06.08-.03,0-.06,0-.09,0-.02,0-.05.01-.08.02-.03.23,0,.46-.02.71-.04,0-.08,0-.13,0,0-.04-.01-.08-.01-.11,0-.15,0-.31,0-.46,0-.04,0-.09-.01-.15Z"/>
      <path class="uuid-cd4a45dd-a5ba-40ac-a7d0-d7423208fcd0" d="M40.65,38.86s-.03-.01-.04-.03c-.12-.18-.23-.36-.34-.54,0-.01,0-.03,0-.04.08-.06.11-.05.14.04.06.13.12.27.17.4.03.06.05.12.07.18,0,0,0,0,0,0Z"/>
      <path class="uuid-cd4a45dd-a5ba-40ac-a7d0-d7423208fcd0" d="M40.65,38.86s.01.02,0,0c0,.01,0,0,0,0h0Z"/>
    </g>
  </g>
</svg>