<?xml version="1.0" encoding="UTF-8"?>
<svg id="uuid-b666da75-d747-48b7-b364-2a2fc2ba8b66" data-name="Livello_2" xmlns="http://www.w3.org/2000/svg" viewBox="0 0 44.34 50">
  <defs>
    <style>
      .uuid-24a28369-0177-4690-866d-9fb6ad8f9d90 {
        fill: #fff;
      }
    </style>
  </defs>
  <g id="uuid-599554f2-7c9e-4ba4-90d2-645113c78ce2" data-name="Livello_1">
    <g>
      <path class="uuid-24a28369-0177-4690-866d-9fb6ad8f9d90" d="M44.34,36.07c-.03.05-.08.1-.09.16-.21,1.27-.91,2.2-2.02,2.84-2.13,1.23-4.25,2.46-6.38,3.69-1.86,1.08-3.71,2.16-5.57,3.23-1.86,1.08-3.72,2.14-5.58,3.23-.47.27-.94.51-1.47.64-1.1.29-2.14.12-3.1-.44-1.92-1.12-3.84-2.27-5.75-3.42-.27-.16-.59-.27-.73-.56.06-.27.27-.27.42-.33.45-.18.92-.33,1.36-.53.33-.14.65-.31.95-.5.35-.22.64-.2.99,0,1.22.75,2.46,1.47,3.68,2.21.2.12.4.23.58.36.3.21.59.21.91.02.82-.49,1.66-.97,2.49-1.45,1.8-1.04,3.6-2.09,5.41-3.13,1.49-.86,2.99-1.73,4.48-2.59,1.84-1.07,3.68-2.15,5.53-3.2.43-.24.57-.54.57-1.02-.01-6.84,0-13.68,0-20.52,0-.1,0-.2,0-.29,0-.28-.12-.49-.37-.64-.75-.43-1.49-.87-2.24-1.3-1.64-.94-3.27-1.88-4.91-2.82-1.82-1.05-3.63-2.1-5.45-3.15-1.62-.94-3.24-1.87-4.86-2.81-.23-.13-.46-.25-.68-.39-.28-.17-.54-.17-.82,0-1.5.88-3.01,1.75-4.52,2.62-1.83,1.06-3.67,2.11-5.5,3.17-2.41,1.39-4.82,2.79-7.23,4.18-.3.17-.59.35-.89.51-.26.14-.37.36-.37.64,0,.11,0,.23,0,.34,0,6.79,0,13.58,0,20.38,0,.08,0,.16,0,.24-.03.37.14.61.46.79.48.27.95.56,1.43.84.98.57,1.97,1.14,2.96,1.71.65.38,1.32.68,2.09.77,1.47.19,2.85-.85,2.85-2.47,0-6.78,0-13.55,0-20.33,0-.16,0-.33,0-.49.03-.32.17-.5.48-.51.8-.02,1.6-.02,2.39,0,.3,0,.42.16.44.47.01.13,0,.26,0,.39,0,6.86,0,13.71,0,20.57,0,.84-.1,1.64-.37,2.45-.64,1.96-2.34,3.04-4.21,3.17-.54.04-1.07.01-1.61.01-.54,0-1.06-.14-1.57-.32-1.08-.38-2.08-.93-3.07-1.49-1.09-.62-2.17-1.26-3.26-1.86-1.03-.57-1.78-1.37-2.06-2.53-.08-.34-.15-.7-.15-1.06,0-7-.02-14.01,0-21.01,0-1.46.63-2.64,1.93-3.4,1.95-1.14,3.91-2.27,5.87-3.41,1.52-.88,3.04-1.77,4.56-2.65,1.83-1.06,3.66-2.12,5.49-3.17.69-.4,1.39-.79,2.07-1.2.52-.31,1.07-.55,1.68-.62.06,0,.11-.06.17-.09.29,0,.59,0,.88,0,.02.02.04.06.07.07.72.11,1.35.44,1.97.8,1.81,1.06,3.63,2.1,5.44,3.15,2.14,1.24,4.27,2.48,6.41,3.72,1.98,1.15,3.97,2.29,5.94,3.46.86.51,1.42,1.27,1.68,2.24.06.22.13.43.19.64v21.99Z"/>
      <path class="uuid-24a28369-0177-4690-866d-9fb6ad8f9d90" d="M27.25,15.1c1.21.03,2.41.08,3.59.36.99.23,1.93.56,2.79,1.13,1.31.87,2.05,2.11,2.39,3.61.08.35.13.7.18,1.06.02.11.02.23,0,.34-.04.27-.19.41-.46.42-.8.01-1.6,0-2.39,0-.25,0-.39-.14-.45-.37-.05-.19-.1-.38-.16-.56-.41-1.35-1.3-2.21-2.67-2.5-.7-.15-1.41-.24-2.12-.28-1.02-.06-2.05-.02-3.06.17-.65.12-1.25.33-1.78.74-.65.51-.9,1.47-.69,2.25.1.37.36.61.68.79.47.27.99.43,1.52.52,1.28.22,2.56.42,3.85.62,1.44.22,2.9.39,4.31.79.82.23,1.6.54,2.32,1,1.04.67,1.61,1.64,1.79,2.84.16,1.04.1,2.07-.25,3.08-.37,1.07-1.03,1.91-1.93,2.57-1.13.83-2.42,1.25-3.77,1.51-1.58.3-3.18.27-4.77.19-1.58-.08-3.13-.38-4.57-1.07-1.85-.9-3-2.34-3.32-4.4-.06-.38-.09-.78-.09-1.16,0-.36.18-.55.54-.56.76-.01,1.53-.01,2.3,0,.35,0,.46.11.53.45.07.28.11.57.19.86.29,1.13.99,1.87,2.09,2.26.68.25,1.38.38,2.09.43.81.06,1.63.11,2.44.08,1.15-.04,2.3-.1,3.4-.54,1.16-.46,1.81-1.5,1.66-2.74-.06-.5-.31-.87-.74-1.14-.52-.32-1.09-.52-1.68-.63-1-.2-2.01-.36-3.03-.5-1.66-.23-3.33-.32-4.95-.79-.72-.21-1.42-.47-2.07-.86-1.32-.79-2-1.97-2.08-3.49-.03-.53,0-1.08.07-1.6.24-1.67,1.23-2.83,2.66-3.65,1.04-.6,2.19-.92,3.38-1.04.76-.08,1.52-.11,2.29-.16Z"/>
    </g>
  </g>
</svg>