<svg width="20" height="20" viewBox="0 0 20 20" fill="none" xmlns="http://www.w3.org/2000/svg">
<path d="M10 8.02441V18.0244C10 18.2896 10.1054 18.544 10.2929 18.7315C10.4804 18.9191 10.7348 19.0244 11 19.0244H18C18.2652 19.0244 18.5196 18.9191 18.7071 18.7315C18.8946 18.544 19 18.2896 19 18.0244V8.02441C19 7.7592 18.8946 7.50484 18.7071 7.31731C18.5196 7.12977 18.2652 7.02441 18 7.02441M10 8.02441C10 7.7592 10.1054 7.50484 10.2929 7.31731C10.4804 7.12977 10.7348 7.02441 11 7.02441H18M10 8.02441V13.0244M18 7.02441V2.02441C18 1.7592 17.8946 1.50484 17.7071 1.31731C17.5196 1.12977 17.2652 1.02441 17 1.02441H3C2.73478 1.02441 2.48043 1.12977 2.29289 1.31731C2.10536 1.50484 2 1.7592 2 2.02441V13.0244H10M10 13.0244V15.0244H2C1.73478 15.0244 1.48043 14.9191 1.29289 14.7315C1.10536 14.544 1 14.2896 1 14.0244V13.0244H10ZM16 7.02441H13L13.5 9.02441H15.5L16 7.02441Z" stroke="#1B1B1B" stroke-linecap="round" stroke-linejoin="round"/>
</svg>
