<svg width="27" height="26" viewBox="0 0 27 26" fill="none" xmlns="http://www.w3.org/2000/svg">
<g clip-path="url(#clip0_209_9455)">
<path d="M22.2419 13.7644H1.47404C1.18586 13.7644 0.952354 13.5308 0.952354 13.2427C0.952354 12.9546 1.18586 12.721 1.47404 12.721H22.141C22.1737 12.7146 22.2074 12.7113 22.2419 12.7113C23.944 12.7113 25.3288 11.3265 25.3288 9.62443C25.3288 7.92234 23.944 6.53751 22.2419 6.53751C20.5398 6.53751 19.1551 7.92227 19.1551 9.62436C19.1551 9.91247 18.9216 10.146 18.6334 10.146C18.3452 10.146 18.1117 9.91247 18.1117 9.62436C18.1117 7.34696 19.9645 5.49414 22.2419 5.49414C24.5193 5.49414 26.3721 7.34696 26.3721 9.62436C26.3721 11.8658 24.5775 13.6959 22.3497 13.7532C22.3149 13.7606 22.2789 13.7644 22.2419 13.7644Z" fill="white"/>
<path d="M11.5449 10.151H1.47404C1.18586 10.151 0.952354 9.91745 0.952354 9.62934C0.952354 9.34124 1.18586 9.10766 1.47404 9.10766H11.444C11.4766 9.10126 11.5104 9.09792 11.5449 9.09792C13.2469 9.09792 14.6317 7.71316 14.6317 6.01108C14.6317 4.30899 13.2469 2.92423 11.5449 2.92423C9.8427 2.92423 8.45794 4.30899 8.45794 6.01108C8.45794 6.29918 8.22444 6.53276 7.93626 6.53276C7.64808 6.53276 7.41457 6.29918 7.41457 6.01108C7.41457 3.73368 9.26746 1.88086 11.5449 1.88086C13.8223 1.88086 15.6751 3.73368 15.6751 6.01108C15.6751 8.25251 13.8804 10.0827 11.6526 10.1399C11.6178 10.1471 11.5818 10.151 11.5449 10.151Z" fill="white"/>
<path d="M17.9374 24.7155C15.66 24.7155 13.8072 22.8627 13.8072 20.5853C13.8072 20.2972 14.0407 20.0636 14.3288 20.0636C14.617 20.0636 14.8505 20.2972 14.8505 20.5853C14.8505 22.2874 16.2353 23.6721 17.9374 23.6721C19.6395 23.6721 21.0243 22.2874 21.0243 20.5853C21.0243 18.8832 19.6395 17.4984 17.9374 17.4984H1.47404C1.18586 17.4984 0.952354 17.2649 0.952354 16.9768C0.952354 16.6887 1.18586 16.4551 1.47404 16.4551H17.9374C20.2148 16.4551 22.0677 18.3079 22.0677 20.5853C22.0677 22.8627 20.2148 24.7155 17.9374 24.7155Z" fill="white"/>
</g>
<defs>
<clipPath id="clip0_209_9455">
<rect width="25.4198" height="25.4198" fill="white" transform="translate(0.952354 0.587891)"/>
</clipPath>
</defs>
</svg>
