<?xml version="1.0" encoding="UTF-8"?>
<svg id="uuid-2130ba63-c202-4468-867f-8ac6cab8eb4e" data-name="Livello_2" xmlns="http://www.w3.org/2000/svg" viewBox="0 0 448.88 147.03">
  <g id="uuid-0c733425-d013-4ad5-9091-4e86bc8bb119" data-name="Livello_1">
    <path d="M111.98,7.61v132.4c0,2.76-2.23,5-5,5s-5-2.24-5-5V22.35L8.97,143.67c-.96,1.26-2.44,1.96-3.97,1.96-.53,0-1.07-.09-1.6-.27-2.03-.69-3.4-2.59-3.4-4.73V6.69C0,4.54,1.38,2.63,3.41,1.95c2.03-.69,4.28,0,5.58,1.71l47.14,62.06L103.02,4.57c1.3-1.7,3.54-2.38,5.57-1.7,2.03.69,3.39,2.6,3.39,4.74Z"/>
    <g>
      <path d="M215.59,63.11h-10.25V25.42l-17.62,37.69h-9.64l-18.76-38.48v38.48h-10.25V1.67h10.43l23.31,47.77L205.16,1.67h10.43v61.44Z"/>
      <path d="M257.75,56.01h-21.56l-2.63,7.1h-11.04L246.97,0l24.54,63.11h-11.04l-2.72-7.1ZM239.52,47.15h14.9l-7.45-21.3-7.45,21.3Z"/>
      <path d="M278.43,43.47V1.75h10.25v41.72c.53,7.1,6.22,10.25,12.71,10.25s12.8-3.42,12.8-10.25V1.75h10.25v41.72c0,13.06-9.99,20.51-23.05,20.51s-22.96-7.89-22.96-20.51Z"/>
      <path d="M356.79,37.51h-8.33v25.59h-10.25V1.75h20.42s20.51,0,20.51,17.88c0,9.9-6.31,14.29-11.83,16.3l12.53,27.17h-11.31l-11.75-25.59ZM348.46,27.35h10.17s10.25,0,10.25-7.71-10.25-7.62-10.25-7.62h-10.17v15.34Z"/>
      <path d="M418.67,63.89c-40.49,0-40.41-62.93,0-62.93s40.32,62.93,0,62.93ZM418.67,10.96c-26.47,0-26.56,43.03,0,43.03s26.56-43.03,0-43.03Z"/>
    </g>
    <g>
      <path d="M159.41,84.1c14.9,0,35.85,3.42,35.85,30.68s-20.6,30.68-35.85,30.68h-10.25v-61.35h10.25ZM184.92,114.78c0-24.54-25.51-20.68-25.51-20.68v41.37s25.51,3.51,25.51-20.68Z"/>
      <path d="M217.43,94.36v15.34h25.5v10.17h-25.5v15.34h30.68v10.25h-40.93v-61.35h40.93v10.25h-30.68Z"/>
      <path d="M300.78,84.1l-24.54,62.93-24.45-62.93h11.04l13.41,36.2,13.5-36.2h11.04Z"/>
    </g>
  </g>
</svg>