<svg width="120" height="47" viewBox="0 0 120 47" fill="none" xmlns="http://www.w3.org/2000/svg">
<path d="M107.456 43.5144C106.895 43.5144 106.444 43.0632 106.444 42.5022V19.8304C106.444 19.6963 106.37 19.5743 106.261 19.5133L86.2841 7.97626C85.9671 7.79332 85.7841 7.46404 85.7841 7.09817C85.7841 6.7323 85.9671 6.40302 86.2841 6.22008L95.7114 0.780819C96.2358 0.475928 96.8334 0.317383 97.4432 0.317383C98.053 0.317383 98.6505 0.475928 99.175 0.780819L118.444 11.9033C118.761 12.0862 118.944 12.4155 118.944 12.7813V35.0262C118.944 36.258 118.286 37.4044 117.212 38.0263L107.956 43.3681C107.797 43.4534 107.627 43.5022 107.456 43.5022" fill="#C30B2F"/>
<path d="M97.4559 0.646368C98.0047 0.646368 98.5413 0.780523 99.0291 1.07322L118.298 12.1957C118.518 12.3176 118.64 12.5493 118.64 12.7932V35.0381C118.64 36.1601 118.042 37.1968 117.066 37.7578L107.81 43.0994C107.7 43.1604 107.578 43.197 107.469 43.197C107.115 43.197 106.773 42.9043 106.773 42.5019V19.8301C106.773 19.5862 106.639 19.3545 106.432 19.2325L86.4554 7.69546C85.992 7.42715 85.992 6.76859 86.4554 6.50028L95.8826 1.06102C96.3705 0.780521 96.9071 0.634175 97.4559 0.634175M97.4559 0C96.7973 0 96.1387 0.170737 95.5655 0.512215L86.1383 5.95148C85.7237 6.19539 85.4797 6.62224 85.4797 7.11006C85.4797 7.59789 85.7237 8.01255 86.1383 8.25646L106.115 19.7813C106.115 19.7813 106.139 19.8057 106.139 19.8301V42.5019C106.139 43.2336 106.737 43.8312 107.469 43.8312C107.7 43.8312 107.932 43.7702 108.127 43.6482L117.384 38.3066C118.554 37.6358 119.274 36.3796 119.274 35.0381V12.7932C119.274 12.3176 119.018 11.8786 118.615 11.6468L99.3462 0.524414C98.773 0.195131 98.1144 0.0121936 97.4559 0.0121936" fill="white"/>
<path d="M92.224 46.0629C91.5898 46.0629 91.0776 45.5507 91.0776 44.9165V29.1719C91.0776 28.989 90.9801 28.8182 90.8215 28.7329L76.9672 20.7325C76.6136 20.5252 76.394 20.1593 76.394 19.7447C76.394 19.33 76.6136 18.9642 76.9672 18.7568L85.431 13.8786C85.8457 13.6347 86.3213 13.5127 86.7969 13.5127C87.2726 13.5127 87.7482 13.6347 88.1629 13.8786L101.932 21.8301C102.285 22.0375 102.505 22.4155 102.505 22.818V38.7211C102.505 39.6968 101.981 40.6114 101.139 41.0993L92.7972 45.9166C92.6265 46.0141 92.4191 46.0751 92.224 46.0751" fill="#589E52"/>
<path d="M86.797 13.8178C87.2117 13.8178 87.6263 13.9275 88.0044 14.1471L101.773 22.0986C102.029 22.245 102.188 22.5133 102.188 22.8182V38.7213C102.188 39.5872 101.725 40.3799 100.981 40.819L92.6387 45.6362C92.5046 45.7094 92.3582 45.746 92.2241 45.746C91.7972 45.746 91.3948 45.4045 91.3948 44.9167V29.1721C91.3948 28.8794 91.2362 28.6111 90.9801 28.4526L77.1259 20.4522C76.5771 20.1351 76.5771 19.3424 77.1259 19.0253L85.5897 14.1471C85.9677 13.9275 86.3824 13.8178 86.797 13.8178ZM86.797 13.1836C86.2604 13.1836 85.736 13.3299 85.2604 13.5982L76.7966 18.4887C76.3332 18.757 76.0648 19.2326 76.0648 19.7571C76.0648 20.2815 76.3453 20.7571 76.7966 21.0254L90.6509 29.0258C90.6509 29.0258 90.7484 29.1233 90.7484 29.1843V44.9289C90.7484 45.7338 91.407 46.3924 92.2119 46.3924C92.468 46.3924 92.7241 46.3192 92.9436 46.1972L101.285 41.3799C102.225 40.8311 102.81 39.8189 102.81 38.7335V22.8304C102.81 22.3059 102.529 21.8181 102.078 21.562L88.3093 13.6104C87.8459 13.3421 87.3092 13.1958 86.7726 13.1958" fill="white"/>
<path d="M86.2235 43.38C86.0649 43.38 85.9186 43.3312 85.7722 43.258L76.5401 37.9285C76.2596 37.77 76.0889 37.4773 76.0889 37.148C76.0889 36.8187 76.2596 36.5382 76.5401 36.3675L85.7722 31.038C85.9064 30.9526 86.0649 30.916 86.2235 30.916C86.7235 30.916 87.1259 31.3185 87.1259 31.8185V42.4775C87.1259 42.7214 87.0284 42.9531 86.8576 43.1239C86.6869 43.2824 86.4674 43.38 86.2357 43.38" fill="#2C458E"/>
<path d="M86.2236 31.2318C86.5285 31.2318 86.809 31.4757 86.809 31.805V42.464C86.809 42.8055 86.5285 43.0372 86.2236 43.0372C86.126 43.0372 86.0284 43.0128 85.9309 42.9641L76.6988 37.6345C76.3085 37.415 76.3085 36.854 76.6988 36.6345L85.9309 31.305C86.0284 31.244 86.126 31.2196 86.2236 31.2196M86.2236 30.5977C86.0162 30.5977 85.7967 30.6586 85.6138 30.7684L76.3817 36.0979C76.0036 36.3174 75.7719 36.7077 75.7719 37.1467C75.7719 37.5858 76.0036 37.976 76.3817 38.1955L85.6138 43.5251C85.7967 43.6348 86.004 43.6958 86.2236 43.6958C86.8943 43.6958 87.4431 43.147 87.4431 42.4762V31.8172C87.4431 31.1465 86.8943 30.5977 86.2236 30.5977Z" fill="white"/>
<path d="M81.9181 44.9052L70.1006 38.0756C69.7469 37.8683 69.5274 37.5024 69.5274 37.0999C69.5274 36.6975 69.7347 36.3194 70.1006 36.1243L81.9181 29.2947C82.162 29.1484 82.1255 28.9166 82.1011 28.8435C82.0889 28.7703 82.0035 28.5508 81.723 28.5508H0.3414V45.6491H81.723C82.0035 45.6491 82.0889 45.4296 82.1011 45.3564C82.1255 45.2832 82.162 45.0515 81.9181 44.9052Z" fill="white"/>
<path d="M11.7078 13.1836H3.85383V14.6715H6.93933V22.6596H8.62233V14.6715H11.7078V13.1836ZM0.67076 22.6596H2.34156V13.1836H0.67076V22.6596ZM13.964 10.4152C16.6593 10.4152 18.8423 8.23219 18.8423 5.53695C18.8423 2.84171 16.6593 0.658683 13.964 0.658683C11.2688 0.658683 9.08576 2.84171 9.08576 5.53695C9.08576 8.23219 11.2688 10.4152 13.964 10.4152ZM13.964 2.30509C15.769 2.30509 17.2325 3.76857 17.2325 5.57353C17.2325 7.37849 15.769 8.84197 13.964 8.84197C12.1591 8.84197 10.6956 7.37849 10.6956 5.57353C10.6956 3.76857 12.1591 2.30509 13.964 2.30509ZM63.2223 10.3054H70.0153V8.81758H64.8809V6.24429H68.3445H68.9177V4.75642H68.3445H64.8809V2.32949H70.0153V0.841615H63.2223V4.76862H62.4174V6.26868H63.2223V10.3298V10.3054ZM4.89046 10.4152C6.21978 10.4152 7.42716 9.8786 8.30524 9.01271L7.18324 7.8907C6.59785 8.47609 5.78074 8.84197 4.87826 8.84197C3.07331 8.84197 1.60983 7.37849 1.60983 5.57353C1.60983 3.76857 3.07331 2.30509 4.87826 2.30509C5.78074 2.30509 6.58565 2.67096 7.18324 3.25635L8.34183 2.08557C7.46374 1.19529 6.23198 0.646484 4.87826 0.646484C2.18302 0.646484 0 2.82951 0 5.52475C0 8.21999 2.18302 10.403 4.87826 10.403M54.3195 3.54905L59.1733 10.3054H60.8563V0.829421H59.1733V7.58581L54.3195 0.829421H52.6486V10.3054H54.3195V3.54905ZM39.4895 0.829421H37.8187V10.3054H39.4895V0.829421ZM27.8671 10.3054V8.81758H22.7327V6.24429H26.1963H26.7695V4.75642H26.1963H22.7327V2.32949H27.8671V0.841615H21.0741V4.76862H20.2692V6.26868H21.0741V10.3298H27.8671V10.3054ZM15.086 13.1836L11.3907 22.6596H13.0981L13.9152 20.5376H18.1715L18.9886 22.6596H20.696L17.0007 13.1836H15.1104H15.086ZM14.4762 19.0497L16.0373 15.0008L17.5983 19.0497H14.4884H14.4762ZM50.9778 5.53695C50.9778 2.84171 48.7948 0.658683 46.0996 0.658683C43.4043 0.658683 41.2213 2.84171 41.2213 5.53695C41.2213 8.23219 43.4043 10.4152 46.0996 10.4152C48.7948 10.4152 50.9778 8.23219 50.9778 5.53695ZM46.0874 8.84197C44.2824 8.84197 42.819 7.37849 42.819 5.57353C42.819 3.76857 44.2824 2.30509 46.0874 2.30509C47.8923 2.30509 49.3558 3.76857 49.3558 5.57353C49.3558 7.37849 47.8923 8.84197 46.0874 8.84197ZM23.9157 13.1836H22.2571V22.6596H28.7817V21.1718H23.9157V13.1836ZM37.2821 13.1836L33.5868 22.6596H35.2942L36.1113 20.5376H40.3676L41.1847 22.6596H42.8921L39.1968 13.1836H37.3065H37.2821ZM36.6723 19.0497L38.2334 15.0008L39.7944 19.0497H36.6845H36.6723ZM36.0991 7.6224C36.0991 7.09799 35.9772 6.64675 35.7211 6.26868C35.4772 5.89062 35.1601 5.59792 34.7942 5.41499C34.4283 5.23205 34.0259 5.04912 33.599 4.87838C33.1722 4.70764 32.7697 4.57349 32.4039 4.46373C32.038 4.35397 31.7331 4.19542 31.4892 4.00029C31.2453 3.79296 31.1111 3.56125 31.1111 3.28075C31.1111 2.96366 31.2453 2.71975 31.5014 2.5612C31.7575 2.40266 32.1234 2.30509 32.5868 2.30509C33.5259 2.30509 34.2088 2.59779 34.6479 3.17098L35.7821 2.0002C35.4894 1.59775 35.0625 1.28066 34.5137 1.04894C33.9649 0.829421 33.3551 0.707462 32.6966 0.707462C31.7087 0.707462 30.9282 0.951375 30.355 1.42701C29.7818 1.90264 29.4891 2.56121 29.4891 3.40271C29.4891 4.02468 29.6598 4.5369 30.0013 4.95155C30.3428 5.3662 30.7574 5.6589 31.2453 5.85403C31.7331 6.03696 32.2209 6.2077 32.7088 6.35405C33.1966 6.5004 33.6112 6.67114 33.9527 6.87847C34.2942 7.08579 34.4649 7.3541 34.4649 7.68338C34.4649 8.01266 34.3064 8.30536 33.9893 8.51268C33.6722 8.72001 33.2332 8.82977 32.6966 8.82977C31.7941 8.82977 31.0258 8.53707 30.3794 7.93949L29.233 9.09807C30.0867 9.97616 31.2087 10.4152 32.6234 10.4152C33.6844 10.4152 34.5381 10.1591 35.1601 9.65907C35.7821 9.15905 36.0991 8.4761 36.0991 7.6224ZM30.3428 22.6596H32.0136V13.1836H30.3428V22.6596ZM64.6858 15.5252C64.6858 14.891 64.454 14.3422 64.015 13.891C63.5638 13.4397 63.015 13.2202 62.3808 13.2202C61.7466 13.2202 61.1978 13.4397 60.7466 13.891C60.2953 14.3422 60.0758 14.891 60.0758 15.5252V15.6227H61.271V15.5252C61.271 15.2203 61.3807 14.9642 61.6003 14.7447C61.8198 14.5251 62.0759 14.4154 62.3808 14.4154C62.6857 14.4154 62.9418 14.5251 63.1613 14.7447C63.3808 14.9642 63.4906 15.2203 63.4906 15.5252C63.4906 15.8301 63.3808 16.0862 63.1613 16.3057L60.0758 19.3424V20.2327H64.6858V19.0375H62.0881L64.015 17.1472C64.454 16.696 64.6858 16.1594 64.6858 15.5252ZM66.0517 13.4275V14.6227H68.625L66.5761 20.2449H67.8566L70.0397 14.2203V13.4275H66.0395H66.0517ZM52.3072 15.6593L53.356 16.2081L53.3926 16.1594V20.2449H54.5878V13.4275H53.5999L52.3072 15.6593ZM56.8074 17.4277H59.405V16.2325H56.8074V17.4277ZM51.173 15.5252C51.173 14.891 50.9413 14.3422 50.5022 13.891C50.051 13.4397 49.5022 13.2202 48.868 13.2202C48.2338 13.2202 47.685 13.4397 47.2338 13.891C46.7825 14.3422 46.563 14.891 46.563 15.5252V15.6227H47.7582V15.5252C47.7582 15.2203 47.868 14.9642 48.0875 14.7447C48.307 14.5251 48.5631 14.4154 48.868 14.4154C49.1729 14.4154 49.429 14.5251 49.6485 14.7447C49.868 14.9642 49.9778 15.2203 49.9778 15.5252C49.9778 15.8301 49.868 16.0862 49.6485 16.3057L46.563 19.3424V20.2327H51.173V19.0375H48.5753L50.5022 17.1472C50.9535 16.696 51.173 16.1594 51.173 15.5252Z" fill="white"/>
<path d="M5.8299 38.3556V40.4167H4.75668V33.8066H7.18362C8.69588 33.8066 9.42762 34.5384 9.42762 36.0262C9.42762 37.5141 8.68368 38.3678 7.18362 38.3678H5.8299V38.3556ZM7.17142 37.4288C7.97634 37.4288 8.33001 36.9409 8.33001 36.0141C8.33001 35.0872 7.97634 34.7213 7.17142 34.7213H5.8299V37.4288H7.17142Z" fill="#2E3E86"/>
<path d="M12.8302 39.5747C13.7205 39.5747 14.1961 39.1844 14.1961 38.2941V33.7939H15.2815V38.2697C15.2815 39.8674 14.4156 40.5137 12.8424 40.5137C11.2691 40.5137 10.4154 39.8674 10.4154 38.2697V33.7939H11.5008V38.2941C11.5008 39.1966 11.9643 39.5747 12.8424 39.5747" fill="#2E3E86"/>
<path d="M19.4402 36.9281H21.3183V40.2941C21.2329 40.3185 19.9158 40.5137 19.1109 40.5137C17.0011 40.5137 16.4644 39.2941 16.4644 37.1111C16.4644 34.7939 17.0986 33.6963 19.0743 33.6963C20.0866 33.6963 21.3183 33.9524 21.3183 33.9524L21.2817 34.8061C21.2817 34.8061 20.1109 34.6475 19.2329 34.6475C17.9157 34.6475 17.5743 35.2451 17.5743 37.1111C17.5743 38.977 17.8548 39.5868 19.2085 39.5868C19.6475 39.5868 20.1475 39.5258 20.2573 39.5014V37.8916H19.4402V36.9403V36.9281Z" fill="#2E3E86"/>
<path d="M22.6721 40.404V33.7939H23.7331V39.4527H26.3674V40.404H22.6721Z" fill="#2E3E86"/>
<path d="M28.3311 33.7939H27.2579V40.404H28.3311V33.7939Z" fill="#2E3E86"/>
<path d="M30.9161 33.7939H33.0503L34.6967 40.404H33.6113L33.2576 38.9771H30.7209L30.3673 40.404H29.294L30.9283 33.7939H30.9161ZM30.9283 38.038H33.0381L32.221 34.6842H31.7454L30.9283 38.038Z" fill="#2E3E86"/>
</svg>
