<svg width="214" height="47" viewBox="0 0 214 47" fill="none" xmlns="http://www.w3.org/2000/svg">
<path fill-rule="evenodd" clip-rule="evenodd" d="M66.708 0V46.3926H0V0H66.708ZM1.2793 45.0615H65.415V1.28027H1.2793V45.0615Z" fill="white"/>
<path d="M31.9856 10.815L33.3409 9.79862L34.6961 10.815L34.1816 9.18373L35.562 8.17985H33.8679L33.3534 6.52344L32.8389 8.17985H31.1449L32.5252 9.18373L32.0107 10.815H31.9856ZM24.9835 12.735L26.3388 11.7185L27.694 12.735L27.1795 11.1037L28.5598 10.0872H26.8658L26.3513 8.43082L25.8368 10.0872H24.1428L25.5106 11.0911L24.9961 12.7224L24.9835 12.735ZM21.2064 13.6887L20.6919 15.3451H18.9978L20.3782 16.349L19.8637 17.9803L21.2189 16.9639L22.5742 17.9803L22.0597 16.349L23.44 15.3325H21.746L21.2315 13.6761L21.2064 13.6887ZM19.3367 24.1542L20.6919 25.1706L20.1774 23.5393L21.5452 22.5229H19.8511L19.3367 20.8665L18.8222 22.5229H17.1281L18.5084 23.5268L17.9939 25.1581L19.3492 24.1416L19.3367 24.1542ZM21.7334 29.7007L21.2189 28.0443L20.7044 29.7007H19.0104L20.3907 30.7045L19.8762 32.3359L21.2315 31.3194L22.5867 32.3359L22.0722 30.7045L23.4526 29.7007H21.7334ZM26.8658 34.9585L26.3513 33.3021L25.8368 34.9585H24.1428L25.5231 35.9624L25.0086 37.5937L26.3638 36.5898L27.7191 37.5937L27.2046 35.9624L28.585 34.946H26.8909L26.8658 34.9585ZM33.8554 36.8659L33.3409 35.2095L32.8264 36.8659H31.1323L32.5127 37.8698L31.9982 39.5011L33.3534 38.4847L34.7087 39.5011L34.1942 37.8698L35.5745 36.8534H33.8805L33.8554 36.8659ZM40.8575 34.9585L40.343 33.3021L39.8285 34.9585H38.1344L39.5022 35.9624L38.9877 37.5937L40.343 36.5898L41.6982 37.5937L41.1837 35.9624L42.5641 34.946H40.87L40.8575 34.9585ZM45.9898 29.7007L45.4628 28.0443L44.9483 29.7007H43.2542L44.6346 30.7045L44.1201 32.3359L45.4753 31.3194L46.8306 32.3359L46.3161 30.7045L47.6964 29.7007H45.9898ZM47.847 22.4978L47.3325 20.8414L46.818 22.4978H45.124L46.5043 23.5017L45.9898 25.133L47.3451 24.1165L48.7003 25.133L48.1858 23.5017L49.5662 22.4978H47.847ZM44.1201 17.9803L45.4753 16.9639L46.8306 17.9803L46.3161 16.349L47.6964 15.3451H46.0024L45.4753 13.6887L44.9608 15.3451H43.2668L44.6471 16.349L44.1326 17.9803H44.1201ZM40.3555 8.44337L39.841 10.0998H38.147L39.5148 11.1162L39.0003 12.7475L40.3555 11.7311L41.7108 12.7475L41.1963 11.1162L42.5766 10.0998H40.8826L40.3681 8.44337H40.3555Z" fill="white"/>
<path d="M81.6279 14.2546L83.6859 14.9197C83.3721 16.0992 82.8451 16.9776 82.1048 17.5423C81.377 18.107 80.4358 18.3956 79.3064 18.3956C77.9135 18.3956 76.7591 17.9062 75.8556 16.9274C74.9521 15.9486 74.5003 14.6059 74.5003 12.9119C74.5003 11.1174 74.9521 9.72454 75.8556 8.72066C76.7591 7.72932 77.9512 7.22738 79.4319 7.22738C80.7244 7.22738 81.7659 7.61638 82.5691 8.39439C83.0459 8.85869 83.4098 9.52376 83.6482 10.3896L81.5401 10.9041C81.4146 10.3394 81.1511 9.90022 80.7621 9.57396C80.3605 9.2477 79.8837 9.08457 79.319 9.08457C78.541 9.08457 77.901 9.37318 77.4116 9.95042C76.9222 10.5276 76.6838 11.4562 76.6838 12.7362C76.6838 14.104 76.9222 15.0702 77.399 15.6475C77.8759 16.2247 78.5033 16.5133 79.2688 16.5133C79.8335 16.5133 80.3229 16.3251 80.7244 15.9612C81.126 15.5847 81.4271 15.0075 81.6028 14.2169" fill="white"/>
<path d="M85.0289 14.2038C85.0289 13.5136 85.192 12.8485 85.5308 12.2086C85.8571 11.5686 86.334 11.0792 86.9363 10.7404C87.5386 10.4016 88.2162 10.2384 88.9692 10.2384C90.1236 10.2384 91.0648 10.6275 91.8051 11.3929C92.5455 12.1584 92.9094 13.1246 92.9094 14.3042C92.9094 15.4838 92.533 16.4625 91.7926 17.2406C91.0522 18.0186 90.1111 18.4076 88.9817 18.4076C88.279 18.4076 87.6139 18.2444 86.9739 17.9182C86.334 17.5919 85.8571 17.1151 85.5308 16.5002C85.2046 15.8728 85.0289 15.1073 85.0289 14.2163M87.0994 14.3167C87.0994 15.0947 87.2751 15.6845 87.639 16.0986C88.0029 16.5127 88.4421 16.7135 88.9692 16.7135C89.4962 16.7135 89.9354 16.5127 90.2993 16.0986C90.6507 15.6845 90.8263 15.0822 90.8263 14.3042C90.8263 13.5262 90.6507 12.9489 90.2993 12.5348C89.9354 12.1207 89.4962 11.92 88.9692 11.92C88.4421 11.92 88.0029 12.1207 87.639 12.5348C87.2751 12.9489 87.0994 13.5387 87.0994 14.3167Z" fill="white"/>
<path d="M93.6621 10.4145H94.779V9.82472C94.779 9.1722 94.8417 8.67025 94.9797 8.35654C95.1177 8.03027 95.3687 7.76675 95.7326 7.56597C96.0965 7.3652 96.5608 7.26481 97.1255 7.26481C97.6902 7.26481 98.2674 7.35265 98.8196 7.52833L98.5435 8.97142C98.2173 8.89613 97.9161 8.85848 97.6149 8.85848C97.3137 8.85848 97.113 8.92122 96.9875 9.05926C96.862 9.19729 96.7993 9.47336 96.7993 9.86237V10.4145H98.3051V12.0458H96.7993V18.2323H94.779V12.0458H93.6621V10.4145ZM99.3341 7.44049H101.354V9.34787H99.3341V7.44049ZM99.3341 10.4145H101.354V18.2323H99.3341V10.4145Z" fill="white"/>
<path d="M110.427 18.2319H108.407V14.2414C108.407 13.4007 108.357 12.8485 108.281 12.6101C108.194 12.3592 108.056 12.1709 107.855 12.0329C107.667 11.8949 107.428 11.8321 107.152 11.8321C106.801 11.8321 106.487 11.9325 106.211 12.1207C105.935 12.3215 105.734 12.5725 105.634 12.8987C105.533 13.225 105.483 13.8273 105.483 14.6932V18.2319H103.463V10.4141H105.345V11.5686C106.01 10.6776 106.851 10.2384 107.855 10.2384C108.294 10.2384 108.708 10.3263 109.072 10.4894C109.436 10.6525 109.724 10.8659 109.913 11.1168C110.101 11.3678 110.239 11.6564 110.314 11.9827C110.39 12.309 110.427 12.7733 110.427 13.3756V18.2319Z" fill="white"/>
<path d="M113.991 12.7984L112.158 12.4595C112.372 11.7066 112.723 11.1419 113.225 10.778C113.727 10.4141 114.48 10.2384 115.471 10.2384C116.375 10.2384 117.04 10.3514 117.479 10.5647C117.918 10.778 118.232 11.0667 118.408 11.3929C118.583 11.7317 118.684 12.3466 118.684 13.2376L118.659 15.6469C118.659 16.3371 118.696 16.839 118.759 17.1653C118.822 17.4915 118.947 17.8429 119.123 18.2193H117.128C117.078 18.0813 117.002 17.8805 116.939 17.6045C116.902 17.479 116.877 17.4037 116.864 17.366C116.525 17.7048 116.149 17.9684 115.76 18.144C115.371 18.3197 114.944 18.4076 114.505 18.4076C113.714 18.4076 113.1 18.1817 112.648 17.755C112.196 17.3158 111.97 16.7637 111.97 16.0986C111.97 15.6594 112.071 15.2579 112.284 14.9191C112.497 14.5677 112.773 14.3042 113.15 14.116C113.526 13.9277 114.053 13.7771 114.756 13.6391C115.697 13.4634 116.35 13.2878 116.714 13.1372V12.9364C116.714 12.5348 116.613 12.2588 116.425 12.0831C116.237 11.92 115.873 11.8321 115.333 11.8321C114.982 11.8321 114.693 11.9074 114.492 12.0454C114.292 12.1835 114.129 12.447 114.003 12.8109M116.688 14.4673C116.438 14.5552 116.023 14.6555 115.459 14.781C114.894 14.9065 114.53 15.0195 114.354 15.1449C114.091 15.3332 113.953 15.5841 113.953 15.8728C113.953 16.1614 114.053 16.4123 114.267 16.6257C114.48 16.839 114.743 16.9394 115.07 16.9394C115.434 16.9394 115.785 16.8139 116.111 16.5755C116.362 16.3872 116.513 16.1614 116.588 15.8853C116.638 15.7096 116.663 15.3708 116.663 14.8814V14.4673H116.688Z" fill="white"/>
<path d="M127.619 18.2319H125.599V14.2414C125.599 13.4007 125.549 12.8485 125.473 12.6101C125.386 12.3592 125.247 12.1709 125.047 12.0329C124.858 11.8949 124.62 11.8321 124.344 11.8321C123.993 11.8321 123.679 11.9325 123.403 12.1207C123.127 12.3215 122.926 12.5725 122.826 12.8987C122.725 13.225 122.675 13.8273 122.675 14.6932V18.2319H120.655V10.4141H122.537V11.5686C123.202 10.6776 124.043 10.2384 125.047 10.2384C125.486 10.2384 125.9 10.3263 126.264 10.4894C126.628 10.6525 126.916 10.8659 127.105 11.1168C127.293 11.3678 127.431 11.6564 127.506 11.9827C127.582 12.309 127.619 12.7733 127.619 13.3756V18.2319Z" fill="white"/>
<path d="M128.848 18.2328V16.6266L131.709 13.2636C132.186 12.7114 132.525 12.3224 132.751 12.0965C132.512 12.1091 132.211 12.1216 131.822 12.1216H129.124V10.415H135.436V11.8832L132.512 15.3341L131.483 16.476C132.048 16.4384 132.387 16.4258 132.525 16.4258H135.649V18.2454H128.835L128.848 18.2328Z" fill="white"/>
<path d="M137.03 7.44059H139.05V9.34798H137.03V7.44059ZM137.03 10.4146H139.05V18.2324H137.03V10.4146Z" fill="white"/>
<path d="M142.627 12.7984L140.794 12.4595C141.008 11.7066 141.359 11.1419 141.861 10.778C142.363 10.4141 143.116 10.2384 144.107 10.2384C145.011 10.2384 145.676 10.3514 146.115 10.5647C146.554 10.778 146.868 11.0667 147.044 11.3929C147.219 11.7317 147.307 12.3466 147.307 13.2376L147.282 15.6469C147.282 16.3371 147.32 16.839 147.382 17.1653C147.445 17.4915 147.571 17.8429 147.746 18.2193H145.751C145.701 18.0813 145.638 17.8805 145.563 17.6045C145.525 17.479 145.5 17.4037 145.488 17.366C145.149 17.7048 144.772 17.9684 144.383 18.144C143.994 18.3197 143.568 18.4076 143.129 18.4076C142.338 18.4076 141.723 18.1817 141.271 17.755C140.82 17.3158 140.594 16.7637 140.594 16.0986C140.594 15.6594 140.694 15.2579 140.907 14.9191C141.108 14.5677 141.397 14.3042 141.773 14.116C142.15 13.9277 142.677 13.7771 143.379 13.6391C144.321 13.4634 144.973 13.2878 145.337 13.1372V12.9364C145.337 12.5348 145.237 12.2588 145.048 12.0831C144.86 11.92 144.496 11.8321 143.957 11.8321C143.593 11.8321 143.317 11.9074 143.116 12.0454C142.915 12.1835 142.752 12.447 142.627 12.8109M145.325 14.4673C145.061 14.5552 144.659 14.6555 144.095 14.781C143.53 14.9065 143.166 15.0195 142.99 15.1449C142.727 15.3332 142.589 15.5841 142.589 15.8728C142.589 16.1614 142.689 16.4123 142.903 16.6257C143.116 16.839 143.379 16.9394 143.706 16.9394C144.07 16.9394 144.421 16.8139 144.747 16.5755C144.986 16.3872 145.149 16.1614 145.224 15.8853C145.274 15.7096 145.299 15.3708 145.299 14.8814V14.4673H145.325Z" fill="white"/>
<path d="M152.804 10.4153V12.0592H151.423V15.2089C151.423 15.8488 151.436 16.2128 151.461 16.3257C151.486 16.4261 151.549 16.5139 151.637 16.5892C151.725 16.6645 151.85 16.6896 151.976 16.6896C152.164 16.6896 152.427 16.6269 152.791 16.4888L152.967 18.095C152.503 18.3084 151.963 18.4088 151.373 18.4088C151.009 18.4088 150.683 18.346 150.394 18.2205C150.093 18.095 149.893 17.9319 149.755 17.7311C149.616 17.5304 149.516 17.2668 149.466 16.928C149.428 16.6896 149.403 16.2002 149.403 15.4724V12.0592H148.475V10.4153H149.403V8.85929L151.423 7.65462V10.4153H152.804Z" fill="white"/>
<path d="M153.744 14.2038C153.744 13.5136 153.907 12.8485 154.246 12.2086C154.573 11.5686 155.037 11.0792 155.652 10.7404C156.254 10.4016 156.932 10.2384 157.685 10.2384C158.839 10.2384 159.78 10.6275 160.521 11.3929C161.261 12.1584 161.625 13.1246 161.625 14.3042C161.625 15.4838 161.248 16.4625 160.508 17.2406C159.768 18.0186 158.826 18.4076 157.697 18.4076C156.994 18.4076 156.329 18.2444 155.689 17.9182C155.049 17.5919 154.573 17.1151 154.246 16.5002C153.907 15.8728 153.744 15.1073 153.744 14.2163M155.815 14.3167C155.815 15.0947 155.99 15.6845 156.354 16.0986C156.718 16.5127 157.158 16.7135 157.685 16.7135C158.212 16.7135 158.651 16.5127 159.015 16.0986C159.366 15.6845 159.554 15.0822 159.554 14.3042C159.554 13.5262 159.379 12.9489 159.015 12.5348C158.651 12.1207 158.212 11.92 157.685 11.92C157.158 11.92 156.718 12.1207 156.354 12.5348C155.99 12.9489 155.815 13.5387 155.815 14.3167Z" fill="white"/>
<path d="M81.8662 36.3151H79.9839V35.1606C79.6702 35.6123 79.3063 35.9386 78.8797 36.1645C78.453 36.3778 78.0264 36.4907 77.5997 36.4907C76.7213 36.4907 75.9684 36.1268 75.341 35.399C74.7135 34.6712 74.3998 33.6673 74.3998 32.3748C74.3998 31.0823 74.701 30.0408 75.3159 29.3506C75.9308 28.6604 76.6962 28.3216 77.6248 28.3216C78.4781 28.3216 79.2185 28.6855 79.8334 29.4133V25.5233H81.8537V36.3151H81.8662ZM76.4829 32.2368C76.4829 33.0775 76.5958 33.6799 76.8217 34.0438C77.1479 34.5834 77.5997 34.8469 78.1895 34.8469C78.6538 34.8469 79.0553 34.6461 79.3816 34.2445C79.7079 33.843 79.871 33.2407 79.871 32.425C79.871 31.534 79.7079 30.8815 79.3942 30.4925C79.0805 30.091 78.6664 29.9027 78.177 29.9027C77.6876 29.9027 77.2986 30.1035 76.9723 30.4925C76.646 30.8815 76.4829 31.4588 76.4829 32.2368Z" fill="white"/>
<path d="M85.3679 30.881L83.5357 30.5422C83.7491 29.7893 84.1004 29.2246 84.6024 28.8607C85.1043 28.4968 85.8572 28.3211 86.8486 28.3211C87.7521 28.3211 88.4172 28.4341 88.8564 28.6474C89.2956 28.8607 89.6093 29.1493 89.785 29.4756C89.9606 29.8144 90.061 30.4293 90.061 31.3202L90.0359 33.7296C90.0359 34.4197 90.0736 34.9217 90.1363 35.2479C90.1991 35.5742 90.3245 35.9256 90.5002 36.302H88.505C88.4548 36.164 88.3795 35.9632 88.3042 35.6871C88.2666 35.5617 88.2415 35.4864 88.2289 35.4487C87.8776 35.7875 87.5137 36.051 87.1247 36.2142C86.7356 36.3899 86.309 36.4777 85.8698 36.4777C85.0792 36.4777 84.4643 36.2518 84.0126 35.8252C83.5608 35.386 83.335 34.8338 83.335 34.1688C83.335 33.7296 83.4353 33.328 83.6487 32.9892C83.862 32.6504 84.1381 32.3743 84.5145 32.1986C84.891 32.0104 85.418 31.8598 86.1208 31.7218C87.0619 31.5461 87.7144 31.3704 88.0783 31.2198V31.0065C88.0783 30.605 87.978 30.3289 87.7897 30.1532C87.6015 29.9901 87.2376 29.9022 86.698 29.9022C86.3466 29.9022 86.058 29.9775 85.8572 30.1156C85.6565 30.2536 85.4934 30.5171 85.3679 30.881ZM88.0783 32.5625C87.8148 32.6504 87.4133 32.7508 86.8486 32.8763C86.2839 33.0017 85.92 33.1147 85.7443 33.2402C85.4808 33.4284 85.3427 33.6794 85.3427 33.968C85.3427 34.2566 85.4431 34.5076 85.6565 34.7209C85.8698 34.9342 86.1333 35.0346 86.4596 35.0346C86.8235 35.0346 87.1748 34.9091 87.5011 34.6707C87.7521 34.4825 87.9027 34.2566 87.978 33.9805C88.0281 33.8049 88.0532 33.466 88.0532 32.9767V32.5625H88.0783Z" fill="white"/>
<path d="M94.0768 25.5233H92.0565V36.3151H94.0768V25.5233Z" fill="white"/>
<path d="M98.1674 25.5233H96.1471V36.3151H98.1674V25.5233Z" fill="white"/>
<path d="M100.213 29.3631L99.8364 27.3554V25.5233H102.032V27.3554L101.706 29.3631H100.213Z" fill="white"/>
<path d="M103.739 25.5233H105.872V31.3709C105.872 32.2995 105.897 32.9018 105.947 33.1779C106.035 33.6171 106.261 33.981 106.6 34.2445C106.939 34.5081 107.416 34.6461 108.005 34.6461C108.595 34.6461 109.059 34.5206 109.373 34.2696C109.687 34.0187 109.863 33.705 109.925 33.341C109.988 32.9771 110.013 32.3622 110.013 31.5089V25.5358H112.146V31.2078C112.146 32.5003 112.084 33.4163 111.971 33.9559C111.858 34.4955 111.644 34.9473 111.331 35.3112C111.017 35.6751 110.603 35.9762 110.088 36.1896C109.574 36.4029 108.896 36.5158 108.056 36.5158C107.052 36.5158 106.286 36.3903 105.759 36.1519C105.245 35.9135 104.831 35.5998 104.529 35.2233C104.228 34.8469 104.027 34.4453 103.927 34.0312C103.789 33.4163 103.714 32.5003 103.714 31.2956V25.5358L103.739 25.5233Z" fill="white"/>
<path d="M121.306 36.3142H119.286V32.3238C119.286 31.483 119.236 30.9309 119.161 30.6925C119.073 30.4415 118.935 30.2533 118.734 30.1152C118.546 29.9772 118.307 29.9145 118.031 29.9145C117.68 29.9145 117.366 30.0149 117.09 30.2031C116.814 30.4039 116.613 30.6674 116.513 30.9811C116.413 31.3073 116.362 31.9097 116.362 32.7755V36.3142H114.342V28.4965H116.224V29.6509C116.889 28.7725 117.73 28.3333 118.734 28.3333C119.173 28.3333 119.587 28.4212 119.951 28.5843C120.328 28.7474 120.604 28.9608 120.792 29.2117C120.98 29.4627 121.118 29.7513 121.194 30.0776C121.269 30.4038 121.306 30.8681 121.306 31.4705V36.3268V36.3142Z" fill="white"/>
<path d="M123.365 25.5233H125.385V27.4307H123.365V25.5233ZM123.365 28.4973H125.385V36.3151H123.365V28.4973Z" fill="white"/>
<path d="M126.979 32.2987C126.979 31.6085 127.142 30.9434 127.468 30.3035C127.794 29.6635 128.271 29.1741 128.874 28.8353C129.476 28.4965 130.154 28.3333 130.906 28.3333C132.061 28.3333 133.002 28.7223 133.742 29.4878C134.483 30.2533 134.847 31.2195 134.847 32.3991C134.847 33.5786 134.47 34.5574 133.73 35.3354C132.977 36.1135 132.048 36.5025 130.919 36.5025C130.216 36.5025 129.551 36.3393 128.911 36.0131C128.271 35.6868 127.794 35.21 127.468 34.5951C127.142 33.9677 126.979 33.2022 126.979 32.3112M129.049 32.4116C129.049 33.1896 129.225 33.7794 129.589 34.1935C129.953 34.6076 130.392 34.8084 130.919 34.8084C131.446 34.8084 131.885 34.6076 132.249 34.1935C132.601 33.7794 132.789 33.1771 132.789 32.3991C132.789 31.6211 132.613 31.0438 132.249 30.6297C131.898 30.2156 131.446 30.0148 130.919 30.0148C130.392 30.0148 129.953 30.2156 129.589 30.6297C129.225 31.0438 129.049 31.6336 129.049 32.4116Z" fill="white"/>
<path d="M143.392 36.3142H141.372V32.3238C141.372 31.483 141.321 30.9309 141.246 30.6925C141.158 30.4415 141.02 30.2533 140.832 30.1152C140.644 29.9772 140.405 29.9145 140.129 29.9145C139.778 29.9145 139.464 30.0149 139.188 30.2031C138.912 30.4039 138.711 30.6674 138.611 30.9811C138.511 31.3073 138.46 31.9097 138.46 32.7755V36.3142H136.44V28.4965H138.322V29.6509C138.987 28.7725 139.828 28.3333 140.832 28.3333C141.271 28.3333 141.685 28.4212 142.049 28.5843C142.413 28.7474 142.702 28.9608 142.89 29.2117C143.078 29.4627 143.216 29.7513 143.279 30.0776C143.354 30.4038 143.392 30.8681 143.392 31.4705V36.3268V36.3142Z" fill="white"/>
<path d="M149.855 33.83L151.862 34.1813C151.599 34.9342 151.197 35.5115 150.633 35.913C150.068 36.302 149.378 36.5028 148.537 36.5028C147.207 36.5028 146.228 36.0636 145.588 35.1726C145.086 34.4574 144.835 33.5664 144.835 32.4747C144.835 31.1822 145.161 30.1658 145.827 29.4254C146.492 28.6976 147.32 28.3211 148.336 28.3211C149.466 28.3211 150.369 28.7101 151.022 29.4756C151.674 30.2411 152 31.4206 151.963 33.0017H146.906C146.918 33.6166 147.081 34.0935 147.395 34.4323C147.709 34.7711 148.098 34.9468 148.562 34.9468C148.876 34.9468 149.139 34.8589 149.365 34.6833C149.579 34.5076 149.742 34.219 149.855 33.83ZM149.968 31.7343C149.955 31.132 149.804 30.6803 149.516 30.3665C149.227 30.0528 148.876 29.9022 148.462 29.9022C148.023 29.9022 147.659 30.0654 147.37 30.3916C147.081 30.7179 146.943 31.1696 146.943 31.7343H149.968Z" fill="white"/>
<path d="M162.14 33.83L164.148 34.1813C163.884 34.9342 163.482 35.5115 162.918 35.913C162.353 36.302 161.663 36.5028 160.822 36.5028C159.492 36.5028 158.513 36.0636 157.873 35.1726C157.371 34.4574 157.12 33.5664 157.12 32.4747C157.12 31.1822 157.447 30.1658 158.112 29.4254C158.777 28.6976 159.605 28.3211 160.621 28.3211C161.751 28.3211 162.654 28.7101 163.307 29.4756C163.959 30.2411 164.273 31.4206 164.248 33.0017H159.191C159.203 33.6166 159.367 34.0935 159.68 34.4323C159.994 34.7711 160.383 34.9468 160.847 34.9468C161.161 34.9468 161.424 34.8589 161.65 34.6833C161.864 34.5076 162.027 34.219 162.14 33.83ZM162.253 31.7343C162.24 31.132 162.09 30.6803 161.801 30.3665C161.512 30.0528 161.161 29.9022 160.747 29.9022C160.308 29.9022 159.944 30.0654 159.655 30.3916C159.367 30.7179 159.229 31.1696 159.229 31.7343H162.253Z" fill="white"/>
<path d="M170.936 36.315V35.148C170.66 35.5621 170.296 35.9009 169.844 36.1393C169.393 36.3778 168.916 36.5032 168.414 36.5032C167.912 36.5032 167.447 36.3903 167.033 36.1519C166.632 35.926 166.331 35.5997 166.155 35.1731C165.979 34.759 165.879 34.1818 165.879 33.4414V28.4973H167.899V32.0861C167.899 33.1904 167.937 33.8555 168.012 34.1065C168.087 34.3574 168.226 34.5457 168.414 34.6962C168.615 34.8468 168.866 34.9096 169.167 34.9096C169.505 34.9096 169.819 34.8092 170.095 34.621C170.371 34.4327 170.547 34.1818 170.66 33.8931C170.76 33.6045 170.811 32.9018 170.811 31.785V28.4847H172.831V36.3025H170.949L170.936 36.315Z" fill="white"/>
<path d="M176.834 36.3146H174.814V28.4968H176.696V29.6136C177.022 29.0866 177.311 28.7352 177.562 28.5721C177.813 28.409 178.114 28.3211 178.44 28.3211C178.904 28.3211 179.344 28.4466 179.77 28.7101L179.143 30.5171C178.804 30.2913 178.49 30.1783 178.189 30.1783C177.888 30.1783 177.662 30.2536 177.474 30.4167C177.273 30.5799 177.123 30.8559 177.01 31.2826C176.897 31.6967 176.834 32.5751 176.834 33.9052V36.3146Z" fill="white"/>
<path d="M180.16 32.2987C180.16 31.6085 180.323 30.9434 180.662 30.3035C180.988 29.6635 181.452 29.1741 182.067 28.8353C182.67 28.4965 183.347 28.3333 184.1 28.3333C185.255 28.3333 186.196 28.7223 186.936 29.4878C187.677 30.2533 188.04 31.2195 188.04 32.3991C188.04 33.5786 187.664 34.5574 186.924 35.3354C186.171 36.1135 185.242 36.5025 184.113 36.5025C183.41 36.5025 182.745 36.3393 182.105 36.0131C181.465 35.6868 180.988 35.21 180.662 34.5951C180.323 33.9677 180.16 33.2022 180.16 32.3112M182.23 32.4116C182.23 33.1896 182.406 33.7794 182.77 34.1935C183.134 34.6076 183.573 34.8084 184.1 34.8084C184.627 34.8084 185.066 34.6076 185.43 34.1935C185.782 33.7794 185.97 33.1771 185.97 32.3991C185.97 31.6211 185.794 31.0438 185.43 30.6297C185.079 30.2156 184.627 30.0148 184.1 30.0148C183.573 30.0148 183.134 30.2156 182.77 30.6297C182.406 31.0438 182.23 31.6336 182.23 32.4116Z" fill="white"/>
<path d="M189.558 28.4965H191.44V29.6509C191.691 29.2619 192.018 28.9357 192.432 28.6972C192.846 28.4463 193.31 28.3333 193.825 28.3333C194.716 28.3333 195.468 28.6847 196.083 29.4C196.698 30.1152 197.012 31.1066 197.012 32.374C197.012 33.6414 196.698 34.6955 196.071 35.4107C195.456 36.1385 194.69 36.5025 193.812 36.5025C193.385 36.5025 193.009 36.4146 192.67 36.2515C192.331 36.0758 191.967 35.7872 191.591 35.3731V39.3133H189.571V28.5216L189.558 28.4965ZM191.566 32.2736C191.566 33.152 191.742 33.8045 192.08 34.2186C192.419 34.6327 192.833 34.8461 193.323 34.8461C193.812 34.8461 194.189 34.6578 194.49 34.2688C194.803 33.8798 194.954 33.2524 194.954 32.374C194.954 31.5583 194.791 30.9434 194.477 30.5544C194.151 30.1529 193.762 29.9647 193.285 29.9647C192.808 29.9647 192.382 30.1529 192.055 30.5544C191.729 30.9434 191.566 31.5207 191.566 32.2861" fill="white"/>
<path d="M203.036 33.83L205.044 34.1813C204.78 34.9342 204.378 35.5115 203.814 35.913C203.249 36.302 202.559 36.5028 201.718 36.5028C200.388 36.5028 199.409 36.0636 198.769 35.1726C198.267 34.4574 198.016 33.5664 198.016 32.4747C198.016 31.1822 198.343 30.1658 199.008 29.4254C199.673 28.6976 200.501 28.3211 201.517 28.3211C202.647 28.3211 203.55 28.7101 204.203 29.4756C204.855 30.2411 205.169 31.4206 205.144 33.0017H200.087C200.099 33.6166 200.263 34.0935 200.576 34.4323C200.89 34.7711 201.279 34.9468 201.743 34.9468C202.057 34.9468 202.32 34.8589 202.546 34.6833C202.76 34.5076 202.923 34.219 203.036 33.83ZM203.149 31.7343C203.136 31.132 202.986 30.6803 202.697 30.3665C202.408 30.0528 202.057 29.9022 201.643 29.9022C201.204 29.9022 200.84 30.0654 200.551 30.3916C200.263 30.7179 200.125 31.1696 200.125 31.7343H203.149Z" fill="white"/>
<path d="M208.318 30.881L206.486 30.5422C206.687 29.7893 207.051 29.2246 207.553 28.8607C208.055 28.4968 208.808 28.3211 209.799 28.3211C210.702 28.3211 211.368 28.4341 211.807 28.6474C212.246 28.8607 212.56 29.1493 212.735 29.4756C212.911 29.8144 213.011 30.4293 213.011 31.3202L212.986 33.7296C212.986 34.4197 213.024 34.9217 213.087 35.2479C213.149 35.5742 213.275 35.9256 213.451 36.302H211.455C211.405 36.164 211.33 35.9632 211.255 35.6871C211.217 35.5617 211.192 35.4864 211.179 35.4487C210.841 35.7875 210.464 36.051 210.075 36.2142C209.686 36.3899 209.259 36.4777 208.82 36.4777C208.03 36.4777 207.415 36.2518 206.963 35.8252C206.511 35.386 206.285 34.8338 206.285 34.1688C206.285 33.7296 206.386 33.328 206.599 32.9892C206.8 32.6504 207.089 32.3743 207.465 32.1986C207.841 32.0104 208.368 31.8598 209.071 31.7218C210.012 31.5461 210.665 31.3704 211.029 31.2198V31.0065C211.029 30.605 210.928 30.3289 210.74 30.1532C210.552 29.9901 210.188 29.9022 209.648 29.9022C209.297 29.9022 209.008 29.9775 208.808 30.1156C208.607 30.2536 208.444 30.5171 208.318 30.881ZM211.016 32.5625C210.753 32.6504 210.351 32.7508 209.786 32.8763C209.222 33.0017 208.858 33.1147 208.682 33.2402C208.419 33.4284 208.281 33.6794 208.281 33.968C208.281 34.2566 208.381 34.5076 208.594 34.7209C208.808 34.9342 209.071 35.0346 209.397 35.0346C209.761 35.0346 210.113 34.9091 210.439 34.6707C210.69 34.4825 210.841 34.2566 210.916 33.9805C210.966 33.8049 210.991 33.466 210.991 32.9767V32.5625H211.016Z" fill="white"/>
</svg>
