<svg width="167" height="50" viewBox="0 0 167 50" fill="none" xmlns="http://www.w3.org/2000/svg">
<g clip-path="url(#clip0_160_604)">
<path d="M98.5072 3.34201V5.20003H102.809V6.85827H98.5072V10.2497H96.6617V1.68376H103.258V3.34201H98.5072Z" fill="white"/>
<path d="M110.613 3.80354V10.2497H108.792V9.43929C108.406 10.0253 107.683 10.3994 106.847 10.3994C105.451 10.3994 104.453 9.36459 104.453 7.90556V3.80354H106.212V7.51902C106.212 8.31701 106.71 8.86571 107.433 8.86571C108.194 8.86571 108.78 8.31702 108.78 7.61891L108.792 7.65626V3.80354L110.613 3.80354Z" fill="white"/>
<path d="M115.998 9.83829C115.624 10.175 115.038 10.3994 114.514 10.3994C113.38 10.3994 112.582 9.58899 112.582 8.42936V5.27474H111.696V3.80354H112.582V2.03296H114.327V3.80354H115.724V5.27474H114.327V8.14242C114.327 8.5666 114.602 8.86571 114.938 8.86571C115.188 8.86571 115.437 8.77855 115.562 8.65376L115.998 9.83829Z" fill="white"/>
<path d="M123.229 3.80354V10.2497H121.408V9.43929C121.022 10.0253 120.299 10.3994 119.464 10.3994C118.067 10.3994 117.07 9.36459 117.07 7.90556V3.80354H118.828V7.51902C118.828 8.31701 119.326 8.86571 120.05 8.86571C120.81 8.86571 121.396 8.31702 121.396 7.61891L121.408 7.65626V3.80354L123.229 3.80354Z" fill="white"/>
<path d="M128.814 3.65384V5.18757C127.467 5.18757 126.607 5.96067 126.607 7.17011V10.2497H124.786V3.80354H126.607V5.00053C127.031 4.1649 127.829 3.65384 128.814 3.65384Z" fill="white"/>
<path d="M134.387 8.2174L135.546 9.40194C134.973 10.0004 133.863 10.3994 132.915 10.3994C130.995 10.3994 129.499 8.99049 129.499 7.00796C129.499 5.06278 130.933 3.65384 132.815 3.65384C134.835 3.65384 136.02 5.18757 136.02 7.61891H131.369C131.581 8.31701 132.142 8.79099 132.903 8.79099C133.414 8.79099 134.037 8.55386 134.387 8.2174ZM131.394 6.30958H134.274C134.1 5.67373 133.626 5.26228 132.89 5.26228C132.204 5.26228 131.631 5.66128 131.394 6.30958Z" fill="white"/>
<path d="M102.397 21.9366H98.582L98.033 23.2833H95.976L99.4668 14.7173H101.524L105.016 23.2833H102.946L102.397 21.9366ZM101.761 20.3779L100.49 17.2485L99.2178 20.3779H101.761Z" fill="white"/>
<path d="M110.002 16.6874V18.2211C108.655 18.2211 107.795 18.9942 107.795 20.2036V23.2833H105.974V16.8371H107.795V18.034C108.219 17.1984 109.017 16.6874 110.002 16.6874Z" fill="white"/>
<path d="M114.876 22.8718C114.502 23.2086 113.916 23.433 113.392 23.433C112.258 23.433 111.46 22.6225 111.46 21.4629V18.3083H110.575V16.8371H111.46V15.0665H113.205V16.8371H114.602V18.3083H113.205V21.1759C113.205 21.6001 113.48 21.8992 113.816 21.8992C114.066 21.8992 114.315 21.8121 114.44 21.6873L114.876 22.8718Z" fill="white"/>
<path d="M115.923 14.9541C115.923 14.4431 116.359 13.9815 116.92 13.9815C117.457 13.9815 117.893 14.4431 117.893 14.9541C117.893 15.5028 117.457 15.9516 116.92 15.9516C116.359 15.9516 115.923 15.5028 115.923 14.9541ZM115.998 16.8371H117.818V23.2833H115.998V16.8371Z" fill="white"/>
<path d="M121.558 16.8371H122.955V18.3083H121.558V23.2833H119.812V18.3083H118.927V16.8371H119.812V16.2759C119.812 15.1163 120.61 14.3058 121.745 14.3058C122.269 14.3058 122.855 14.5302 123.229 14.867L122.792 15.9765C122.668 15.852 122.418 15.7646 122.169 15.7646C121.832 15.7646 121.558 16.064 121.558 16.4879V16.8371Z" fill="white"/>
<path d="M124.039 14.9541C124.039 14.4431 124.475 13.9815 125.036 13.9815C125.572 13.9815 126.009 14.4431 126.009 14.9541C126.009 15.5028 125.572 15.9516 125.036 15.9516C124.475 15.9516 124.039 15.5028 124.039 14.9541ZM124.113 16.8371H125.934V23.2833H124.113V16.8371Z" fill="white"/>
<path d="M127.155 20.0539C127.155 18.2211 128.776 16.6874 130.684 16.6874C131.731 16.6874 132.591 17.1113 133.215 17.7845L132.006 18.8196C131.682 18.458 131.17 18.2211 130.672 18.2211C129.724 18.2211 128.926 19.0564 128.926 20.0415C128.926 21.0514 129.724 21.8992 130.684 21.8992C131.182 21.8992 131.706 21.6499 132.043 21.2758L133.253 22.2982C132.617 22.9966 131.744 23.433 130.672 23.433C128.763 23.433 127.155 21.8868 127.155 20.0539Z" fill="white"/>
<path d="M134.261 14.9541C134.261 14.4431 134.698 13.9815 135.259 13.9815C135.795 13.9815 136.231 14.4431 136.231 14.9541C136.231 15.5028 135.795 15.9516 135.259 15.9516C134.698 15.9516 134.261 15.5028 134.261 14.9541ZM134.336 16.8371H136.156V23.2833H134.336V16.8371Z" fill="white"/>
<path d="M143.45 19.4305V23.2833H141.692V22.635C141.231 23.1585 140.495 23.433 139.796 23.433C138.425 23.433 137.365 22.6101 137.365 21.3754C137.365 20.1037 138.55 19.231 140.046 19.231C140.57 19.231 141.143 19.3431 141.692 19.555V19.4305C141.692 18.7446 141.268 18.1461 140.208 18.1461C139.609 18.1461 139.049 18.3456 138.538 18.6076L137.927 17.3982C138.837 16.9367 139.722 16.6874 140.619 16.6874C142.303 16.6874 143.45 17.7471 143.45 19.4305ZM141.692 21.2509V20.6524C141.281 20.5027 140.806 20.4156 140.308 20.4156C139.647 20.4156 139.124 20.8021 139.124 21.3256C139.124 21.8494 139.585 22.1734 140.208 22.1734C140.907 22.1734 141.567 21.8494 141.692 21.2509Z" fill="white"/>
<path d="M144.982 14.5676H146.803V23.2833H144.982V14.5676Z" fill="white"/>
<path d="M96.6866 27.7508H98.5322V36.3168H96.6866V27.7508Z" fill="white"/>
<path d="M106.312 32.2145V36.3168H104.554V32.601C104.554 31.803 104.054 31.2546 103.332 31.2546C102.571 31.2546 101.985 31.803 101.985 32.5014L101.973 32.4641V36.3168H100.152V29.8706H101.973V30.681C102.359 30.095 103.082 29.7209 103.918 29.7209C105.314 29.7209 106.312 30.7557 106.312 32.2145Z" fill="white"/>
<path d="M111.672 35.9053C111.298 36.2421 110.712 36.4665 110.188 36.4665C109.053 36.4665 108.255 35.656 108.255 34.4964V31.3418H107.37V29.8706H108.255V28.1H110.001V29.8706H111.397V31.3418H110.001V34.2095C110.001 34.6336 110.275 34.9328 110.612 34.9328C110.861 34.9328 111.111 34.8456 111.235 34.7208L111.672 35.9053Z" fill="white"/>
<path d="M117.332 34.2845L118.491 35.469C117.918 36.0675 116.808 36.4665 115.861 36.4665C113.94 36.4665 112.444 35.0575 112.444 33.075C112.444 31.1298 113.878 29.7209 115.761 29.7209C117.781 29.7209 118.965 31.2546 118.965 33.686H114.314C114.526 34.3841 115.087 34.858 115.848 34.858C116.359 34.858 116.983 34.6209 117.332 34.2845ZM114.339 32.3766H117.22C117.045 31.7408 116.571 31.3293 115.836 31.3293C115.15 31.3293 114.576 31.7283 114.339 32.3766Z" fill="white"/>
<path d="M120.199 27.6011H122.019V36.3168H120.199V27.6011Z" fill="white"/>
<path d="M123.602 27.6011H125.422V36.3168H123.602V27.6011Z" fill="white"/>
<path d="M126.918 27.9877C126.918 27.4766 127.355 27.0151 127.916 27.0151C128.451 27.0151 128.888 27.4766 128.888 27.9877C128.888 28.5363 128.451 28.9852 127.916 28.9852C127.355 28.9852 126.918 28.5364 126.918 27.9877ZM126.993 29.8706H128.813V36.3168H126.993V29.8706Z" fill="white"/>
<path d="M136.892 29.8706V35.6311C136.892 37.2894 135.458 38.4615 133.426 38.4615C132.291 38.4615 131.219 38.0998 130.583 37.6009L131.219 36.3168C131.643 36.6909 132.391 36.9277 133.139 36.9277C134.311 36.9277 135.059 36.3915 135.059 35.5561V34.8456C134.548 35.469 133.775 35.8431 132.927 35.8431C131.306 35.8431 130.072 34.5711 130.072 32.7756C130.072 30.9801 131.306 29.7209 132.927 29.7209C133.8 29.7209 134.623 30.1323 135.059 30.7433V29.8706L136.892 29.8706ZM135.059 32.7756C135.059 31.878 134.411 31.2546 133.501 31.2546C132.591 31.2546 131.942 31.878 131.942 32.7756C131.942 33.6735 132.591 34.3094 133.501 34.3094C134.411 34.3094 135.059 33.6735 135.059 32.7756Z" fill="white"/>
<path d="M143.013 34.2845L144.173 35.469C143.599 36.0675 142.489 36.4665 141.542 36.4665C139.622 36.4665 138.125 35.0575 138.125 33.075C138.125 31.1298 139.559 29.7209 141.442 29.7209C143.462 29.7209 144.646 31.2546 144.646 33.686H139.996C140.208 34.3841 140.769 34.858 141.529 34.858C142.04 34.858 142.664 34.6209 143.013 34.2845ZM140.021 32.3766H142.901C142.726 31.7408 142.252 31.3293 141.517 31.3293C140.831 31.3293 140.257 31.7283 140.021 32.3766Z" fill="white"/>
<path d="M152.002 32.2145V36.3168H150.244V32.601C150.244 31.803 149.745 31.2546 149.022 31.2546C148.261 31.2546 147.675 31.803 147.675 32.5014L147.663 32.4641V36.3168H145.842V29.8706H147.663V30.681C148.049 30.095 148.773 29.7209 149.608 29.7209C151.004 29.7209 152.002 30.7557 152.002 32.2145Z" fill="white"/>
<path d="M153.173 33.0875C153.173 31.2546 154.793 29.7209 156.702 29.7209C157.749 29.7209 158.609 30.1448 159.233 30.818L158.023 31.8531C157.699 31.4915 157.187 31.2546 156.689 31.2546C155.741 31.2546 154.943 32.09 154.943 33.075C154.943 34.085 155.741 34.9328 156.702 34.9328C157.2 34.9328 157.724 34.6834 158.061 34.3094L159.27 35.3318C158.634 36.0301 157.761 36.4665 156.689 36.4665C154.781 36.4665 153.173 34.9203 153.173 33.0875Z" fill="white"/>
<path d="M164.892 34.2845L166.052 35.469C165.478 36.0675 164.368 36.4665 163.421 36.4665C161.501 36.4665 160.004 35.0575 160.004 33.075C160.004 31.1298 161.438 29.7209 163.321 29.7209C165.341 29.7209 166.525 31.2546 166.525 33.686H161.875C162.087 34.3841 162.648 34.858 163.408 34.858C163.919 34.858 164.543 34.6209 164.892 34.2845ZM161.9 32.3766H164.78C164.605 31.7408 164.131 31.3293 163.396 31.3293C162.71 31.3293 162.136 31.7283 161.9 32.3766Z" fill="white"/>
<path d="M101.811 49.3503L99.8537 46.5698H98.4945V49.3503H96.6617V40.7843H100.514C102.372 40.7843 103.744 41.9813 103.744 43.6772C103.744 44.9489 102.971 45.9464 101.799 46.3578L103.906 49.3503H101.811ZM98.4945 44.8866H100.315C101.225 44.8866 101.849 44.4127 101.849 43.6772C101.849 42.9415 101.225 42.4675 100.315 42.4675H98.4945V44.8866Z" fill="white"/>
<path d="M109.591 47.318L110.75 48.5025C110.177 49.101 109.067 49.5 108.119 49.5C106.199 49.5 104.702 48.0911 104.702 46.1085C104.702 44.1634 106.136 42.7544 108.02 42.7544C110.039 42.7544 111.224 44.2881 111.224 46.7195H106.573C106.785 47.4176 107.346 47.8916 108.106 47.8916C108.618 47.8916 109.241 47.6544 109.591 47.318ZM106.598 45.4101H109.478C109.303 44.7743 108.83 44.3629 108.094 44.3629C107.409 44.3629 106.835 44.7618 106.598 45.4101Z" fill="white"/>
<path d="M111.971 48.5274L112.757 47.2682C113.33 47.6796 114.053 47.9912 114.913 47.9912C115.4 47.9912 115.749 47.7917 115.749 47.505C115.749 47.106 115.275 46.9812 114.614 46.8066C113.292 46.4826 112.27 46.121 112.257 44.849C112.245 43.6271 113.255 42.7544 114.776 42.7544C115.699 42.7544 116.609 43.0787 117.32 43.5524L116.584 44.849C115.998 44.4876 115.325 44.2757 114.776 44.2757C114.327 44.2757 114.016 44.4376 114.016 44.6622C114.016 45.0112 114.277 45.111 115.151 45.3479C116.26 45.6345 117.494 46.0086 117.494 47.4176C117.494 48.6896 116.459 49.5 114.876 49.5C113.841 49.5 112.744 49.1508 111.971 48.5274Z" fill="white"/>
<path d="M123.242 47.318L124.401 48.5025C123.828 49.101 122.718 49.5 121.77 49.5C119.85 49.5 118.354 48.0911 118.354 46.1085C118.354 44.1634 119.787 42.7544 121.671 42.7544C123.691 42.7544 124.875 44.2881 124.875 46.7195H120.224C120.436 47.4176 120.997 47.8916 121.758 47.8916C122.269 47.8916 122.893 47.6544 123.242 47.318ZM120.249 45.4101H123.129C122.955 44.7743 122.481 44.3629 121.745 44.3629C121.06 44.3629 120.486 44.7618 120.249 45.4101Z" fill="white"/>
<path d="M131.819 45.4976V49.3503H130.061V48.702C129.6 49.2255 128.864 49.5 128.165 49.5C126.794 49.5 125.734 48.6771 125.734 47.4425C125.734 46.1708 126.918 45.2981 128.415 45.2981C128.938 45.2981 129.512 45.4101 130.061 45.6221V45.4976C130.061 44.8116 129.637 44.2132 128.577 44.2132C127.978 44.2132 127.418 44.4127 126.906 44.6747L126.295 43.4652C127.206 43.0037 128.091 42.7544 128.988 42.7544C130.672 42.7544 131.819 43.8142 131.819 45.4976ZM130.061 47.318V46.7195C129.649 46.5698 129.175 46.4826 128.677 46.4826C128.016 46.4826 127.492 46.8692 127.492 47.3927C127.492 47.9165 127.953 48.2405 128.577 48.2405C129.275 48.2405 129.936 47.9165 130.061 47.318Z" fill="white"/>
<path d="M137.379 42.7544V44.2881C136.032 44.2881 135.172 45.0612 135.172 46.2707V49.3503H133.351V42.9041H135.172V44.1011C135.596 43.2655 136.394 42.7544 137.379 42.7544Z" fill="white"/>
<path d="M138.064 46.121C138.064 44.2881 139.685 42.7544 141.592 42.7544C142.64 42.7544 143.5 43.1783 144.123 43.8515L142.914 44.8866C142.59 44.525 142.079 44.2881 141.58 44.2881C140.632 44.2881 139.834 45.1235 139.834 46.1085C139.834 47.1185 140.632 47.9663 141.592 47.9663C142.091 47.9663 142.615 47.717 142.951 47.3429L144.161 48.3653C143.525 49.0637 142.652 49.5 141.58 49.5C139.672 49.5 138.064 47.9538 138.064 46.121Z" fill="white"/>
<path d="M151.379 45.248V49.3503H149.621V45.6346C149.621 44.8366 149.122 44.2881 148.399 44.2881C147.639 44.2881 147.053 44.8366 147.053 45.5349V49.3503H145.232V40.6346H147.053V43.6896C147.452 43.1285 148.162 42.7544 148.985 42.7544C150.382 42.7544 151.379 43.7893 151.379 45.248Z" fill="white"/>
<path d="M82.8568 41.9441C85.623 47.5813 77.4941 51.9216 74.5257 46.4113L65.6442 30.4353C63.6362 26.8386 66.5732 23.6733 70.4498 23.4064C74.5686 23.1227 76.5423 19.6317 76.5423 15.9724C76.5423 12.1863 73.6977 8.45718 70.0882 8.48404L70.0017 8.47273L58.225 8.55646C59.1568 7.40007 59.7159 5.91779 59.7159 4.30653C59.7159 2.66809 59.1391 1.16546 58.1806 3.89003e-06C59.1592 0.0666141 70.1676 0.0607167 71.1953 0.131172C79.0088 0.666801 84.8068 7.98393 84.8068 15.9724C84.8068 21.5507 82.0157 26.6402 77.341 29.5821L76.3049 30.2361L82.8568 41.9441Z" fill="white"/>
<path d="M56.5646 4.75079C56.5646 6.84948 55.1569 8.62495 53.2339 9.18007C52.8287 9.29719 52.4 9.36044 51.9573 9.36044C51.5334 9.36044 51.1235 9.30422 50.7346 9.19413C48.7858 8.66009 47.3477 6.87057 47.3477 4.7508C47.3477 2.68723 48.7109 0.935184 50.5824 0.351955C50.5839 0.350393 50.5855 0.349612 50.5871 0.349612C51.0204 0.213769 51.4795 0.141158 51.9573 0.141158C52.4 0.141158 52.8286 0.20439 53.2339 0.323849C55.1569 0.876629 56.5646 2.65209 56.5646 4.75079Z" fill="white"/>
<path d="M56.5713 17.2181V43.9673C56.5713 46.6871 54.4672 48.8989 51.8799 48.8989C49.2949 48.8989 47.1885 46.6871 47.1885 43.9673V17.2181C47.1885 14.4983 49.2949 12.2865 51.8799 12.2865C54.4672 12.2865 56.5713 14.4983 56.5713 17.2181Z" fill="white"/>
<path d="M9.38288 8.58271H28.1907L31.1258 3.76479C32.5483 1.37925 33.3356 0.297859 33.4641 0.12136C33.4768 0.103835 33.4828 0.0952692 33.4828 0.0952692L4.6086 0.0830344C4.63527 0.102202 4.66187 0.121568 4.68837 0.141153C2.10478 0.142786 3.03398e-06 2.20094 0 4.73153V44.4383C0 46.9699 2.10645 49.0287 4.69144 49.0287C7.27876 49.0287 9.38288 46.9699 9.38288 44.4383V28.9035H12.5111C15.0984 28.9035 17.2025 26.7994 17.2025 24.2121C17.2025 21.6248 15.0984 19.5207 12.5111 19.5207H9.38288V8.58271Z" fill="white"/>
<path d="M36.1284 20.0074L44.0249 6.88197C44.6552 5.8483 44.8479 4.63566 44.5683 3.4598C44.0718 1.04899 41.3513 -0.418758 39.0619 0.106284C37.9676 0.378112 37.0174 1.09866 36.3872 2.13232L31.466 10.3104L12.3811 42.0283C11.7508 43.062 11.5582 44.2769 11.8377 45.4505C12.0874 46.5095 12.6944 47.4238 13.5587 48.0557C13.6525 48.128 13.7507 48.1934 13.851 48.2564C14.6832 48.7738 15.6378 48.9985 16.5933 48.9111C16.8104 48.8921 17.0271 48.8572 17.2411 48.8066C17.8473 48.6602 18.4057 48.395 18.8896 48.03C19.3362 47.6931 19.72 47.2718 20.0211 46.7779L29.2744 31.4001L30.6151 29.1716H37.6642C40.2515 29.1716 42.3556 27.1128 42.3556 24.5812C42.3556 22.0496 40.2515 19.9908 37.6642 19.9908L36.1284 20.0074Z" fill="white"/>
</g>
<defs>
<clipPath id="clip0_160_604">
<rect width="166.525" height="49.5" fill="white"/>
</clipPath>
</defs>
</svg>
