<svg width="193" height="30" viewBox="0 0 193 30" fill="none" xmlns="http://www.w3.org/2000/svg">
<path d="M2.5967 30.0005V10.879C2.5967 9.10433 1.48072 8.81036 0 8.67699V8.119L5.12536 7.3623V9.8583H5.19069C5.81401 8.34764 7.52337 7.3623 9.13474 7.3623C13.7348 7.3623 15.1801 11.3717 15.1801 15.313C15.1801 19.2543 13.8654 23.3644 9.33072 23.3644C7.62136 23.3644 5.84667 22.4118 5.19069 20.7677H5.12536V30.0005H2.5967ZM5.12808 16.233C5.12808 18.5004 5.98277 22.0824 8.84077 22.0824C11.9628 22.0824 12.3901 17.6784 12.3901 15.3783C12.3901 13.0783 11.7668 8.6416 8.74278 8.6416C6.24679 8.6416 5.12808 11.7963 5.12808 13.865V16.2303V16.233Z" fill="#797979"/>
<path d="M29.408 22.9985V19.3838H29.3426C28.5859 21.4879 26.7459 23.3605 24.4133 23.3605C20.5046 23.3605 19.9112 20.4372 19.9112 17.1845V10.8751C19.9112 9.19841 18.8605 8.83912 17.4479 8.70574V8.14775L22.4426 7.3584V17.6091C22.4426 19.4818 22.8373 21.7492 25.2026 21.7492C27.568 21.7492 29.408 17.5111 29.408 15.5731V10.8751C29.408 9.19841 28.39 8.83912 26.9446 8.70574V8.14775L31.9393 7.3584V22.9985H29.4107H29.408Z" fill="#797979"/>
<path d="M46.2322 20.5678H46.1668C45.2142 22.1438 43.9322 22.9985 42.0595 22.9985C37.6554 22.9985 35.9814 19.1225 35.9814 15.2764C35.9814 11.2017 37.4594 7.3584 42.1575 7.3584C43.9322 7.3584 45.3448 8.27841 46.1668 9.82173H46.2322V7.71769H51.2269V8.27568C49.7815 8.40633 48.7636 8.80101 48.7636 10.4777V23.4231C48.7636 27.8272 46.7929 29.6999 42.3235 29.6999C39.6288 29.6999 36.3761 29.0439 36.2781 25.7558H39.3022C39.6315 27.7591 40.8128 28.4178 42.8189 28.4178C46.0389 28.4178 46.2349 25.4618 46.2349 22.9958V20.5651L46.2322 20.5678ZM46.2322 14.6531C46.2322 12.1571 45.6415 8.64042 42.4542 8.64042C39.2668 8.64042 38.7741 13.1098 38.7741 15.5078C38.7741 18.1372 39.3974 21.7165 42.7182 21.7165C45.3149 21.7165 46.2349 18.3332 46.2349 16.2618V14.6504L46.2322 14.6531Z" fill="#797979"/>
<path d="M54.1854 23.0002V3.45139C54.1854 1.70936 53.0694 1.38273 51.6213 1.28202V0.72403L56.714 0V23.0002H54.1854Z" fill="#797979"/>
<path d="M62.2664 22.9995V10.8761C62.2664 9.19936 61.2158 8.84007 59.8031 8.70669V8.1487L64.7978 7.35935V22.9995H62.2692H62.2664ZM63.4178 4.20737C62.3998 4.20737 61.5451 3.41801 61.5451 2.36736C61.5451 1.3167 62.3998 0.527344 63.4178 0.527344C64.4358 0.527344 65.2578 1.38202 65.2578 2.36736C65.2578 3.35269 64.4358 4.20737 63.4178 4.20737Z" fill="#797979"/>
<path d="M77.4143 22.9993V20.8952C76.1323 22.4059 74.8176 23.3586 72.749 23.3586C70.449 23.3586 68.8049 21.8153 68.8049 19.4826C68.8049 15.1466 74.1943 14.6866 77.4143 14.5859V13.3038C77.4143 11.1671 77.4797 8.63847 74.6543 8.63847C72.749 8.63847 72.025 9.78984 71.927 11.5291H69.0036C69.1996 8.37444 71.9596 7.35645 74.7523 7.35645C78.5957 7.35645 79.943 9.03315 79.943 12.7132V22.9966H77.4143V22.9993ZM77.4143 15.6066C75.1797 15.6392 71.5976 16.1319 71.5976 19.0552C71.5976 20.5332 72.5176 21.7499 74.0936 21.7499C76.1976 21.7499 77.4116 19.3846 77.4116 17.5446V15.6066H77.4143Z" fill="#797979"/>
<path d="M83.7233 20.6344C85.1033 21.3584 86.4833 22.0797 88.092 22.0797C89.9646 22.0797 91.508 21.4237 91.508 19.287C91.508 15.9363 83.7859 16.0017 83.7859 11.6656C83.7859 8.41296 86.2166 7.3623 89.1426 7.3623C90.392 7.3623 91.5733 7.62633 92.79 7.9203V9.89096C91.508 9.23226 90.294 8.6416 88.8133 8.6416C87.4333 8.6416 86.0859 9.13427 86.0859 10.7456C86.0859 14.031 93.808 13.5057 93.808 18.6637C93.808 22.145 91.048 23.3617 87.9586 23.3617C86.5133 23.3617 85.1006 23.1657 83.7206 22.7057V20.6344H83.7233Z" fill="white"/>
<path d="M101.794 23.3618L96.7996 11.3364C96.0103 9.39838 95.749 8.54369 93.449 8.27967V7.72168H97.9837L103.044 19.7798L107.412 7.72168H109.187L103.305 23.3618H101.794Z" fill="white"/>
<path d="M112.178 22.9995V10.8761C112.178 9.19936 111.128 8.84007 109.715 8.70669V8.1487L114.71 7.35935V22.9995H112.181H112.178ZM113.327 4.20737C112.309 4.20737 111.454 3.41801 111.454 2.36736C111.454 1.3167 112.309 0.527344 113.327 0.527344C114.345 0.527344 115.167 1.38202 115.167 2.36736C115.167 3.35269 114.345 4.20737 113.327 4.20737Z" fill="white"/>
<path d="M119.933 23.0002V3.45139C119.933 1.70936 118.817 1.38273 117.369 1.28202V0.72403L122.462 0V23.0002H119.933Z" fill="white"/>
<path d="M137.775 22.9985V19.3838H137.71C136.953 21.4879 135.113 23.3605 132.781 23.3605C128.869 23.3605 128.279 20.4372 128.279 17.1845V10.8751C128.279 9.19841 127.228 8.83912 125.815 8.70574V8.14775L130.81 7.3584V17.6091C130.81 19.4818 131.205 21.7492 133.57 21.7492C135.935 21.7492 137.775 17.5111 137.775 15.5731V10.8751C137.775 9.19841 136.757 8.83912 135.312 8.70574V8.14775L140.307 7.3584V22.9985H137.778H137.775Z" fill="white"/>
<path d="M145.66 30.0005V10.879C145.66 9.10433 144.544 8.81036 143.064 8.67699V8.119L148.189 7.3623V9.8583H148.254C148.878 8.34764 150.587 7.3623 152.198 7.3623C156.798 7.3623 158.244 11.3717 158.244 15.313C158.244 19.2543 156.929 23.3644 152.394 23.3644C150.685 23.3644 148.91 22.4118 148.254 20.7677H148.189V30.0005H145.66ZM148.189 16.233C148.189 18.5004 149.044 22.0824 151.902 22.0824C155.024 22.0824 155.451 17.6784 155.451 15.3783C155.451 13.0783 154.828 8.6416 151.804 8.6416C149.308 8.6416 148.189 11.7963 148.189 13.865V16.2303V16.233Z" fill="white"/>
<path d="M162.713 30.0005V10.879C162.713 9.10433 161.597 8.81036 160.117 8.67699V8.119L165.242 7.3623V9.8583H165.307C165.931 8.34764 167.64 7.3623 169.251 7.3623C173.851 7.3623 175.297 11.3717 175.297 15.313C175.297 19.2543 173.982 23.3644 169.447 23.3644C167.738 23.3644 165.963 22.4118 165.307 20.7677H165.242V30.0005H162.713ZM165.245 16.233C165.245 18.5004 166.099 22.0824 168.957 22.0824C172.079 22.0824 172.507 17.6784 172.507 15.3783C172.507 13.0783 171.883 8.6416 168.859 8.6416C166.363 8.6416 165.245 11.7963 165.245 13.865V16.2303V16.233Z" fill="white"/>
<path d="M178.552 15.4425C178.552 10.9078 180.327 7.3584 185.355 7.3584C190.118 7.3584 192.255 11.0384 192.255 15.4071C192.255 19.7758 190.349 23.3578 185.42 23.3578C180.491 23.3578 178.552 19.7758 178.552 15.4398V15.4425ZM189.459 15.4425C189.459 12.7151 188.934 8.64042 185.385 8.64042C181.574 8.64042 181.342 12.5845 181.342 15.4425C181.342 18.1045 182.034 22.0785 185.45 22.0785C189.097 22.0785 189.459 18.2025 189.459 15.4425Z" fill="white"/>
</svg>
