<svg width="47" height="54" viewBox="0 0 47 54" fill="none" xmlns="http://www.w3.org/2000/svg">
<path d="M35.4542 35.4734C35.6845 35.4734 36.0172 35.5886 35.9404 35.7933C35.8509 35.998 35.7613 36.3435 35.5822 36.3563C35.403 36.3819 35.0448 36.1132 35.0448 35.8701C35.0448 35.627 35.2367 35.4606 35.467 35.4606" fill="white"/>
<path d="M15.0196 42.0247C15.2755 42.1527 15.5315 42.1527 15.8002 42.0247L15.6083 41.7176L15.1604 41.321C14.9173 41.193 14.7253 41.321 14.5846 41.692L15.0324 42.0375L15.0196 42.0247Z" fill="white"/>
<path d="M28.2494 51.1979C28.1726 51.3259 28.2238 51.4666 28.3902 51.5946C28.5565 51.7354 28.6973 51.7609 28.8124 51.6842L28.2622 51.1979H28.2494Z" fill="white"/>
<path d="M46.1518 25.0307C46.2925 24.007 46.1901 23.3672 45.8446 23.0985C45.4736 22.8298 45.0257 22.9194 44.4883 23.3544C44.1684 23.1881 43.7461 23.3544 43.2215 23.8407C43.3111 23.5975 43.3238 23.38 43.2471 23.1881C43.7333 22.9578 44.0404 22.7146 44.1812 22.4331C44.3219 22.1644 44.3859 21.7293 44.3859 21.1407C44.4371 20.7824 44.757 20.1426 45.3584 19.2085C45.7679 18.2872 45.4736 17.9673 44.5011 18.2488C45.0385 17.7498 45.3072 17.3403 45.3072 16.9693C45.3456 16.6238 45.2048 16.1887 44.8849 15.6641C44.757 15.357 44.5651 15.3058 44.3092 15.4977C44.3987 15.3058 44.4499 15.0882 44.4627 14.8195C44.4627 14.5636 44.2964 14.0006 43.9509 13.1433C43.8997 12.03 43.6437 11.5694 43.1703 11.7613C43.0935 11.1727 42.9144 10.6225 42.6201 10.085C42.185 9.40685 41.8267 9.22771 41.5708 9.54761C40.8542 8.44715 40.1761 7.9993 39.5491 8.19124C39.5235 7.71779 39.3699 7.29552 39.0756 6.91164C38.9093 6.19507 38.7045 5.69602 38.4742 5.41451C38.1415 5.28655 37.9112 5.4657 37.7832 5.97754C37.732 5.56807 37.5913 5.13301 37.3993 4.67235C37.1946 4.22449 36.8747 3.98137 36.4268 3.96858C36.2605 3.94298 36.107 3.96858 35.9534 4.05815C35.6591 3.86621 35.4032 3.77663 35.2112 3.77663C34.5842 3.09845 34.0084 3.03447 33.4966 3.59749L33.407 3.00888C33.2279 2.3051 32.8568 2.15155 32.3065 2.54823C31.398 1.58853 30.6303 0.948733 29.9777 0.654426C29.4402 0.462487 29.0948 0.513672 28.9284 0.795183C28.6469 0.513672 28.3526 0.334526 28.0455 0.257751C27.7256 0.180975 27.4313 0.0914023 27.1626 0.00183074C26.7403 -0.0237611 26.5484 0.219366 26.6123 0.705611C25.9469 0.743999 25.4991 0.859161 25.2432 1.0639C25.0001 1.26863 24.9233 1.53734 25.0512 1.89563C25.1664 2.25392 25.4479 2.54822 25.8702 2.76575C25.755 2.90651 25.7167 3.11125 25.7295 3.39276C25.755 3.67427 26.0365 3.91739 26.6123 4.09653C27.0474 4.2117 27.4569 4.22449 27.8664 4.12213C27.7768 4.55719 27.9175 4.8259 28.3014 4.94107C28.8388 5.50409 29.5042 5.64484 30.2976 5.36333L30.2208 5.90076L31.2957 6.36141C31.334 6.88605 31.5772 7.26993 32.0122 7.50025L32.4345 7.69219C32.3449 7.69219 31.9482 8.03768 31.9355 8.08887C31.8459 8.19123 31.6156 8.71587 32.1914 8.83103C32.6264 8.88222 33.1127 8.9206 33.5733 8.9206C33.5733 9.06136 33.6629 9.29169 33.7525 9.44524C33.8293 9.61158 34.0212 9.8675 34.3411 10.2258C34.6354 10.5585 35.2112 10.8912 35.6847 11.0959C35.6463 11.1343 35.5183 11.5054 35.4032 11.8381C35.2496 12.2475 35.1728 12.9257 35.4671 13.284C35.4032 13.2584 35.1473 13.4376 35.0449 13.5911C34.6994 14.1413 35.4416 14.9219 35.5567 15.1906C35.5055 15.1906 35.288 15.293 35.1856 15.3698C34.9297 15.5617 35.0193 16.4958 35.7487 16.6494C35.9278 16.7389 36.7723 17.238 37.1818 17.673C37.2586 17.7626 37.5017 18.2105 37.8344 18.6583C38.0135 18.9014 38.2055 19.2981 38.6406 19.3109C39.0372 20.6289 39.7026 21.8957 40.4832 23.1369C40.4832 23.1753 41.1997 23.9686 41.4684 24.6724C41.3789 25.1331 41.3917 25.5297 41.3917 25.5553C41.3021 26.4638 41.1357 27.3084 40.9054 28.0633C40.1249 27.6795 39.9969 28.2041 39.869 28.7287C39.8945 28.7031 39.5107 28.6519 39.4595 28.8311C39.4851 28.524 38.986 28.2425 38.7557 28.4088C38.7557 28.4088 38.4998 28.588 38.3462 28.7031C38.295 28.7415 38.2567 28.4472 38.2311 28.2169C38.2311 28.0633 38.1927 27.5387 38.295 27.334C38.3078 27.2956 38.4998 27.078 38.6149 26.8605C38.8453 26.4382 38.6789 25.0819 38.3846 24.1606C38.295 23.8791 38.1159 23.7383 37.9624 23.6871C37.8984 23.6615 37.4889 23.6871 37.4121 24.007C37.3865 23.8279 37.0922 23.7127 36.8875 23.6615C36.2861 23.508 35.6335 24.7108 35.7103 25.8112C35.2624 25.453 34.6866 25.5681 34.7634 26.1823C34.8658 27.0525 36.1325 28.588 36.1709 29.2789C35.787 28.9335 34.9297 28.9207 34.9297 29.7652C34.9297 30.0211 35.1344 30.4562 35.224 30.6481C35.0449 31.5438 36.0557 32.2092 36.8875 33.0665C36.8747 33.4632 37.0026 33.476 37.1306 33.6296C36.9771 33.8727 36.0558 35.357 36.043 35.3954C35.9918 35.421 35.352 35.0499 35.1472 35.2419C34.9297 35.4466 34.7378 35.7281 34.6354 35.8817L34.7506 36.9309C34.8274 37.366 34.597 37.8522 34.0724 38.3897C33.5478 38.9271 33.2023 39.4261 33.0359 39.874C32.9464 40.2067 32.5881 40.5778 31.9611 40.9744C31.9227 40.8593 31.7691 40.6801 31.5132 40.437C31.4748 40.3602 31.398 40.3346 31.2957 40.3602C30.6687 40.5266 29.4019 41.2687 27.5081 42.2284C27.1754 42.3948 26.7019 42.8298 26.1005 43.9047H25.0257C24.7313 43.5464 24.4115 43.3289 24.0788 43.0218C23.8356 42.8298 23.4133 42.8171 22.8119 43.137C22.2361 43.009 21.6603 43.0858 21.0973 43.4569C20.739 43.5848 20.4831 43.5976 20.3168 43.5208L18.9604 42.0109C16.1581 40.8081 14.6354 40.2579 14.3666 40.3858C14.0851 40.5522 13.8932 40.7953 13.7652 41.1152C13.4837 40.9872 13.0743 40.6289 12.524 40.0403L11.6667 39.055C11.0397 38.3385 10.7838 37.6603 10.8861 37.0077L11.0269 36.1376C11.0397 36.0096 11.0269 35.8945 10.9757 35.8305C10.771 35.6001 10.4127 35.4722 10.2335 35.4338C10.1952 35.421 10.08 35.3698 9.93922 35.8817C9.97761 36.0096 9.05633 34.6404 9.04353 34.5893C9.28665 34.3205 9.73449 33.5144 9.97761 32.5803C10.2591 31.5182 10.3871 30.3538 10.3871 29.8932C10.4255 29.8164 10.4383 29.7908 10.4895 29.7396C10.9117 29.4069 11.462 26.2463 11.334 25.4913C11.27 25.1842 11.2061 25.0307 11.1293 25.0307C11.0525 25.0179 10.9757 25.0307 10.8989 25.0947L11.0653 24.7492C11.1548 24.5061 11.1548 24.3397 11.0653 24.2629C11.0141 24.199 10.5151 24.2118 10.08 24.4421C10.0288 23.9558 9.79849 23.2265 9.68333 22.9705C9.64494 22.881 9.52977 22.9705 9.51697 22.9705C8.74922 23.444 8.39094 24.4933 8.12222 25.8112L7.90467 26.016C6.90659 27.2956 6.11324 28.7671 5.78054 30.4434C5.61419 30.1747 5.51186 29.7908 5.3711 29.2917C5.21755 28.7927 5.17914 28.46 5.23033 28.2937C5.37108 28.0249 5.33271 27.7818 5.08959 27.5515C4.89765 27.3596 4.66733 26.515 4.37302 25.0051C4.38581 24.6084 4.55216 24.0198 4.84646 23.2137C5.14077 22.4203 5.6398 21.4222 6.2796 20.2834C6.31799 20.2322 6.59951 19.9123 6.68908 19.8995C7.64878 19.6564 11.897 14.0134 11.4492 11.3774C11.3852 11.6973 13.279 8.28081 13.4325 7.57703L13.6628 7.50025L13.9444 7.38509C14.8657 7.00121 15.659 6.60454 16.3756 6.25905L17.4889 5.65764C18.2694 5.31215 18.9988 4.8515 19.7025 4.26288C20.4447 3.59749 20.8286 2.91931 20.8925 2.20273C20.7646 2.03639 20.3807 1.93402 19.7537 1.92122C20.0864 1.53734 20.2656 1.15347 20.2784 0.731199C20.0352 0.385709 19.3187 0.334528 18.1159 0.564855C16.8618 0.884754 15.7614 1.38379 14.8273 2.06198C13.8676 2.68898 13.0103 3.44394 12.2425 4.33966C11.4748 5.23537 10.8606 6.16947 10.3999 7.12917L10.9501 5.82399C11.2316 5.20978 11.5259 4.48041 11.833 3.64868C11.9226 3.252 11.9354 2.97049 11.8458 2.79135C11.7563 2.625 11.5771 2.57381 11.3084 2.65059C11.0141 2.72737 10.4767 3.12404 9.70891 3.84061C8.86437 4.73633 8.1094 5.82398 7.45681 7.12917C6.80421 8.43436 6.35637 9.45803 6.11325 10.213C6.24121 9.36846 6.2284 8.63909 6.06205 8.02489C5.97248 7.78176 5.76777 7.71779 5.44787 7.83295C5.15357 8.03769 4.85926 8.35758 4.56495 8.76705C4.27064 9.18932 3.97632 9.58599 3.7076 9.96987C3.42609 10.3537 3.10621 10.904 2.72233 11.6333C2.33845 12.3499 2.01856 13.1944 1.72425 14.1797C1.42994 15.165 1.22519 16.4702 1.07164 18.0825C0.982072 19.119 1.05886 20.2322 1.28919 21.4222C1.5835 22.6123 1.87781 23.4952 2.17211 24.0582C2.46642 24.6212 2.74792 24.9539 3.00384 25.0563C3.17019 25.4658 3.38771 26.1567 3.66922 27.1164C3.82277 27.5771 3.88674 27.9098 3.86115 28.1529C3.84835 28.3832 3.89956 28.5496 4.04031 28.6519C4.18107 28.7415 4.29622 28.9335 4.38579 29.215C4.62891 30.1235 4.94882 30.9552 5.35829 31.7358C5.28152 32.158 5.24313 32.5675 5.24313 32.977C4.36021 30.3538 3.64364 28.3704 3.08062 27.0269C2.01855 24.5956 1.17402 23.4824 0.559813 23.6871C0.265506 23.8023 0.0863726 24.071 0.00959696 24.5061C-0.00319899 24.6724 -0.00319899 25.1075 0.00959696 25.8112C0.0351888 26.515 0.0991607 27.2444 0.201528 28.0249C0.751754 30.5329 1.71146 32.6315 3.05504 34.3206L5.07678 36.7518C5.48625 37.1613 5.87013 37.4683 6.24122 37.6731C6.6123 37.8778 6.94498 37.929 7.26488 37.8266C7.72553 38.5816 8.31416 39.3749 9.00514 40.2067C9.453 40.9105 9.91364 41.2304 10.3871 41.192C10.5918 41.6526 10.8861 41.8702 11.2956 41.8702L11.7051 41.819C12.2809 42.382 12.7928 42.8426 13.2534 43.1753L12.7288 44.7108C11.8075 44.8388 10.9629 44.9156 10.1823 44.9412C9.45298 44.4037 8.44209 43.6872 7.13691 42.7915L7.04737 41.0896C7.00898 40.501 7.11133 40.0147 7.35446 39.6181C7.40564 39.2982 7.23929 39.0039 6.82982 38.7351C6.21561 38.428 5.95969 38.3129 5.70377 38.3641C5.58861 38.4025 5.67819 38.5048 5.67819 38.6712V38.7735C5.67819 38.684 5.71656 38.6584 5.81893 38.6968C6.59948 38.9015 6.945 39.1702 6.89382 39.4901C6.6507 39.8996 6.53551 40.373 6.54831 40.8977L6.57392 42.3692C5.60143 41.7038 4.55214 41.128 3.42609 40.6162C3.55405 40.6034 3.6948 40.5778 3.86115 40.5778C4.0275 40.5778 4.12988 40.5138 4.19386 40.3986C4.24504 40.2835 4.14269 40.2195 3.88677 40.1939C3.32374 40.1939 2.95264 40.2451 2.78629 40.3346C2.65834 40.4882 2.68392 40.6417 2.86307 40.8209C4.19385 41.4991 5.35828 42.1773 6.38195 42.8554C7.98145 43.8919 9.23547 44.7492 10.1184 45.4018C10.9885 45.389 12.2041 45.2611 13.7652 45.0307L16.1453 44.5829C17.1306 44.391 18.1414 44.2374 19.1907 44.0966C19.5746 44.0455 20.0608 44.0071 20.6622 43.9815C21.2508 43.9687 21.8011 43.9175 22.2873 43.8407C22.7736 44.762 23.0679 45.581 23.1703 46.272C23.2214 46.6302 23.1702 46.835 23.0295 46.8734C20.8414 47.7051 19.2547 48.2297 18.295 48.4473C17.3353 48.6648 16.4652 48.8567 15.6974 49.0231C13.7524 49.3814 11.8458 49.6757 9.96484 49.906C9.49139 49.778 8.1094 49.0487 5.81893 47.7179C4.19384 46.7198 3.05504 45.9009 2.41524 45.2867C1.67308 44.4677 1.37877 43.9815 1.53232 43.8151C2.01856 42.9962 2.33844 42.2796 2.50478 41.6654C2.58156 41.4095 2.59438 41.192 2.56879 41.0384C2.36405 40.3986 2.5048 40.0659 3.00384 40.0531C4.24505 39.9764 5.07676 39.9636 5.49903 40.0019C5.67817 40.0147 5.80613 39.9636 5.85731 39.8356L6.26679 38.9911L6.02367 38.8759L5.67819 39.4389V38.8631V39.6053L2.87588 39.6693C2.63275 39.6693 2.35124 39.7588 2.19769 39.9508C2.04414 40.1427 1.99297 40.5138 2.13373 41.0896C2.15932 41.2943 2.13372 41.4735 2.08253 41.627C1.95457 42.2284 1.60909 42.9706 1.04607 43.8407C0.96929 43.9687 0.994891 44.1734 1.13565 44.4421C1.2764 44.6981 1.62189 45.1203 2.17211 45.6833C2.41524 45.9265 2.77349 46.2336 3.25974 46.5919C3.74598 46.9501 4.61613 47.5004 5.84454 48.2297C7.30328 49.1255 8.69801 49.8548 10.016 50.4434C10.2975 50.4562 12.1401 50.2003 15.5439 49.6757L15.5695 49.9828C14.5842 50.7377 13.9572 51.0448 13.6885 50.9169C13.3046 50.9553 13.1766 51.2496 13.3302 51.7998C13.4325 52.0429 13.6373 52.2093 13.9444 52.3116L14.3026 52.7339L15.3263 53.3609C15.7102 53.4761 16.0813 53.4761 16.4268 53.3609C16.7595 53.2329 16.977 52.9386 17.0922 52.478L17.2073 52.3628L18.3206 51.224L19.1267 50.597C19.7537 50.4818 20.1632 50.2515 20.3423 49.9188C20.3807 49.6117 20.4575 49.4326 20.5855 49.3558L21.558 48.6776C21.5963 48.588 21.993 48.7416 22.748 49.1638C23.1191 49.2534 23.439 49.2406 23.7077 49.0999L24.4242 48.6776C25.064 48.8312 26.2029 49.6501 27.828 51.1472C27.8152 51.3136 27.9047 51.5183 28.1351 51.7486C28.263 51.915 28.6213 52.0557 29.1843 52.1709L29.5682 52.9131L29.9521 53.0538C30.5279 53.0794 31.0525 52.8619 31.5516 52.4268L32.1658 52.2221C32.4729 51.979 32.6136 51.7358 32.5753 51.4927L32.3321 51.2368L31.8075 51.096C31.1421 50.7761 30.4639 50.3411 29.7857 49.7908L29.3379 49.4581C31.3468 49.8164 33.8421 50.0979 36.8363 50.3027C37.2074 50.3795 37.6937 50.1875 38.3207 49.7141C38.9349 49.2534 40.803 47.8842 43.9252 45.6194C44.3859 45.1075 44.757 44.5317 45.0257 43.8663C44.7442 43.5976 44.5011 43.2265 44.2963 42.7275C44.0916 42.2412 43.9509 41.819 43.8997 41.4863C43.8229 41.1664 43.8101 40.8721 43.8741 40.6162C43.9253 40.3602 43.8485 40.1171 43.631 39.8996C43.5414 39.7716 43.3239 39.682 42.9912 39.6437C42.4026 39.5925 41.7372 39.5925 40.995 39.6693C40.6367 39.6309 40.4448 39.5413 40.3808 39.4133L40.4064 38.7351C40.4576 38.428 40.3808 38.3001 40.1633 38.3385C39.3571 38.5432 38.8581 38.7607 38.7045 38.9655C38.4614 39.2214 38.4742 39.5157 38.7301 39.81C38.9348 40.002 39.0244 40.2195 39.0244 40.4626C38.9093 41.7166 38.8197 42.5483 38.7301 42.9834C37.3865 44.0839 36.4652 44.7492 35.9918 44.9924C35.6079 45.1203 34.7378 45.0691 33.3942 44.826C33.0999 44.5573 32.8952 44.1094 32.7544 43.4569C33.2151 43.1753 33.7013 42.8298 34.2259 42.4332C34.5714 42.382 34.8785 42.3052 35.1089 42.2284C35.352 42.1389 35.4671 41.9085 35.4671 41.5375C35.7103 41.4351 35.8894 41.2304 35.9918 40.9105L37.5913 38.9271C38.1031 38.4792 38.6661 38.2105 39.2804 38.1337C40.0225 38.0698 40.9822 37.6475 42.1594 36.8541C42.3514 36.6494 42.3514 36.3551 42.1594 35.9712C42.5177 35.7665 43.0807 35.1779 43.8741 34.2182C44.1812 33.7703 44.2579 33.2713 44.0916 32.7211C44.8338 31.8125 45.2432 31.096 45.3328 30.5713C45.4096 30.0979 45.3968 29.5861 45.3072 29.0486C45.6655 28.8183 45.8959 28.6264 46.0366 28.4728C46.1774 28.3193 46.2413 28.0889 46.2413 27.8074C46.2413 27.5259 46.139 27.2956 45.9342 27.0908C46.4716 26.3231 46.5356 25.6193 46.1262 25.0051M20.3679 2.42027C20.3679 2.77855 20.1888 3.17522 19.7665 3.61029C19.1267 4.2117 18.359 4.77472 17.3865 5.28656C16.414 5.79839 15.1216 6.3998 13.7269 7.09078V6.92443C15.4799 5.49129 17.2329 4.31407 18.8452 3.41835C19.2675 3.14964 19.1011 3.07286 18.6149 3.18802C18.0646 3.46953 17.4633 3.81502 16.7979 4.23729C15.6846 4.97945 14.6098 5.69603 13.5605 6.42539L13.5861 6.0799C15.6846 4.1861 17.4121 2.97049 18.7556 2.43306C19.421 2.27951 19.9841 2.27951 20.3679 2.43306M14.0979 3.09845C15.096 2.25392 16.2988 1.58853 17.7064 1.11508C18.3974 0.923142 18.9732 0.846365 19.485 0.859161C19.7281 0.910345 19.7921 1.0511 19.677 1.28142L19.0627 2.10037C18.5253 2.17715 17.7959 2.48425 16.8618 3.03447C15.9277 3.5847 14.9296 4.31407 13.8548 5.22258L13.4709 5.4785C13.2662 5.32495 12.8951 5.38893 12.3705 5.68323C14.0723 4.22449 15.5439 3.12404 16.7979 2.36908C17.6168 1.95961 18.0775 1.66531 18.2054 1.49896C17.796 1.61412 17.2201 1.87004 16.4908 2.27951C15.7486 2.68898 14.533 3.53351 12.8311 4.81311L11.206 6.31023C12.1274 5.03064 13.087 3.95578 14.0979 3.11124M12.3961 6.24625C12.6904 6.0799 12.8951 6.01592 13.0103 6.05431C13.0871 6.24625 13.0998 6.50217 13.0614 6.83486C13.023 7.16756 12.7799 7.85854 12.3449 8.9206L11.3212 10.9552C10.6046 11.0447 9.92644 11.3902 9.27385 11.9788C9.60654 11.3902 10.016 10.7248 10.4767 9.96987C10.9501 9.21491 11.6795 8.07607 12.6776 6.56615C12.8439 6.28464 12.8439 6.20787 12.6904 6.34862C12.5368 6.48938 12.1145 7.0396 11.4364 7.9737C10.7582 8.9206 9.83685 10.3793 8.69802 12.3627C8.37812 12.849 7.63597 14.039 6.39476 15.984L6.54831 15.5489L8.2118 12.5419L9.8113 9.48362C10.5663 8.10166 11.4364 7.0268 12.4089 6.24625M5.61423 13.1817C6.35639 11.9532 7.2393 10.213 8.27577 7.9737C8.59566 7.32111 9.0563 6.56615 9.65771 5.73441C9.83685 5.29935 9.7473 5.29935 9.35062 5.76C8.44211 6.91164 7.39285 8.72866 6.20283 11.2239L6.72747 9.86751C6.81704 9.5604 7.11135 8.88221 7.61039 7.82015C8.10943 6.75809 8.59567 5.91356 9.08192 5.28656C9.55537 4.65955 9.88806 4.26288 10.08 4.07094C10.7454 3.48233 11.1293 3.21361 11.2444 3.252C11.334 3.32878 11.3724 3.44394 11.3212 3.62308L9.96484 7.19315C9.08192 8.9462 7.91749 10.7888 6.48434 12.6954C5.87014 13.3736 5.49904 13.8087 5.34548 14.0006C5.20473 14.1925 5.07677 14.3717 4.9872 14.538L5.10236 14.0518L5.627 13.2072L5.61423 13.1817ZM6.36918 16.419C5.9853 17.1612 5.691 17.8138 5.48626 18.4024L5.26871 18.3768L5.84454 16.5342L6.36918 16.419ZM4.32182 21.2303L4.51376 20.4114L4.68011 19.5924L5.11517 19.5028L4.56495 21.0256L4.18105 22.3563L4.32182 21.2303ZM4.20667 18.1465C4.33462 17.3019 4.51377 16.5214 4.7313 15.8176L4.94881 16.0991L4.20667 18.1337V18.1465ZM3.15739 23.7767L3.04223 23.5464C2.92707 23.38 3.13178 22.2668 3.61802 20.2322C3.43888 21.7421 3.27254 22.9194 3.14458 23.7767M2.73514 22.1644C2.59438 21.3966 2.67115 19.7588 3.00384 17.2764C3.32374 14.7939 3.7332 13.0281 4.23224 11.966C4.47537 11.4158 4.46258 11.3262 4.20667 11.7101C3.08062 13.6679 2.42802 16.5726 2.23608 20.4114C2.19769 21.7549 2.27448 22.7146 2.45363 23.316C2.64557 23.9174 2.8503 24.2501 3.09342 24.3525C3.22138 24.4293 3.36212 24.4165 3.51567 24.3269C3.50288 24.3269 3.4133 24.8388 3.42609 24.9539C2.92705 24.7236 2.56877 24.3397 2.35124 23.8023C2.13371 23.2649 1.929 22.5611 1.73706 21.691C1.54512 20.8208 1.46831 19.7844 1.5067 18.5687C1.59627 17.1356 1.80102 15.7408 2.12092 14.3845C2.58157 12.4907 3.52846 10.6992 4.94881 9.01017C5.26871 8.65189 5.46067 8.56232 5.52465 8.75426C5.60142 9.50922 5.58863 10.2386 5.52465 10.9424C5.43507 11.6461 5.25594 12.4395 4.97443 13.3096C4.25786 15.7664 3.82278 17.4171 3.68203 18.2744C3.40052 19.2725 3.10622 20.5777 2.77353 22.19M3.56687 24.8899V24.4421C4.27064 23.6615 4.18106 22.9322 4.43698 22.2284L5.40949 19.682L6.53554 16.9948C7.14974 15.7792 8.00707 14.4101 9.09473 12.8618C9.74732 12.094 10.3231 11.6717 10.8221 11.6205C10.9501 11.8125 10.9501 12.1964 10.8221 12.7722C10.6942 13.3608 10.4767 13.975 10.1568 14.6148C10.1312 14.6148 10.1056 14.6276 10.144 14.6532C8.95394 16.9053 7.80232 18.5304 6.67627 19.554L8.58286 16.3806L9.4914 14.6788C9.83689 14.039 9.90086 13.8087 9.68333 14.0006C7.81512 16.8669 6.68908 18.6711 6.3308 19.4133C5.95971 20.1554 5.58861 20.8336 5.23033 21.4862C4.87204 22.126 4.52657 22.6251 4.4114 22.9833C4.29624 23.3416 4.27064 23.9814 3.56687 24.9155M10.9885 26.0416C10.9373 26.8861 10.7454 27.9482 10.4383 29.215C10.4255 28.1785 10.3743 27.4747 10.2975 27.1164L10.5534 26.4127C10.5662 26.1695 10.5279 26.1567 10.4127 26.3871L10.2464 26.6942L10.2207 26.1311L10.6302 25.5937C10.9117 25.3122 11.0269 25.4658 10.9885 26.0416ZM10.5663 24.5189C10.8094 24.4549 10.8477 24.57 10.707 24.8643L10.1823 25.6577C10.144 25.3378 10.1056 25.0563 10.0416 24.8388C10.2336 24.7108 10.3999 24.6084 10.5663 24.5317M8.37812 25.8496C8.762 24.2757 9.13311 23.444 9.4914 23.3544C9.69613 23.9046 9.86246 24.9155 9.99042 26.3999C10.1184 27.8842 10.1184 29.215 9.99042 30.405C9.82407 31.9149 9.58097 32.9386 9.24827 33.4632L8.88999 34.2566C8.88999 33.0921 8.90278 32.1324 8.92837 31.3903C8.95396 30.6481 8.97953 29.6756 9.01791 28.46C9.04351 27.2444 9.12031 25.8624 9.24827 24.3141C9.32505 23.943 9.29944 23.8535 9.19708 24.0582C8.90277 25.6321 8.72362 27.6411 8.67244 30.0851L8.64686 31.6974L8.58286 33.9111L8.22457 33.4888C7.96865 32.1708 7.85352 30.7761 7.8919 29.3301C7.94309 28.2553 8.10942 27.0908 8.39093 25.8496M5.93413 30.5969C6.24123 29.215 6.93218 27.769 8.01983 26.2719C7.82789 27.0525 7.72554 27.6283 7.71274 27.9994C6.9066 29.4325 6.27959 30.8656 5.83174 32.2732C5.71657 32.7083 5.627 33.2201 5.55022 33.8343C5.49904 33.0537 5.61421 31.9789 5.92132 30.5841M7.75113 32.9642L7.13691 32.1708L7.58477 31.032C7.57198 31.659 7.62317 32.2988 7.75113 32.9642ZM13.3429 44.6597L13.7269 43.5208L14.9936 44.3654L13.3302 44.6469L13.3429 44.6597ZM16.3756 44.0966L14.3026 42.8171L12.3961 41.5119L12.0378 41.0256C11.9226 40.8977 11.7691 40.8721 11.5899 40.9361C11.398 41.0128 11.2444 40.8977 11.1293 40.6034C10.6302 40.8977 10.1184 40.7953 9.60655 40.2579L8.69802 39.1318L7.84071 37.6347L7.53362 37.4044C7.35448 37.5195 7.16252 37.5579 6.95779 37.5323C6.5995 37.4811 6.19004 37.238 5.76777 36.7902C5.51185 36.547 4.94881 35.5746 4.10428 33.8727C2.97823 31.6846 2.2105 30.0339 1.81383 28.9207C1.51952 27.9994 1.32757 27.4107 1.238 27.1676C1.14843 26.9245 1.11004 26.9245 1.12284 27.1548C1.13563 27.3979 1.2764 27.9226 1.53232 28.7415C1.78824 29.5605 2.27448 30.7633 2.96546 32.35C3.57966 33.6424 4.18108 34.8068 4.76969 35.8561C3.40052 34.3461 2.41523 32.9258 1.80102 31.6078C1.18682 30.3026 0.790126 29.0998 0.585391 27.9866C0.495819 27.5899 0.444629 26.9757 0.419037 26.1567C0.393446 25.3378 0.419062 24.8771 0.444654 24.7876C0.534226 24.5061 0.66217 24.3781 0.828517 24.4165C0.943681 24.4165 1.19959 24.6852 1.58347 25.2226C1.98015 25.7601 2.5176 26.9757 3.20858 28.8439C3.88677 30.7249 4.30901 31.9533 4.46256 32.5419C4.61611 33.1305 4.76968 33.6424 4.92323 34.0774C5.07679 34.5125 5.2687 34.9603 5.49903 35.4082C5.83172 36.0864 6.16442 36.547 6.49711 36.803C6.93217 37.1229 7.25208 37.174 7.46962 36.9693L6.45872 35.1139C6.36915 35.0755 6.2668 35.0627 6.15163 35.1011C6.12604 35.1011 6.11324 35.1011 6.10044 35.1011C6.10044 35.1011 6.02368 35.1011 5.99809 35.1011C5.9597 35.1011 5.90851 35.1011 5.87012 35.0755C5.84453 35.0627 5.81894 35.0371 5.79335 35.0115C5.76776 34.9859 5.72936 34.9604 5.70377 34.922C5.67818 34.8964 5.67818 34.8452 5.66538 34.8068C5.66538 34.7684 5.627 34.73 5.627 34.6916C5.627 34.5893 5.627 34.4869 5.627 34.3589C5.66538 34.0134 5.78055 33.4376 5.98528 32.6059C6.39475 31.2111 6.97059 29.8164 7.72555 28.4472C7.63598 29.0486 7.58477 29.5605 7.58477 29.9827C6.90659 31.5438 6.40754 32.8106 6.10044 33.7703C5.93409 34.4741 5.94691 34.8068 6.12606 34.794L6.34357 34.6788L6.17721 34.2822L6.29241 33.9751L6.62508 34.5637L6.81701 34.4229L6.98336 34.6788L6.81701 34.9347L8.05822 36.7774L8.36535 36.5215L8.59566 36.7774C8.22458 37.1612 8.07102 37.4044 8.1478 37.5195C8.48049 38.1465 8.78759 38.6456 9.0563 39.0167C9.60653 39.8484 10.0544 40.0787 10.4127 39.7332C10.5279 39.6437 10.6686 39.6565 10.8221 39.7844C10.9885 39.9124 11.1677 40.2067 11.3724 40.629L11.3468 39.9764L10.3231 38.9911L9.74729 37.801C9.26105 37.1101 8.92837 36.5726 8.72363 36.1888C8.5189 35.8049 8.26298 35.357 7.96868 34.8324C7.66157 34.295 7.29048 33.7063 6.84263 33.0537L6.93221 32.7466L7.81513 33.8471C8.60848 34.8836 9.1715 35.6769 9.4914 36.2143C9.8113 36.7518 10.0032 36.8797 10.0544 36.5982L10.2207 36.0608L10.4767 36.2016L10.3103 37.302L10.2464 37.6347C10.2336 37.9034 10.2719 38.057 10.3999 38.1081C10.5151 38.1593 10.6302 38.3257 10.7198 38.6328C10.771 38.8247 11.0653 39.2214 11.5899 39.81C12.1145 40.3986 12.6648 40.9105 13.2534 41.3071C13.842 41.7166 14.3155 42.0493 14.6865 42.3052C15.0704 42.5611 15.2495 42.8043 15.224 43.0474L15.7486 43.1625L15.6079 42.4844L15.9405 42.3948C16.1069 42.5099 16.2476 42.7147 16.35 43.0218C16.8363 43.3929 17.2457 43.7 17.5912 43.9303L16.3756 44.1606V44.0966ZM7.30326 34.8836L7.46962 34.7172L8.23738 36.048L8.1478 36.2143L7.29049 34.8836H7.30326ZM8.60847 37.5451L8.91556 37.1485L9.63213 38.1977L10.0416 38.9655L10.1823 39.3877C9.92643 39.2598 9.70891 39.055 9.51697 38.7991L9.06911 38.2105L8.59566 37.5579L8.60847 37.5451ZM18.231 43.7512L17.041 42.9066C16.5547 42.318 16.2092 41.8957 15.9917 41.627C15.7742 41.3583 15.5567 41.1792 15.3519 41.064C15.0576 40.8977 14.8145 40.8337 14.6354 40.8977C14.5074 40.9361 14.3666 41.128 14.2259 41.4607L14.1747 41.4095C14.2515 41.0896 14.3666 40.8849 14.5202 40.8209C14.6737 40.7441 14.8785 40.7697 15.1088 40.8721L16.4396 41.5247L18.7045 42.3948C19.2547 42.9962 19.6002 43.4185 19.7282 43.6488C19.2675 43.7 18.7684 43.7384 18.231 43.764M18.9476 49.6757C18.167 50.4562 17.2969 51.1856 16.3244 51.8894L15.9917 51.7742C16.5675 51.4159 17.3737 50.8273 18.4229 50.0212L18.8964 49.4837L18.6533 49.4581C18.295 49.778 17.8983 50.1107 17.4505 50.4306C17.0026 50.7633 16.478 51.0832 15.8894 51.3775L15.0832 51.7742L15.224 51.9406L15.8382 52.0301C16.1837 52.2605 16.3372 52.478 16.286 52.7083C16.0941 52.9898 15.7998 53.0282 15.4031 52.8235L14.7377 52.4524C14.4946 52.2093 14.2515 52.0429 14.0211 51.9406L13.7396 51.7102L13.8548 51.4543L14.6865 51.8254H14.9297L14.7889 51.288L15.787 50.6482C16.0429 50.5586 16.1581 50.3923 16.1197 50.1619L16.1965 49.6501C16.6187 49.7397 17.0794 49.6757 17.5784 49.4326C18.0774 49.1894 18.5509 49.0615 18.986 49.0231C19.2675 49.215 19.2547 49.4198 18.9604 49.6757M30.5151 5.54248L30.5663 4.88988L30.0417 5.00504C29.5426 5.17139 29.0436 5.01784 28.5445 4.54439C28.2118 4.60837 28.0711 4.46762 28.1351 4.14772C28.263 3.86621 28.2246 3.71266 28.0199 3.69986L27.2137 3.78943C26.7019 3.71266 26.3564 3.5591 26.1901 3.34157C26.0749 3.14963 26.1517 2.91931 26.4076 2.6378C25.9086 2.43306 25.6015 2.20274 25.4863 1.95961C25.3712 1.71649 25.4351 1.51175 25.7038 1.371C25.9725 1.21744 26.4588 1.19185 27.1882 1.28142C27.0218 1.07669 26.9707 0.859161 27.0474 0.628834C27.073 0.398507 27.5465 0.526468 28.4806 0.999918L29.0308 1.34541C29.1843 1.0639 29.4274 0.974325 29.7729 1.08949C30.1952 1.30702 30.5919 1.55014 30.963 1.84445C31.3341 2.13876 31.7435 2.56102 32.2042 3.09845C32.5881 2.82974 32.8696 2.89372 33.0359 3.2648L33.1127 3.94298C32.7032 3.54631 32.217 3.52072 31.6156 3.85341L31.2317 3.68706C30.6943 3.03447 30.3744 2.52263 30.2592 2.18994C30.144 1.75488 30.0928 1.71649 30.0928 2.07478C30.1056 2.44586 30.3232 2.9321 30.7582 3.52071C29.9521 3.2648 29.3507 2.91931 28.9668 2.50984C28.5957 2.08757 28.3014 1.74208 28.0967 1.46057C27.8919 1.11508 27.8152 1.11508 27.8408 1.46057C28.0583 1.87004 28.3654 2.26672 28.7493 2.625C28.455 2.49704 28.1735 2.35629 27.9175 2.22833C27.265 1.94682 26.7403 1.79326 26.3181 1.76767C26.1133 1.76767 26.1005 1.80606 26.2924 1.88284C27.009 2.07477 27.5336 2.24112 27.8535 2.40747C28.1734 2.56102 28.391 2.71457 28.5062 2.84253C27.9943 3.07286 27.4569 3.17523 26.9067 3.14964C26.5612 3.13684 26.4076 3.14963 26.4332 3.17522C26.4716 3.21361 26.574 3.252 26.7659 3.29039C27.4313 3.36716 28.0967 3.29039 28.7877 3.07286C29.2867 3.34157 29.8625 3.58469 30.5279 3.84061C30.1185 3.93018 29.7218 4.12213 29.3379 4.40364C29.1843 4.59558 29.2611 4.59558 29.5554 4.42923C29.8497 4.1989 30.2976 4.05815 30.8862 4.00696L31.3597 4.1989C31.3213 4.71074 31.4364 5.22258 31.7179 5.76L31.4108 5.87517L30.4767 5.56807L30.5151 5.54248ZM33.6757 8.57511C32.6393 8.58791 32.4345 8.57511 32.3705 8.40876C32.3321 8.2808 32.3066 8.16564 32.6776 7.94811L32.8568 7.62822C32.2554 7.3467 31.7052 7.01401 31.6796 6.24625L32.1786 6.05431C32.3961 5.7856 32.4089 5.59366 32.1914 5.4529C31.9739 5.32494 31.8587 4.96666 31.8459 4.40364C32.0506 3.95578 32.5497 3.95578 33.343 4.40364C33.6885 3.69986 34.1108 3.49512 34.6098 3.77663C34.0724 3.77663 33.7653 4.00696 33.6757 4.48041C33.6245 4.78751 33.6245 5.1458 33.6757 5.58086C33.4838 5.31215 33.2662 5.08182 33.0103 4.90268C32.5113 4.63396 32.4217 4.67235 32.7288 4.99225C33.0487 5.31215 33.3174 5.64484 33.5606 5.97754C33.1511 6.31023 32.716 6.47658 32.2298 6.43819C32.0634 6.51497 32.089 6.56615 32.3194 6.57895C32.5369 6.63013 32.7928 6.61733 33.0871 6.51497C33.0487 6.82207 33.1511 7.32111 33.2791 7.61542C33.4582 7.87134 33.6885 8.10166 33.9572 8.3064C33.8293 8.34479 33.7269 8.40876 33.6757 8.54952M34.2515 9.11255C34.2387 8.88222 34.4307 8.75425 34.8274 8.72866C35.2368 8.70307 35.3008 8.57511 35.0193 8.37038C34.4818 8.17844 34.0468 7.85854 33.6885 7.41068C33.4454 7.09078 33.4454 6.86046 33.6885 6.7325L34.098 6.61733L34.2899 6.36141L34.034 5.37613C33.9572 4.86429 34.098 4.506 34.4435 4.30127C34.9425 4.22449 35.4288 4.37804 35.915 4.76192C35.9278 4.49321 36.1069 4.41643 36.4268 4.5188C36.7467 4.62117 37.0539 5.32494 37.3226 6.63013L37.7704 6.79648C37.924 6.43819 38.0391 6.25905 38.1287 6.25905C38.2694 6.25905 38.423 6.57895 38.5638 7.19315C38.9349 7.53864 39.114 8.08887 39.0884 8.85662C38.8453 9.17652 38.7173 9.5732 38.7045 10.0466L38.487 9.53481C38.359 8.97179 38.3079 8.37038 38.3207 7.74338C38.3079 7.48746 38.2823 7.48746 38.2439 7.74338C38.1927 8.2936 38.1799 8.75426 38.2183 9.13814C37.7192 8.47275 37.1818 7.88413 36.6188 7.3595C36.5036 6.93723 36.4652 6.47658 36.5036 5.93915C36.4524 5.49129 36.4013 5.38892 36.3629 5.63205C36.3245 6.19507 36.3501 6.7325 36.414 7.21875C35.9918 6.78368 35.4927 6.15668 34.9169 5.32494C34.7762 5.05623 34.6994 5.00505 34.725 5.1586C35.0705 5.83678 35.4416 6.3998 35.8254 6.86046C36.2093 7.30831 36.5292 7.6666 36.7595 7.93532C36.2733 7.78176 35.8638 7.69219 35.5183 7.64101C35.1729 7.58983 34.8529 7.50025 34.5458 7.3467C34.2771 7.29552 34.2771 7.3467 34.5714 7.55144C34.7378 7.6666 35.0833 7.76897 35.5823 7.85854C36.0941 7.96091 36.5676 8.11446 37.0027 8.34478C37.2458 8.49834 37.5657 8.88221 37.9751 9.50922L38.3078 10.277C37.796 9.99546 37.2202 9.79073 36.5932 9.67556C35.9662 9.5604 35.5951 9.45803 35.48 9.36846C35.0065 9.16372 34.9425 9.17652 35.3136 9.43244C35.416 9.54761 35.8126 9.67556 36.4908 9.81632C37.169 9.95708 37.8088 10.2258 38.4486 10.6225L38.4998 10.8016C38.3718 10.9552 38.3207 11.1599 38.359 11.4286L38.551 11.9916C38.3846 11.7869 38.1543 11.8765 37.86 12.2731C37.9751 12.03 37.9496 11.7997 37.7832 11.595C37.5273 11.1983 36.9003 10.776 35.9022 10.3154L35.7359 10.6225C34.9297 10.3665 34.4179 9.8675 34.2131 9.15093M40.9822 23.2265C40.7903 22.9322 40.5088 22.4843 40.1505 21.8829C39.7922 21.2815 39.5363 20.7952 39.3571 20.4114C39.1908 20.0275 39.1652 19.6436 39.2675 19.2469C39.3827 18.8503 39.4723 18.5432 39.5362 18.3384C39.613 18.1337 39.6002 18.0953 39.5107 18.2233C39.2931 18.6199 39.1268 19.0038 39.0372 19.3877L38.487 17.7754C38.5382 17.1356 38.8709 16.3167 39.4851 15.3058C39.6642 14.9603 39.6514 14.9347 39.4339 15.2162C38.8837 15.9712 38.5254 16.7389 38.359 17.5067L37.5017 15.5489C37.4889 15.1906 37.7064 14.5124 38.1671 13.5143C38.4102 12.9897 38.3462 13.0025 38.0008 13.5783C37.7065 14.1413 37.4889 14.666 37.361 15.165C37.105 14.0902 36.8491 13.1689 36.6188 12.4139L36.4268 12.3627L36.542 12.6698C36.6956 13.6167 36.9003 14.4357 37.1562 15.1394C36.8107 14.8195 36.4141 14.5508 35.9662 14.3461C35.7231 14.2053 35.7231 14.2437 35.9662 14.4357C36.5036 14.7556 36.9003 15.0755 37.1818 15.3954C37.3993 15.92 37.6041 16.4062 37.796 16.8413C37.4633 16.5982 36.9003 16.3167 36.1069 15.9968C35.8126 15.9328 35.8126 15.9712 36.1069 16.1119C37.105 16.5214 37.7192 16.9309 37.9624 17.3275L38.5126 18.8247C38.3079 18.8247 38.0391 18.5176 37.7064 17.8906C37.4249 17.3659 36.734 16.8541 35.6335 16.355C35.416 16.2527 35.3136 16.0607 35.3264 15.7536C35.3648 15.5489 35.5695 15.4593 35.9662 15.4977C35.851 15.1778 35.723 14.9219 35.5695 14.73L35.352 14.3845C35.0577 13.7575 35.224 13.4504 35.8766 13.4504C35.6463 13.0665 35.5567 12.785 35.6335 12.5674C35.6079 12.2092 35.6975 11.8637 35.8766 11.5182C35.9918 11.2879 36.0685 11.0703 36.1325 10.84C36.478 11.0447 36.7979 11.2239 37.0794 11.3646C37.361 11.5054 37.5145 11.7613 37.5401 12.1452L37.3993 13.0281C37.4505 13.1944 37.6041 13.1433 37.8472 12.8618C38.0903 12.5163 38.2823 12.3243 38.423 12.2731C38.6277 12.3627 38.8197 12.5419 39.0116 12.785C39.1908 13.1433 39.1268 13.8087 38.8197 14.7683L38.5126 15.5617C39.1396 14.7172 39.6514 14.3077 40.0353 14.3461C40.1633 14.4357 40.2017 14.6276 40.1633 14.9219C40.1121 15.2162 40.1121 15.5233 40.1633 15.8432C40.2145 16.1631 40.0993 16.4446 39.8434 16.6621C39.5875 16.8925 39.4083 17.2508 39.3187 17.7626C39.9073 17.3147 40.1505 17.3915 40.0353 18.0185L39.7026 19.2341C39.613 19.8227 39.7026 20.0915 39.9841 20.0531C40.2656 20.0147 40.432 20.0531 40.4959 20.1682C40.5599 20.2834 40.5727 20.4753 40.5343 20.7568C40.368 21.1535 40.2912 21.4094 40.3168 21.5374C40.3296 21.6654 40.3808 21.7677 40.4704 21.8445C40.5471 21.9341 40.7391 21.9085 41.0078 21.7933C41.2893 21.6654 41.4173 21.7549 41.4173 22.0492C41.4173 22.3435 41.4173 22.6251 41.4173 22.8938C41.4173 23.1625 41.5196 23.4312 41.686 23.6999C41.8139 23.8919 41.9803 24.007 42.185 24.071L42.4281 23.7639C42.0571 23.7895 41.8907 23.5336 41.9163 23.0345C41.9419 22.5227 41.9419 22.126 41.9035 21.8445C41.7628 21.4862 41.6092 21.2815 41.4556 21.2431C41.3149 21.2047 40.9694 20.2578 40.432 18.4152L41.0078 18.4408C41.43 20.0275 41.7756 20.8848 42.0315 21C42.2874 21.1279 42.4026 21.2687 42.3898 21.4222C42.3642 21.5758 42.4153 21.9213 42.5305 22.4587C42.8632 22.3691 43.0551 22.0492 43.1063 21.5246C43.1959 21.0384 43.0551 20.6545 42.6968 20.3858C42.313 20.1554 42.0827 19.9507 42.0315 19.7588C41.9163 19.4389 42.0315 19.2469 42.3898 19.1702C42.5945 19.055 42.1083 18.6071 40.9182 17.8138C40.304 17.3787 40.1249 16.9948 40.368 16.6494C40.4576 16.483 40.6367 16.483 40.8798 16.6621C41.123 16.8413 41.2893 16.8797 41.3661 16.7901C41.494 16.5214 41.3917 16.3423 41.0718 16.2399C40.7391 16.1375 40.5855 16.0223 40.5983 15.8816C40.5855 15.293 40.5983 14.8963 40.6239 14.6916C40.6623 14.4868 40.6495 14.2437 40.5727 13.9622C40.368 13.6551 39.9841 13.6807 39.4083 14.0134C39.5362 13.6935 39.5746 13.3864 39.5107 13.0793C39.4467 12.785 39.3059 12.4907 39.0756 12.1964L38.7941 11.3134C38.7173 11.0191 38.8837 10.8016 39.2931 10.6864C39.1652 10.0978 39.1652 9.67557 39.2931 9.43244C39.4211 9.16373 39.5107 8.94619 39.5746 8.77985C39.6258 8.6135 39.7922 8.58791 40.0737 8.72866C40.3552 8.85662 40.7903 9.35567 41.4045 10.2258C41.6988 9.8931 41.9931 10.0083 42.2618 10.5969C42.5945 11.1215 42.7224 11.7613 42.6457 12.4907C43.3238 12.1196 43.567 12.3755 43.3623 13.2584C43.6566 13.8854 43.8357 14.3717 43.8997 14.7172C43.9636 15.0627 43.8997 15.3954 43.7333 15.6897C43.567 15.9968 43.4774 16.2271 43.4902 16.3806C43.4902 16.5342 43.567 16.5342 43.6822 16.3678C43.7973 16.2015 44.0404 16.0607 44.4115 15.9456C44.6546 16.4702 44.757 16.8157 44.7186 16.9948C44.7186 17.1996 44.5907 17.4299 44.3475 17.673C44.1044 17.9161 43.9636 18.2105 43.9252 18.5432C43.9252 18.7095 44.002 18.7991 44.1684 18.7991L44.6674 18.6583C44.9234 18.6199 44.9361 18.8247 44.693 19.2853C44.4371 19.7716 44.2451 20.1938 44.13 20.5265C44.0148 20.872 43.9509 21.1407 43.9509 21.3455C43.9381 21.7805 43.8613 22.0364 43.7333 22.1132C43.7717 21.563 43.7589 20.9872 43.6949 20.3986C43.631 19.7972 43.5158 19.1318 43.3495 18.4024C43.503 18.2744 43.7078 17.8266 43.9637 17.0716C44.0916 16.6877 44.066 16.6493 43.8869 16.9309C43.6821 17.4939 43.4774 17.8394 43.2727 17.9801C43.0679 17.2764 42.8504 16.4318 42.6073 15.4337C42.8888 14.9603 43.0551 14.3589 43.1319 13.6423C43.1575 13.0409 43.1191 12.9897 43.0167 13.5016C42.9016 14.2181 42.7097 14.7683 42.4026 15.1778C42.1594 14.3845 41.9035 13.6423 41.622 12.9385C41.7116 12.5419 41.7499 12.0812 41.7372 11.5438C41.7116 11.0191 41.6732 10.9935 41.5964 11.4926C41.5964 11.8893 41.5452 12.2348 41.4556 12.5163L40.8415 10.9296L40.4576 10.0211C40.3296 9.71395 40.2784 9.71395 40.3168 10.0211L40.6751 11.2111C40.3936 10.8912 40.1377 10.6481 39.9073 10.5073C39.6642 10.3538 39.6258 10.3665 39.7666 10.5329C40.176 10.8912 40.5215 11.2751 40.8158 11.6973C41.059 12.2987 41.3021 12.9257 41.5324 13.5655C40.8286 12.9641 40.3424 12.6186 40.0609 12.5547C39.7154 12.4139 39.7154 12.4907 40.0609 12.7466C40.5599 13.0665 41.1486 13.6295 41.8395 14.4485C42.0571 15.1138 42.2746 15.7536 42.4793 16.3806C42.1339 16.1759 41.7116 15.7536 41.1997 15.1394C40.9822 14.9091 40.9694 14.9475 41.1741 15.2546C41.5836 15.8816 42.0443 16.419 42.5817 16.8925L43.004 18.6199C42.5817 18.1849 42.0315 17.737 41.3405 17.2892C41.0462 17.0972 41.0206 17.1356 41.2765 17.4043C41.8651 17.8394 42.4921 18.4792 43.1319 19.3237C43.311 19.8483 43.4006 20.8336 43.375 22.2412C43.3622 22.5995 43.0935 22.8682 42.5945 23.0345L42.4793 24.3909L41.7883 24.4165C41.4173 23.8919 41.1357 23.4824 40.9438 23.1881M41.8907 24.5572C42.0059 24.5189 42.249 24.5572 42.4921 24.5572C42.2362 25.9904 41.9419 27.5643 41.6988 28.5496L41.3149 28.3193C41.6476 26.9501 41.8267 25.4274 41.9035 24.5572M36.9771 32.6315C36.8747 32.5419 36.5676 32.286 36.0557 31.8509C35.5951 31.4287 35.4415 31.0576 35.6079 30.7121C35.4799 30.5457 35.3648 30.341 35.2624 30.1235C35.16 29.8932 35.1857 29.6756 35.3264 29.4581C35.4672 29.2406 35.8126 29.3429 36.3501 29.7524C36.4396 29.4325 36.4396 29.1382 36.3501 28.8439C36.2605 28.5624 36.1453 28.2809 36.0174 27.9994C35.7742 27.5515 35.5439 27.1548 35.3264 26.8349C35.1217 26.3999 35.0705 26.1567 35.1856 26.0928C35.3008 26.0416 35.4672 26.1056 35.7103 26.3231C36.1709 25.8112 36.478 25.6705 36.6188 25.888C36.7723 26.1056 36.8875 26.4638 36.9771 26.9757C37.0666 27.4875 37.0794 28.0121 37.0027 28.5624L36.8875 28.6775L37.0027 28.7927C37.0411 28.9079 37.0027 29.3301 36.8619 30.0723C36.8619 30.2258 36.9003 30.3794 37.0027 30.5202C36.9643 30.2898 36.9515 30.1235 36.9771 30.0083C36.9899 29.9187 37.0539 29.6884 37.1562 29.3429C37.2586 28.9846 37.3098 28.7927 37.3098 28.7543C37.3098 28.7031 37.3097 28.6647 37.169 28.6519C37.3353 28.6008 37.3609 28.5112 37.4121 28.4088C37.4505 28.3065 37.4633 28.2041 37.4377 28.1017C37.4121 27.9994 37.3865 27.705 37.3737 27.2188C37.3737 26.7198 37.3226 26.3487 37.233 26.0928C37.1434 25.8368 37.105 25.6449 37.0794 25.5041C37.0539 25.3634 36.9515 25.2866 36.7467 25.261C36.542 25.2482 36.2605 25.453 35.8894 25.888C36.0557 25.0819 36.2221 24.5317 36.4013 24.2629C36.5804 23.9814 36.7595 23.9046 36.9387 24.0198C37.1178 24.135 37.2458 24.2501 37.297 24.3909C37.3481 24.5189 37.4377 24.4933 37.5529 24.3141C37.6681 24.135 37.7576 24.071 37.8344 24.135C37.9112 24.1862 37.988 24.3013 38.0775 24.4677C38.1543 24.634 38.2183 24.826 38.2567 25.0051C38.295 25.197 38.3334 25.5297 38.3462 26.0416C38.3718 26.5406 38.3206 26.8733 38.1671 27.0397C38.0135 27.2188 37.9496 27.4235 37.9496 27.6667C37.9879 28.6519 38.0647 29.1382 38.1671 29.1254C38.2822 29.1254 38.4102 29.0358 38.5638 28.8951C38.7173 28.7543 38.8581 28.7031 38.9732 28.7415C39.0884 28.7799 39.1652 29.0486 39.178 29.5605C39.2036 30.0723 39.242 30.1235 39.3187 29.714C39.3955 29.3045 39.5234 29.0998 39.7282 29.0998C39.9329 29.0998 39.9713 29.65 39.8434 30.7377C39.1268 31.4031 38.6149 31.9533 38.295 32.3884C38.1799 31.9149 38.1799 31.5822 38.2823 31.4031C38.3846 31.2111 38.4742 31.0064 38.5638 30.7633C38.6534 30.5202 38.7173 30.3154 38.7685 30.1235C38.9092 29.6628 38.8837 29.6372 38.6789 30.0083C38.5638 30.2386 38.4742 30.4306 38.3846 30.5969C38.3078 30.7633 38.2055 30.9424 38.0903 31.1088C38.0519 30.8017 37.9367 30.2642 37.732 29.4965C37.5657 28.9718 37.5273 28.9718 37.5913 29.5221C37.732 30.4178 37.8472 31.2751 37.8984 32.1068C37.5913 31.7614 37.2714 31.467 36.9387 31.2239C36.6188 30.9808 36.3373 30.7121 36.0941 30.4306C35.8894 30.3026 35.851 30.3154 35.979 30.4818C36.1965 30.7889 36.5292 31.1344 36.9643 31.5438C37.3994 31.9533 37.6681 32.222 37.7576 32.35C37.8472 32.4779 37.9112 32.5931 37.924 32.6955C37.7576 32.9258 37.5657 33.1561 37.3482 33.3992C37.2202 33.3225 37.1434 33.1945 37.1306 33.0154C37.105 32.8362 37.0538 32.7083 36.9515 32.6187M27.0602 42.9834C27.2777 42.7275 27.5593 42.4844 27.9175 42.2796C29.4787 41.4863 30.5279 41.0256 31.0398 40.8977C31.1293 40.8593 31.2189 40.8977 31.2829 40.9872L31.5004 41.2687L31.1933 41.4735C31.0142 41.627 30.7838 41.691 30.5023 41.6654C30.2592 41.6526 29.9393 41.7294 29.5298 41.9085C29.1203 42.0877 28.9028 42.3436 28.8644 42.6635C28.7877 42.8938 28.6853 43.0346 28.5573 43.0858C28.1479 43.3161 27.7768 43.508 27.4441 43.6744L26.5868 43.6232L27.0346 42.9962L27.0602 42.9834ZM29.4019 43.9303H29.2611V43.8663C29.1587 43.9047 29.0692 43.9175 28.954 43.9559L28.0455 43.8279L29.018 43.3417L29.2611 43.8151C29.2611 43.8151 29.3507 43.7767 29.3891 43.764L29.2611 43.2905C29.1715 42.9706 29.2867 42.6763 29.5938 42.4844C29.8881 42.254 30.208 42.1389 30.5663 42.1773C30.7071 42.1901 30.7199 42.446 30.5919 42.9706C30.5023 43.1881 30.0929 43.5208 29.3891 43.8151V43.9431L29.4019 43.9303ZM25.3711 47.5771L25.2304 47.1165L24.4882 48.0762L23.874 48.4729C23.6053 48.716 23.311 48.8056 23.0167 48.7544L22.0442 48.2809L22.5432 48.025L22.684 48.1402C22.5944 48.4217 22.6968 48.3833 23.0167 48.025L23.874 47.1805C23.9252 46.6686 23.81 46.016 23.5157 45.2099C23.2214 44.4037 22.9911 43.9047 22.8504 43.7C22.812 43.5336 22.3897 43.4952 21.5835 43.5848C22.0698 43.3417 22.62 43.3289 23.2726 43.5336L23.938 43.8151L24.2963 43.6616L24.2451 43.6104L23.6309 43.3033L23.9636 43.3289L24.2451 43.5976L24.3347 43.636H24.3091L24.501 43.8279C25.4351 44.8644 25.9726 45.581 26.0877 45.9521C26.2029 46.3231 26.2157 46.6942 26.1261 47.0525C25.7678 47.526 25.5247 47.6923 25.3839 47.5644M31.9738 51.6463L32.281 51.6974L32.1658 51.8382L31.4492 52.0685C31.1293 52.35 30.771 52.542 30.336 52.6315L29.8625 52.542L29.7474 52.2093C29.8625 52.0429 30.0033 51.915 30.1824 51.8382C30.3488 51.7614 30.5791 51.6974 30.8606 51.6335L31.526 51.7486L31.9611 51.6335L31.9738 51.6463ZM30.963 51.4927C30.4639 51.4927 30.1568 51.8126 30.0289 51.8126H29.645C29.1076 51.096 28.6853 50.9297 28.3782 50.6098L27.073 49.4837C27.3161 49.343 27.828 49.4326 28.6213 49.6629L30.9758 51.4927H30.963ZM34.9169 45.581C35.4544 45.6322 35.851 45.6066 36.1325 45.517C36.6316 45.3123 37.6553 44.5317 39.2036 43.2009C40.7007 42.0493 41.9547 41.2432 42.9912 40.7953C43.3111 40.6034 43.3239 40.4754 43.0296 40.3858C42.748 40.2963 42.313 40.2579 41.75 40.2579C41.558 40.4114 41.5836 40.5394 41.8012 40.629C42.0571 40.6162 42.249 40.6289 42.3514 40.6801C41.1102 41.3455 40.0865 41.9981 39.2547 42.6635C39.3315 42.2284 39.3955 41.4863 39.4467 40.4242C39.4211 40.0787 39.3187 39.7844 39.114 39.5157C38.986 39.3238 39.1396 39.1574 39.6258 39.0039L39.9969 38.8887V39.5157L39.4851 39.3749L39.5491 39.6565C39.6642 39.8612 39.869 40.0019 40.1633 40.0787L41.6604 40.1683L42.3258 40.1427C43.1063 40.1683 43.4774 40.3602 43.4646 40.7185C43.439 41.0896 43.4646 41.4351 43.5542 41.755C43.6822 42.5611 44.002 43.3417 44.5011 44.0711C44.3859 44.4165 44.1428 44.8004 43.7845 45.2611L42.3514 46.2208C41.1102 47.1293 39.4339 48.3065 37.3098 49.7653C35.7998 49.8036 33.9828 49.6757 31.8587 49.3942C30.3232 49.1894 28.5701 48.7928 26.5739 48.2041L26.1261 48.089L26.3181 47.897C26.6252 47.4876 26.8043 47.2061 26.8299 47.0653C26.8555 46.9246 26.8043 46.6047 26.6891 46.1056C26.574 45.6066 26.3436 45.018 25.6526 44.3398V44.1734L26.0749 44.1222C27.2138 44.199 28.2374 44.3526 29.1331 44.5701C30.0289 44.8004 31.0909 45.0052 32.3321 45.1971C33.5349 45.4274 34.3923 45.5554 34.9425 45.6066M32.844 44.826C32.3705 44.7492 31.59 44.6085 30.5151 44.4038L31.4876 44.0583C31.9995 44.1734 32.2937 44.0583 32.3705 43.7256C32.4473 44.1222 32.6009 44.4933 32.844 44.826ZM38.6149 36.4703C38.2439 36.8797 38.1287 37.3148 38.2567 37.7755C37.7448 38.057 37.2458 38.4664 36.7595 39.0167C36.2733 39.5669 35.915 40.0275 35.6719 40.3986C35.416 40.7697 35.1601 41 34.8785 41.0768C34.5586 41.2304 34.2004 41.1536 33.7909 40.8465L33.6885 41.5503L31.8331 42.7147L30.9246 43.1114C31.0014 42.9194 31.0397 42.5995 31.0653 42.1517L31.398 41.8702C32.6648 41.192 33.407 40.565 33.6117 40.0019C33.8676 39.5285 34.1492 39.1446 34.4435 38.8247C34.7378 38.5176 34.9553 38.1337 35.0705 37.6731L35.0961 36.9949L35.0193 36.2911C35.3136 36.6238 35.5823 36.7006 35.8254 36.5215C36.2093 35.7793 36.6188 35.1011 37.0666 34.4741C37.5145 33.8471 37.9752 33.2457 38.4742 32.7083C38.9732 32.158 39.3955 31.6974 39.741 31.3135L39.7154 32.0173C38.615 33.412 37.9112 34.3717 37.6425 34.8836C36.7084 36.3423 36.0685 37.4939 35.7359 38.3385C35.5311 38.8119 35.2368 39.1958 34.8529 39.4773C34.5586 39.6309 34.3283 39.7844 34.1876 39.9636C34.0596 40.2067 34.1364 40.2707 34.4051 40.1683C34.5842 39.9764 34.789 39.8356 35.0193 39.746C35.4287 39.5413 36.2861 38.556 37.6169 36.803L37.5913 35.8049L37.8984 35.2674C37.8856 35.8177 37.924 36.112 38.0391 36.176C38.1543 36.2271 38.3078 36.0736 38.4998 35.7025C38.6917 35.3314 39.1652 34.3205 39.9202 32.6571C39.7538 33.1689 39.741 33.604 39.8945 33.9879C39.4467 34.3078 39.3315 34.858 39.5362 35.6257L38.6149 36.4831V36.4703ZM44.8338 30.1875C44.7698 30.6609 44.6162 31.0704 44.3731 31.4031C43.6182 32.286 43.2983 32.8234 43.4262 32.9898C43.631 33.3481 43.5926 33.7575 43.3111 34.2054C42.9016 34.7172 42.3642 35.2802 41.7116 35.9072C41.8907 36.2783 41.7627 36.5982 41.2893 36.8669C40.7519 37.174 40.1633 37.43 39.5235 37.6603C40.7135 36.739 41.4556 35.7409 41.7372 34.6916C42.121 34.3333 42.4665 34.0902 42.7608 33.9879C43.0168 33.8215 43.0679 33.7447 42.9016 33.7575C42.5689 33.8855 42.2234 34.0902 41.8523 34.3845C42.1978 33.668 42.4537 32.8874 42.5945 32.0557C43.3111 31.3391 43.7717 30.7761 43.9509 30.3538C44.2068 29.9571 44.2196 29.8676 43.9764 30.0979C43.6949 30.5713 43.2727 31.0704 42.7097 31.595C42.9656 30.7889 43.1959 29.8804 43.4006 28.8823C43.4902 28.2937 43.4646 28.1913 43.3239 28.5752L43.0424 29.5605C42.9144 29.1638 42.7736 28.8567 42.5945 28.6519L42.9528 29.842C42.876 30.3154 42.6969 30.9808 42.4281 31.8509C42.1722 31.096 41.8268 30.4178 41.4045 29.8036C41.0206 29.3173 40.9566 29.3045 41.2125 29.778C41.6348 30.405 41.9931 31.2239 42.2618 32.2476C42.0443 33.1561 41.7756 33.9111 41.4813 34.5125C41.2637 34.167 41.0334 33.9367 40.7903 33.8087C40.6111 33.7191 40.6111 33.7703 40.7903 33.9751C41.0334 34.2182 41.2253 34.4613 41.3661 34.7172C41.1485 35.2674 40.8542 35.7409 40.4959 36.1632C40.1377 36.5726 39.7794 36.9309 39.4339 37.2124C39.869 36.5086 40.0225 35.7409 39.869 34.8964C39.869 34.7428 39.9841 34.6276 40.2144 34.5253C40.4448 34.4357 40.5216 34.3205 40.4448 34.2182C40.2401 33.8087 40.1377 33.476 40.1377 33.2329C40.2912 33.1561 40.5088 33.1561 40.8031 33.2329C41.0462 33.0666 41.0206 32.8234 40.7391 32.5035C40.4576 32.1964 40.2784 31.7486 40.2017 31.16C40.2017 30.8273 40.4192 30.6993 40.867 30.7889C41.0718 30.7633 41.0846 30.5202 40.9182 30.0595L40.4448 29.4069C40.1121 28.6519 40.2528 28.3832 40.867 28.588L41.5836 29.0358C42.0699 29.2278 42.2874 28.8951 42.2746 28.0505C42.2746 27.8586 42.4153 27.8202 42.7097 27.9226C42.9912 28.0249 43.2599 27.8074 43.4902 27.2572C43.7333 26.9885 43.9125 27.2316 44.0404 27.9994C43.9765 28.9974 44.2196 29.4709 44.757 29.4197C44.8466 29.4837 44.8594 29.7396 44.8082 30.2131M45.6655 27.7434C45.6911 27.9354 45.6527 28.0889 45.5375 28.2169C45.4224 28.3448 45.2177 28.4472 44.8978 28.5368L44.6035 27.961C44.6163 27.5131 44.4755 27.078 44.1556 26.6558C44.2836 26.5406 44.4883 26.4255 44.7698 26.3103C44.9745 26.2079 44.9361 26.3103 44.6546 26.3615C44.3603 26.4127 44.13 26.707 43.9637 26.707H43.9125C44.0788 25.9904 44.3475 25.4018 44.7186 24.8643C44.8082 24.6212 44.757 24.5828 44.5523 24.8516C44.2324 25.3122 43.9637 25.7473 43.7205 26.2591C43.6054 26.1439 43.5158 25.9136 43.4646 25.6193C43.3878 25.261 43.3366 25.2354 43.2983 25.5809C43.3494 26.016 43.439 26.3231 43.5542 26.515C43.1447 27.1548 42.8248 27.4107 42.5817 27.2828C42.7224 26.3743 42.9144 25.4274 43.1575 24.4165C43.5798 23.9814 43.9509 23.8407 44.258 23.9942C44.7058 23.6359 45.0769 23.572 45.3968 23.7895C45.5632 24.071 45.6399 24.3525 45.6143 24.6212C45.5887 24.9027 45.4992 25.2098 45.3328 25.5425C45.6783 25.5425 45.8703 25.6833 45.8831 25.9648C45.7423 26.6046 45.448 27.0653 45.0001 27.3596C45.4096 27.4363 45.6271 27.5643 45.6527 27.7562" fill="white"/>
<path d="M6.91883 45.8369C6.91883 45.9008 6.98279 45.9008 7.05957 45.952C7.31549 46.1312 7.57141 46.0544 7.73775 45.7217C7.96808 45.389 7.89132 45.1331 7.6354 44.9539C7.5501 44.8772 7.46477 44.9027 7.37947 45.0307L6.91883 45.8241V45.8369ZM3.27198 43.3289C3.60468 43.572 3.79662 43.7511 4.1549 43.2777C4.33405 43.0217 4.30846 42.7018 4.11652 42.5739C4.05254 42.5099 3.92459 42.4587 3.92459 42.4587C3.86061 42.4587 3.8606 42.5227 3.79662 42.5355L3.27198 43.3289ZM8.51833 45.9776C8.56951 45.7217 8.62068 45.5298 8.42875 45.3378L8.47994 45.2738C8.6079 45.3378 8.74864 45.453 8.8638 45.5042C8.99176 45.5553 9.13253 45.6833 9.31167 45.7345L9.2477 45.7985C9.2477 45.7985 8.99176 45.6833 8.94057 45.8113C8.87659 45.9392 8.73585 46.5918 8.67187 46.7838L8.47994 47.8842L9.26047 47.206C9.37564 47.0781 9.8619 46.5918 9.91308 46.4639C10.0282 46.2719 9.90029 46.2079 9.83631 46.144V46.016C9.96427 46.144 10.0794 46.1951 10.1562 46.2591C10.2842 46.3231 10.4121 46.3743 10.4761 46.4383V46.5022C10.2202 46.3231 9.98985 46.6558 9.74673 46.8605L8.18562 48.3577L8.05765 48.3065L8.50552 45.9776H8.51833ZM6.50935 46.3743C6.44537 46.5022 6.27905 46.771 6.29184 46.8989C6.22786 47.0269 6.35579 47.0909 6.49655 47.206L6.43258 47.27C6.30462 47.1548 6.17665 47.0909 5.98472 46.9629C5.85676 46.9117 5.716 46.7966 5.58804 46.7326V46.6046C5.716 46.6686 5.84399 46.7838 5.89517 46.6558C6.01034 46.579 6.18948 46.3231 6.25346 46.1823L6.82925 45.1971C6.88044 45.0691 7.05959 44.8004 7.12357 44.7364C7.17476 44.5445 7.04679 44.4805 6.91883 44.4293L6.9828 44.3653C7.11076 44.4933 7.30272 44.5445 7.44347 44.6596C7.57143 44.7108 7.69939 44.8388 7.84014 44.8899C8.16004 45.0691 8.42877 45.4274 8.13446 45.9008C7.84016 46.4255 7.34111 46.3231 7.00841 46.0928C6.94443 46.0928 6.81644 45.9776 6.81644 45.9776L6.52216 46.3743H6.50935ZM5.1146 44.0966C5.16578 43.9559 5.34493 43.6999 5.39611 43.636C5.4473 43.444 5.31933 43.38 5.19137 43.3289L5.31934 43.2521L6.68852 44.135L6.343 44.6724L6.27904 44.6084C6.50936 44.2118 6.36862 44.0966 6.04872 43.8535L5.85675 43.7383C5.85675 43.7383 5.79279 43.6743 5.67763 43.8151L5.15299 44.6724C5.54966 44.9667 5.72883 44.7748 5.89517 44.5701H5.95914C5.84397 44.7748 5.7288 44.9027 5.66482 45.0307C5.54965 45.2354 5.4857 45.3634 5.37054 45.4914L5.30653 45.4274C5.53686 45.0307 5.40892 44.9155 5.08902 44.7364L4.73074 45.3378C4.67955 45.4658 4.55159 45.6065 4.56438 45.7217C4.56438 45.9136 4.70513 46.0416 4.83309 46.0928C5.15299 46.2719 5.34493 46.3231 5.63924 45.9904H5.7032L5.35773 46.579L3.79662 45.517L3.86058 45.453C3.92456 45.517 4.05252 45.5681 4.18048 45.5042C4.24446 45.4402 4.41081 45.1715 4.53877 45.0435L5.1146 44.1222V44.0966ZM3.60469 44.9795C3.60469 45.1715 3.60467 45.2354 3.74543 45.3634L3.69427 45.4274C3.61749 45.3634 3.55351 45.2994 3.48953 45.2354C3.42555 45.1715 3.29758 45.1843 3.2336 45.1203L3.28479 44.8004V43.7767C3.28479 43.6488 3.23785 43.5464 3.14401 43.4696L2.84973 43.8663C2.78575 43.9942 2.6194 44.263 2.56822 44.3909C2.56822 44.5189 2.64499 44.5829 2.76015 44.634L2.70896 44.698C2.581 44.6468 2.44025 44.5189 2.31229 44.4677C2.17153 44.3525 2.04356 44.2246 1.86442 44.1734L1.91562 44.1094C2.04357 44.1734 2.10755 44.2246 2.23551 44.1606C2.36347 44.0838 2.54261 43.8279 2.5938 43.6999L3.2336 42.7018C3.29758 42.6251 3.47673 42.3692 3.52792 42.2412C3.5791 42.1132 3.45112 42.0493 3.38714 41.9981V41.8701C3.57908 41.9853 3.70703 42.1132 3.89897 42.2284C4.02693 42.2796 4.1549 42.4075 4.23168 42.4587C4.55158 42.7019 4.8203 43.009 4.526 43.4696C4.23169 43.8791 3.91179 43.8919 3.60469 43.7127V44.9923V44.9795ZM21.5702 45.8241L21.0583 44.8388L20.9048 45.9008L21.583 45.8241H21.5702ZM13.5599 47.6923C13.6239 47.8202 13.6239 48.0122 13.6879 48.1273C13.7519 48.2553 13.8798 48.2425 13.995 48.2425C14.2381 48.1657 14.3533 47.9226 14.2893 47.6027C14.2893 47.3468 14.1613 47.2316 14.0334 47.1165C13.8414 47.0653 13.7263 47.1165 13.5983 47.1165H13.4832L13.5599 47.6795V47.6923ZM13.4703 46.9501H13.5343C13.6495 46.8733 13.7775 46.8733 13.8414 46.8093C13.9566 46.6814 13.9566 46.5022 13.9566 46.3103C13.8798 46.0032 13.7519 45.8752 13.5215 45.888C13.4576 45.952 13.3296 45.952 13.3296 45.952C13.3296 45.952 13.3296 46.08 13.3296 46.144L13.4832 46.9629L13.4703 46.9501ZM11.551 47.9994C11.551 48.1273 11.6149 48.3704 11.6789 48.4984C11.7429 48.6136 11.8709 48.6136 11.986 48.5496C12.2931 48.5496 12.4083 48.2937 12.3443 47.9098C12.2803 47.7179 12.2163 47.5387 12.0244 47.4747C11.9092 47.4235 11.7173 47.4236 11.5381 47.4875H11.4742L11.551 47.9866V47.9994ZM11.3974 47.3084L11.5254 47.2444C11.6533 47.2444 11.7685 47.2444 11.8325 47.1165C11.9476 46.9885 11.9476 46.8605 11.9476 46.6686C11.8709 46.3615 11.7429 46.1696 11.4486 46.2463C11.4486 46.2463 11.3206 46.2463 11.2566 46.3103V46.4383L11.4102 47.3084H11.3974ZM20.7896 46.2079C20.7896 46.3999 20.6873 46.707 20.7512 46.8349C20.7512 47.0269 20.9432 46.9629 21.0583 46.9501V47.0781C20.9432 47.0781 20.8152 47.0781 20.6873 47.0781C20.5721 47.142 20.4442 47.142 20.329 47.1548V47.0909C20.5081 47.0269 20.5721 46.9501 20.6233 46.7582C20.6745 46.4511 20.6617 46.1951 20.7257 45.9392L20.9944 44.2502H21.1095L22.082 46.1568C22.146 46.2847 22.2739 46.4639 22.3379 46.5918C22.4019 46.6558 22.5299 46.643 22.6451 46.643V46.771C22.5299 46.771 22.3379 46.771 22.2228 46.8477C22.0436 46.8477 21.8517 46.9245 21.7365 46.9245V46.8605C21.7877 46.7965 21.9796 46.7966 21.9029 46.6046C21.9029 46.5406 21.8389 46.4255 21.8389 46.3615L21.5702 45.9264L20.7768 46.08V46.2079H20.7896ZM19.638 44.6084H19.702L19.8555 45.4146H19.7915C19.6508 44.9795 19.3437 44.6852 18.9726 44.7492C18.3584 44.826 18.32 45.5809 18.3968 46.2079C18.5375 46.8349 18.7935 47.4491 19.4077 47.3724C19.83 47.2316 19.9451 46.8605 19.9323 46.3615L19.9963 46.2975L20.137 47.2316L20.0091 47.0525C19.83 47.3084 19.5868 47.3724 19.3437 47.4491C18.6783 47.5899 18.1025 47.1165 17.9617 46.2975C17.8722 45.4786 18.2304 44.7876 18.8958 44.7108C19.2029 44.6468 19.3949 44.7108 19.638 44.8132V44.6084ZM17.13 45.7985C17.13 45.6705 17.066 45.4274 17.0532 45.2994C16.9252 45.1715 16.8101 45.1843 16.7461 45.1843L16.6821 45.1331C16.8613 45.0691 17.0532 45.0563 17.1684 45.0563C17.3475 45.0563 17.5266 44.9795 17.6546 44.9795V45.0435C17.6546 45.0435 17.4755 45.1075 17.4115 45.2354C17.4115 45.3634 17.4115 45.6065 17.4883 45.7345L17.6418 46.9245C17.6418 47.0525 17.7186 47.3596 17.7698 47.4236C17.8338 47.5515 17.9617 47.5387 18.0769 47.5387V47.6667C17.8978 47.6667 17.7698 47.6667 17.5906 47.6667C17.4627 47.7307 17.2835 47.7435 17.1044 47.7435V47.6795C17.2324 47.6795 17.3475 47.6795 17.3475 47.4875C17.4115 47.3596 17.3475 47.1165 17.3475 46.9885L17.13 45.8113V45.7985ZM14.9931 46.2207C14.9931 46.0928 14.9163 45.7857 14.9163 45.6577C14.8523 45.5298 14.6732 45.5425 14.6092 45.6065L14.5452 45.4786C14.7371 45.4786 14.9163 45.4786 15.0443 45.4018C15.2234 45.4018 15.4153 45.4018 15.5433 45.325L15.6073 45.453C15.4793 45.453 15.3641 45.453 15.3002 45.5809C15.3002 45.7089 15.3769 46.016 15.3769 46.144L15.5305 47.3212C15.6073 47.8202 15.7352 47.9482 16.1575 47.8714C16.2727 47.8074 16.4646 47.8074 16.5798 47.6667C16.6949 47.5387 16.6949 47.3596 16.6949 47.1676L16.8101 47.1037L16.8869 47.8586C16.8869 47.8586 16.7717 47.8586 16.7077 47.8586C16.1575 47.9354 15.5433 48.0761 14.9931 48.1529V48.0889C15.121 48.025 15.2362 48.025 15.2362 47.897C15.2874 47.769 15.2234 47.4619 15.2234 47.334L15.0059 46.2207H14.9931ZM13.0353 46.579C13.0353 46.4511 12.9585 46.144 12.8945 46.08C12.8305 45.9648 12.7026 45.9648 12.5874 45.9648V45.9008C12.7666 45.8369 12.8945 45.8241 13.0865 45.8241C13.2017 45.8241 13.3296 45.7601 13.4448 45.7473C13.8159 45.6705 14.2381 45.7217 14.3149 46.2207C14.3789 46.5918 14.1357 46.7838 13.9054 46.9245C14.0973 46.9245 14.2765 46.9245 14.4045 47.0397C14.5836 47.1548 14.7243 47.3468 14.7883 47.5259C14.7883 47.8458 14.6732 48.0378 14.558 48.1657C14.3789 48.3577 14.1357 48.3577 13.9438 48.3704C13.8798 48.4344 13.7007 48.4344 13.5727 48.4472C13.3808 48.4472 13.2016 48.5112 13.0225 48.588V48.46C13.0225 48.46 13.2656 48.46 13.2656 48.2681C13.2656 48.1401 13.1888 47.8842 13.1888 47.769L13.0353 46.579ZM10.9624 46.9501C10.9624 46.8349 10.8856 46.515 10.8856 46.3871C10.8216 46.2591 10.6936 46.2719 10.5785 46.3359V46.2079C10.6936 46.2079 10.8856 46.2079 11.0007 46.1312C11.1927 46.1312 11.3078 46.1312 11.4358 46.0672C11.7429 46.0032 12.2419 46.0416 12.3059 46.6046C12.3827 46.9757 12.2036 47.1676 11.9604 47.2956C12.1524 47.2956 12.3315 47.2956 12.4467 47.3596C12.6386 47.4747 12.7666 47.6667 12.7666 47.9098C12.8306 48.1657 12.7154 48.3577 12.5362 48.5496C12.4211 48.6776 12.178 48.7415 11.986 48.7543C11.7941 48.7543 11.6789 48.7543 11.5638 48.8311C11.3078 48.8311 11.1927 48.9079 10.9495 48.9079V48.8439C11.0647 48.7799 11.1927 48.7671 11.2566 48.652C11.2566 48.524 11.1927 48.2169 11.1799 48.0889L10.9624 46.9629V46.9501ZM31.7813 47.2828L31.5894 46.1312L31.0903 47.1548L31.7813 47.2828ZM35.9528 46.9885C35.9528 46.8605 35.8888 46.5406 35.8888 46.4767C35.8248 46.2847 35.6969 46.3487 35.5817 46.3487V46.2207H36.0808C36.2088 46.2207 36.3879 46.1568 36.5798 46.1568V46.2847C36.4519 46.2847 36.3239 46.2847 36.2727 46.4127V46.9885L36.4007 48.1401C36.4007 48.2681 36.4007 48.588 36.4647 48.7159C36.5286 48.8439 36.6566 48.8439 36.7718 48.8439V48.9079H36.2727C36.0808 48.9719 35.9656 48.9719 35.7737 48.9719V48.9079C35.8376 48.9079 36.0296 48.9079 36.0296 48.7159C36.0808 48.588 36.0296 48.3321 36.0296 48.2041L35.9656 46.9885H35.9528ZM33.5088 46.7454C33.5088 46.6174 33.5728 46.2975 33.5728 46.1695C33.5088 46.0416 33.3808 45.9776 33.2657 45.9776L33.3296 45.9136C33.4576 45.9136 33.6368 45.9776 33.7647 45.9776C33.9567 46.0416 34.1358 46.0416 34.3149 46.0416L34.2638 46.1695C34.2638 46.1695 34.0079 46.1056 33.9567 46.2335C33.8927 46.3615 33.8927 46.6814 33.8287 46.8093L33.6495 48.025C33.5856 48.5368 33.6495 48.652 34.0206 48.7287C34.2126 48.7287 34.3917 48.7927 34.5197 48.7287C34.7756 48.6008 34.7756 48.4728 34.8396 48.2169H34.9675L34.7884 48.9847L34.6604 48.9207C34.0334 48.7927 33.4832 48.7287 32.8562 48.6008V48.5368C32.9714 48.5368 33.0993 48.5368 33.2273 48.4088C33.2273 48.3449 33.2913 48.025 33.3553 47.897L33.5344 46.7454H33.5088ZM30.9112 47.4108C30.8472 47.5387 30.7321 47.8586 30.6681 47.9866C30.6681 48.1785 30.8472 48.1785 30.9112 48.2425V48.3065C30.7833 48.3065 30.6681 48.2425 30.5401 48.2425C30.4122 48.2425 30.2842 48.1785 30.169 48.1785L30.233 48.1273C30.425 48.1273 30.4762 48.0633 30.6041 47.8586C30.7321 47.6027 30.8472 47.3468 30.9752 47.0909L31.7174 45.5553L31.8453 45.6193L32.2164 47.7946C32.2804 47.9226 32.2804 48.1785 32.3444 48.3065C32.4083 48.4344 32.4723 48.4344 32.5875 48.4984V48.5624C32.4595 48.5624 32.2804 48.4984 32.0884 48.4984C31.9605 48.4344 31.7813 48.4344 31.5894 48.4344L31.6534 48.3065C31.6534 48.3065 31.8965 48.3705 31.8965 48.2425V47.8586L31.8325 47.4108L30.9624 47.2828L30.8984 47.4108H30.9112ZM30.6681 46.0928L30.6041 46.0288C30.6681 45.6449 30.5401 45.517 30.233 45.453C30.0539 45.453 29.8619 45.389 29.8619 45.517L29.5549 47.5003C29.5549 47.8202 29.5548 47.8842 29.8619 48.0122V48.0761C29.6828 48.0761 29.4909 48.0122 29.3117 47.9482C29.1198 47.9482 28.9406 47.9482 28.7487 47.8842V47.8202C29.1198 47.8202 29.1838 47.7562 29.2478 47.4364L29.4909 45.453C29.4909 45.453 29.3629 45.325 29.2478 45.325C28.8767 45.261 28.7487 45.261 28.6847 45.7729L28.5568 45.7089L28.6847 45.0691L30.7961 45.453L30.6681 46.0928ZM27.5203 45.6705C27.5203 45.5425 27.5843 45.2866 27.5203 45.1587C27.5203 45.0307 27.3923 44.9667 27.2772 44.9667V44.8388C27.4563 44.9028 27.6482 44.9667 27.7762 44.9667C27.9553 44.9667 28.1473 45.0307 28.3265 45.0307L28.2625 45.0947C28.1985 45.0947 28.0065 45.0947 27.9554 45.2226C27.8914 45.3506 27.8914 45.6065 27.8274 45.7345L27.6994 46.9501C27.6355 47.0781 27.6355 47.398 27.6355 47.4619C27.6355 47.6539 27.7634 47.6539 27.8786 47.6539V47.7818C27.6994 47.7179 27.5715 47.7179 27.3795 47.6539C27.1876 47.6539 27.0724 47.6539 26.8933 47.5899V47.5259C27.0084 47.5259 27.1364 47.5259 27.2004 47.398C27.2644 47.334 27.3284 47.0141 27.3284 46.8861L27.5075 45.6705H27.5203ZM42.5172 43.7511L41.5958 43.1113L41.9669 44.199L42.5299 43.7511H42.5172ZM38.3329 46.8349L37.5267 46.0672L37.7187 47.1548L38.3329 46.8349ZM42.0181 44.4549C42.0181 44.6468 42.146 44.9667 42.21 45.0947C42.338 45.2227 42.4532 45.0947 42.5172 45.0307L42.5811 45.1587C42.5811 45.1587 42.402 45.2866 42.274 45.3506C42.21 45.4018 42.0821 45.4786 42.0181 45.6065L41.9541 45.4786C42.0821 45.3506 42.0821 45.2866 42.0821 45.0947C41.9541 44.7748 41.8902 44.5189 41.839 44.263L41.3399 42.5995L41.4039 42.5355L43.2081 43.8151C43.2081 43.8151 43.5152 44.071 43.5792 44.071C43.7072 44.135 43.8223 44.071 43.9503 44.007V44.135C43.8223 44.199 43.6944 44.263 43.5792 44.3909C43.4512 44.5189 43.3361 44.5828 43.2081 44.7108L43.1441 44.6468C43.2081 44.5829 43.3361 44.4549 43.2721 44.3269C43.2081 44.263 43.0802 44.199 43.0162 44.135L42.6451 43.8791L41.9541 44.3909L42.0181 44.4549ZM38.9087 44.9155C38.7295 44.8516 38.6016 44.8516 38.4736 44.9795L38.4096 44.8516C38.5248 44.7876 38.5888 44.7876 38.6528 44.6596C38.7167 44.6596 38.8447 44.5956 38.8959 44.5317L41.3271 45.3634L40.6362 44.4037C40.5082 44.2757 40.393 44.0198 40.2651 43.8919C40.0731 43.7639 40.0091 43.8279 39.83 43.8919L39.766 43.8279C39.8812 43.7639 40.0091 43.6999 40.1371 43.636C40.2011 43.508 40.2651 43.444 40.3802 43.38L40.4442 43.444C40.3802 43.572 40.2523 43.572 40.3162 43.7639C40.3802 43.8919 40.6233 44.2118 40.7513 44.3909L41.7494 45.7985L41.6854 45.8624C41.5702 45.8624 41.4423 45.7985 41.3143 45.7345L39.075 44.9667L39.8812 46.1184C39.9452 46.2463 40.1371 46.4383 40.2522 46.5662C40.3802 46.6302 40.4954 46.5662 40.6233 46.5022V46.5662C40.5594 46.6942 40.4442 46.7582 40.3162 46.8221C40.1883 46.8861 40.1371 46.9501 40.0091 47.0781L39.958 47.0141C40.0859 46.8861 40.1499 46.8221 40.0859 46.6302C40.0219 46.5022 39.894 46.3103 39.7788 46.1823L38.9087 44.9027V44.9155ZM37.7698 47.4747C37.7698 47.6027 37.8338 47.9226 37.885 48.1145C37.949 48.2425 38.1281 48.1785 38.1921 48.1145L38.2561 48.1785C38.1281 48.2425 38.077 48.3065 37.949 48.3704C37.821 48.4344 37.7059 48.4984 37.6419 48.5624L37.5779 48.4984C37.7059 48.3704 37.7698 48.3065 37.7059 48.0506C37.7059 47.7946 37.6419 47.4747 37.5779 47.2188L37.2708 45.4914H37.3988L39.011 46.9629C39.011 46.9629 39.267 47.2188 39.3821 47.2828C39.5101 47.3468 39.638 47.2828 39.6892 47.2828L39.7532 47.3468C39.6253 47.4108 39.4461 47.4747 39.3182 47.6027C39.1902 47.6667 39.0111 47.7306 38.8831 47.8586L38.8191 47.7307C38.9471 47.7307 39.075 47.6027 39.011 47.4747C38.9471 47.4108 38.8831 47.2828 38.7551 47.2188L38.448 46.9629L37.7059 47.3468L37.7698 47.4747Z" fill="white"/>
<path d="M6.11299 29.3421C5.94664 28.8302 5.75469 28.216 5.70351 28.0113L5.66512 27.8833L7.09826 27.0516C6.94471 26.3094 6.84234 25.6313 6.77836 25.0043L5.17887 24.6588V24.5308C5.16607 24.1853 5.16607 22.7394 5.17887 22.3811V22.2531L6.79117 21.9204C6.84235 21.2678 6.94471 20.6025 7.09826 19.8731L6.30492 19.4252L6.84236 19.3612L7.45654 19.7195L7.43097 19.8347C7.25182 20.628 7.14944 21.3702 7.09826 22.074V22.2019L5.49877 22.5346C5.49877 22.9697 5.49877 23.9678 5.49877 24.4028L7.09826 24.7355V24.8635C7.16224 25.5417 7.27743 26.2711 7.44377 27.1028L7.46935 27.218L6.06179 28.0369C6.12577 28.2544 6.24095 28.6255 6.35611 28.971L6.13856 29.3293L6.11299 29.3421ZM8.95369 34.115C9.09444 34.3069 9.2224 34.486 9.31197 34.614L10.7835 33.923L10.8603 34.0126C11.3209 34.5372 11.8328 35.0619 12.4342 35.6121L12.5238 35.6889L11.8584 37.1988C12.191 37.4675 12.9844 38.0433 13.3299 38.2992L14.5199 37.1732L14.6223 37.2372C15.2621 37.6211 15.9275 37.9665 16.6057 38.2608L16.7208 38.312L16.5417 39.9627C16.9511 40.1035 17.8725 40.4106 18.2819 40.5385L19.0753 39.0926L19.1904 39.1182C19.9454 39.2973 20.6876 39.4125 21.3785 39.4637H21.4937L21.8264 41.1143C22.0311 41.1143 22.3638 41.1143 22.7477 41.1143C23.1316 41.1143 23.4515 41.1143 23.6562 41.1143L23.9633 39.5021H24.0785C24.8718 39.4125 25.5884 39.2973 26.2666 39.131L26.3818 39.1054L27.1879 40.5513C27.5974 40.4234 28.5315 40.1163 28.9282 39.9755L28.749 38.3248L28.8514 38.2736C29.5423 37.9665 30.2077 37.6211 30.8219 37.2372L30.9243 37.1732L32.1272 38.2992C32.4726 38.0561 33.266 37.4675 33.5987 37.1988L32.9205 35.6889L33.01 35.6121C33.6115 35.0747 34.1361 34.55 34.584 33.9998L34.6607 33.9102L36.1451 34.6012C36.401 34.2685 36.9768 33.4496 37.2071 33.0913L36.1067 31.8757L36.1706 31.7733C36.5417 31.1335 36.8872 30.4425 37.1687 29.7516L37.2199 29.6364L38.8322 29.8155C38.973 29.3933 39.2801 28.4464 39.3952 28.0497L37.9877 27.2308L38.0133 27.1156C38.1924 26.3094 38.2948 25.5801 38.3588 24.8763V24.7611L39.971 24.4284C39.9838 23.9934 39.9838 22.9953 39.971 22.5602L38.3715 22.2403V22.1124C38.2948 21.319 38.1796 20.5641 38.0133 19.8731L37.9877 19.7579L39.3952 18.939C39.2801 18.5167 38.973 17.557 38.845 17.1603L37.2199 17.3651L37.1687 17.2499C36.9 16.5717 36.5545 15.8808 36.1706 15.2154L36.1067 15.113L37.2071 13.8846C36.964 13.5135 36.3882 12.6946 36.1323 12.3619L34.6735 13.0656L34.5968 12.9761C34.1105 12.4003 33.5987 11.8756 33.0229 11.3638L32.9333 11.287L33.5987 9.77709C33.266 9.50837 32.4726 8.90696 32.1143 8.67663L30.9371 9.80267L30.8348 9.7387C30.195 9.35482 29.5295 9.00933 28.8514 8.71502L28.749 8.67663L28.9282 7.02596C28.5443 6.87241 27.5974 6.5653 27.1879 6.45014L26.3946 7.89608L26.2794 7.87049C25.5372 7.69135 24.8206 7.57618 24.0913 7.5122H23.9761L23.6434 5.88712C23.4515 5.88712 23.106 5.87432 22.7349 5.87432C22.3638 5.87432 22.0183 5.87432 21.8264 5.88712L21.5065 7.49941H21.3913C20.6108 7.57618 19.8814 7.70414 19.2032 7.87049L19.0881 7.89608L18.2691 6.45014C17.8725 6.5781 16.9383 6.8852 16.5417 7.02596L16.7208 8.67663L16.6057 8.72781C15.9403 9.00933 15.2749 9.35482 14.6351 9.75149L14.5327 9.81547L13.3299 8.68943C13.1636 8.80459 12.8821 9.00933 12.6133 9.21406L12.6645 8.76621C12.9204 8.57427 13.1508 8.40792 13.2531 8.34394L13.3555 8.27996L14.5711 9.406C15.1597 9.04772 15.7611 8.74061 16.3753 8.4719L16.1962 6.82122L16.3114 6.77004C16.644 6.62928 17.9748 6.19422 18.3075 6.10465L18.4227 6.06626L19.2416 7.525C19.8558 7.37145 20.534 7.25629 21.2378 7.19231L21.5577 5.56722H21.9416C22.1719 5.56722 22.4534 5.56722 22.7093 5.56722C23.0932 5.56722 23.5667 5.56722 23.7586 5.59281H23.8738L24.2065 7.23069C24.8719 7.29467 25.5244 7.39704 26.2026 7.56338L26.996 6.10465L27.1111 6.13024C27.4694 6.21981 28.813 6.65487 29.1201 6.80842L29.2353 6.84681L29.0561 8.49749C29.6703 8.76621 30.2717 9.08611 30.8603 9.4316L32.0503 8.30555L32.1527 8.36953C32.4598 8.56147 33.5987 9.4188 33.8674 9.64912L33.957 9.7259L33.2916 11.2486C33.8034 11.7093 34.2769 12.1955 34.7247 12.7202L36.1963 12.0164L36.273 12.1059C36.5034 12.3747 37.3351 13.5519 37.527 13.859L37.591 13.9614L36.4905 15.1898C36.836 15.804 37.1559 16.4182 37.4118 17.0452L39.037 16.8404L39.0881 16.9556C39.2161 17.2883 39.6383 18.6447 39.7279 19.0158L39.7535 19.1309L38.3332 19.9627C38.4867 20.5897 38.5891 21.2806 38.6531 22.01L40.2526 22.3299V22.4579C40.2781 22.8162 40.2781 24.2621 40.2526 24.6204V24.7483L38.6403 25.0938C38.5763 25.7464 38.4867 26.4118 38.3332 27.1412L39.7407 27.9729L39.7151 28.0881C39.6384 28.4464 39.1905 29.8283 39.0753 30.1354L39.037 30.2634L37.3991 30.0842C37.1304 30.7112 36.8233 31.3382 36.4778 31.9269L37.5782 33.1553L37.5142 33.2576C37.3223 33.5519 36.5034 34.7164 36.2858 34.9979L36.209 35.1003L34.7247 34.4093C34.3025 34.9083 33.829 35.3818 33.2916 35.8808L33.9825 37.4035L33.8802 37.4803C33.5987 37.6978 32.4726 38.5552 32.1783 38.7471L32.076 38.8111L30.8603 37.685C30.2973 38.0305 29.6959 38.3504 29.0561 38.6319L29.2353 40.2954L29.1201 40.3466C28.8002 40.4746 27.4694 40.9096 27.1111 41.012L26.996 41.0504L26.1898 39.5916C25.5628 39.7324 24.9102 39.8475 24.1937 39.9243L23.8738 41.5494H23.7458C23.5539 41.5494 23.0804 41.5622 22.6965 41.5622C22.3126 41.5622 21.8392 41.5622 21.6345 41.5622H21.5065L21.1738 39.9115C20.5468 39.8475 19.8686 39.7452 19.1776 39.5916L18.3715 41.0504L18.2563 41.012C17.9236 40.9096 16.5929 40.4746 16.2474 40.3466L16.1322 40.3082L16.3242 38.6447C15.71 38.376 15.0957 38.0561 14.5071 37.7106L13.3043 38.8367L13.2019 38.7727C12.9076 38.5807 11.7688 37.7362 11.5001 37.5187L11.4105 37.4419L12.0887 35.9064C11.5513 35.4074 11.0778 34.9339 10.6555 34.4477L9.17124 35.1386L9.09446 35.0363C9.01769 34.9339 8.87691 34.742 8.71056 34.4988L8.9153 34.2301L8.95369 34.115Z" fill="white"/>
<path d="M22.6965 36.7138C20.8155 36.7138 18.9984 36.3043 17.2966 35.4982L17.0662 35.383L22.7221 28.1021L28.2499 35.4342L28.0196 35.5366C26.3689 36.2915 24.5263 36.701 22.7093 36.701M17.6932 35.2423C19.2799 35.9461 20.9562 36.3171 22.6965 36.3171C24.4367 36.3171 26.0746 35.9716 27.6101 35.2935L22.7093 28.7803L17.6932 35.2551V35.2423ZM32.0375 32.6703L27.0215 24.9288L35.5436 21.8193L35.5692 22.0753C35.9786 25.8757 34.7502 29.6761 32.2166 32.4912L32.0503 32.6831L32.0375 32.6703ZM27.6229 25.1207L32.0759 32.0049C34.3664 29.3561 35.4924 25.8757 35.1853 22.3568L27.6101 25.1207H27.6229ZM13.3042 32.5551L13.1379 32.3632C10.6299 29.5097 9.45268 25.7093 9.88774 21.9089L9.91332 21.653L18.4226 24.9032L13.3042 32.5551ZM10.2588 22.216C9.91331 25.7221 11.0138 29.2282 13.2659 31.9025L17.8212 25.1079L10.2588 22.2288V22.216ZM25.3836 19.7464L25.1277 10.4821L25.3708 10.5333C29.0432 11.3267 32.191 13.6939 34.0081 17.0337L34.1233 17.2512L25.3836 19.7464ZM25.5372 10.9812L25.7675 19.209L33.5346 16.9953C31.7944 13.9498 28.9025 11.7745 25.5372 10.9684M20.0733 19.7336L11.3977 17.1104L11.5256 16.8929C13.3938 13.566 16.5672 11.2371 20.214 10.5077L20.4572 10.4565L20.0733 19.7336ZM11.9863 16.8801L19.6894 19.209L20.0349 10.9556C16.6824 11.6977 13.7649 13.8475 11.9863 16.8673" fill="white"/>
<path d="M22.709 11.4536L19.9835 19.4254L19.9451 19.5534H19.8172L11.551 19.7581L18.1153 24.8765L18.2177 24.9533L18.1793 25.0812L15.8121 33.2067L22.5939 28.3954L22.6962 28.3186L22.8114 28.3954L29.6189 33.2067L27.2516 25.1068L27.2132 24.9789L27.3156 24.9021L33.8799 19.7581L25.6265 19.5662H25.4986L25.4602 19.4382L22.709 11.4536ZM19.6764 19.1823L22.5427 10.8138L22.7219 10.3019L22.901 10.8138L25.7929 19.1951L34.4429 19.3998H34.9804L34.5581 19.7453L27.6739 25.1452L30.3098 34.1664L22.7346 28.8176L15.1723 34.1664L15.3258 33.6417L17.8082 25.1196L10.924 19.7453L10.5017 19.4126H11.0392L19.702 19.1823H19.6764Z" fill="white"/>
</svg>
